<svg xmlns="http://www.w3.org/2000/svg" viewBox="0 0 153.11 39.14"><defs><style>.cls-1{isolation:isolate;}.cls-2{mix-blend-mode:multiply;opacity:0.1;}.cls-3{fill:#fa993b;}.cls-4{fill:#fff;}</style></defs><g class="cls-1"><g id="レイヤー_2" data-name="レイヤー 2"><g id="レイヤー_1-2" data-name="レイヤー 1"><g class="cls-2"><rect y="4" width="153.11" height="35.14" rx="6"/></g><rect class="cls-3" width="153.11" height="35.14" rx="6"/><path class="cls-4" d="M41.35,15.86,30.07,8.78A1.42,1.42,0,0,0,29,8.19c-2.26,0-2.86,6.3-2.86,9.63s.6,9.62,2.86,9.62a1.41,1.41,0,0,0,1.08-.58l11.29-7.09a2.35,2.35,0,0,0,1.24-1.95,2.37,2.37,0,0,0-1.24-2M29.35,26c-.14.22-.27.33-.37.33a.19.19,0,0,1-.1,0c-.57-.34-1.64-3.21-1.64-8.47s1.07-8.13,1.63-8.48h0a.19.19,0,0,1,.1,0c.1,0,.24.11.38.34a12.14,12.14,0,0,1,1.18,4.59A4.29,4.29,0,0,0,28,17.5a4.06,4.06,0,0,0,2.22,3.65.76.76,0,0,0,.33.11A12.26,12.26,0,0,1,29.35,26m1.32-6.21c-1.71-1.23-1.49-2.89,0-4,0,.62,0,1.29,0,2s0,1.35,0,2m10.09-1L31,25a27.65,27.65,0,0,0,.86-7.15c0-.85,0-1.88-.13-3h0a.66.66,0,0,1,0-.14h0a21.22,21.22,0,0,0-.71-4l9.78,6.15a1.25,1.25,0,0,1,.71,1,1.28,1.28,0,0,1-.71,1"/><polygon class="cls-4" points="24.64 13.96 21.08 11.36 18.03 13.54 13.97 8.03 19.08 11.87 19.92 10.51 19.9 10.5 20.97 8.83 22.11 10.42 22.21 10.56 24.64 13.96"/><polygon class="cls-4" points="24.57 18.05 20.18 17.63 18.67 21.06 12.36 18.39 18.72 19.09 18.75 17.5 18.73 17.49 18.8 15.51 20.59 16.3 20.74 16.37 24.57 18.05"/><polygon class="cls-4" points="24.64 21.63 20.95 24.04 21.91 27.66 15.32 29.51 20.71 26.09 19.75 24.82 19.73 24.83 18.54 23.24 20.43 22.74 20.59 22.7 24.64 21.63"/><path class="cls-4" d="M57.61,18.1c-.88.74-1.27,1.33-1.27,1.93,0,.91,1,1.31,3.39,1.31a14.41,14.41,0,0,0,4.4-.61l.15,1.92-.61.06a22.92,22.92,0,0,1-3.79.32,10,10,0,0,1-3.5-.46,2.43,2.43,0,0,1-1.79-2.34c0-1.08.55-2,1.81-3.05Zm-2.12-5.76a17.85,17.85,0,0,0,4.2.35,17.93,17.93,0,0,0,3.7-.26l0,1.58a25.06,25.06,0,0,0-3.74,2.31l-1.22-1c.89-.56,1-.66,1.39-.86l.36-.22a2.71,2.71,0,0,0,.31-.17,15.56,15.56,0,0,1-2.1.11,21.58,21.58,0,0,1-2.56-.17l-.32,0h-.2Zm7.39,3.11a8.79,8.79,0,0,1,1.47,2.06l-1,.52a9.56,9.56,0,0,0-1.47-2.09Zm2.17,1.7a10.1,10.1,0,0,0-1.43-2l.94-.49a7.88,7.88,0,0,1,1.46,2Z"/><path class="cls-4" d="M69.81,22.53a11.3,11.3,0,0,0,.08,1.52H68.27a10,10,0,0,0,.08-1.52V19.12a13.77,13.77,0,0,1-1.5,1.31,5.47,5.47,0,0,0-.66-1.54,10.19,10.19,0,0,0,2.11-1.8,9.94,9.94,0,0,0,1.56-2.34h-2a11.07,11.07,0,0,0-1.15.06V13.28a8.43,8.43,0,0,0,1.06.06h.61V12.13a7.79,7.79,0,0,0-.07-1.07h1.62a8.68,8.68,0,0,0-.07,1.09v1.19h.55a4.94,4.94,0,0,0,.71,0l.65.77a3,3,0,0,0-.33.64A13.7,13.7,0,0,1,70.12,17a7.18,7.18,0,0,0,1.73,1.45,5.42,5.42,0,0,0-.61,1.48,11.19,11.19,0,0,1-1.43-1.38Zm3.49-3.21c-.52,0-.89,0-1.33,0,0-.4,0-.91,0-1.41V13c0-.73,0-1,0-1.42a9.84,9.84,0,0,0,1.35.06h4.09a10.25,10.25,0,0,0,1.35-.06A12.37,12.37,0,0,0,78.7,13v5c0,.64,0,.92.06,1.41-.34,0-1,0-1.33,0H77v2.94c0,.18.11.23.6.23s.57,0,.64-.34a11.22,11.22,0,0,0,.1-1.61,4.82,4.82,0,0,0,1.28.56,4.73,4.73,0,0,1-.46,2.37c-.24.29-.73.4-1.81.4-1.49,0-1.81-.17-1.81-.94V19.32h-.71a5.38,5.38,0,0,1-.68,2.41,5.5,5.5,0,0,1-2.8,2.35,5.73,5.73,0,0,0-1-1.3A4.75,4.75,0,0,0,72.88,21a4.31,4.31,0,0,0,.5-1.65Zm.15-5.55h3.78v-.92H73.45Zm0,2.1h3.78V15H73.45Zm0,2.2h3.78v-1H73.45Z"/><path class="cls-4" d="M89.2,18.44a13.22,13.22,0,0,1,1.72,1.27l-.93,1a9.09,9.09,0,0,0-1.29-1.18,7.09,7.09,0,0,0,0,.9v1.72c0,.26.1.3.8.3s.84,0,.91-1.52a2.77,2.77,0,0,0,1.32.45c-.11,1.38-.25,1.87-.63,2.15s-.73.26-2,.26a3,3,0,0,1-1.41-.19c-.31-.14-.41-.35-.41-.86V20.5a5.75,5.75,0,0,0-.07-1.08h1.33c-.24-.18-.35-.25-.73-.49l.66-.49H86.82c-.5,0-.94,0-1.32,0a7.77,7.77,0,0,0,0-.91V15.3a8.2,8.2,0,0,0,0-.94c.4,0,.8,0,1.39,0h1.67v-.85H86.75a8.11,8.11,0,0,0-1.41.07v-.7l-.5,0v9.4a7.2,7.2,0,0,0,1-2.93l1.26.46a10.08,10.08,0,0,1-1.15,3.42l-1.07-.63A7.81,7.81,0,0,0,84.93,24h-1.5a10.35,10.35,0,0,0,.07-1.5V21.45c-.71.22-1.37.42-2.31.66a3.22,3.22,0,0,0-.49.17l-.32-1.52a5.46,5.46,0,0,0,.78-.11V12.89a4.65,4.65,0,0,0-.64.06V11.46a7.94,7.94,0,0,0,1.17.07h2.47a6.09,6.09,0,0,0,1.2-.07v.73a14.09,14.09,0,0,0,1.46.07h1.74a8.9,8.9,0,0,0-.07-1.16h1.58A9.37,9.37,0,0,0,90,12.26h2.1a9.21,9.21,0,0,0,1.39-.07v1.43a8.68,8.68,0,0,0-1.4-.07H90v.85h1.74a12.38,12.38,0,0,0,1.34-.05,6.71,6.71,0,0,0,0,1v2.24a5.78,5.78,0,0,0,0,.94c-.45,0-.84,0-1.43,0ZM82.51,14.5h1V12.89h-1Zm0,2.76h1V15.75h-1Zm0,3.1c.43-.12.58-.14,1-.27V18.51h-1Zm4.31-3.11h.92V15.59h-.92Zm2,0h.86V15.59h-.86Zm2,0h.87V15.59h-.87Zm1.47,2.08a16.2,16.2,0,0,1,1.4,3.17l-1.26.71a12.3,12.3,0,0,0-1.37-3.32Z"/><path class="cls-4" d="M98.44,16.74a1.56,1.56,0,0,1-.06.21s0,.1,0,.24A14.79,14.79,0,0,1,96,22.63a5.46,5.46,0,0,0-1.62-.9,11.38,11.38,0,0,0,2.37-5.41Zm6.33-3a9.31,9.31,0,0,0-1.22-2.21l1-.37a8.91,8.91,0,0,1,1.24,2.21l-1,.37a9,9,0,0,0,1.75-.1v1.72a13,13,0,0,0-1.78-.07H101.6v6.8a11.82,11.82,0,0,0,.07,1.57h-1.9a10.12,10.12,0,0,0,.08-1.59V15.31H96.74a12.82,12.82,0,0,0-1.76.07V13.66a9.21,9.21,0,0,0,1.79.1h3.08V13a7.67,7.67,0,0,0-.08-1.45h1.89a11.55,11.55,0,0,0-.06,1.5v.74Zm-.11,2.56a15.19,15.19,0,0,0,2.48,5.34,9.6,9.6,0,0,0-1.61,1,18.81,18.81,0,0,1-2.3-5.24,4.49,4.49,0,0,0-.22-.66Zm2-3.12A10.2,10.2,0,0,0,105.44,11l1-.37a8.65,8.65,0,0,1,1.23,2.13Z"/><path class="cls-4" d="M119.35,13.77a2.37,2.37,0,0,0-.44.94,23.83,23.83,0,0,1-1.79,3.85,13.66,13.66,0,0,1-6.39,5.35,4.57,4.57,0,0,0-1.16-1.44,14.11,14.11,0,0,0,2.73-1.4,10.27,10.27,0,0,0,2.3-1.95,15.64,15.64,0,0,0-2.87-2l1.06-1.25a18.45,18.45,0,0,1,2.82,1.88,13.52,13.52,0,0,0,1.56-3.31l-4.35.05a14.62,14.62,0,0,1-3.28,3.76,4.51,4.51,0,0,0-1.4-1.12,11.88,11.88,0,0,0,3.51-4,8.7,8.7,0,0,0,.82-1.94l1.82.4a5.23,5.23,0,0,0-.42.79c-.17.37-.27.54-.34.67.23,0,.23,0,3.64-.06a3.52,3.52,0,0,0,1.24-.17Z"/><path class="cls-4" d="M121.19,21.21a13.33,13.33,0,0,0,4.14-1,9.26,9.26,0,0,0,4.16-3.43,11.33,11.33,0,0,0,1.43-2.8,5.91,5.91,0,0,0,1.49,1.37A12.22,12.22,0,0,1,128,20.8a15.17,15.17,0,0,1-5.34,2.11,5,5,0,0,0-.92.23Zm1.19-8.7A19.56,19.56,0,0,1,126,15.22l-1.2,1.52a14.78,14.78,0,0,0-3.57-2.84Z"/></g></g></g></svg>