<svg xmlns="http://www.w3.org/2000/svg" viewBox="0 0 134.42 38.85"><defs><style>.cls-1{fill:#ff3500;}</style></defs><g id="レイヤー_2" data-name="レイヤー 2"><g id="レイヤー_1-2" data-name="レイヤー 1"><path class="cls-1" d="M10.8,17.14l5.07-5.07c1.46-1.46,2.92-2.93,4.4-4.37a3.09,3.09,0,0,1,5.09,3.2,4.07,4.07,0,0,1-.88,1.37C23.28,13.52,22,14.73,20.81,16c-.14.14-.28.27-.46.46a3.27,3.27,0,0,1,1.46,3.93A3.23,3.23,0,0,1,23.62,24a.49.49,0,0,0,.17.33c1.71,1.66,1.85,3.3.35,5.26A28.29,28.29,0,0,1,21.93,32c-1.35,1.38-2.69,2.77-4.11,4.08A10.67,10.67,0,0,1,1,23.73c1.25-2.68,2.56-5.33,3.88-8a3.08,3.08,0,0,1,3.39-1.57,3,3,0,0,1,2.47,2.6C10.73,16.86,10.75,16.93,10.8,17.14Zm4.08-1.42,0,0-.54.55-6.07,6c-.29.29-.61.45-1,.2a.72.72,0,0,1-.21-1c.53-1.12,1-2.25,1.59-3.36a1.36,1.36,0,0,0-.41-1.9,1.35,1.35,0,0,0-1.84.64,3.13,3.13,0,0,0-.15.32C5.09,19.52,4,21.9,2.79,24.27A8.84,8.84,0,0,0,4.87,34.79a8.49,8.49,0,0,0,10.8.55,76.27,76.27,0,0,0,6.75-6.59,4.38,4.38,0,0,0,.82-1.61,1,1,0,0,0-.53-1.25,1,1,0,0,0-1.28.31c-.58.55-1.14,1.14-1.71,1.7-.41.41-.9.47-1.2.17s-.27-.78.15-1.2l2.66-2.6a1.3,1.3,0,0,0,.14-1.89,1.36,1.36,0,0,0-2,0c-.74.72-1.47,1.47-2.2,2.21a.79.79,0,0,1-1.14.15c-.34-.3-.31-.72.09-1.12,1.12-1.14,2.25-2.26,3.37-3.4a1.3,1.3,0,0,0,.13-1.89,1.39,1.39,0,0,0-2,.07l-2.85,2.83c-.43.42-.89.49-1.2.19s-.29-.74.15-1.19l5.19-5.16,4.14-4.13a1.15,1.15,0,0,0,.38-1.38,1.91,1.91,0,0,0-.92-.81c-.5-.2-.93.12-1.3.49Z"/><path class="cls-1" d="M16.11,5.11c-.3-.31-.62-.6-.91-.92a.86.86,0,0,1,0-1.22.83.83,0,0,1,1.22,0c.64.6,1.27,1.23,1.88,1.87a.85.85,0,0,1,0,1.22A.86.86,0,0,1,17,6C16.72,5.73,16.42,5.41,16.11,5.11Z"/><path class="cls-1" d="M28.54,5.11c-.29.29-.58.6-.88.88A.86.86,0,0,1,26.4,6a.85.85,0,0,1,0-1.26C27,4.17,27.6,3.57,28.22,3a.85.85,0,0,1,1.26,0,.88.88,0,0,1-.07,1.27C29.13,4.54,28.83,4.82,28.54,5.11Z"/><path class="cls-1" d="M27.32,16.32c-.3-.31-.62-.61-.91-.92a.85.85,0,0,1,0-1.22.83.83,0,0,1,1.22,0c.64.61,1.27,1.24,1.88,1.88a.84.84,0,0,1,0,1.22.86.86,0,0,1-1.22,0C27.92,16.94,27.63,16.62,27.32,16.32Z"/><path class="cls-1" d="M22.92,4.21c-.27,0-.61.18-.84.07a1,1,0,0,1-.58-.7,20.56,20.56,0,0,1,0-2.83A.77.77,0,0,1,22.31,0a.75.75,0,0,1,.85.73c0,1,0,1.93,0,2.89C23.16,3.78,23,3.94,22.92,4.21Z"/><path class="cls-1" d="M28.21,10.69c0-.26-.18-.6-.08-.83a1.1,1.1,0,0,1,.72-.59,24.11,24.11,0,0,1,2.82,0,.76.76,0,0,1,.75.83.74.74,0,0,1-.68.83c-1,.05-2,0-3,0C28.59,10.93,28.46,10.8,28.21,10.69Z"/><path class="cls-1" d="M46.75,3.77a1,1,0,0,1,.35-.45,1.16,1.16,0,0,1,.59-.12c.4,0,.66.07.77.22a1.75,1.75,0,0,1,.19.88l0,2v.11a1.17,1.17,0,0,1-.24.84,1.26,1.26,0,0,1-1.9-.53l-.09-.19a2.3,2.3,0,0,0-.86-1,2.51,2.51,0,0,0-1.28-.32,2.46,2.46,0,0,0-1.49.42,1.32,1.32,0,0,0-.57,1.1c0,.63.87,1.12,2.6,1.48l.7.15a5.66,5.66,0,0,1,2.85,1.31,3.25,3.25,0,0,1,.88,2.41A3.49,3.49,0,0,1,48,15a5.77,5.77,0,0,1-3.67,1,9.36,9.36,0,0,1-1.67-.13,7.1,7.1,0,0,1-1.42-.38,1,1,0,0,1-.37.39,1.28,1.28,0,0,1-.6.12,1.31,1.31,0,0,1-.9-.25,1.22,1.22,0,0,1-.27-.87l0-2.41v-.11a1.39,1.39,0,0,1,.25-1,1.22,1.22,0,0,1,.88-.26c.44,0,.82.32,1.12,1a3.56,3.56,0,0,0,.16.36,2.71,2.71,0,0,0,1.11,1.18,3.62,3.62,0,0,0,1.75.39,2.42,2.42,0,0,0,1.47-.39,1.29,1.29,0,0,0,.52-1.1c0-.73-.79-1.28-2.37-1.66-.47-.11-.84-.2-1.12-.28a6.11,6.11,0,0,1-2.75-1.3,2.92,2.92,0,0,1-.77-2.15,3.6,3.6,0,0,1,1.31-2.87A5.12,5.12,0,0,1,44,3.2a6.92,6.92,0,0,1,1.37.14A7.45,7.45,0,0,1,46.75,3.77Z"/><path class="cls-1" d="M55.4,11.35v2.1h1.06a1.4,1.4,0,0,1,.95.26,1.09,1.09,0,0,1,.28.85,1.12,1.12,0,0,1-.29.87,1.34,1.34,0,0,1-.94.27H52.91a1.42,1.42,0,0,1-1-.27,1.15,1.15,0,0,1-.29-.87,1.13,1.13,0,0,1,.28-.83,1.1,1.1,0,0,1,.81-.28h.17V5.8h-.17a1.06,1.06,0,0,1-.81-.29,1.17,1.17,0,0,1-.28-.83,1.12,1.12,0,0,1,.3-.87,1.41,1.41,0,0,1,1-.27h4.24a6.32,6.32,0,0,1,3.8,1,3.34,3.34,0,0,1,1.28,2.84,3.59,3.59,0,0,1-1.28,3,6.07,6.07,0,0,1-3.8,1Zm0-5.55V9h1.46a3.23,3.23,0,0,0,1.82-.41,1.37,1.37,0,0,0,.61-1.23,1.34,1.34,0,0,0-.63-1.18,3.24,3.24,0,0,0-1.8-.42Z"/><path class="cls-1" d="M72.33,5.7H67.57V8.33h1.8V8.2a1.27,1.27,0,0,1,.26-.87A1,1,0,0,1,70.41,7a1.06,1.06,0,0,1,.75.27.82.82,0,0,1,.29.66,1.09,1.09,0,0,1,0,.13,1.77,1.77,0,0,1,0,.23v2.12a1.57,1.57,0,0,1-.24,1,1,1,0,0,1-.8.3,1,1,0,0,1-.79-.28,1.11,1.11,0,0,1-.27-.82v-.18h-1.8v3.06h4.76V12.29a1.45,1.45,0,0,1,.27-1,1.07,1.07,0,0,1,.85-.3,1,1,0,0,1,.84.3,1.54,1.54,0,0,1,.25,1v2.49a.92.92,0,0,1-.22.73,1.31,1.31,0,0,1-.85.19h-8.4a1.38,1.38,0,0,1-1-.27,1.12,1.12,0,0,1-.3-.87,1.17,1.17,0,0,1,.28-.83,1.1,1.1,0,0,1,.81-.28h.17V5.8H64.9a1,1,0,0,1-.8-.29,1.13,1.13,0,0,1-.29-.83,1.12,1.12,0,0,1,.3-.87,1.41,1.41,0,0,1,1-.27h8.4a1.34,1.34,0,0,1,.85.19,1,1,0,0,1,.22.75v2.3a1.56,1.56,0,0,1-.26,1,1.31,1.31,0,0,1-1.68,0,1.47,1.47,0,0,1-.27-1Z"/><path class="cls-1" d="M85.21,3.88a1.74,1.74,0,0,1,.42-.53,1,1,0,0,1,.55-.15.85.85,0,0,1,.71.27,1.48,1.48,0,0,1,.21.91l0,2.66a1.47,1.47,0,0,1-.23,1,1.14,1.14,0,0,1-.84.24,1,1,0,0,1-.66-.2A1.71,1.71,0,0,1,85,7.28a2.49,2.49,0,0,0-.85-1.41,2.73,2.73,0,0,0-1.62-.43,2.89,2.89,0,0,0-2.42,1.07,4.9,4.9,0,0,0-.84,3.09,4.88,4.88,0,0,0,.85,3.09,2.89,2.89,0,0,0,2.43,1.08,5,5,0,0,0,2.37-.72,5.15,5.15,0,0,1,1.64-.71.84.84,0,0,1,.67.33,1.32,1.32,0,0,1,.27.84c0,.61-.53,1.17-1.59,1.71a7.89,7.89,0,0,1-3.58.8A5.67,5.67,0,0,1,78,14.24a6.52,6.52,0,0,1-1.66-4.63A6.53,6.53,0,0,1,78,5,5.59,5.59,0,0,1,82.27,3.2a6.36,6.36,0,0,1,1.44.16A8.14,8.14,0,0,1,85.21,3.88Z"/><path class="cls-1" d="M95.92,5.8v7.65h1.72a1.54,1.54,0,0,1,1,.26,1.08,1.08,0,0,1,.3.85,1.12,1.12,0,0,1-.3.87,1.51,1.51,0,0,1-1,.27H91.55a1.5,1.5,0,0,1-1-.27,1.12,1.12,0,0,1-.3-.87,1.09,1.09,0,0,1,.29-.85,1.57,1.57,0,0,1,1-.26h1.72V5.8H91.55a1.56,1.56,0,0,1-1-.26,1.11,1.11,0,0,1-.3-.86,1.14,1.14,0,0,1,.29-.87,1.58,1.58,0,0,1,1-.25h6.09a1.57,1.57,0,0,1,1,.25,1.14,1.14,0,0,1,.28.87,1.14,1.14,0,0,1-.29.86,1.57,1.57,0,0,1-1,.26Z"/><path class="cls-1" d="M112.37,13.45h.17a1.18,1.18,0,0,1,.84.28,1.13,1.13,0,0,1,.29.83,1.12,1.12,0,0,1-.3.87,1.51,1.51,0,0,1-1,.27h-3.09a1.57,1.57,0,0,1-1-.26,1.16,1.16,0,0,1-.29-.88,1.09,1.09,0,0,1,.29-.85,1.57,1.57,0,0,1,1-.26h.36l-.42-1.2h-4.43l-.44,1.2h.36a1.58,1.58,0,0,1,1,.26,1.08,1.08,0,0,1,.3.85,1.12,1.12,0,0,1-.3.87,1.51,1.51,0,0,1-1,.27h-2.65a1.46,1.46,0,0,1-1-.27,1.12,1.12,0,0,1-.3-.87,1.13,1.13,0,0,1,.28-.83,1.22,1.22,0,0,1,.85-.28h.17l2.75-7.65H104a1.54,1.54,0,0,1-1-.26,1.11,1.11,0,0,1-.3-.86,1.13,1.13,0,0,1,.3-.88,1.54,1.54,0,0,1,1-.26h3.84a1.31,1.31,0,0,1,1.28,1v0ZM107,5.8l-1.48,4.33h3Z"/><path class="cls-1" d="M118.69,5.8v7.65h4.67V11.63a1.58,1.58,0,0,1,.25-1,1,1,0,0,1,.83-.29,1.11,1.11,0,0,1,.86.3,1.54,1.54,0,0,1,.26,1v3.15a1,1,0,0,1-.21.73,1.36,1.36,0,0,1-.86.19h-9.3a1.38,1.38,0,0,1-1-.27,1.15,1.15,0,0,1-.29-.87,1.09,1.09,0,0,1,.29-.85,1.4,1.4,0,0,1,1-.26h.9V5.8h-.9a1.43,1.43,0,0,1-1-.26,1.14,1.14,0,0,1-.29-.86,1.09,1.09,0,0,1,.31-.87,1.41,1.41,0,0,1,1-.27h4.36a1.41,1.41,0,0,1,1,.27,1.12,1.12,0,0,1,.31.87,1.11,1.11,0,0,1-.3.86,1.48,1.48,0,0,1-1,.26Z"/><path class="cls-1" d="M132.4,12.49a2.13,2.13,0,0,1,1.47.47,1.52,1.52,0,0,1,.55,1.23,1.61,1.61,0,0,1-.55,1.26,2.17,2.17,0,0,1-1.47.48,2.08,2.08,0,0,1-1.44-.49,1.58,1.58,0,0,1-.57-1.25A1.5,1.5,0,0,1,131,13,2.12,2.12,0,0,1,132.4,12.49Zm1.34-8.26-.38,6.66a.77.77,0,0,1-.29.56,1,1,0,0,1-.67.22,1,1,0,0,1-.65-.23.74.74,0,0,1-.29-.55l-.4-6.66V4.15a1.26,1.26,0,0,1,.36-1,1.58,1.58,0,0,1,2,0,1.22,1.22,0,0,1,.35.94Z"/></g></g></svg>