<svg xmlns="http://www.w3.org/2000/svg" viewBox="0 0 36.46 38.03"><defs><style>.cls-1{fill:#fff;}</style></defs><g id="レイヤー_2" data-name="レイヤー 2"><g id="レイヤー_1-2" data-name="レイヤー 1"><path class="cls-1" d="M25.38,16.56q0,7.31,0,14.61c0,1.54-.39,1.92-1.95,1.92H2c-1.59,0-2-.39-2-2q0-12,0-24A1.9,1.9,0,0,1,.63,5.57C2.33,3.91,4,2.2,5.68.55A2,2,0,0,1,6.94,0c5.57,0,11.13,0,16.7,0,1.3,0,1.74.46,1.74,1.77C25.39,6.7,25.38,11.63,25.38,16.56Zm-23.47-9v23.7H23.49V1.91h-16c0,1.33,0,2.61,0,3.88S7,7.5,5.8,7.5ZM3.3,5.63H5.62V3.46Z"/><path class="cls-1" d="M34.55,7.7,29.92,6.44a27.09,27.09,0,0,0-2.65-.68A1.11,1.11,0,0,1,26.2,4.28c0-.18,0-.36.05-.68.94.24,1.84.45,2.73.69l6.08,1.63c1.29.35,1.62.92,1.27,2.22L28.74,36.51c-.4,1.47-.9,1.75-2.4,1.35L12.52,34.17a2.45,2.45,0,0,1-.3-.11c5.08-.88,9.85.67,14.71,2.1C29.48,26.61,32,17.2,34.55,7.7Z"/><path class="cls-1" d="M12.73,9.93h7.58c.58,0,1.19,0,1.17.79s-.59.74-1.14.74H5.1c-.58,0-1.2,0-1.17-.79s.66-.74,1.23-.74Z"/><path class="cls-1" d="M19.89,20.27H5.08c-.6,0-1.16-.14-1.15-.84s.55-.79,1.12-.78l12.63.07,2.64,0c.58,0,1.18,0,1.16.78s-.6.73-1.14.73h-.45Z"/><path class="cls-1" d="M12.79,14.3h7.46c.57,0,1.21,0,1.23.73s-.67.79-1.25.79H5.12c-.61,0-1.25,0-1.18-.87.05-.63.59-.66,1.11-.66Z"/><path class="cls-1" d="M12.67,24.57H5.09c-.57,0-1.19,0-1.16-.79s.59-.72,1.15-.72c5.07,0,10.15,0,15.22,0a1.56,1.56,0,0,1,1.1.43c.39.49-.12,1-1,1Z"/></g></g></svg>