<svg xmlns="http://www.w3.org/2000/svg" viewBox="0 0 760 296.57"><defs><style>.cls-1{fill:#ffc300;}.cls-2{fill:#222;}.cls-3{fill:#fff;}.cls-4{fill:#ff3500;}</style></defs><g id="レイヤー_2" data-name="レイヤー 2"><g id="レイヤー_1-2" data-name="レイヤー 1"><polygon class="cls-1" points="148.2 24 131.8 11.88 131.8 36.12 148.2 24"/><rect class="cls-2" width="120" height="48" rx="23.82"/><path class="cls-3" d="M32,16.81a1.31,1.31,0,0,1,.43-.56,1.44,1.44,0,0,1,.74-.15c.49,0,.81.09.95.27a2.12,2.12,0,0,1,.23,1.09l0,2.44V20a1.44,1.44,0,0,1-.3,1,1.39,1.39,0,0,1-1,.3,1.42,1.42,0,0,1-1.34-1c0-.1-.08-.17-.1-.23A2.83,2.83,0,0,0,30.54,19,3,3,0,0,0,29,18.6a3,3,0,0,0-1.84.53,1.62,1.62,0,0,0-.71,1.35c0,.78,1.08,1.39,3.23,1.84l.86.18A7,7,0,0,1,34,24.12a4,4,0,0,1,1.09,3,4.35,4.35,0,0,1-1.59,3.6A7.14,7.14,0,0,1,29,32a12.66,12.66,0,0,1-2.06-.15,9.3,9.3,0,0,1-1.76-.47,1.24,1.24,0,0,1-.47.47A1.54,1.54,0,0,1,24,32a1.6,1.6,0,0,1-1.12-.31,1.5,1.5,0,0,1-.33-1.07l-.05-3v-.14a1.75,1.75,0,0,1,.31-1.17A1.46,1.46,0,0,1,23.85,26q.82,0,1.38,1.2l.21.44a3.35,3.35,0,0,0,1.37,1.46,4.49,4.49,0,0,0,2.17.48,3,3,0,0,0,1.81-.48,1.57,1.57,0,0,0,.65-1.36c0-.9-1-1.59-2.93-2.05-.58-.14-1.05-.25-1.38-.35a7.6,7.6,0,0,1-3.42-1.61A3.67,3.67,0,0,1,22.76,21a4.42,4.42,0,0,1,1.63-3.55,6.31,6.31,0,0,1,4.22-1.38,8,8,0,0,1,1.7.18A8.78,8.78,0,0,1,32,16.81Z"/><path class="cls-3" d="M48.68,19.3H46v9.47h2.13a1.82,1.82,0,0,1,1.22.33,1.75,1.75,0,0,1,0,2.15,1.82,1.82,0,0,1-1.22.33H40.62a1.8,1.8,0,0,1-1.21-.33,1.8,1.8,0,0,1,0-2.16,1.83,1.83,0,0,1,1.21-.32h2.13V19.3H40.1L40,21.88v.31a1.33,1.33,0,0,1-.33,1,1.3,1.3,0,0,1-.94.34,1.35,1.35,0,0,1-1-.36A1.63,1.63,0,0,1,37.37,22v-.1l.14-3.8c0-.75.13-1.21.31-1.36a1.86,1.86,0,0,1,1.11-.23H49.85a1.86,1.86,0,0,1,1.11.23c.18.15.29.61.32,1.36l.13,3.8V22a1.65,1.65,0,0,1-.32,1.15,1.29,1.29,0,0,1-1,.36,1.25,1.25,0,0,1-1-.35,2.08,2.08,0,0,1-.32-1.26Z"/><path class="cls-3" d="M63.64,19.2H57.73v3.25H60V22.3a1.52,1.52,0,0,1,.32-1.08,1.21,1.21,0,0,1,1-.36,1.36,1.36,0,0,1,.93.32,1.07,1.07,0,0,1,.37.82,1.6,1.6,0,0,0,0,.17,2.53,2.53,0,0,1,0,.28v2.63a1.92,1.92,0,0,1-.3,1.21,1.22,1.22,0,0,1-1,.37,1.28,1.28,0,0,1-1-.34,1.42,1.42,0,0,1-.33-1v-.22H57.73v3.79h5.91V27.36A1.88,1.88,0,0,1,64,26.14,1.37,1.37,0,0,1,65,25.77a1.29,1.29,0,0,1,1,.37,1.92,1.92,0,0,1,.31,1.22v3.07a1.2,1.2,0,0,1-.27.92,1.72,1.72,0,0,1-1,.23H54.65a1.76,1.76,0,0,1-1.2-.33,1.41,1.41,0,0,1-.36-1.08,1.42,1.42,0,0,1,.34-1,1.35,1.35,0,0,1,1-.34h.22V19.32h-.22a1.31,1.31,0,0,1-1-.36,1.38,1.38,0,0,1-.35-1,1.36,1.36,0,0,1,.37-1.07,1.69,1.69,0,0,1,1.19-.34h10.4a1.71,1.71,0,0,1,1,.23,1.2,1.2,0,0,1,.28.94v2.84a1.92,1.92,0,0,1-.32,1.24,1.27,1.27,0,0,1-1,.37A1.31,1.31,0,0,1,64,21.76a1.91,1.91,0,0,1-.32-1.23Z"/><path class="cls-3" d="M73.88,26.19V28.8h1.31a1.73,1.73,0,0,1,1.17.31,1.36,1.36,0,0,1,.35,1.06,1.44,1.44,0,0,1-.35,1.08,1.7,1.7,0,0,1-1.17.33H70.8a1.76,1.76,0,0,1-1.2-.33,1.41,1.41,0,0,1-.36-1.08,1.42,1.42,0,0,1,.34-1,1.35,1.35,0,0,1,1-.34h.22V19.32h-.22a1.35,1.35,0,0,1-1-.36,1.42,1.42,0,0,1-.34-1,1.4,1.4,0,0,1,.36-1.07,1.74,1.74,0,0,1,1.2-.34H76a7.81,7.81,0,0,1,4.7,1.19,4.11,4.11,0,0,1,1.6,3.52,4.45,4.45,0,0,1-1.59,3.71A7.54,7.54,0,0,1,76,26.19Zm0-6.87v4h1.81a4,4,0,0,0,2.25-.51,1.72,1.72,0,0,0,.75-1.52,1.65,1.65,0,0,0-.78-1.47,4,4,0,0,0-2.22-.52Z"/><path class="cls-3" d="M93.13,28.87h2.06a2,2,0,0,1,1.23.32,1.29,1.29,0,0,1,.38,1,1.32,1.32,0,0,1-.37,1,1.92,1.92,0,0,1-1.24.32h-7.5a1.92,1.92,0,0,1-1.24-.32,1.32,1.32,0,0,1-.37-1,1.29,1.29,0,0,1,.38-1,1.91,1.91,0,0,1,1.23-.32h2.37V18.16l-1.43.36c-.22.06-.4.09-.54.12l-.32,0a1,1,0,0,1-.81-.33,1.41,1.41,0,0,1-.28-.94,1,1,0,0,1,.32-.75,2.14,2.14,0,0,1,1-.47l3.15-.86.65-.16a2.6,2.6,0,0,1,.42-.05.86.86,0,0,1,.72.28,1.53,1.53,0,0,1,.22.94Z"/><path class="cls-2" d="M57.94,88.37a6.85,6.85,0,0,1-.2,2,2.11,2.11,0,0,1-2.2,1.4A7.49,7.49,0,0,1,51,90.1a3.53,3.53,0,0,1-1.32-2.71,5.1,5.1,0,0,1,2.06-3.55,12.68,12.68,0,0,1,3.51-2l0-3.7-1,.05c-.36,0-.7,0-1.3,0l-1.32,0a6,6,0,0,0-.6,0,3.63,3.63,0,0,0-.5,0l0-2.69a14.93,14.93,0,0,0,2.9.22c.24,0,.5,0,.84,0l1,0V74a16.61,16.61,0,0,0-.14-2.76h3a14.71,14.71,0,0,0-.15,2.62v1.54a26.73,26.73,0,0,0,4.64-.92l.09,2.69-2.54.43c-.79.15-1.28.22-2.19.32v3.12a16.67,16.67,0,0,1,4.9-.68c4,0,6.86,2.45,6.86,5.86a5.32,5.32,0,0,1-5.44,5.47,3.87,3.87,0,0,1-3.94-2.66A8.07,8.07,0,0,1,59.88,86a10.56,10.56,0,0,0,2.67-1.06,8,8,0,0,0,0,1.06,4.66,4.66,0,0,0,.33,2.11,1.67,1.67,0,0,0,1.52.81,2.46,2.46,0,0,0,2.42-2.66c0-2.06-1.68-3.41-4.25-3.41a15.66,15.66,0,0,0-4.61.79Zm-2.72-3.86c-1.8,1-2.85,2-2.85,2.88a1.31,1.31,0,0,0,.79,1.1A2.86,2.86,0,0,0,54.7,89c.4,0,.52-.22.52-1Zm13.3-4.85a20.34,20.34,0,0,0-4.8-5.18L66,73a20.34,20.34,0,0,1,4.75,4.92Z"/><path class="cls-2" d="M52.54,113.69a20.08,20.08,0,0,0,.14,3H49.87a20.4,20.4,0,0,0,.15-3V98c0-1.27,0-2-.1-2.72a20.43,20.43,0,0,0,2.45.1h4.25a18.41,18.41,0,0,0,2.44-.1C59,96,59,96.56,59,97.49v4c0,1.08,0,1.63.07,2.16-.57,0-1.41-.07-2.2-.07H52.54Zm0-15.14h4.1V97.3h-4.1Zm0,3.12h4.1V100.4h-4.1Zm12.14,9.5c0,.7,0,1.18.07,1.64a16.16,16.16,0,0,0-1.7-.08H57.7v1.61H55.15a22,22,0,0,0,.12-2.33v-5.13a16.71,16.71,0,0,0-.07-1.68c.53,0,1.08.07,1.78.07h5.93c.74,0,1.34,0,1.84-.07,0,.48-.07,1-.07,1.65Zm-7-.62h4.56V107.4H57.7Zm12.38,3.14c0,1.32-.21,2-.84,2.33a4.89,4.89,0,0,1-2.52.38c-.38,0-.65,0-2.23-.09a8.48,8.48,0,0,0-.67-2.54,27.94,27.94,0,0,0,2.95.21c.67,0,.79-.09.79-.62v-9.82H62.93c-.79,0-1.66,0-2.18.07,0-.65,0-1.13,0-2.16v-4c0-.91,0-1.56-.07-2.26a19.73,19.73,0,0,0,2.45.1h4.56a20.8,20.8,0,0,0,2.47-.1,22.5,22.5,0,0,0-.12,2.69ZM63.17,98.55h4.39V97.3H63.17Zm0,3.12h4.39V100.4H63.17Z"/><path class="cls-2" d="M53.86,119.5a27.63,27.63,0,0,0-.2,3.65,45.46,45.46,0,0,0,.46,6.43c.41,2.5,1.18,4,1.94,4,.36,0,.7-.36,1-1a17.91,17.91,0,0,0,1.27-4.34,11.61,11.61,0,0,0,2.4,2.18C59.47,135.1,58.08,137,56,137c-1.61,0-2.9-1.17-3.86-3.48s-1.42-5.88-1.52-12.53a11.25,11.25,0,0,0-.09-1.53Zm11.35,1.08a24,24,0,0,1,5.4,12.91l-3,1.13a24.23,24.23,0,0,0-1.53-6.94,21.14,21.14,0,0,0-3.41-5.9Z"/><path class="cls-2" d="M53.83,147.72a24.28,24.28,0,0,1-3.84,2,9.27,9.27,0,0,0-1.39-2.45,23.91,23.91,0,0,0,6.12-3.45,17,17,0,0,0,3.77-4h2.86a15.72,15.72,0,0,0,4,4,22.35,22.35,0,0,0,6.12,3.29,12.53,12.53,0,0,0-1.32,2.64,23.06,23.06,0,0,1-3.91-2.11v1.68a17.74,17.74,0,0,0-2.16-.1H55.9a18.64,18.64,0,0,0-2.07.1Zm-1.94,14.05a20.43,20.43,0,0,0,.14-2.55v-5.59a22.23,22.23,0,0,0-.12-2.38,15.43,15.43,0,0,0,2.07.1H66a16.08,16.08,0,0,0,2.09-.1,15.86,15.86,0,0,0-.12,2.38v5.61a15.18,15.18,0,0,0,.14,2.53H65.23v-1.23H54.74v1.23Zm2.85-3.58H65.23v-4.51H54.74Zm9.34-11.4h.82a22.12,22.12,0,0,1-5-4.68,16.89,16.89,0,0,1-4.7,4.68h8.83Z"/><path class="cls-2" d="M49.08,177.48a54.94,54.94,0,0,0,4.34-3.84c0-1.46,0-1.48.1-3.45a24,24,0,0,0-3.65.36l-.17-2.71c.39,0,.58,0,.8,0,.43,0,1.75-.07,3.09-.16,0-.63.07-.94.07-1.81,0-.45,0-.79,0-1v-.24a6.15,6.15,0,0,0-.1-1.06l3.1,0a9.69,9.69,0,0,0-.24,2.31c0,.45,0,.45-.07,1.13v.43a1.27,1.27,0,0,0,.33-.12l.91,1a10.57,10.57,0,0,0-1.36,1.56c0,1-.08,1.56-.1,1.64l.05,0a3.91,3.91,0,0,1,.57-.45c2.62-1.9,4.57-2.64,6.92-2.64a6.7,6.7,0,0,1,4.68,2,7,7,0,0,1,1.85,4.95,7.39,7.39,0,0,1-3.82,6.79,9.56,9.56,0,0,1-4.27.91,12.32,12.32,0,0,1-3.58-.53,8.82,8.82,0,0,0-.46-3.12,11,11,0,0,0,4.28.89,4.71,4.71,0,0,0,4.89-5,3.85,3.85,0,0,0-4.1-4.17c-2,0-4.35,1.22-7,3.62l0,2.5c0,3.43.07,6.12.19,7.17H53.23a23.5,23.5,0,0,0,.15-3.84v-2.13c0-.67,0-.94,0-1.42h0a8.18,8.18,0,0,1-1.06,1.13,14.74,14.74,0,0,0-1.85,2.06Z"/><path class="cls-2" d="M68.76,206.55l-1.08.12c-1.75.19-4.92.36-6.5.36-4.49,0-6.44-.87-7.16-3.17-.33-1.08-.43-2.42-.43-6.55,0-.36,0-.46,0-2.33a33.35,33.35,0,0,0-4.44.43L49,192.6c.34,0,.58,0,.7,0s1.54-.08,3.91-.22c0-.38,0-.6,0-.74a24,24,0,0,0-.17-4.08h3.21a28.56,28.56,0,0,0-.21,4.68l6.94-.34c0-3.82,0-3.82-.15-4.75h3a11.72,11.72,0,0,0-.12,1.65v3c3.87-.12,3.87-.12,4.66-.21l0,2.85a8.73,8.73,0,0,0-1.37-.07c-.84,0-2.21,0-3.34,0a15.32,15.32,0,0,1-.62,5.08,2.93,2.93,0,0,1-2.93,1.8,7.93,7.93,0,0,1-3.43-.81c0-.48,0-.63,0-1a12.77,12.77,0,0,0-.17-2,7.56,7.56,0,0,0,3.15,1.18c.62,0,.89-.32,1-1.25a21.56,21.56,0,0,0,.22-3c-3.65.14-3.65.14-7,.33v.65c0,.12,0,.12,0,1.39v.51c0,1.25.07,3.86.12,4.34.19,2,1.22,2.52,5.13,2.52a19.64,19.64,0,0,0,6.94-.91Z"/><rect class="cls-2" x="160" width="120" height="48" rx="23.82"/><path class="cls-3" d="M192,16.81a1.31,1.31,0,0,1,.43-.56,1.44,1.44,0,0,1,.74-.15c.49,0,.81.09,1,.27a2.12,2.12,0,0,1,.23,1.09l.05,2.44V20a1.44,1.44,0,0,1-.3,1,1.39,1.39,0,0,1-1,.3,1.42,1.42,0,0,1-1.34-1c0-.1-.08-.17-.1-.23A2.83,2.83,0,0,0,190.54,19a3,3,0,0,0-1.59-.4,3,3,0,0,0-1.84.53,1.62,1.62,0,0,0-.71,1.35c0,.78,1.08,1.39,3.23,1.84l.86.18A7,7,0,0,1,194,24.12a4,4,0,0,1,1.09,3,4.35,4.35,0,0,1-1.59,3.6A7.14,7.14,0,0,1,189,32a12.66,12.66,0,0,1-2.06-.15,9.3,9.3,0,0,1-1.76-.47,1.24,1.24,0,0,1-.47.47A1.54,1.54,0,0,1,184,32a1.6,1.6,0,0,1-1.12-.31,1.5,1.5,0,0,1-.33-1.07l-.05-3v-.14a1.75,1.75,0,0,1,.31-1.17,1.46,1.46,0,0,1,1.09-.33q.83,0,1.38,1.2l.21.44a3.35,3.35,0,0,0,1.37,1.46,4.49,4.49,0,0,0,2.17.48,3,3,0,0,0,1.81-.48,1.57,1.57,0,0,0,.65-1.36c0-.9-1-1.59-2.93-2.05-.58-.14-1-.25-1.38-.35a7.6,7.6,0,0,1-3.42-1.61,3.67,3.67,0,0,1-1-2.66,4.42,4.42,0,0,1,1.63-3.55,6.31,6.31,0,0,1,4.22-1.38,8,8,0,0,1,1.7.18A8.78,8.78,0,0,1,192,16.81Z"/><path class="cls-3" d="M208.68,19.3H206v9.47h2.13a1.82,1.82,0,0,1,1.22.33,1.75,1.75,0,0,1,0,2.15,1.82,1.82,0,0,1-1.22.33h-7.54a1.8,1.8,0,0,1-1.21-.33,1.8,1.8,0,0,1,0-2.16,1.83,1.83,0,0,1,1.21-.32h2.13V19.3H200.1L200,21.88v.31a1.33,1.33,0,0,1-.33,1,1.3,1.3,0,0,1-.94.34,1.35,1.35,0,0,1-1-.36,1.63,1.63,0,0,1-.34-1.15v-.1l.14-3.8c0-.75.13-1.21.31-1.36a1.86,1.86,0,0,1,1.11-.23h10.92a1.86,1.86,0,0,1,1.11.23c.18.15.29.61.32,1.36l.13,3.8V22a1.65,1.65,0,0,1-.32,1.15,1.29,1.29,0,0,1-1,.36,1.25,1.25,0,0,1-1-.35,2.08,2.08,0,0,1-.32-1.26Z"/><path class="cls-3" d="M223.64,19.2h-5.91v3.25H220V22.3a1.52,1.52,0,0,1,.32-1.08,1.21,1.21,0,0,1,1-.36,1.36,1.36,0,0,1,.93.32,1.07,1.07,0,0,1,.37.82,1.6,1.6,0,0,0,0,.17,2.53,2.53,0,0,1,0,.28v2.63a1.92,1.92,0,0,1-.3,1.21,1.22,1.22,0,0,1-1,.37,1.28,1.28,0,0,1-1-.34,1.42,1.42,0,0,1-.33-1v-.22h-2.24v3.79h5.91V27.36a1.88,1.88,0,0,1,.32-1.22,1.37,1.37,0,0,1,1.06-.37,1.29,1.29,0,0,1,1,.37,1.92,1.92,0,0,1,.31,1.22v3.07a1.2,1.2,0,0,1-.27.92,1.72,1.72,0,0,1-1,.23h-10.4a1.76,1.76,0,0,1-1.2-.33,1.41,1.41,0,0,1-.36-1.08,1.42,1.42,0,0,1,.34-1,1.35,1.35,0,0,1,1-.34h.22V19.32h-.22a1.31,1.31,0,0,1-1-.36,1.38,1.38,0,0,1-.35-1,1.36,1.36,0,0,1,.37-1.07,1.69,1.69,0,0,1,1.19-.34h10.4a1.71,1.71,0,0,1,1,.23,1.2,1.2,0,0,1,.28.94v2.84a1.92,1.92,0,0,1-.32,1.24,1.27,1.27,0,0,1-1,.37,1.31,1.31,0,0,1-1.06-.38,1.91,1.91,0,0,1-.32-1.23Z"/><path class="cls-3" d="M233.88,26.19V28.8h1.31a1.73,1.73,0,0,1,1.17.31,1.36,1.36,0,0,1,.35,1.06,1.44,1.44,0,0,1-.35,1.08,1.7,1.7,0,0,1-1.17.33H230.8a1.76,1.76,0,0,1-1.2-.33,1.41,1.41,0,0,1-.36-1.08,1.42,1.42,0,0,1,.34-1,1.35,1.35,0,0,1,1-.34h.22V19.32h-.22a1.35,1.35,0,0,1-1-.36,1.42,1.42,0,0,1-.34-1,1.4,1.4,0,0,1,.36-1.07,1.74,1.74,0,0,1,1.2-.34H236a7.81,7.81,0,0,1,4.7,1.19,4.11,4.11,0,0,1,1.6,3.52,4.45,4.45,0,0,1-1.59,3.71A7.54,7.54,0,0,1,236,26.19Zm0-6.87v4h1.81a4,4,0,0,0,2.25-.51,1.72,1.72,0,0,0,.75-1.52,1.65,1.65,0,0,0-.78-1.47,4,4,0,0,0-2.22-.52Z"/><path class="cls-3" d="M249.52,28.72H254v-.08a1.2,1.2,0,0,1,.35-1,1.48,1.48,0,0,1,1-.32,1.13,1.13,0,0,1,.86.31,1.18,1.18,0,0,1,.31.88v.17l-.1,2a1.14,1.14,0,0,1-.19.73.81.81,0,0,1-.57.16h-9.13a1.82,1.82,0,0,1-1.14-.32,1.07,1.07,0,0,1-.4-.9,2,2,0,0,1,.25-.95,3.85,3.85,0,0,1,.79-1l5.17-5a6.35,6.35,0,0,0,1.25-1.63,3.6,3.6,0,0,0,.41-1.62,2.32,2.32,0,0,0-.55-1.7,2.24,2.24,0,0,0-1.68-.56,3.14,3.14,0,0,0-1.18.2,1.78,1.78,0,0,0-.79.55,5.26,5.26,0,0,0-.37.54c-.4.66-.85,1-1.34,1a1.12,1.12,0,0,1-1-.42,2,2,0,0,1-.33-1.24,2.94,2.94,0,0,1,.21-1.27,2.26,2.26,0,0,1,.81-.84,7.48,7.48,0,0,1,2.09-1,8.2,8.2,0,0,1,2.38-.32A5.43,5.43,0,0,1,255,16.44a4.51,4.51,0,0,1,1.41,3.48,5.85,5.85,0,0,1-.73,2.8,10.16,10.16,0,0,1-2.27,2.67Z"/><path class="cls-2" d="M221.71,81.41c-.27,5.93-2.52,9.1-8,11.19a7.67,7.67,0,0,0-2-2.67c4.71-1.49,6.58-3.86,6.75-8.52H212.7a21.86,21.86,0,0,0-3,.12V78.68a16.17,16.17,0,0,0,3.09.16h14a16.24,16.24,0,0,0,3.1-.16v2.85a22.13,22.13,0,0,0-3-.12Zm3.62-5.88a19.08,19.08,0,0,0-3.05-.12h-7.15a19.32,19.32,0,0,0-3,.12V72.6a15,15,0,0,0,3.1.17h7a14.62,14.62,0,0,0,3.1-.17ZM226.72,71a17.06,17.06,0,0,1,2.14,3.79l-1.8.68A17.71,17.71,0,0,0,225,71.67Zm3.43,3.41a17.16,17.16,0,0,0-2.06-3.72l1.73-.62a14.86,14.86,0,0,1,2.11,3.64Z"/><path class="cls-2" d="M212.92,105.17a24.91,24.91,0,0,0-3,.12v-2.9a16.66,16.66,0,0,0,3.07.17h4.34V98.4h-2.93a23.32,23.32,0,0,0-3,.12v-2.9a16.64,16.64,0,0,0,3.09.17h10.95a16.88,16.88,0,0,0,3.12-.17v2.9a23.67,23.67,0,0,0-3.07-.12h-5.16v4.16h6.67a16.92,16.92,0,0,0,3.07-.17v2.9a24.91,24.91,0,0,0-3-.12h-6.72V109c0,1.44.12,1.8.64,2a6.21,6.21,0,0,0,2.48.31c.86,0,2.32-.07,3.57-.19a10.73,10.73,0,0,0,2.23-.41l.08,3a3.42,3.42,0,0,0-.41,0c-.22,0-.22,0-2,.14-1,.07-2.66.15-3.81.15-4.68,0-5.79-.8-5.79-4.18v-4.73Z"/><path class="cls-2" d="M222.86,122a2.86,2.86,0,1,1-2.86-2.86A2.86,2.86,0,0,1,222.86,122Z"/><path class="cls-2" d="M215.54,136.28a32.75,32.75,0,0,0,7.25-2.36,14.68,14.68,0,0,0,3.57-2l1.92,2.69-1.13.53a43.29,43.29,0,0,1-6.86,2.83,37.29,37.29,0,0,1-4.75,1.13v3.1a.08.08,0,0,1,0,.07v.33c0,1.4.1,1.95.43,2.26s1.78.62,4.11.62a45.21,45.21,0,0,0,5.57-.38,15.52,15.52,0,0,0,2.73-.55l.15,3.19c-.48,0-.65,0-2.38.19-1.92.19-4.92.34-6.72.34-3,0-4.66-.31-5.59-1a3.38,3.38,0,0,1-1.18-2.45,17.73,17.73,0,0,1-.07-2.19l0-11.13a12.47,12.47,0,0,0-.1-2.21h3.22a12.92,12.92,0,0,0-.12,2.23Z"/><path class="cls-2" d="M220.72,158a11.64,11.64,0,0,0-.1,1.94c-.09,4.1-.74,6.41-2.37,8.5a13.94,13.94,0,0,1-6.19,4.32,8.57,8.57,0,0,0-1.9-2.74,11.13,11.13,0,0,0,4.2-2c2.45-1.94,3.22-4,3.22-8.54a6.39,6.39,0,0,0-.12-1.44Zm9.75-3a6.41,6.41,0,0,0-1,1.68,15.41,15.41,0,0,1-6.58,6.82,8.16,8.16,0,0,0-2.16-2.19,11.14,11.14,0,0,0,3.5-2.2,10,10,0,0,0,2.28-3.05H214a23.1,23.1,0,0,0-3.26.14v-3a19.52,19.52,0,0,0,3.31.19h12.53a6.71,6.71,0,0,0,2.33-.21Z"/><path class="cls-2" d="M216.16,175.56a11.72,11.72,0,0,0-.1,2.16v6.63a11.1,11.1,0,0,0,.1,2.11h-3.29a17.73,17.73,0,0,0,.12-2.16v-6.6a15.64,15.64,0,0,0-.09-2.16Zm10.9,0a11,11,0,0,0-.12,2.23v3.24a28.17,28.17,0,0,1-.63,7.27,9.15,9.15,0,0,1-4.73,5.59,20.31,20.31,0,0,1-4.68,1.85,8.15,8.15,0,0,0-1.68-2.85,13,13,0,0,0,5.19-1.92c2.26-1.49,3.05-3,3.31-6.12.1-1,.12-2.09.12-4v-3a12.21,12.21,0,0,0-.12-2.28Z"/><path class="cls-2" d="M210.88,213.08a22.86,22.86,0,0,0,7.1-1.78,15.89,15.89,0,0,0,7.13-5.88,19.86,19.86,0,0,0,2.45-4.8,10.22,10.22,0,0,0,2.55,2.35c-2,4.4-4.32,7.23-7.61,9.41a26,26,0,0,1-9.15,3.6,8.36,8.36,0,0,0-1.58.41Zm2-14.91a33.72,33.72,0,0,1,6.19,4.64l-2.06,2.61a25.27,25.27,0,0,0-6.12-4.87Z"/><path class="cls-2" d="M228.47,223.71a5.16,5.16,0,0,0-.6,1.44,23.5,23.5,0,0,1-4.82,9.07,24.2,24.2,0,0,1-8.55,6.07,7.85,7.85,0,0,0-2-2.52,19.32,19.32,0,0,0,12.27-12.94l-7.23.1a23.7,23.7,0,0,1-5.61,6.17,6.34,6.34,0,0,0-2.33-2.07,18.86,18.86,0,0,0,6.22-7,9.08,9.08,0,0,0,1.22-3.19l3.29.67a3.13,3.13,0,0,0-.41.72c-.19.44-.41.92-.65,1.4-.12.21-.12.24-.17.33l-.19.36c.29,0,.67-.05,1.15-.05l5.26-.07a10,10,0,0,0,1.25-.05,14.91,14.91,0,0,0-1.75-3l1.77-.6a15.18,15.18,0,0,1,2.14,3.8l-1,.38ZM230,222a16.92,16.92,0,0,0-2.06-3.72l1.73-.6a14.14,14.14,0,0,1,2.11,3.65Z"/><polygon class="cls-1" points="308.96 24 292.56 11.88 292.56 36.12 308.96 24"/><polygon class="cls-1" points="469.73 24 453.32 11.88 453.32 36.12 469.73 24"/><polygon class="cls-1" points="630.49 24 614.09 11.88 614.09 36.12 630.49 24"/><rect class="cls-2" x="320" width="120" height="48" rx="23.82"/><path class="cls-3" d="M352,16.81a1.31,1.31,0,0,1,.43-.56,1.44,1.44,0,0,1,.74-.15c.49,0,.81.09.95.27a2.12,2.12,0,0,1,.23,1.09l.05,2.44V20a1.44,1.44,0,0,1-.3,1,1.39,1.39,0,0,1-1,.3,1.42,1.42,0,0,1-1.34-1c0-.1-.08-.17-.1-.23A2.83,2.83,0,0,0,350.54,19a3,3,0,0,0-1.59-.4,3,3,0,0,0-1.84.53,1.62,1.62,0,0,0-.71,1.35c0,.78,1.08,1.39,3.23,1.84l.86.18A7,7,0,0,1,354,24.12a4,4,0,0,1,1.09,3,4.35,4.35,0,0,1-1.59,3.6A7.14,7.14,0,0,1,349,32a12.66,12.66,0,0,1-2.06-.15,9.3,9.3,0,0,1-1.76-.47,1.24,1.24,0,0,1-.47.47A1.54,1.54,0,0,1,344,32a1.6,1.6,0,0,1-1.12-.31,1.5,1.5,0,0,1-.33-1.07l-.05-3v-.14a1.75,1.75,0,0,1,.31-1.17,1.46,1.46,0,0,1,1.09-.33q.82,0,1.38,1.2l.21.44a3.35,3.35,0,0,0,1.37,1.46,4.49,4.49,0,0,0,2.17.48,3,3,0,0,0,1.81-.48,1.57,1.57,0,0,0,.65-1.36c0-.9-1-1.59-2.93-2.05-.58-.14-1.05-.25-1.38-.35a7.6,7.6,0,0,1-3.42-1.61,3.67,3.67,0,0,1-.95-2.66,4.42,4.42,0,0,1,1.63-3.55,6.31,6.31,0,0,1,4.22-1.38,8,8,0,0,1,1.7.18A8.78,8.78,0,0,1,352,16.81Z"/><path class="cls-3" d="M368.68,19.3H366v9.47h2.13a1.82,1.82,0,0,1,1.22.33,1.75,1.75,0,0,1,0,2.15,1.82,1.82,0,0,1-1.22.33h-7.54a1.8,1.8,0,0,1-1.21-.33,1.8,1.8,0,0,1,0-2.16,1.83,1.83,0,0,1,1.21-.32h2.13V19.3H360.1L360,21.88v.31a1.33,1.33,0,0,1-.33,1,1.3,1.3,0,0,1-.94.34,1.35,1.35,0,0,1-1-.36,1.63,1.63,0,0,1-.34-1.15v-.1l.14-3.8c0-.75.13-1.21.31-1.36a1.86,1.86,0,0,1,1.11-.23h10.92a1.86,1.86,0,0,1,1.11.23c.18.15.29.61.32,1.36l.13,3.8V22a1.65,1.65,0,0,1-.32,1.15,1.29,1.29,0,0,1-1,.36,1.25,1.25,0,0,1-1-.35,2.08,2.08,0,0,1-.32-1.26Z"/><path class="cls-3" d="M383.64,19.2h-5.91v3.25H380V22.3a1.52,1.52,0,0,1,.32-1.08,1.21,1.21,0,0,1,1-.36,1.36,1.36,0,0,1,.93.32,1,1,0,0,1,.37.82,1.6,1.6,0,0,0,0,.17,2.53,2.53,0,0,1,0,.28v2.63a1.92,1.92,0,0,1-.3,1.21,1.22,1.22,0,0,1-1,.37,1.28,1.28,0,0,1-1-.34,1.42,1.42,0,0,1-.33-1v-.22h-2.24v3.79h5.91V27.36a1.88,1.88,0,0,1,.32-1.22,1.37,1.37,0,0,1,1.06-.37,1.29,1.29,0,0,1,1,.37,1.92,1.92,0,0,1,.31,1.22v3.07a1.2,1.2,0,0,1-.27.92,1.72,1.72,0,0,1-1.05.23h-10.4a1.76,1.76,0,0,1-1.2-.33,1.41,1.41,0,0,1-.36-1.08,1.42,1.42,0,0,1,.34-1,1.35,1.35,0,0,1,1-.34h.22V19.32h-.22a1.31,1.31,0,0,1-1-.36,1.38,1.38,0,0,1-.35-1,1.36,1.36,0,0,1,.37-1.07,1.69,1.69,0,0,1,1.19-.34h10.4a1.71,1.71,0,0,1,1,.23,1.2,1.2,0,0,1,.28.94v2.84a1.92,1.92,0,0,1-.32,1.24,1.27,1.27,0,0,1-1,.37,1.31,1.31,0,0,1-1.06-.38,1.91,1.91,0,0,1-.32-1.23Z"/><path class="cls-3" d="M393.88,26.19V28.8h1.31a1.73,1.73,0,0,1,1.17.31,1.36,1.36,0,0,1,.35,1.06,1.4,1.4,0,0,1-.35,1.08,1.7,1.7,0,0,1-1.17.33H390.8a1.76,1.76,0,0,1-1.2-.33,1.41,1.41,0,0,1-.36-1.08,1.42,1.42,0,0,1,.34-1,1.35,1.35,0,0,1,1-.34h.22V19.32h-.22a1.31,1.31,0,0,1-1-.36,1.38,1.38,0,0,1-.35-1,1.4,1.4,0,0,1,.36-1.07,1.74,1.74,0,0,1,1.2-.34H396a7.81,7.81,0,0,1,4.7,1.19,4.11,4.11,0,0,1,1.6,3.52,4.45,4.45,0,0,1-1.59,3.71A7.54,7.54,0,0,1,396,26.19Zm0-6.87v4h1.81a4,4,0,0,0,2.25-.51,1.72,1.72,0,0,0,.75-1.52,1.65,1.65,0,0,0-.78-1.47,4,4,0,0,0-2.22-.52Z"/><path class="cls-3" d="M413.52,22.87a4,4,0,0,1,2.17,1.44,4.22,4.22,0,0,1,.71,2.56,4.72,4.72,0,0,1-1.6,3.76A6.45,6.45,0,0,1,410.42,32a8.19,8.19,0,0,1-3.69-.74c-1-.49-1.46-1.08-1.46-1.79a1.34,1.34,0,0,1,.4-1,1.5,1.5,0,0,1,1.06-.38,6.19,6.19,0,0,1,1.61.57,5.85,5.85,0,0,0,2.29.57,2.23,2.23,0,0,0,2.47-2.48,2.52,2.52,0,0,0-.54-1.82,3,3,0,0,0-2.06-.61,1.58,1.58,0,0,1-1.07-.31,1.53,1.53,0,0,1-.28-1,1.1,1.1,0,0,1,1.1-1.16l.23,0a3,3,0,0,0,1.77-.65,2.27,2.27,0,0,0,.41-1.51,1.9,1.9,0,0,0-.49-1.4,1.81,1.81,0,0,0-1.38-.5,4.63,4.63,0,0,0-2.1.59,4.63,4.63,0,0,1-1.62.59,1,1,0,0,1-.79-.33,1.13,1.13,0,0,1-.3-.81q0-1.08,1.5-1.86a8.06,8.06,0,0,1,3.69-.77,5.2,5.2,0,0,1,3.53,1.14,3.83,3.83,0,0,1,1.31,3,3.62,3.62,0,0,1-.6,2.11A4.51,4.51,0,0,1,413.52,22.87Z"/><path class="cls-2" d="M386.33,76.78a20.84,20.84,0,0,1-2,1.68,10.25,10.25,0,0,0-1.75-1.82A13.81,13.81,0,0,0,387.07,72a6,6,0,0,0,.51-1.17l2.78.52a7.85,7.85,0,0,0-.5.87c-.24.41-.43.72-.77,1.22h11.64a24,24,0,0,0,3-.14v2.64c-.79-.07-1.12-.1-2.35-.12V79h.94a12.51,12.51,0,0,0,2.35-.14v2.69a12.56,12.56,0,0,0-2.35-.15h-.94v3.22h.48a14.51,14.51,0,0,0,2.28-.12v2.64a11.13,11.13,0,0,0-2.23-.15H385.56a11,11,0,0,0-2.13.15V84.51a16.14,16.14,0,0,0,2.35.12h.55V81.41h-1a12.94,12.94,0,0,0-2.36.15V78.87a12.62,12.62,0,0,0,2.36.14h1Zm-3.41,15a11.46,11.46,0,0,0,3-4.49l2.2,1.1a15.69,15.69,0,0,1-3.09,5ZM388.71,79h1.94V75.82h-1.94Zm0,5.62h1.94V81.41h-1.94Zm1.12,8.69v-1a41.29,41.29,0,0,0-.36-4.25l2.33-.26a32.54,32.54,0,0,1,.65,5.26Zm5-14.31V75.82h-2V79Zm0,5.62V81.41h-2v3.22Zm.57,8.61a27.42,27.42,0,0,0-1.13-5l2.33-.52a33,33,0,0,1,1.42,5ZM399,79V75.82h-2V79Zm0,5.62V81.41h-2v3.22Zm3.21,8.64a23.77,23.77,0,0,0-2.88-5l2.07-1a26.72,26.72,0,0,1,3.12,4.61Z"/><path class="cls-2" d="M392.07,111c-.12.32-.15.44-.27.82a17.51,17.51,0,0,1-2.42-3.38c.12,1.63.14,2,.14,2.73v4a14.16,14.16,0,0,0,.15,2.5h-2.79a15.58,15.58,0,0,0,.17-2.55v-3.09c0-1,.05-2.09.1-2.88a16.66,16.66,0,0,1-3.13,5.4A7.06,7.06,0,0,0,382.8,112a15.63,15.63,0,0,0,2.59-3.56,19.42,19.42,0,0,0,1.28-2.71h-1.25a13,13,0,0,0-2.16.12V103.3a12.45,12.45,0,0,0,2.16.12H387V97.73a14.31,14.31,0,0,0-.12-2.35h2.74a15,15,0,0,0-.12,2.33v5.71h1.13a12.38,12.38,0,0,0,1.85-.1v2.5a14.31,14.31,0,0,0-1.9-.1h-.86a12.78,12.78,0,0,0,3.09,3.67c-.33.6-.43.82-.67,1.35a17,17,0,0,0,2.21-.34l5.62-1.25v-11a16.28,16.28,0,0,0-.15-2.79h2.91a16.82,16.82,0,0,0-.15,2.76v10.42a14.23,14.23,0,0,0,2-.6l.51,2.73a19.45,19.45,0,0,0-2.31.44l-.24,0v3.51a17.48,17.48,0,0,0,.15,2.83h-2.91a17.16,17.16,0,0,0,.15-2.85v-2.91l-5.09,1.15c-1.06.24-1.75.43-2.28.6ZM385.13,96.7a28.41,28.41,0,0,1,1.46,5.18l-2,.87a19.67,19.67,0,0,0-1.49-5.14Zm8.23.84a28.26,28.26,0,0,1-1.92,5.21l-1.75-.92a19.72,19.72,0,0,0,1.66-5.18Zm1.2,5.45a21.78,21.78,0,0,1,4.18,3.52l-1.63,1.95a21.12,21.12,0,0,0-4.23-3.7Zm.75-6a23.77,23.77,0,0,1,4.2,3.52l-1.64,2a20.19,20.19,0,0,0-4.24-3.7Z"/><path class="cls-2" d="M385.44,147c0-.93-.05-1.77-.12-2.56a22.39,22.39,0,0,0,2.66.12H399.6a20.32,20.32,0,0,0,2.59-.12,23,23,0,0,0-.12,2.44v15.51a23.21,23.21,0,0,0,.15,2.9h-2.91V163.8H388.15v1.44H385.3a26.52,26.52,0,0,0,.14-2.9Zm2.71,5.67h11.16v-5.57H388.15Zm0,8.66h11.16v-6.14H388.15Z"/><path class="cls-2" d="M386.23,186.46a20,20,0,0,0,.15,2.95h-2.81a22.62,22.62,0,0,0,.14-3V170.76c0-1.25,0-1.92-.09-2.69a19.8,19.8,0,0,0,2.47.1h4.25a18.58,18.58,0,0,0,2.45-.1c-.05.77-.08,1.3-.08,2.24V174a21.4,21.4,0,0,0,.08,2.18c-.63,0-1.37-.07-2.21-.07h-4.35Zm0-15.15h4.13v-1.2h-4.13Zm0,2.93h4.13V173h-4.13Zm12.32,10.32c0,.92,0,1.47.07,2.09.53,0,1.39.12,1.82.12.67,0,.89-.17.89-.65v-10H396.6c-.84,0-1.61,0-2.21.07.05-.69.08-1.15.08-2.18v-3.67c0-.82,0-1.49-.08-2.24a18.86,18.86,0,0,0,2.45.1h4.61a19.6,19.6,0,0,0,2.47-.1c-.07.87-.09,1.47-.09,2.67v15.72c0,1.44-.29,2.06-1.16,2.42a7.18,7.18,0,0,1-2.71.29c-.33,0-.43,0-1.65-.07a9.33,9.33,0,0,0-.63-2.47c-.69,0-1.15,0-1.34,0h-5.09V188h-2.54a17.68,17.68,0,0,0,.16-2.4v-5.86c0-.84,0-1.51-.07-2.16a20,20,0,0,0,2.23.1h5.36a19.74,19.74,0,0,0,2.23-.1c-.05.63-.07,1.23-.07,2.16Zm-7.3-3.48h4.9v-1.44h-4.9Zm0,3.51h4.9V183h-4.9Zm5.59-13.28h4.49v-1.2h-4.49Zm0,2.93h4.49V173h-4.49Z"/><path class="cls-2" d="M356.13,92a16.3,16.3,0,0,0,.14-2.69V73.88a15,15,0,0,0-.14-2.45h3.29a15.44,15.44,0,0,0-.1,2.52v4.46a70.34,70.34,0,0,1,10.9,5.07l-1.68,2.83a56.58,56.58,0,0,0-8.5-4.59,7.22,7.22,0,0,1-.81-.4,12.72,12.72,0,0,1,.09,1.63v6.33c0,1.25,0,1.88.1,2.67Z"/><path class="cls-2" d="M371.2,102.6a11.17,11.17,0,0,0-.67,1.51,17,17,0,0,1-5.57,8.12,21.29,21.29,0,0,1-6.29,3.26,8.11,8.11,0,0,0-1.87-2.78,15.55,15.55,0,0,0,6.67-3.17,12.49,12.49,0,0,0,3.87-5.62H355.65a25.54,25.54,0,0,0-3.07.12v-2.93a16.45,16.45,0,0,0,3.12.17h11.42a10.9,10.9,0,0,0,2.71-.21Zm-16.58-7.27a13.88,13.88,0,0,0,2.81.17h8.37a13.94,13.94,0,0,0,2.81-.17v3a19.3,19.3,0,0,0-2.76-.12h-8.47a19.3,19.3,0,0,0-2.76.12Z"/><path class="cls-2" d="M370.87,117.31a10.22,10.22,0,0,0-.89.84,41.47,41.47,0,0,1-5.67,4.95v10.25a19,19,0,0,0,.12,2.66h-3.36a13.28,13.28,0,0,0,.15-2.59V125a38.67,38.67,0,0,1-8.57,3.89,9,9,0,0,0-1.61-2.74,34.79,34.79,0,0,0,12.6-6.24,19.06,19.06,0,0,0,4.47-4.49Z"/><path class="cls-2" d="M362.49,144.48a11.81,11.81,0,0,0-.1,2c-.09,4.1-.74,6.41-2.37,8.49a13.78,13.78,0,0,1-6.19,4.32,8.64,8.64,0,0,0-1.9-2.73,11.28,11.28,0,0,0,4.2-2c2.45-1.95,3.22-4,3.22-8.55a6.45,6.45,0,0,0-.12-1.44Zm9.74-3a7.1,7.1,0,0,0-1,1.68,15,15,0,0,1-3.69,4.82,15.26,15.26,0,0,1-2.88,2,8.16,8.16,0,0,0-2.16-2.19,11,11,0,0,0,3.5-2.21,9.8,9.8,0,0,0,2.28-3h-12.6a23.1,23.1,0,0,0-3.26.14v-3a19.52,19.52,0,0,0,3.31.19H368.3a6.74,6.74,0,0,0,2.33-.21Z"/><path class="cls-2" d="M358.63,162.07a47.76,47.76,0,0,0-.24,5.38c-.17,4.68-.7,7.39-1.95,9.87a15.32,15.32,0,0,1-3.31,4.44,8.73,8.73,0,0,0-2.42-2.33,10,10,0,0,0,2.47-2.76c1.73-2.76,2.28-5.86,2.28-12.58a11.55,11.55,0,0,0-.1-2.18Zm6.36-.28a12.51,12.51,0,0,0-.17,2.28l-.12,13.65a9.63,9.63,0,0,0,3.67-2.73,11.82,11.82,0,0,0,2.35-4.39,9.85,9.85,0,0,0,2.26,2.25,14.7,14.7,0,0,1-3.82,5.59,15.67,15.67,0,0,1-5.11,2.88,10.12,10.12,0,0,0-1,.44l-1.54-1.64a10.85,10.85,0,0,0,.22-2.54l.12-13.54v-.72a10.5,10.5,0,0,0-.1-1.58Z"/><path class="cls-2" d="M358.41,195.29c-1.51,1.27-2.18,2.28-2.18,3.31,0,1.57,1.75,2.24,5.8,2.24a25.07,25.07,0,0,0,7.54-1l.26,3.28c-.43,0-.5,0-1.05.1a39,39,0,0,1-6.48.55,17.11,17.11,0,0,1-6-.79c-2.07-.82-3.07-2.14-3.07-4s.93-3.43,3.09-5.23Zm-3.65-9.86a31.64,31.64,0,0,0,7.2.6,29.51,29.51,0,0,0,6.34-.46l.09,2.71a44.34,44.34,0,0,0-6.4,4l-2.09-1.65c1.51-1,1.77-1.13,2.37-1.47l.63-.38c.19-.1.21-.1.53-.29a24.79,24.79,0,0,1-3.6.19,39.82,39.82,0,0,1-4.4-.28l-.55-.05c-.05,0-.17,0-.33,0Zm12.67,5.33a15.2,15.2,0,0,1,2.52,3.52l-1.68.89a16,16,0,0,0-2.52-3.57Zm3.72,2.9a17.43,17.43,0,0,0-2.44-3.48l1.6-.84a13.59,13.59,0,0,1,2.5,3.38Z"/><path class="cls-2" d="M369.69,221.09a20.84,20.84,0,0,0,2.74-.14v2.42c-.77-.07-1.54-.12-2.74-.12h-4.9a21,21,0,0,0,8.17,3.48,10.41,10.41,0,0,0-1.33,2.4,22.28,22.28,0,0,1-5.32-2.23,18.93,18.93,0,0,1-3.6-2.64c0,.7.07,1.59.07,1.9v1.08a11.92,11.92,0,0,0,.12,2h-2.79a9.4,9.4,0,0,0,.15-2v-1.06c0-.29,0-.38,0-.77v-.6a3.56,3.56,0,0,1,0-.5c-2.16,2.06-4.49,3.41-8.5,4.85a7.73,7.73,0,0,0-1.49-2.31,21.63,21.63,0,0,0,7.87-3.6h-4.41a22.41,22.41,0,0,0-2.72.12V221a20.5,20.5,0,0,0,2.67.14h6.53v-.16a8.7,8.7,0,0,0-.12-1.57h2.76a7.59,7.59,0,0,0-.12,1.57v.16Zm-2.23-6.48a10,10,0,0,1-2.16,2.19,52.82,52.82,0,0,1,6.07,1.77l-1.56,1.92a53.38,53.38,0,0,0-6.91-2.3c-2.59,1.15-5.76,1.75-10.37,2a5.92,5.92,0,0,0-1-2.06h.75a34,34,0,0,0,6.93-.77c-.86-.15-1.29-.22-4.61-.65a17.6,17.6,0,0,0,2.19-2.09H354c-1.06,0-1.85,0-2.64.12v-2.21a14,14,0,0,0,2.42.12h4.61a13.76,13.76,0,0,0,1.25-2l2.57.6a5.27,5.27,0,0,0-.48.62c0,.05-.15.22-.31.43a2.08,2.08,0,0,1-.27.36h8.67a14.67,14.67,0,0,0,2.44-.12v2.21a21.09,21.09,0,0,0-2.64-.12Zm-7.15-6.12a10.1,10.1,0,0,0-.12-1.61h2.92a7.88,7.88,0,0,0-.12,1.61h6.44c1.17,0,1.8,0,2.59-.09a11.86,11.86,0,0,0-.1,1.7v.7a11.2,11.2,0,0,0,.08,1.41h-2.57v-1.63h-15.2v1.61h-2.59a8.32,8.32,0,0,0,.1-1.35v-.76a13,13,0,0,0-.1-1.68c.84.07,1.59.09,2.64.09Zm-.75,6.12c-.26.31-.41.46-.79.87,1.78.31,2.16.38,3.65.69a8.63,8.63,0,0,0,2.09-1.56Z"/><path class="cls-2" d="M369.09,245a9.15,9.15,0,0,0-1.58,2.25,17.87,17.87,0,0,1-5.79-6.09,10.59,10.59,0,0,1-1.15,2.28,13.85,13.85,0,0,1-4.56,4.25,8.74,8.74,0,0,0-1.54-2v4.66a20.73,20.73,0,0,0,.12,2.85h-2.95a20,20,0,0,0,.17-2.9V236.6a19.18,19.18,0,0,0-.1-2.33,24.24,24.24,0,0,0,2.79.12h5.88c0-.55,0-.89,0-1.3a13.11,13.11,0,0,0-.14-2.11h3a5.77,5.77,0,0,0-.15,1.2c0,.34,0,.34-.07,1.32,0,.5,0,.5-.05.89h6.12a21.94,21.94,0,0,0,2.74-.12,21,21,0,0,0-.1,2.33v13.75c0,1-.07,1.37-.35,1.73-.53.67-1.4.86-3.65.86-.65,0-1.37,0-2.33-.07a9,9,0,0,0-.75-2.74,22.3,22.3,0,0,0,3.12.27c1.18,0,1.3-.07,1.3-.77Zm-14.62.38a10.9,10.9,0,0,0,4-3.6,12.22,12.22,0,0,0,1.7-5h-5.69Zm8.31-8.59c-.07.6-.1.72-.17,1.15a14.13,14.13,0,0,0,2.71,4,16.2,16.2,0,0,0,3.77,2.8v-7.94Z"/><rect class="cls-2" x="480" width="120" height="48" rx="23.82"/><path class="cls-3" d="M512,16.81a1.31,1.31,0,0,1,.43-.56,1.46,1.46,0,0,1,.74-.15c.49,0,.81.09,1,.27a2.12,2.12,0,0,1,.23,1.09l.05,2.44V20a1.44,1.44,0,0,1-.3,1,1.39,1.39,0,0,1-1,.3,1.43,1.43,0,0,1-1.34-1c0-.1-.08-.17-.1-.23A2.77,2.77,0,0,0,510.54,19a3,3,0,0,0-1.59-.4,3,3,0,0,0-1.84.53,1.62,1.62,0,0,0-.71,1.35c0,.78,1.08,1.39,3.23,1.84l.86.18A7,7,0,0,1,514,24.12a4,4,0,0,1,1.09,3,4.35,4.35,0,0,1-1.59,3.6A7.14,7.14,0,0,1,509,32a12.66,12.66,0,0,1-2.06-.15,9.51,9.51,0,0,1-1.76-.47,1.24,1.24,0,0,1-.47.47A1.51,1.51,0,0,1,504,32a1.6,1.6,0,0,1-1.12-.31,1.5,1.5,0,0,1-.33-1.07l-.05-3v-.14a1.69,1.69,0,0,1,.32-1.17,1.42,1.42,0,0,1,1.08-.33q.82,0,1.38,1.2l.21.44a3.35,3.35,0,0,0,1.37,1.46,4.49,4.49,0,0,0,2.17.48,3,3,0,0,0,1.81-.48,1.57,1.57,0,0,0,.65-1.36c0-.9-1-1.59-2.93-2.05-.58-.14-1.05-.25-1.38-.35a7.6,7.6,0,0,1-3.42-1.61,3.67,3.67,0,0,1-.95-2.66,4.42,4.42,0,0,1,1.63-3.55,6.31,6.31,0,0,1,4.22-1.38,8,8,0,0,1,1.7.18A8.78,8.78,0,0,1,512,16.81Z"/><path class="cls-3" d="M528.68,19.3H526v9.47h2.13a1.8,1.8,0,0,1,1.22.33,1.75,1.75,0,0,1,0,2.15,1.8,1.8,0,0,1-1.22.33h-7.54a1.8,1.8,0,0,1-1.21-.33,1.8,1.8,0,0,1,0-2.16,1.83,1.83,0,0,1,1.21-.32h2.13V19.3H520.1L520,21.88v.31a1.33,1.33,0,0,1-.33,1,1.3,1.3,0,0,1-.94.34,1.35,1.35,0,0,1-1-.36,1.63,1.63,0,0,1-.34-1.15v-.1l.14-3.8c0-.75.13-1.21.31-1.36a1.86,1.86,0,0,1,1.11-.23h10.92a1.86,1.86,0,0,1,1.11.23c.18.15.29.61.32,1.36l.13,3.8V22a1.65,1.65,0,0,1-.32,1.15,1.29,1.29,0,0,1-1,.36,1.25,1.25,0,0,1-1-.35,2.08,2.08,0,0,1-.32-1.26Z"/><path class="cls-3" d="M543.64,19.2h-5.91v3.25H540V22.3a1.52,1.52,0,0,1,.32-1.08,1.21,1.21,0,0,1,1-.36,1.36,1.36,0,0,1,.93.32,1,1,0,0,1,.37.82,1.6,1.6,0,0,0,0,.17,2.53,2.53,0,0,1,0,.28v2.63a1.92,1.92,0,0,1-.3,1.21,1.22,1.22,0,0,1-1,.37,1.28,1.28,0,0,1-1-.34,1.42,1.42,0,0,1-.33-1v-.22h-2.24v3.79h5.91V27.36a1.88,1.88,0,0,1,.32-1.22,1.37,1.37,0,0,1,1.06-.37,1.29,1.29,0,0,1,1,.37,1.92,1.92,0,0,1,.31,1.22v3.07a1.2,1.2,0,0,1-.27.92,1.72,1.72,0,0,1-1.05.23h-10.4a1.76,1.76,0,0,1-1.2-.33,1.41,1.41,0,0,1-.36-1.08,1.42,1.42,0,0,1,.34-1,1.35,1.35,0,0,1,1-.34h.22V19.32h-.22a1.31,1.31,0,0,1-1-.36,1.38,1.38,0,0,1-.35-1,1.36,1.36,0,0,1,.37-1.07,1.69,1.69,0,0,1,1.19-.34h10.4a1.71,1.71,0,0,1,1,.23,1.2,1.2,0,0,1,.28.94v2.84a1.92,1.92,0,0,1-.32,1.24,1.27,1.27,0,0,1-1,.37,1.31,1.31,0,0,1-1.06-.38,1.91,1.91,0,0,1-.32-1.23Z"/><path class="cls-3" d="M553.88,26.19V28.8h1.31a1.73,1.73,0,0,1,1.17.31,1.36,1.36,0,0,1,.35,1.06,1.4,1.4,0,0,1-.35,1.08,1.7,1.7,0,0,1-1.17.33H550.8a1.76,1.76,0,0,1-1.2-.33,1.41,1.41,0,0,1-.36-1.08,1.42,1.42,0,0,1,.34-1,1.35,1.35,0,0,1,1-.34h.22V19.32h-.22a1.31,1.31,0,0,1-1-.36,1.38,1.38,0,0,1-.35-1,1.4,1.4,0,0,1,.36-1.07,1.74,1.74,0,0,1,1.2-.34H556a7.81,7.81,0,0,1,4.7,1.19,4.11,4.11,0,0,1,1.6,3.52,4.45,4.45,0,0,1-1.59,3.71A7.54,7.54,0,0,1,556,26.19Zm0-6.87v4h1.81a4,4,0,0,0,2.25-.51,1.72,1.72,0,0,0,.75-1.52,1.65,1.65,0,0,0-.78-1.47,4,4,0,0,0-2.22-.52Z"/><path class="cls-3" d="M574.59,25.23l.07,0h.13a.94.94,0,0,0,.59-.32.87.87,0,0,1,.55-.32,1.21,1.21,0,0,1,.84.26.88.88,0,0,1,.31.73,2.46,2.46,0,0,1,0,.26,1,1,0,0,1-.06.26l-.28.94a.68.68,0,0,1-.25.39.81.81,0,0,1-.46.13h-1.42v1.58h.75l.29,0h.23a1,1,0,0,1,.77.34,1.2,1.2,0,0,1,.32.85,1.1,1.1,0,0,1-.37.92,2.18,2.18,0,0,1-1.24.28H570a2.06,2.06,0,0,1-1.22-.28,1.07,1.07,0,0,1-.37-.92,1.12,1.12,0,0,1,.37-.93,2,2,0,0,1,1.22-.29h1.85V27.58H566a.6.6,0,0,1-.5-.21.89.89,0,0,1-.17-.58V26a2.75,2.75,0,0,1,.07-.73,2.14,2.14,0,0,1,.23-.56l5.33-9.06a1.54,1.54,0,0,1,.32-.4.62.62,0,0,1,.33-.07h.35l2.25.4a.42.42,0,0,1,.3.2.83.83,0,0,1,.1.45Zm-2.76-7-4,7h4Z"/><path class="cls-2" d="M546.93,88.37a7.29,7.29,0,0,1-.19,2,2.12,2.12,0,0,1-2.21,1.4A7.48,7.48,0,0,1,540,90.1a3.5,3.5,0,0,1-1.32-2.71,5.1,5.1,0,0,1,2.06-3.55,12.61,12.61,0,0,1,3.5-2l0-3.7-1,.05c-.36,0-.7,0-1.3,0l-1.32,0c-.31,0-.53,0-.6,0a3.49,3.49,0,0,0-.5,0l0-2.69a15,15,0,0,0,2.91.22c.24,0,.5,0,.84,0l1,0V74a16.38,16.38,0,0,0-.15-2.76h3a14.91,14.91,0,0,0-.14,2.62v1.54a26.41,26.41,0,0,0,4.63-.92l.1,2.69-2.55.43c-.79.15-1.27.22-2.18.32v3.12a16.63,16.63,0,0,1,4.9-.68c4,0,6.86,2.45,6.86,5.86a5.33,5.33,0,0,1-5.45,5.47,3.88,3.88,0,0,1-3.94-2.66,8.1,8.1,0,0,1-.4-3.07,10.34,10.34,0,0,0,2.66-1.06,8,8,0,0,0,0,1.06,4.64,4.64,0,0,0,.34,2.11,1.66,1.66,0,0,0,1.51.81,2.46,2.46,0,0,0,2.43-2.66c0-2.06-1.68-3.41-4.25-3.41a15.6,15.6,0,0,0-4.61.79Zm-2.71-3.86c-1.8,1-2.86,2-2.86,2.88,0,.41.24.77.8,1.1a2.85,2.85,0,0,0,1.53.53c.41,0,.53-.22.53-1Zm13.3-4.85a20.34,20.34,0,0,0-4.8-5.18L555,73a20.58,20.58,0,0,1,4.76,4.92Z"/><path class="cls-2" d="M542.16,110.52v1.37h-2.84a17.52,17.52,0,0,0,.12-2.47v-9.31a15.57,15.57,0,0,0-.12-2.31c.89.07,1.47.1,2.67.1h5.52v-.7a15.35,15.35,0,0,0-.15-2.61h3a14,14,0,0,0-.17,2.52v.79h5.69c1.37,0,1.9,0,2.76-.1a16.22,16.22,0,0,0-.12,2.28v9.34a17.84,17.84,0,0,0,.12,2.47h-2.85v-1.37h-5.6v3.24a19.18,19.18,0,0,0,.17,3h-3a20.58,20.58,0,0,0,.17-3v-3.24Zm0-10.22V103h5.35V100.3Zm0,5.06v2.76h5.35v-2.76Zm8-2.37h5.6V100.3h-5.6Zm0,5.13h5.6v-2.76h-5.6Z"/><path class="cls-2" d="M545.25,118.68a23.26,23.26,0,0,0-.29,3.24c-.09,2.24-.24,7.11-.24,8.81,0,2.28.15,3.15.63,3.87a3.79,3.79,0,0,0,3.21,1.25,6.17,6.17,0,0,0,5.81-4.11,16.33,16.33,0,0,0,1.11-4,10.55,10.55,0,0,0,2.9,1.85c-1,3.24-1.68,4.8-2.85,6.12a9.09,9.09,0,0,1-7.2,3,7.87,7.87,0,0,1-4.21-1.06c-1.65-1.11-2.35-2.95-2.35-6.17,0-1.25.05-3.65.19-9.67,0-.72,0-1.23,0-1.56a12.2,12.2,0,0,0-.1-1.63Z"/><path class="cls-2" d="M538.12,150.53a10.42,10.42,0,0,0,1.92.12h2a10.15,10.15,0,0,0,1.83-.12,25,25,0,0,0-.1,2.64v5a3,3,0,0,0,1.37,1.53c1.15.72,2.4.89,6.53.89a67.12,67.12,0,0,0,8.9-.5,13.1,13.1,0,0,0-.72,2.85c-2.13.08-5.61.15-7.27.15-3.94,0-5.88-.15-7.13-.55a5.79,5.79,0,0,1-3-2.26,22.13,22.13,0,0,1-2.47,2.14c-.41.31-.55.43-.72.57l-.36.29-1.18-2.74a15.08,15.08,0,0,0,3.58-2.35v-5.16h-1.46a8.55,8.55,0,0,0-1.64.12Zm2.28-8.66a29,29,0,0,1,4.2,4.39l-2,1.94a24.63,24.63,0,0,0-4.13-4.53Zm7.73,2.95a11.73,11.73,0,0,0-2,.12v-2.59a11.18,11.18,0,0,0,2,.12h3.44a11.6,11.6,0,0,0,1.75-.1,12.58,12.58,0,0,0-.05,1.3,16.52,16.52,0,0,0,1.58,7,14.53,14.53,0,0,0,5.28,6.17,11.12,11.12,0,0,0-1.58,2.52,16.48,16.48,0,0,1-6.53-9.44,14.14,14.14,0,0,1-2.61,5.86,15.76,15.76,0,0,1-3.24,3.29,13.47,13.47,0,0,0-1.9-2.09,13.27,13.27,0,0,0,3.17-3.07,15.67,15.67,0,0,0,2.66-5.72,17.56,17.56,0,0,0,.46-3.33Z"/><path class="cls-2" d="M541.2,166.28a14.85,14.85,0,0,0,2.42.12c1.44,0,3.58-.1,4.47-.22a1.84,1.84,0,0,0,.95-.29l1.9,1.63a3.65,3.65,0,0,0-.5,1c-.12.29-1.59,4.71-1.8,5.45a19.44,19.44,0,0,1,5.3,1.51,26.27,26.27,0,0,0,.24-4.44,7.37,7.37,0,0,0-.09-1.27l3,.12a7.32,7.32,0,0,0-.14,1.61,41.49,41.49,0,0,1-.44,5.09c.77.38,1.83.93,2.57,1.36a8.23,8.23,0,0,0,1.11.58l-1.08,3.17a24,24,0,0,0-3.32-2.23,11.36,11.36,0,0,1-2.61,4.22,13.83,13.83,0,0,1-3.63,2.71,9,9,0,0,0-2.18-2.16,11.17,11.17,0,0,0,3.72-2.52,9.87,9.87,0,0,0,2.14-3.55,18.54,18.54,0,0,0-5.4-1.66,32,32,0,0,1-2.38,5.91c-.89,1.54-2,2.28-3.29,2.28-2.21,0-3.84-1.94-3.84-4.56a6,6,0,0,1,3-5.26,8.48,8.48,0,0,1,4.53-1.15c.63-1.9.92-2.81,1.51-5-1.22.1-1.8.12-4.15.22-1,.05-1.41.07-1.89.14Zm.72,11.42A3.38,3.38,0,0,0,541,180c0,1,.53,1.78,1.18,1.78.46,0,.82-.43,1.37-1.51a32.27,32.27,0,0,0,1.56-4A4.71,4.71,0,0,0,541.92,177.7Z"/><path class="cls-2" d="M551.85,193.37a2.86,2.86,0,1,1-2.85-2.85A2.84,2.84,0,0,1,551.85,193.37Z"/><path class="cls-2" d="M545.64,211.56c-1.52,1.28-2.19,2.28-2.19,3.32,0,1.56,1.75,2.23,5.81,2.23a24.75,24.75,0,0,0,7.54-1l.26,3.28c-.43,0-.5,0-1,.1a39,39,0,0,1-6.49.55,17.18,17.18,0,0,1-6-.79c-2.06-.82-3.07-2.14-3.07-4s.94-3.43,3.1-5.23ZM542,201.7a31.58,31.58,0,0,0,7.2.6,29.51,29.51,0,0,0,6.34-.46l.09,2.72a43.16,43.16,0,0,0-6.41,4l-2.09-1.66c1.52-1,1.78-1.13,2.38-1.46l.62-.39a2.7,2.7,0,0,0,.53-.29,24.54,24.54,0,0,1-3.6.2,37.49,37.49,0,0,1-4.39-.29l-.55,0c-.05,0-.17,0-.34,0ZM554.66,207a15.26,15.26,0,0,1,2.52,3.53l-1.68.88a16,16,0,0,0-2.52-3.57Zm3.72,2.9a17.47,17.47,0,0,0-2.45-3.48l1.61-.84A14.16,14.16,0,0,1,560,209Z"/><path class="cls-2" d="M549.55,235.18a10.58,10.58,0,0,0-1.22-1.49v.75c-2.84.52-6.27,1-9.65,1.27l-.32-2.47c.29,0,.53,0,.72,0,.61,0,2-.09,3.85-.26l0-1.8H541.2a12.43,12.43,0,0,0-1.92.1V229a14,14,0,0,0,2,.09h1.56l-.05-1.44h-2.14a15.71,15.71,0,0,0-1.92.1v-2.38a15.49,15.49,0,0,0,1.92.1h2.07V225a13.19,13.19,0,0,0-.15-1.49l2.72,0a4.92,4.92,0,0,0-.1,1.15,2.78,2.78,0,0,0,0,.34v.53H547a15.36,15.36,0,0,0,1.84-.1v2.38a14.14,14.14,0,0,0-1.82-.1h-1.75l0,1.44h1.3a14.16,14.16,0,0,0,1.68-.07v2.23a16,16,0,0,0-1.73-.07h-1.2l0,1.58c1-.12,1.49-.19,2.91-.45v.74c2.16-1.15,3.19-3.14,3.28-6.41h-.41a13.85,13.85,0,0,0-1.89.1v-2.52a23.47,23.47,0,0,0,2.78.14h5.07a21,21,0,0,0,2.37-.09c0,.48-.07.77-.09,1.41a51,51,0,0,1-.63,7.06c-.38,1.82-1.1,2.38-3.14,2.38-.77,0-1.37,0-2.28-.1a6,6,0,0,0-.65-2.57,15.49,15.49,0,0,0,2.59.31c.8,0,1-.28,1.25-1.7a30.51,30.51,0,0,0,.31-4.42h-2.8a11.85,11.85,0,0,1-1.42,5.45,9.33,9.33,0,0,1-2.83,3.07h.67a8.09,8.09,0,0,0-.22,1c-.07.31-.09.43-.17.74h6.49a24.11,24.11,0,0,0,3.07-.14v2.54c-.75-.07-1.66-.12-3-.12h-5.43a7.1,7.1,0,0,0,3.56,2.38,22.12,22.12,0,0,0,5.44,1.22,9.62,9.62,0,0,0-1.2,2.57,17.72,17.72,0,0,1-5.73-1.68,10.44,10.44,0,0,1-4.3-3.65,9.38,9.38,0,0,1-3.84,3.55,18.07,18.07,0,0,1-5.95,1.76,9.33,9.33,0,0,0-1.23-2.5,15.72,15.72,0,0,0,6.29-1.63,6.59,6.59,0,0,0,2.26-2H541.6c-1.44,0-2.37.05-3.12.12v-2.54a25.85,25.85,0,0,0,3.12.14h5.88a8.39,8.39,0,0,0,.2-1.37,1.51,1.51,0,0,0,0-.45Z"/><path class="cls-2" d="M541.34,261.17a26.49,26.49,0,0,1-1.18,7.11l-2.13-1a22.79,22.79,0,0,0,1.13-6.45Zm-3.19-3.62a6.09,6.09,0,0,0,1,.07l1,0c.82-1,.91-1.13,1.39-1.76a21.81,21.81,0,0,0-3.29-3.55l1.37-2c.34.41.48.55.72.84a17.46,17.46,0,0,0,2-3.89l2.28.94a9.82,9.82,0,0,0-.5.86,31,31,0,0,1-2.23,3.67c.41.48.67.77,1,1.2a27,27,0,0,0,2.59-4.2l2.21,1.28a9.46,9.46,0,0,0-.8,1.1,63.31,63.31,0,0,1-4,5.4,26.27,26.27,0,0,0,2.73-.22,12.54,12.54,0,0,0-.69-1.63l1.8-.72a36.35,36.35,0,0,1,1.89,4.68l-2,.84c-.12-.55-.17-.74-.27-1.13-.72.08-1.27.15-1.7.17v7.56a18.7,18.7,0,0,0,.14,2.57h-2.64a17,17,0,0,0,.15-2.57v-7.34c-1,.07-1.78.12-2.26.17a14.87,14.87,0,0,0-1.56.14Zm9.29,3.14a60,60,0,0,1,1.15,6.12l-2.19.53a54.06,54.06,0,0,0-.91-6.17Zm4-7.29a16.64,16.64,0,0,1-2.4,3.79,6.93,6.93,0,0,0-1.92-1.95,15.41,15.41,0,0,0,2.84-4.77,15.72,15.72,0,0,0,.86-3l2.69.48a8.88,8.88,0,0,0-.31,1c-.31,1-.41,1.27-.7,2h5.23a13.67,13.67,0,0,0,2-.09,33.27,33.27,0,0,0-.12,4.17c0,2.74-.29,6.92-.55,8.89-.38,2.75-.82,4.08-1.61,4.7a5.14,5.14,0,0,1-3.07.62c-.62,0-1.37,0-2.23-.09a9.58,9.58,0,0,0-.68-2.69,19.4,19.4,0,0,0,3.15.31c1.08,0,1.34-.29,1.63-1.77A66.53,66.53,0,0,0,557,253.4Zm1.11,10a26.43,26.43,0,0,0-2.74-6.1l2.09-1.15a27.32,27.32,0,0,1,3,6Z"/><path class="cls-2" d="M530.92,85.05l-.59.58-6.43-6.39-6.39,6.39-.6-.58,6.34-6.39-6.34-6.37.6-.6,6.39,6.4,6.43-6.4.59.6-6.39,6.37Zm-12.26-5a1.4,1.4,0,0,1-1.39-1.37,1.39,1.39,0,0,1,2.78-.12v0s0,0,0,0l0,0A1.38,1.38,0,0,1,518.66,80Zm5.26-5.15a1.37,1.37,0,0,1-1.39-1.37,1.4,1.4,0,0,1,1.39-1.38,1.38,1.38,0,0,1,0,2.75Zm0,10.3a1.37,1.37,0,1,1,1.37-1.37A1.37,1.37,0,0,1,523.9,85.18Zm5.22-5.13a1.38,1.38,0,0,1-1.39-1.37,1.4,1.4,0,0,1,1.39-1.39,1.38,1.38,0,0,1,1.37,1.39A1.37,1.37,0,0,1,529.12,80.05Z"/><path class="cls-2" d="M520.33,93.43A24.28,24.28,0,0,0,526,91.62,10.21,10.21,0,0,0,528.73,90l1.07,1.46a6.61,6.61,0,0,0-.78.38,31.12,31.12,0,0,1-5.22,2.22,26.73,26.73,0,0,1-3.47.82v2.54a.4.4,0,0,1,0,.13v.2c0,1.2.07,1.6.36,1.89s1.46.54,3.38.54a39.39,39.39,0,0,0,4.16-.29,12.22,12.22,0,0,0,1.84-.36l.11,1.69-.8.09a52.92,52.92,0,0,1-5.7.34c-2.24,0-3.42-.21-4.09-.75a2.38,2.38,0,0,1-.77-1.75,11,11,0,0,1-.06-1.47V89.56a11.64,11.64,0,0,0-.09-1.76h1.78a10,10,0,0,0-.1,1.78Z"/><path class="cls-2" d="M524.38,108.89a6.31,6.31,0,0,0-.08,1.32c-.07,3-.55,4.79-1.78,6.36a10.35,10.35,0,0,1-4.62,3.15,4.31,4.31,0,0,0-1-1.46,8.67,8.67,0,0,0,3.25-1.6c1.89-1.53,2.55-3.28,2.55-6.77a4.18,4.18,0,0,0-.07-1Zm7.16-2.26a4.29,4.29,0,0,0-.45.75,11,11,0,0,1-5.22,5.26,4.56,4.56,0,0,0-1.1-1.21,7.83,7.83,0,0,0,2.79-1.69,8.9,8.9,0,0,0,1.93-2.55h-10a18.78,18.78,0,0,0-2.21.08v-1.63a14.4,14.4,0,0,0,2.25.12h9.57a4.24,4.24,0,0,0,1.59-.12Z"/><path class="cls-2" d="M520.85,122.07a12.61,12.61,0,0,0-.07,1.69v4.41a13.84,13.84,0,0,0,.07,1.82h-1.78a12.8,12.8,0,0,0,.09-1.82v-4.39a10.68,10.68,0,0,0-.09-1.71Zm8,0a10.38,10.38,0,0,0-.09,1.76v2a20.39,20.39,0,0,1-.47,5.49,6.88,6.88,0,0,1-3.44,4.07,15.38,15.38,0,0,1-3.35,1.3,3.94,3.94,0,0,0-.9-1.5,9.67,9.67,0,0,0,3.85-1.46c1.75-1.17,2.4-2.34,2.62-4.79,0-.77.07-1.17.07-3.2v-1.93a12.79,12.79,0,0,0-.07-1.78Z"/><path class="cls-2" d="M517.43,150.59a16.73,16.73,0,0,0,5.27-1.35,13.47,13.47,0,0,0,7.29-8,4.8,4.8,0,0,0,1.34,1.25,15.69,15.69,0,0,1-5.57,6.93,18.35,18.35,0,0,1-6.75,2.7,7.86,7.86,0,0,0-1.11.29Zm1.26-11.17a25.07,25.07,0,0,1,4.43,3.42l-1.1,1.35a19.71,19.71,0,0,0-4.4-3.56Z"/><path class="cls-2" d="M529.47,158.21a1.8,1.8,0,0,0-.3.74,18.66,18.66,0,0,1-3.51,6.47,17.79,17.79,0,0,1-6.31,4.52,3.4,3.4,0,0,0-1.08-1.3,15.38,15.38,0,0,0,6.31-4.45,15.73,15.73,0,0,0,3.07-5.87l-5.88.09a18,18,0,0,1-4.27,4.65,3.38,3.38,0,0,0-1.23-1.1,13.71,13.71,0,0,0,4.56-5,7.61,7.61,0,0,0,1.08-2.56l1.77.41a2.42,2.42,0,0,0-.4.71c-.43.91-.58,1.2-.79,1.56a3.09,3.09,0,0,1,.66-.05l4.27-.07a2,2,0,0,0,.77-.09Zm-.45-4a14,14,0,0,1,1.89,2.79l-1.06.6a12.56,12.56,0,0,0-1.87-2.85Zm2.05-1A13.37,13.37,0,0,1,533,156l-1.05.59a13.38,13.38,0,0,0-1.85-2.79Z"/><path class="cls-2" d="M525.67,175a1.67,1.67,0,0,1-3.33,0,1.69,1.69,0,0,1,1.68-1.68A1.65,1.65,0,0,1,525.67,175Z"/><path class="cls-2" d="M520.22,191.5c-1,0-1.46,0-2,.05a14.27,14.27,0,0,0,.09-1.89v-6.23a23.38,23.38,0,0,0-.09-2.36,13.28,13.28,0,0,0,1.89.09h7.78a17.35,17.35,0,0,0,1.91-.09,21.78,21.78,0,0,0-.09,2.36v6.23a12.29,12.29,0,0,0,.09,1.89c-.47,0-1.08-.05-2-.05h-1.57v3.11c0,.54.16.6,1.93.6,2.43,0,2.43,0,2.61-2.77a5.46,5.46,0,0,0,1.35.57c-.38,3.28-.6,3.48-4,3.48-2.72,0-3.23-.22-3.23-1.39v-3.6h-2a5.22,5.22,0,0,1-1.62,3.29,8.87,8.87,0,0,1-4.58,2.15,4.23,4.23,0,0,0-.75-1.28,8.54,8.54,0,0,0,3.74-1.32,3.91,3.91,0,0,0,1.73-2.84Zm-.58-7.33h8.73v-1.75h-8.73Zm0,3h8.73v-1.8h-8.73Zm0,3.11h8.73v-1.91h-8.73Z"/><path class="cls-2" d="M521.37,204.17a9,9,0,0,0-1.13,0h-.47a7.82,7.82,0,0,0,2,3.22,4,4,0,0,0-.69,1,9,9,0,0,1-1.44-2.6c.06.76.11,1.84.11,2.56v4.36a11.86,11.86,0,0,0,.11,2.07h-1.49a16.15,16.15,0,0,0,.1-2.07v-3.6c0-.87,0-2,.11-2.88a12.34,12.34,0,0,1-2.14,4.55,5.63,5.63,0,0,0-.79-1.15,13.05,13.05,0,0,0,2.68-5.47h-.83a7.73,7.73,0,0,0-1.48.09v-1.37a8.65,8.65,0,0,0,1.52.09h.93v-2.42c-.63.17-1,.24-2,.44a3.1,3.1,0,0,0-.52-1.17,12.81,12.81,0,0,0,5-1.48l.78,1.1-.58.23a13,13,0,0,1-1.35.51v2.79h.52a6.83,6.83,0,0,0,1.25-.08v.62a11.43,11.43,0,0,0,1.53.07h2.88v-1h-2.14a11.41,11.41,0,0,0-1.5.07V201.5a9.67,9.67,0,0,0,1.48.08h2.16v-.92h-2.54a9.07,9.07,0,0,0-1.53.09v-1.21a9.47,9.47,0,0,0,1.6.09h2.47a6.2,6.2,0,0,0-.11-1.28h1.44a5.2,5.2,0,0,0-.11,1.28H530a10.47,10.47,0,0,0,1.67-.11v1.23a10.52,10.52,0,0,0-1.62-.09h-2.9v.92h2.4a10.56,10.56,0,0,0,1.58-.08v1.12a12.65,12.65,0,0,0-1.57-.07h-2.41v1h3.3a10.53,10.53,0,0,0,1.67-.11v1.26a9.28,9.28,0,0,0-1.67-.11H523a10.94,10.94,0,0,0-1.66.11Zm4,8.71a11.14,11.14,0,0,1-4.1,2,4.57,4.57,0,0,0-.76-1.13,10,10,0,0,0,4-1.68Zm-1.58-.86-1.59,0a15.47,15.47,0,0,0,.08-1.63v-3.53a9.05,9.05,0,0,0-.08-1.57c.42,0,.81,0,1.55,0h5.64a15.64,15.64,0,0,0,1.58-.06,9.1,9.1,0,0,0-.07,1.64v3.42a12.16,12.16,0,0,0,.07,1.69c-.54,0-.93,0-1.55,0Zm-.29-4.75h6.16v-.89h-6.16Zm0,1.85h6.16v-.92h-6.16Zm0,1.89h6.16v-.95h-6.16Zm5,1.05a14,14,0,0,0,4,1.62,5.1,5.1,0,0,0-.76,1.18,12.35,12.35,0,0,1-4.07-2Z"/><path class="cls-2" d="M523.35,218.35h-3.82a11.93,11.93,0,0,0-1.74.09v-1.22a13,13,0,0,0,1.87.11h3.69a7,7,0,0,0-.11-1.14h1.5a4.52,4.52,0,0,0-.13,1.14h3.62a16.88,16.88,0,0,0,2-.08,13.56,13.56,0,0,0-.05,1.57v.43h.1a11.57,11.57,0,0,0,1.8-.09v1.21a12.5,12.5,0,0,0-1.9-.09v.61a12.2,12.2,0,0,0,.05,1.44c-.54-.05-1.06-.07-2-.07h-3.67v.92h4.32a12.5,12.5,0,0,0,1.84-.09v1.19a11.66,11.66,0,0,0-1.84-.09h-4.32v.95H530a14.3,14.3,0,0,0,2-.11v1.28a17.55,17.55,0,0,0-2-.11h-12a17.3,17.3,0,0,0-2,.11V225a14.4,14.4,0,0,0,2,.11h5.29v-.95h-4.14a11.52,11.52,0,0,0-1.84.09v-1.19a12.59,12.59,0,0,0,1.84.09h4.14v-.92h-3.82a16.14,16.14,0,0,0-1.78.07v-1.15a11.85,11.85,0,0,0,1.78.09h3.82v-1h-5.29a15.4,15.4,0,0,0-2,.09v-1.23a12.66,12.66,0,0,0,2,.11h5.29Zm-5,10.37a13.22,13.22,0,0,0-.07-1.71,15,15,0,0,0,2,.06h7.56a14.43,14.43,0,0,0,2-.06,13.08,13.08,0,0,0-.07,1.73v2.18a8.71,8.71,0,0,0,.11,1.8h-1.42v-.67h-8.9v.67H518.2a9.7,9.7,0,0,0,.11-1.8Zm1.31.29h8.9v-.93h-8.9Zm0,2h8.9v-1h-8.9Zm9.29-11.78v-.9h-4.3v.9Zm-4.3,2h4.3v-1h-4.3Z"/><path class="cls-2" d="M521.48,234.71a9.46,9.46,0,0,0-.43,1,26.32,26.32,0,0,1-1.3,3v9.88a15.48,15.48,0,0,0,.13,2.18h-1.62a16.6,16.6,0,0,0,.12-2.22v-5.74c0-.67,0-1,.07-2.23a14.51,14.51,0,0,1-2.1,2.63,4.32,4.32,0,0,0-.81-1.3,14.84,14.84,0,0,0,3.69-5.28,9.9,9.9,0,0,0,.77-2.39Zm2.77,3.62a19.25,19.25,0,0,1-2.9,4.38,3.69,3.69,0,0,0-1-1.1,14.85,14.85,0,0,0,3.13-4.83,10.73,10.73,0,0,0,.78-2.55l1.48.47c-.15.34-.2.48-.36.91-.28.76-.35,1-.58,1.5h5.49A11.57,11.57,0,0,0,532,237v1.42a15.16,15.16,0,0,0-1.73-.09h-4v2.72h3.42a8.87,8.87,0,0,0,1.64-.11v1.46a12.09,12.09,0,0,0-1.64-.11h-3.42V245h3.48a10.85,10.85,0,0,0,1.64-.11v1.48a11.55,11.55,0,0,0-1.64-.11h-3.48v2.56a10.4,10.4,0,0,0,.13,2h-1.64a12.31,12.31,0,0,0,.11-2V238.33Z"/><path class="cls-2" d="M530.86,258.49c-.13.31-.2.45-.43,1,0,.06,0,.06-.51,1.17a15,15,0,0,1-2,3.39,7.23,7.23,0,0,0,1.6,2.16,2.05,2.05,0,0,0,.79.48c.26,0,.55-.95.76-2.55a4.65,4.65,0,0,0,1.15.9c-.43,2.28-1,3.18-1.83,3.18a3.47,3.47,0,0,1-2-1.15,9.76,9.76,0,0,1-1.44-1.92,15.66,15.66,0,0,1-4.8,3.47,4,4,0,0,0-1-1.12,13.26,13.26,0,0,0,5.2-3.6,22,22,0,0,1-1.49-7.42h-6.11c0,1.46,0,2,0,2.8h3.38a7.4,7.4,0,0,0,1.33-.08c0,.44,0,.49-.1,1.61a16.93,16.93,0,0,1-.53,4.34c-.27.7-.72.91-1.89.91a10.22,10.22,0,0,1-1.74-.14,5.06,5.06,0,0,0-.29-1.37,9.37,9.37,0,0,0,2,.25c.59,0,.74-.14.88-.84a28.64,28.64,0,0,0,.23-3.46h-3.33a25.68,25.68,0,0,1-.57,4.84,9.14,9.14,0,0,1-1.39,3.26,3.68,3.68,0,0,0-1.13-1,7.45,7.45,0,0,0,1.27-2.83,34.88,34.88,0,0,0,.56-7.4,13.26,13.26,0,0,0-.11-2.2,20.2,20.2,0,0,0,2.22.09h5.29a22.72,22.72,0,0,0-.14-2.81h1.58a9.61,9.61,0,0,0-.09,1.61c0,.21,0,.46,0,1.2h3.84a9.67,9.67,0,0,0,1.92-.11v1.45a14.07,14.07,0,0,0-2.07-.1h-3.63a22.18,22.18,0,0,0,1.08,6.2,13.78,13.78,0,0,0,2.07-4.75Zm-1.24-3.35a10.77,10.77,0,0,0-2.38-1.92l1-.7a11.93,11.93,0,0,1,2.36,1.8Z"/><rect class="cls-4" x="640" width="120" height="48" rx="23.82"/><path class="cls-3" d="M672,16.81a1.31,1.31,0,0,1,.43-.56,1.46,1.46,0,0,1,.74-.15c.49,0,.81.09,1,.27a2.12,2.12,0,0,1,.23,1.09l.05,2.44V20a1.44,1.44,0,0,1-.3,1,1.39,1.39,0,0,1-1,.3,1.43,1.43,0,0,1-1.34-1c0-.1-.08-.17-.1-.23A2.77,2.77,0,0,0,670.54,19a3,3,0,0,0-1.59-.4,3,3,0,0,0-1.84.53,1.62,1.62,0,0,0-.71,1.35c0,.78,1.08,1.39,3.23,1.84l.86.18A7,7,0,0,1,674,24.12a4,4,0,0,1,1.09,3,4.35,4.35,0,0,1-1.59,3.6A7.14,7.14,0,0,1,669,32a12.66,12.66,0,0,1-2.06-.15,9.51,9.51,0,0,1-1.76-.47,1.24,1.24,0,0,1-.47.47A1.51,1.51,0,0,1,664,32a1.6,1.6,0,0,1-1.12-.31,1.5,1.5,0,0,1-.33-1.07l0-3v-.14a1.69,1.69,0,0,1,.32-1.17,1.42,1.42,0,0,1,1.08-.33q.82,0,1.38,1.2l.21.44a3.35,3.35,0,0,0,1.37,1.46,4.49,4.49,0,0,0,2.17.48,3,3,0,0,0,1.81-.48,1.57,1.57,0,0,0,.65-1.36c0-.9-1-1.59-2.93-2.05-.58-.14-1-.25-1.38-.35a7.6,7.6,0,0,1-3.42-1.61,3.67,3.67,0,0,1-1-2.66,4.42,4.42,0,0,1,1.63-3.55,6.31,6.31,0,0,1,4.22-1.38,8,8,0,0,1,1.7.18A8.78,8.78,0,0,1,672,16.81Z"/><path class="cls-3" d="M688.68,19.3H686v9.47h2.13a1.8,1.8,0,0,1,1.22.33,1.75,1.75,0,0,1,0,2.15,1.8,1.8,0,0,1-1.22.33h-7.54a1.8,1.8,0,0,1-1.21-.33,1.8,1.8,0,0,1,0-2.16,1.83,1.83,0,0,1,1.21-.32h2.13V19.3H680.1L680,21.88v.31a1.33,1.33,0,0,1-.33,1,1.3,1.3,0,0,1-.94.34,1.35,1.35,0,0,1-1-.36,1.63,1.63,0,0,1-.34-1.15v-.1l.14-3.8c0-.75.13-1.21.31-1.36a1.86,1.86,0,0,1,1.11-.23h10.92a1.86,1.86,0,0,1,1.11.23c.18.15.29.61.32,1.36l.13,3.8V22a1.65,1.65,0,0,1-.32,1.15,1.29,1.29,0,0,1-1,.36,1.25,1.25,0,0,1-1-.35,2.08,2.08,0,0,1-.32-1.26Z"/><path class="cls-3" d="M703.64,19.2h-5.91v3.25H700V22.3a1.52,1.52,0,0,1,.32-1.08,1.21,1.21,0,0,1,1-.36,1.36,1.36,0,0,1,.93.32,1,1,0,0,1,.37.82,1.6,1.6,0,0,0,0,.17,2.53,2.53,0,0,1,0,.28v2.63a1.92,1.92,0,0,1-.3,1.21,1.22,1.22,0,0,1-1,.37,1.28,1.28,0,0,1-1-.34,1.42,1.42,0,0,1-.33-1v-.22h-2.24v3.79h5.91V27.36a1.88,1.88,0,0,1,.32-1.22,1.37,1.37,0,0,1,1.06-.37,1.29,1.29,0,0,1,1,.37,1.92,1.92,0,0,1,.31,1.22v3.07a1.2,1.2,0,0,1-.27.92,1.72,1.72,0,0,1-1.05.23h-10.4a1.76,1.76,0,0,1-1.2-.33,1.41,1.41,0,0,1-.36-1.08,1.42,1.42,0,0,1,.34-1,1.35,1.35,0,0,1,1-.34h.22V19.32h-.22a1.31,1.31,0,0,1-1-.36,1.38,1.38,0,0,1-.35-1,1.36,1.36,0,0,1,.37-1.07,1.69,1.69,0,0,1,1.19-.34h10.4a1.71,1.71,0,0,1,1,.23,1.2,1.2,0,0,1,.28.94v2.84a1.92,1.92,0,0,1-.32,1.24,1.27,1.27,0,0,1-1,.37,1.31,1.31,0,0,1-1.06-.38,1.91,1.91,0,0,1-.32-1.23Z"/><path class="cls-3" d="M713.88,26.19V28.8h1.31a1.73,1.73,0,0,1,1.17.31,1.36,1.36,0,0,1,.35,1.06,1.4,1.4,0,0,1-.35,1.08,1.7,1.7,0,0,1-1.17.33H710.8a1.76,1.76,0,0,1-1.2-.33,1.41,1.41,0,0,1-.36-1.08,1.42,1.42,0,0,1,.34-1,1.35,1.35,0,0,1,1-.34h.22V19.32h-.22a1.31,1.31,0,0,1-1-.36,1.38,1.38,0,0,1-.35-1,1.4,1.4,0,0,1,.36-1.07,1.74,1.74,0,0,1,1.2-.34H716a7.81,7.81,0,0,1,4.7,1.19,4.11,4.11,0,0,1,1.6,3.52,4.45,4.45,0,0,1-1.59,3.71A7.54,7.54,0,0,1,716,26.19Zm0-6.87v4h1.81a4,4,0,0,0,2.25-.51,1.72,1.72,0,0,0,.75-1.52,1.65,1.65,0,0,0-.78-1.47,4,4,0,0,0-2.22-.52Z"/><path class="cls-3" d="M728.89,18.4v2.93a12.15,12.15,0,0,1,1.5-.35,7.12,7.12,0,0,1,1.25-.12,4.81,4.81,0,0,1,3.7,1.51,5.54,5.54,0,0,1,1.41,3.95A5.22,5.22,0,0,1,735,30.54,7.58,7.58,0,0,1,730,32a9.52,9.52,0,0,1-3.59-.52,1.66,1.66,0,0,1-1.23-1.53,1.44,1.44,0,0,1,.44-1.05,1.39,1.39,0,0,1,1-.44,7.22,7.22,0,0,1,1.6.37,7.26,7.26,0,0,0,2.1.37,3.12,3.12,0,0,0,2.22-.74,2.74,2.74,0,0,0,.79-2.1,2.93,2.93,0,0,0-.75-2.11,2.63,2.63,0,0,0-2-.78,4.86,4.86,0,0,0-1.93.52,4.52,4.52,0,0,1-1.52.52,1.21,1.21,0,0,1-1-.4,2.32,2.32,0,0,1-.3-1.36V16.6a1.36,1.36,0,0,1,.18-.87.88.88,0,0,1,.63-.18h8.31a1.52,1.52,0,0,1,1.1.32,1.55,1.55,0,0,1,.31,1.12,1.56,1.56,0,0,1-.3,1.1,1.52,1.52,0,0,1-1.11.31Z"/><path class="cls-2" d="M702.67,91.85c-3.7.77-6.32,1.23-8.86,1.59-.62.07-.72.09-1.18.16l-.43-2.42h.24a26.55,26.55,0,0,0,3.1-.29V89.26A28.32,28.32,0,0,1,690,91.49a7.7,7.7,0,0,0-1.23-2.16,19,19,0,0,0,7.45-3h-4.54a16.61,16.61,0,0,0-2.57.12V84.17a24,24,0,0,0,2.66.1h7.49v-.41c0-.24,0-.63,0-.82-.53,0-.7,0-1.3-.05a5.42,5.42,0,0,0-.38-1.6,9.77,9.77,0,0,0,1.24.12c.31,0,.41-.1.41-.41v-.75h-2.3V81.6c0,.77,0,1.32.07,1.9h-2.47a15.42,15.42,0,0,0,.09-1.9V80.35h-2.09v1.44a6.11,6.11,0,0,0,.08,1.37h-2.4l0-.24a9.91,9.91,0,0,0,.07-1.25v-1.8c0-.45,0-.64-.07-1.36.36,0,1.06,0,1.61,0h2.78v-1h-3.12a15.49,15.49,0,0,0-2.16.12V75.65a13.56,13.56,0,0,0,1.61.1,12.79,12.79,0,0,0-1.8-1.08A8.44,8.44,0,0,0,691,71.31l2.42.48a9.08,9.08,0,0,1-.45,1.08h1.58a13.12,13.12,0,0,0-.12-1.59H697a10.42,10.42,0,0,0-.09,1.59h2.3a13.67,13.67,0,0,0,2.21-.12v2.06c-.67,0-1.22-.07-2.18-.07h-2.33v1h2.61a14.2,14.2,0,0,0,2.38-.12v2.06a19.84,19.84,0,0,0-2.26-.1h-2.73v1h2.42c.89,0,1.34,0,1.92,0,0,.28,0,.55,0,1v1.89a1.36,1.36,0,0,1-.46,1.23h1.06a9.55,9.55,0,0,0-.08,1.2v.41H708a25.06,25.06,0,0,0,2.74-.1V86.5a17.27,17.27,0,0,0-2.62-.12h-1L709,87.46a11.37,11.37,0,0,1-2.76,2,17.1,17.1,0,0,0,5,1.61,9.18,9.18,0,0,0-1.3,2.4,18.33,18.33,0,0,1-7.24-3.58Zm-8.12-16.1v-1H692c-.27.41-.39.57-.72,1ZM698,90.51c2.38-.36,3-.48,4.37-.79a9.05,9.05,0,0,1-2.49-3.34h-.51c-.43.41-.89.84-1.37,1.22Zm4.37-4.13a6.45,6.45,0,0,0,1.85,2,10.72,10.72,0,0,0,2.45-2Zm.12-6.39a11.21,11.21,0,0,0,.1-1.63v-4a13.68,13.68,0,0,0-.12-1.8h2.61a11.49,11.49,0,0,0-.09,1.8v3.94a10.75,10.75,0,0,0,.07,1.65Zm7.15.63c0,1.27-.19,1.77-.81,2.16a5.63,5.63,0,0,1-2.79.43c-.48,0-1.15,0-1.75,0a6.77,6.77,0,0,0-.65-2.28,15.38,15.38,0,0,0,2.33.22,8.11,8.11,0,0,0,.94-.07c.21-.08.29-.2.29-.63V73.54a15,15,0,0,0-.13-2h2.69a14.18,14.18,0,0,0-.12,2.16Z"/><path class="cls-2" d="M689.68,108.72a20.19,20.19,0,0,0-.1-2.3,22.52,22.52,0,0,0,2.33.09h5.26c.69,0,1.22,0,1.8-.07a14.57,14.57,0,0,0-.07,2.09v6.41a17.16,17.16,0,0,0,.09,2.16H696.4v-.87h-4.18v1.25h-2.66a17.38,17.38,0,0,0,.12-2.59Zm2.52,5.19h4.2v-5.07h-4.2Zm.67-15.77a19,19,0,0,0-.09-2.14,19.07,19.07,0,0,0,2.71.12h9a18.22,18.22,0,0,0,2.73-.12,17.68,17.68,0,0,0-.09,2.11v4.44a19.8,19.8,0,0,0,.09,2.24,20,20,0,0,0-2.49-.1h-9.51a20,20,0,0,0-2.49.1,20.69,20.69,0,0,0,.09-2.21Zm2.57,4.22h9.15V98.52h-9.15Zm12.87,4.15a17.33,17.33,0,0,0,2.13-.09,21.32,21.32,0,0,0-.09,2.3v6.2a16.23,16.23,0,0,0,.12,2.56h-2.69v-1.25h-4.56v1.25h-2.57c.05-.67.07-1.15.07-2.13v-6.94a19.16,19.16,0,0,0-.05-2c.56,0,1.06.07,1.78.07Zm-5.09,7.4h4.58v-5.07h-4.58Z"/><path class="cls-2" d="M704,134.4l-2.76,0c-4.84,0-6.5-.48-7.61-2.23a23,23,0,0,1-3.57,2.33l-1-2.43a15.57,15.57,0,0,0,3.41-1.75v-2.83H691.1a10.31,10.31,0,0,0-1.64.1v-2.36a10.42,10.42,0,0,0,1.92.12h1.81a13.42,13.42,0,0,0,1.82-.09,15.86,15.86,0,0,0-.1,2.25v2.91a2.81,2.81,0,0,0,1.83,1.58,17.18,17.18,0,0,0,4.49.34c4.87,0,7.92-.1,10.1-.29a6.25,6.25,0,0,0-.7,2.21l-4,.07v.82h1.3a20.09,20.09,0,0,0,2.85-.15v2.43a21.2,21.2,0,0,0-2.9-.15H706.6v2.16c0,1.63-.72,2-3.67,2-.53,0-.91,0-1.83,0a5.8,5.8,0,0,0-.71-2.47,23.33,23.33,0,0,0,2.68.19c.79,0,1-.1,1-.55v-1.3h-7.68a22.16,22.16,0,0,1,2.84,2.33l-2,1.73a14.36,14.36,0,0,0-3.34-3l1.39-1h-2.93a21.81,21.81,0,0,0-2.9.15v-2.43a20.06,20.06,0,0,0,2.86.15H704Zm-12.72-15a22.79,22.79,0,0,1,3.75,3.14l-1.76,1.85a19.85,19.85,0,0,0-3.69-3.36Zm7.49,1.65a9.43,9.43,0,0,0-1.13-1.58l2.57-.46a14.26,14.26,0,0,1,1.27,2h2.35a10.59,10.59,0,0,0,1.21-2l2.64.5c-.51.75-.75,1.08-1,1.49h1.52a14.2,14.2,0,0,0,2.4-.12v2.21a20,20,0,0,0-2.4-.1H704c-.17.34-.17.39-.34.68h3.22c1,0,1.68,0,2.18-.08a14,14,0,0,0-.1,1.88v4.2a13,13,0,0,0,.1,1.92c-.6,0-.91,0-1.85,0H699c-1.08,0-1.63,0-2.26,0a14.76,14.76,0,0,0,.07-1.78v-4.37a12.49,12.49,0,0,0-.09-1.85c.46,0,1.27.08,2.35.08H701l.36-.68h-3.55a20.41,20.41,0,0,0-2.42.1V121a12.48,12.48,0,0,0,2.27.12Zm.34,5h7.41v-.67h-7.41Zm0,1.92h7.41v-.7h-7.41Zm0,2h7.41v-.67h-7.41Z"/><path class="cls-2" d="M695.56,147.07c-.65,0-1.37.05-2.3.12v-2.88a14,14,0,0,0,2.25.12h3.82a12.62,12.62,0,0,0,2.18-.12,11.8,11.8,0,0,0-.07,1.52,18.64,18.64,0,0,0,2.57,9.5,19.42,19.42,0,0,0,3.84,4.61,17,17,0,0,0,3.55,2.59,10.21,10.21,0,0,0-2,2.71,24.1,24.1,0,0,1-5.83-5.64,17.81,17.81,0,0,1-2.11-3.55,15.5,15.5,0,0,1-1.23-3.41,20.09,20.09,0,0,1-3.43,7.25,24.13,24.13,0,0,1-6,5.42,6.8,6.8,0,0,0-2-2.51,18.9,18.9,0,0,0,4.82-3.77,17.79,17.79,0,0,0,4.11-7.11,19.07,19.07,0,0,0,.79-4.85Z"/><path class="cls-2" d="M702.86,172.39a2.86,2.86,0,1,1-2.86-2.85A2.85,2.85,0,0,1,702.86,172.39Z"/><path class="cls-2" d="M696.64,190.59c-1.51,1.27-2.18,2.28-2.18,3.31,0,1.56,1.75,2.23,5.81,2.23a24.68,24.68,0,0,0,7.53-1l.27,3.29a9.26,9.26,0,0,0-1.06.09,38,38,0,0,1-6.48.56,17.06,17.06,0,0,1-6-.8c-2.07-.81-3.07-2.13-3.07-4s.93-3.44,3.09-5.24ZM693,180.72a31.64,31.64,0,0,0,7.2.6,30.33,30.33,0,0,0,6.34-.45l.1,2.71a42.66,42.66,0,0,0-6.41,4l-2.09-1.66c1.51-1,1.78-1.12,2.38-1.46l.62-.39a3.57,3.57,0,0,0,.53-.28,26.3,26.3,0,0,1-3.6.19,37.51,37.51,0,0,1-4.4-.29l-.55-.05-.33,0Zm12.68,5.33a15.88,15.88,0,0,1,2.52,3.53l-1.68.89a16.51,16.51,0,0,0-2.52-3.58Zm3.72,2.91a17.88,17.88,0,0,0-2.45-3.48l1.61-.84A13.62,13.62,0,0,1,711,188Z"/><path class="cls-2" d="M693.86,206.45c-1.56.31-2.07.38-3.51.6a9.26,9.26,0,0,0-.89-2.3c4-.41,7.76-1.35,9.24-2.31l1.57,2.21c-1.73.6-2.84.94-3.89,1.22V209h1.92a11.3,11.3,0,0,0,2-.12v2.62a12.06,12.06,0,0,0-2.06-.12H696.5a14.29,14.29,0,0,0,3.84,4.49,11,11,0,0,0-1.28,2.35,13.35,13.35,0,0,1-2.8-3.84c.07.81.12,1.8.12,3v4.18a20.12,20.12,0,0,0,.14,3h-2.86a21,21,0,0,0,.17-3v-4c0-1,0-2.06.12-2.88a17.56,17.56,0,0,1-1.63,3.38,15.93,15.93,0,0,1-2.09,2.64,13.15,13.15,0,0,0-1.34-2.52A14.41,14.41,0,0,0,691.5,215a30.1,30.1,0,0,0,1.88-3.6h-1.73a13.9,13.9,0,0,0-2.21.14v-2.66a11.3,11.3,0,0,0,2.26.14h2.16Zm10.56-2.26a18.22,18.22,0,0,0-.15,2.91v9.07a21,21,0,0,0,.12,2.86h-2.83a17.93,17.93,0,0,0,.12-2.81V207.1a19,19,0,0,0-.14-2.91Zm5.71-1.44A25.14,25.14,0,0,0,710,206v15.43c0,1.27-.31,2-1.08,2.38-.57.31-1.39.41-3.33.41-.61,0-1,0-1.78-.05a10.42,10.42,0,0,0-.82-2.67,28.55,28.55,0,0,0,3.17.22c1.06,0,1.23-.1,1.23-.72V206c0-1.2-.05-2.21-.15-3.27Z"/><path class="cls-2" d="M693.45,241A16.23,16.23,0,0,1,691,248.6a14.21,14.21,0,0,0-2.33-1.9,10.78,10.78,0,0,0,1.75-4.06,23.81,23.81,0,0,0,.48-3.67c.12-2,.22-5.42.22-8.25a31.64,31.64,0,0,0-.12-3.49,25.93,25.93,0,0,0,2.76.1h13.47a24.48,24.48,0,0,0,2.76-.1,24.89,24.89,0,0,0-.1,2.72v15.77c0,2-.72,2.49-3.46,2.49-.74,0-2-.05-2.68-.09a9.47,9.47,0,0,0-.68-2.5c1.2.12,2.26.19,3,.19,1,0,1.2-.09,1.2-.6V241h-5.76V245a20.29,20.29,0,0,0,.12,2.85h-2.84A18.92,18.92,0,0,0,699,245v-4Zm5.52-5.66h-5.31c0,.69,0,1.17,0,1.51,0,1.13,0,1.3,0,1.78H699Zm0-5.5h-5.23v2.47l0,.68H699ZM707.3,233v-3.15h-5.76V233Zm0,5.64v-3.29h-5.76v3.29Z"/><path class="cls-2" d="M692.46,269.52a20.22,20.22,0,0,0,.15,2.93H689.8a20.68,20.68,0,0,0,.14-3V253.64c0-1.25,0-1.92-.09-2.69a22.48,22.48,0,0,0,2.47.09h4.37a21.07,21.07,0,0,0,2.45-.09c0,.69-.08,1.39-.08,2.23v3.7c0,1.08,0,1.53.08,2.16-.63-.05-1.37-.08-2.21-.08h-4.47Zm0-15.41h4.25v-1.27h-4.25Zm0,3h4.25v-1.3h-4.25Zm4,7.12c0-.84,0-1.1,0-2.2a21.73,21.73,0,0,0-2.4.09V260a15.59,15.59,0,0,0,2.42.12h7A16.37,16.37,0,0,0,706,260v2.16a22.43,22.43,0,0,0-2.49-.09v2.2h.35a22.34,22.34,0,0,0,2.48-.09v2.21a16.69,16.69,0,0,0-2.48-.12h-.35v3.55a10,10,0,0,0,.12,2H701.1a10.74,10.74,0,0,0,.13-2.07v-3.52h-2.69a8.64,8.64,0,0,1-2.91,5.92,10.39,10.39,0,0,0-1.92-1.65,5.85,5.85,0,0,0,2.57-4.27,16.09,16.09,0,0,0-2.54.12v-2.21a22.43,22.43,0,0,0,2.49.09Zm2.28-2.2c0,1.08,0,1.08,0,2.2h2.53V262Zm11.38,7.46c0,2.14-.72,2.69-3.41,2.69-.43,0-.77,0-1.56-.05a8.25,8.25,0,0,0-.65-2.54,17.3,17.3,0,0,0,2.21.19c.77,0,.91-.1.91-.63V259h-4.7c-.84,0-1.61,0-2.18.08,0-.7,0-1.08,0-2.16v-3.7c0-.91,0-1.54-.07-2.23a21.51,21.51,0,0,0,2.45.09h4.58a22.57,22.57,0,0,0,2.48-.09,25.5,25.5,0,0,0-.1,2.66Zm-7-15.39h4.46v-1.27h-4.46Zm0,3h4.46v-1.3h-4.46Z"/><path class="cls-2" d="M697.7,283.32a24.3,24.3,0,0,1-1.64,6.12,26,26,0,0,1,2.48,2.31L696.93,294a30,30,0,0,0-2.11-2.21,15.63,15.63,0,0,1-4.23,4.44,8.72,8.72,0,0,0-1.8-2.09,13.76,13.76,0,0,0,4.08-4,28.9,28.9,0,0,0-3.41-2.35,31.89,31.89,0,0,0,2-6.56H691a13,13,0,0,0-1.7.12v-2.59a11.58,11.58,0,0,0,1.94.15h.72a28.28,28.28,0,0,0,.51-4.32v-.29l2.71.24c-.07.29-.15.72-.27,1.49s-.16,1.1-.48,2.88H696a17.35,17.35,0,0,0,2.18-.1c0,.41,0,.41-.09,1.1-.08.94-.1,1.37-.22,2.31.29,0,.43,0,.7,0h.89c.14-.38.14-.38.43-1a29.12,29.12,0,0,0,2-6.91l2.93.57a7.25,7.25,0,0,0-.51,1.4,45.36,45.36,0,0,1-2.16,5.8c2.86-.21,2.88-.21,5-.45a29.9,29.9,0,0,0-2.18-3.29l2.3-1.08a37.65,37.65,0,0,1,4.08,7L709,285.65c-.38-1-.45-1.13-.79-1.9-3.34.44-4.94.6-8.21.89a12.64,12.64,0,0,0-2,.29ZM694,281.23a40.52,40.52,0,0,1-1.53,5.57c1,.63,1.27.84,1.65,1.13a19.88,19.88,0,0,0,1.54-6.7Zm7.47,15.34H698.8a20.71,20.71,0,0,0,.1-2.16v-6.22c0-.91,0-1.65-.1-2.25a16.63,16.63,0,0,0,2,.09h6.75a16.76,16.76,0,0,0,2.23-.09,20.86,20.86,0,0,0-.1,2.42v5.81a12.75,12.75,0,0,0,.15,2.4H707.2v-1.2h-5.78Zm0-3.53h5.81v-4.65h-5.81Z"/><path class="cls-2" d="M383.81,141.38a20.37,20.37,0,0,0,.19-3.12V125h-1.15a22.72,22.72,0,0,0-2.47.14v-3.05a13.21,13.21,0,0,0,2.4.15H385a18.29,18.29,0,0,0,2.44-.12,37.11,37.11,0,0,0-.19,4v12.14a20.55,20.55,0,0,0,.19,3.12Z"/><path class="cls-2" d="M410.28,137.11a19.63,19.63,0,0,0-2.4-.17H407v1.71a15.2,15.2,0,0,0,.19,2.73H403.8a14.76,14.76,0,0,0,.19-2.78v-1.66h-6.64c-1.42,0-2.19,0-3,.1v-2.95c.81-.89,1.08-1.2,1.92-2.21l5.68-7a23.76,23.76,0,0,0,2-2.64h3.24a32.45,32.45,0,0,0-.17,4v7.88h.84a15.76,15.76,0,0,0,2.42-.17ZM404,129.26a26.29,26.29,0,0,1,.12-2.88c-.48.7-.77,1.08-1.63,2.14l-4.61,5.71H404Z"/></g></g></svg>