<svg xmlns="http://www.w3.org/2000/svg" viewBox="0 0 34.6 23.63"><defs><style>.cls-1{fill:#fff;}</style></defs><g id="レイヤー_2" data-name="レイヤー 2"><g id="レイヤー_1-2" data-name="レイヤー 1"><path class="cls-1" d="M17.26,23.63H3.13A2.91,2.91,0,0,1,0,20.51V3.16A2.93,2.93,0,0,1,3.15,0H31.47A3,3,0,0,1,34.6,3.13v9.94c0,2.45,0,4.9,0,7.35a3,3,0,0,1-3.21,3.21ZM3,1.73l.45.47L8.64,7.42c2.29,2.29,4.6,4.56,6.85,6.88a2.21,2.21,0,0,0,3.5.11L24.1,9.28l7.08-7.12.4-.43Zm9,11.4L2.3,21.87H32.14l0-.13-9.55-8.59c-.9.9-1.74,1.75-2.6,2.59a3.77,3.77,0,0,1-5.48,0C13.71,14.9,12.89,14,12,13.13Zm11.79-1.2,9.06,8.15V3ZM1.72,3V20.12l9.13-8.22Z"/></g></g></svg>