<svg xmlns="http://www.w3.org/2000/svg" viewBox="0 0 34.33 34.59"><defs><style>.cls-1{fill:#fff;}</style></defs><g id="レイヤー_2" data-name="レイヤー 2"><g id="レイヤー_1-2" data-name="レイヤー 1"><path class="cls-1" d="M22.7,34.56c-6.13,0-12.26-.06-18.39,0C1.17,34.63-.13,32.8,0,30c0-.48,0-1,0-1.45V4c0-2.67,1.37-4,4-4H30.28a5.23,5.23,0,0,1,2,.33,3.36,3.36,0,0,1,2.07,3.33V28.41c0,.91,0,1.81,0,2.71a3.44,3.44,0,0,1-3.4,3.43c-1,0-2,0-3.07,0ZM2,9.18V28.07c0,.93,0,1.85,0,2.78a1.66,1.66,0,0,0,1.6,1.76H10l9.39,0c4.36,0-2.38,0,2,0,2.8,0,5.61-.05,8.41,0,2.07,0,2.5-.31,2.63-2.35a1.47,1.47,0,0,0,0-.21q0-10.07,0-20.14V9.18Zm30.32-2V3.94c0-1.42-.56-2-2-2H4.19a4.49,4.49,0,0,0-.9.05A1.33,1.33,0,0,0,2.08,3.28c-.06,1.26,0,2.54,0,3.85Z"/><path class="cls-1" d="M16.9,5.57h-.32a4.42,4.42,0,0,1-.63,0,.9.9,0,0,1-.89-1,.91.91,0,0,1,.89-1,3.51,3.51,0,0,1,.56,0h12a2.64,2.64,0,0,1,.69,0,.91.91,0,0,1,.73,1,.9.9,0,0,1-.8.91,3.94,3.94,0,0,1-.69,0Z"/><path class="cls-1" d="M11.74,5.57c-.74,0-1.16-.36-1.16-1s.42-1,1.1-1,1.17.37,1.16,1S12.43,5.56,11.74,5.57Z"/><path class="cls-1" d="M8.6,5.57c-.69,0-1.11-.38-1.11-1s.44-1,1.17-1a1,1,0,0,1,1.1,1C9.77,5.21,9.33,5.57,8.6,5.57Z"/><path class="cls-1" d="M5.57,5.56c-.72,0-1.15-.38-1.13-1a1,1,0,0,1,1.13-.95,1,1,0,0,1,1.14,1C6.69,5.22,6.27,5.56,5.57,5.56Z"/></g></g></svg>