<svg xmlns="http://www.w3.org/2000/svg" viewBox="0 0 302.21 37.77"><defs><style>.cls-1{fill:#231815;}.cls-2{fill:#fff;}.cls-3{fill:#201512;}</style></defs><g id="レイヤー_2" data-name="レイヤー 2"><g id="レイヤー_1-2" data-name="レイヤー 1"><path class="cls-1" d="M237.86,17c-2.58.34-6,.65-10.37.92a1,1,0,0,1-1-.81l0-.25a1,1,0,0,1,.91-1.11h.11a1,1,0,0,0,.85-.57c.57-1.28,1.2-2.85,1.87-4.72s1.25-3.57,1.75-5.2A1,1,0,0,1,233,4.55l.51.09a1,1,0,0,1,.77,1.23,82.73,82.73,0,0,1-3,8.25,1,1,0,0,0,.94,1.34c1.52-.1,2.81-.21,3.87-.32a1,1,0,0,0,.71-1.46c-.39-.63-.91-1.45-1.57-2.46a1,1,0,0,1,.37-1.38l.31-.16a1,1,0,0,1,1.21.28,38.49,38.49,0,0,1,2.2,3.3q1,1.76,1.83,3.27a1,1,0,0,1-.54,1.34l-.52.18a1,1,0,0,1-1.18-.51h0A1,1,0,0,0,237.86,17Z"/><path class="cls-1" d="M239.73,19.51a2.35,2.35,0,0,1-2-1.11c-2.57.33-6,.62-10.16.88a2.34,2.34,0,0,1-2.47-2l-.05-.25a2.37,2.37,0,0,1,.52-1.88,2.32,2.32,0,0,1,1.57-.84c.53-1.2,1.11-2.68,1.73-4.39s1.23-3.53,1.72-5.13a2.37,2.37,0,0,1,2.62-1.64l.51.08a2.4,2.4,0,0,1,1.64,1.09,2.37,2.37,0,0,1,.25,1.94c-.25.79-.51,1.58-.77,2.36l.07,0,.31-.16a2.36,2.36,0,0,1,3,.67,39.18,39.18,0,0,1,2.29,3.43c.71,1.19,1.34,2.32,1.87,3.35A2.36,2.36,0,0,1,241,19.2l-.51.18A2.66,2.66,0,0,1,239.73,19.51Zm-9.88-4.36c-.09.19-.17.38-.25.56a2.51,2.51,0,0,1-.44.67l1.4-.1a2.41,2.41,0,0,1-.37-.41A2.26,2.26,0,0,1,229.85,15.15Zm8.14.42a2.31,2.31,0,0,1,1.19.32c-.27-.5-.57-1-.88-1.53a2.45,2.45,0,0,1-.23.86,2.5,2.5,0,0,1-.21.35Zm-4.19-4c-.32.84-.66,1.66-1,2.48l2.4-.2L234,12A2.58,2.58,0,0,1,233.8,11.54Z"/><path class="cls-1" d="M254.66,17.34h-6.29a1,1,0,0,1-1-1V6.41a1,1,0,0,1,1-1H249a1,1,0,0,1,1,1v8a1,1,0,0,0,1,1h3.68a1,1,0,0,1,1,1h0A1,1,0,0,1,254.66,17.34Z"/><path class="cls-1" d="M254.66,18.74h-6.29A2.39,2.39,0,0,1,246,16.35V6.41A2.39,2.39,0,0,1,248.37,4H249a2.39,2.39,0,0,1,2.39,2.38V14h3.27a2.39,2.39,0,1,1,0,4.78Zm-5.88-2.8h.4a2.32,2.32,0,0,1-.4-.63Z"/><path class="cls-1" d="M258.43,7H258A1.07,1.07,0,0,1,256.9,6h0A1.06,1.06,0,0,1,258,4.9h.46A1.06,1.06,0,0,1,259.5,6h0A1.07,1.07,0,0,1,258.43,7Zm-.09,10.3h-.28A1.07,1.07,0,0,1,257,16.27v-7a1.07,1.07,0,0,1,1.07-1.07h.28a1.07,1.07,0,0,1,1.07,1.07v7A1.07,1.07,0,0,1,258.34,17.34Z"/><path class="cls-1" d="M258.34,18.74h-.28a2.48,2.48,0,0,1-2.47-2.47v-7a2.48,2.48,0,0,1,.58-1.59A2.47,2.47,0,0,1,258,3.5h.46a2.47,2.47,0,0,1,1.8,4.16,2.48,2.48,0,0,1,.58,1.59v7A2.48,2.48,0,0,1,258.34,18.74Zm-.14-13a.33.33,0,0,0-.1.24.14.14,0,1,0,.2,0A.33.33,0,0,0,258.2,5.73Z"/><path class="cls-1" d="M270.19,16.29a4.42,4.42,0,0,1-1.14,3.35,5.17,5.17,0,0,1-3.65,1.08,14.51,14.51,0,0,1-3-.31.26.26,0,0,1-.19-.24V18.39h.11A8.44,8.44,0,0,0,265,19a3.46,3.46,0,0,0,2.07-.5,2.39,2.39,0,0,0,.65-2h0a.24.24,0,0,0-.39-.19,4,4,0,0,1-2.35.9c-2.52,0-3.77-1.55-3.77-4.67a4.89,4.89,0,0,1,1.09-3.33,3.55,3.55,0,0,1,2.8-1.26,4.44,4.44,0,0,1,2.32.67.25.25,0,0,0,.36-.14l0-.1a.26.26,0,0,1,.24-.18h1.86a.25.25,0,0,1,.25.25Zm-2.43-1.77V10.2a.25.25,0,0,0-.15-.23,3.83,3.83,0,0,0-1.33-.28c-1.68,0-2.52,1-2.52,2.89a3.32,3.32,0,0,0,.53,2.09,2,2,0,0,0,1.63.64,3.18,3.18,0,0,0,1.73-.59A.23.23,0,0,0,267.76,14.52Z"/><path class="cls-1" d="M265.4,22.12a16.73,16.73,0,0,1-3.3-.34,1.65,1.65,0,0,1-1.3-1.61V17h.39a6.6,6.6,0,0,1-1.34-4.47,6.25,6.25,0,0,1,1.44-4.25,5,5,0,0,1,3.85-1.74,5.66,5.66,0,0,1,2.18.44,1.65,1.65,0,0,1,.76-.19h1.86a1.65,1.65,0,0,1,1.65,1.65v7.86A5.74,5.74,0,0,1,270,20.65,6.45,6.45,0,0,1,265.4,22.12Zm.88-11c-.58,0-1.12,0-1.12,1.49,0,.94.2,1.19.21,1.2s.27.13.55.13a1.28,1.28,0,0,0,.44-.09V11.09Z"/><path class="cls-1" d="M280.06,17.34h0a1.22,1.22,0,0,1-1.21-1.22V12.78a4,4,0,0,0-.43-2.38A1.77,1.77,0,0,0,277,9.94a3,3,0,0,0-1.22.32,1.21,1.21,0,0,0-.68,1.09v4.77a1.22,1.22,0,0,1-1.22,1.22h0a1.22,1.22,0,0,1-1.21-1.22v-10a1.21,1.21,0,0,1,1.21-1.21h0a1.22,1.22,0,0,1,1.22,1.21V7.18a1.21,1.21,0,0,0,1.72,1.1l.1,0a3.53,3.53,0,0,1,1.43-.3c1.92,0,2.89,1.13,2.89,3.39v4.8A1.22,1.22,0,0,1,280.06,17.34Z"/><path class="cls-1" d="M280.06,18.74h0a2.62,2.62,0,0,1-2.61-2.62V12.78a6.22,6.22,0,0,0-.11-1.42l-.29,0a1.3,1.3,0,0,0-.5.13v4.65a2.62,2.62,0,1,1-5.23,0v-10a2.62,2.62,0,0,1,5.23,0v.78a4.84,4.84,0,0,1,1.85-.36c2.72,0,4.29,1.75,4.29,4.79v4.8A2.62,2.62,0,0,1,280.06,18.74Zm-6-10.22V10a2.49,2.49,0,0,1,.67-.74A2.66,2.66,0,0,1,274.1,8.52Z"/><path class="cls-1" d="M289.11,16.79a.59.59,0,0,1-.49.59,9,9,0,0,1-1.59.14,3.41,3.41,0,0,1-2.39-.7,3,3,0,0,1-.76-2.27V10.39a.6.6,0,0,0-.6-.6h0a.6.6,0,0,1-.6-.6V8.78a.6.6,0,0,1,.6-.6h0a.6.6,0,0,0,.61-.6V6.22a.6.6,0,0,1,.6-.61h1.21a.6.6,0,0,1,.6.61V7.58a.6.6,0,0,0,.61.6h1.6a.6.6,0,0,1,.6.6v.41a.6.6,0,0,1-.6.6h-1.6a.6.6,0,0,0-.61.6v3.17a3.22,3.22,0,0,0,.38,1.9,1.54,1.54,0,0,0,1.24.44,2.41,2.41,0,0,0,1.12-.28h.07Z"/><path class="cls-1" d="M287,18.92a4.77,4.77,0,0,1-3.34-1.07,4.3,4.3,0,0,1-1.21-3.3V11a2,2,0,0,1-1.2-1.83V8.78A2,2,0,0,1,282.49,7V6.22a2,2,0,0,1,2-2h1.21a2,2,0,0,1,2,2v.56h.81a2,2,0,0,1,2,2v.41a2,2,0,0,1-2,2h-.81v2.37a4.86,4.86,0,0,0,.07.93h.15a1,1,0,0,0,.49-.13l.3-.15h1.8v2.57a2,2,0,0,1-1.65,2A9.89,9.89,0,0,1,287,18.92ZM284.7,9a2,2,0,0,1,.39.56,2,2,0,0,1,.39-.56,1.79,1.79,0,0,1-.38-.56A2,2,0,0,1,284.7,9Z"/><path class="cls-1" d="M188.18,11.54l-.06.11a1,1,0,0,1-1.32.46c-.79-.33-1.46-.59-2-.78s-1.44-.46-2.59-.79a1,1,0,0,1-.65-1.46h0a1,1,0,0,1,1.17-.56c.79.18,1.52.38,2.19.59s1.6.54,2.72,1A1,1,0,0,1,188.18,11.54Zm6.65-2.16a1,1,0,0,1,.42,1.47,14.06,14.06,0,0,1-4.8,4.75,18.61,18.61,0,0,1-7.14,2.32,1,1,0,0,1-1.13-.79l0-.1a1,1,0,0,1,.86-1.28,18,18,0,0,0,5.82-1.82,12.55,12.55,0,0,0,4.52-4.28,1,1,0,0,1,1.33-.35Zm-5.15-1.71-.06.1a1,1,0,0,1-1.32.45l-.92-.39c-.61-.25-1.11-.44-1.49-.56l-2.16-.7a1,1,0,0,1-.61-1.46h0a1,1,0,0,1,1.2-.53,48,48,0,0,1,4.83,1.6A1,1,0,0,1,189.68,7.67Z"/><path class="cls-1" d="M183.18,19.32a2.42,2.42,0,0,1-2.36-1.86l0-.09a2.46,2.46,0,0,1,2-3,18.9,18.9,0,0,0,3.63-.9l-.17-.07c-.76-.31-1.41-.57-1.94-.75s-1.39-.44-2.52-.77a2.45,2.45,0,0,1,.34-4.77,2.45,2.45,0,0,1-.34-.59,2.43,2.43,0,0,1,.07-2,2.46,2.46,0,0,1,2.8-1.26c1.36.36,3,.92,5,1.65a2.44,2.44,0,0,1,1.26,3.48l-.06.11a2.43,2.43,0,0,1-1.58,1.18,2.62,2.62,0,0,1,.29.55,2.42,2.42,0,0,1,0,1.57,12.4,12.4,0,0,0,2.59-2.89,2.46,2.46,0,0,1,3.14-.82l.15.08a2.44,2.44,0,0,1,1,3.47,15.53,15.53,0,0,1-5.28,5.2,19.77,19.77,0,0,1-7.67,2.5A1.67,1.67,0,0,1,183.18,19.32Z"/><path class="cls-2" d="M187.69,10.91l-.06.11a1,1,0,0,1-1.31.46c-.79-.33-1.47-.59-2-.78s-1.43-.46-2.58-.79a1,1,0,0,1-.65-1.46h0a1,1,0,0,1,1.18-.56c.78.18,1.51.38,2.19.59s1.59.54,2.71,1A1,1,0,0,1,187.69,10.91Zm6.66-2.16a1,1,0,0,1,.41,1.47A14.12,14.12,0,0,1,190,15a18.55,18.55,0,0,1-7.14,2.31,1,1,0,0,1-1.14-.78l0-.1a1,1,0,0,1,.86-1.28,18,18,0,0,0,5.82-1.82A12.71,12.71,0,0,0,192.87,9a1,1,0,0,1,1.33-.35ZM189.2,7l-.06.1a1,1,0,0,1-1.32.45l-.92-.39a15.55,15.55,0,0,0-1.5-.56l-2.15-.7a1,1,0,0,1-.61-1.46h0a1,1,0,0,1,1.19-.54q2,.52,4.83,1.61A1,1,0,0,1,189.2,7Z"/><path class="cls-1" d="M210,17.18l-.45.44a.89.89,0,0,1-1.25,0q-1.38-1.38-4.19-3.82a.91.91,0,0,0-1.19,0,24,24,0,0,1-6.1,4.16.89.89,0,0,1-1.13-.34l-.21-.35a.89.89,0,0,1,.36-1.27,22.55,22.55,0,0,0,5-3.4,17.08,17.08,0,0,0,3.53-4.18.89.89,0,0,0-.76-1.35h-5.65a.89.89,0,0,1-.89-.89V5.88a.89.89,0,0,1,.89-.89h9.13a.87.87,0,0,1,.62.25h0a.89.89,0,0,1,.24.9,13.88,13.88,0,0,1-1.14,2.77,17.39,17.39,0,0,1-1.31,2,.89.89,0,0,0,.15,1.22q2.49,2.06,4.35,3.76A.88.88,0,0,1,210,17.18Z"/><path class="cls-1" d="M196.44,19.44a2.29,2.29,0,0,1-1.95-1.09l-.21-.35a2.3,2.3,0,0,1-.26-1.83,2.28,2.28,0,0,1,1.19-1.42,21.36,21.36,0,0,0,4.69-3.2,16.81,16.81,0,0,0,2.77-3.08h-4.73a2.29,2.29,0,0,1-2.29-2.29V5.88a2.3,2.3,0,0,1,2.29-2.29h9.13a2.29,2.29,0,0,1,1.59.64,2.25,2.25,0,0,1,.6,2.32A15.27,15.27,0,0,1,208,9.6a19.59,19.59,0,0,1-1.12,1.75c1.52,1.26,2.88,2.44,4,3.5a2.35,2.35,0,0,1,.74,1.67,2.28,2.28,0,0,1-.71,1.67h0l-.46.44a2.27,2.27,0,0,1-3.2,0c-.84-.84-2.11-2-3.78-3.45a25.37,25.37,0,0,1-6.12,4.09A2.31,2.31,0,0,1,196.44,19.44Zm7.08-7.27a2.46,2.46,0,0,1,.53.06,2.3,2.3,0,0,1-.15-.78c-.2.25-.42.49-.64.73Zm1.74-5.78a2.29,2.29,0,0,1,.32.43,2.37,2.37,0,0,1,.28.85,12.18,12.18,0,0,0,.51-1.28Z"/><path class="cls-2" d="M209.51,16.4l-.46.44a.89.89,0,0,1-1.24,0q-1.38-1.39-4.2-3.82a.89.89,0,0,0-1.18,0,23.87,23.87,0,0,1-6.1,4.16.89.89,0,0,1-1.13-.34l-.22-.35a.89.89,0,0,1,.37-1.27,22.43,22.43,0,0,0,5-3.4,17.3,17.3,0,0,0,3.53-4.18.89.89,0,0,0-.76-1.35h-5.66a.89.89,0,0,1-.89-.89V5.1a.89.89,0,0,1,.89-.89h9.14a.9.9,0,0,1,.62.25h0a.88.88,0,0,1,.23.9,14.65,14.65,0,0,1-1.13,2.78,19.92,19.92,0,0,1-1.31,2,.88.88,0,0,0,.15,1.22q2.49,2,4.35,3.76A.88.88,0,0,1,209.51,16.4Z"/><path class="cls-1" d="M226.23,11.16h-5.29a.24.24,0,0,0-.24.24h0a6.06,6.06,0,0,1-1.77,4.52,9.07,9.07,0,0,1-4.76,2.3.24.24,0,0,1-.28-.16l-.54-1.5a.25.25,0,0,1,.17-.32A7.34,7.34,0,0,0,217,14.57a4,4,0,0,0,1.3-3.06V11.4a.24.24,0,0,0-.24-.24H212a.25.25,0,0,1-.24-.25V9.36a.24.24,0,0,1,.24-.24h14.26a.25.25,0,0,1,.25.24v1.55A.25.25,0,0,1,226.23,11.16Zm-1-4.11H212.93a.25.25,0,0,1-.25-.25V5.27a.25.25,0,0,1,.25-.25h12.33a.25.25,0,0,1,.24.25V6.8A.25.25,0,0,1,225.26,7.05Z"/><path class="cls-1" d="M214.13,19.63a1.65,1.65,0,0,1-1.55-1.09L212,17a1.64,1.64,0,0,1,1.18-2.16,6,6,0,0,0,2.8-1.33,2.62,2.62,0,0,0,.68-1H212a1.63,1.63,0,0,1-1.64-1.64V9.36a1.64,1.64,0,0,1,1.26-1.6,1.67,1.67,0,0,1-.31-1V5.27a1.65,1.65,0,0,1,1.65-1.65h12.33a1.64,1.64,0,0,1,1.64,1.65V6.8a1.6,1.6,0,0,1-.31,1,1.64,1.64,0,0,1,1.29,1.6v1.55a1.64,1.64,0,0,1-1.65,1.64H222a7.22,7.22,0,0,1-2.12,4.37,10.57,10.57,0,0,1-5.47,2.67A1.1,1.1,0,0,1,214.13,19.63Zm5.28-9.11a.75.75,0,0,1,.07.12l.08-.12Z"/><path class="cls-2" d="M225.75,10.23h-5.29a.25.25,0,0,0-.25.25h0A6.07,6.07,0,0,1,218.45,15a9.23,9.23,0,0,1-4.76,2.3.26.26,0,0,1-.28-.16l-.55-1.5a.25.25,0,0,1,.18-.32,7.44,7.44,0,0,0,3.45-1.68,4.06,4.06,0,0,0,1.3-3.05v-.11a.25.25,0,0,0-.25-.25h-6a.25.25,0,0,1-.25-.24V8.44a.25.25,0,0,1,.25-.25h14.26a.25.25,0,0,1,.24.25V10A.24.24,0,0,1,225.75,10.23Zm-1-4.11H212.44a.24.24,0,0,1-.24-.24V4.34a.24.24,0,0,1,.24-.24h12.34a.24.24,0,0,1,.24.24V5.88A.24.24,0,0,1,224.78,6.12Z"/><path class="cls-2" d="M237.38,16.2c-2.58.33-6,.64-10.37.91a1,1,0,0,1-1-.81l0-.25a1,1,0,0,1,.92-1.11H227a1,1,0,0,0,.85-.57q.85-1.92,1.87-4.72t1.74-5.2a1,1,0,0,1,1.07-.66l.51.08a1,1,0,0,1,.77,1.23,81.84,81.84,0,0,1-3.05,8.25,1,1,0,0,0,.95,1.34c1.51-.1,2.8-.21,3.87-.32a1,1,0,0,0,.71-1.46c-.39-.63-.91-1.45-1.57-2.46a1,1,0,0,1,.37-1.38l.31-.16a1,1,0,0,1,1.2.28,38.42,38.42,0,0,1,2.21,3.3c.7,1.17,1.31,2.26,1.82,3.27a1,1,0,0,1-.54,1.35l-.51.17a1,1,0,0,1-1.19-.51h0A1,1,0,0,0,237.38,16.2Z"/><path class="cls-2" d="M254.18,16.56h-6.29a1,1,0,0,1-1-1V5.64a1,1,0,0,1,1-1h.63a1,1,0,0,1,1,1v8a1,1,0,0,0,1,1h3.68a1,1,0,0,1,1,1h0A1,1,0,0,1,254.18,16.56Z"/><path class="cls-2" d="M258,6.26h-.46a1.07,1.07,0,0,1-1.07-1.07h0a1.07,1.07,0,0,1,1.07-1.07H258A1.07,1.07,0,0,1,259,5.19h0A1.07,1.07,0,0,1,258,6.26Zm-.09,10.3h-.29a1.07,1.07,0,0,1-1.07-1.07v-7a1.07,1.07,0,0,1,1.07-1.07h.29a1.07,1.07,0,0,1,1.07,1.07v7A1.07,1.07,0,0,1,257.86,16.56Z"/><path class="cls-2" d="M269.7,15.51a4.42,4.42,0,0,1-1.14,3.35,5.14,5.14,0,0,1-3.64,1.08,14.67,14.67,0,0,1-3-.31.26.26,0,0,1-.19-.24V17.61h.12a8.44,8.44,0,0,0,2.73.56,3.34,3.34,0,0,0,2.06-.5,2.34,2.34,0,0,0,.66-2h0a.25.25,0,0,0-.39-.2,4,4,0,0,1-2.36.91q-3.76,0-3.77-4.67a4.91,4.91,0,0,1,1.1-3.34,3.54,3.54,0,0,1,2.8-1.26,4.53,4.53,0,0,1,2.32.67.24.24,0,0,0,.35-.14l0-.1a.25.25,0,0,1,.23-.17h1.87a.24.24,0,0,1,.24.24Zm-2.42-1.33V9.86a.25.25,0,0,0-.16-.23,3.7,3.7,0,0,0-1.32-.27q-2.52,0-2.52,2.88a3.3,3.3,0,0,0,.52,2.09,2,2,0,0,0,1.63.65,3.29,3.29,0,0,0,1.74-.59A.26.26,0,0,0,267.28,14.18Z"/><path class="cls-2" d="M279.57,16.41h0a1.22,1.22,0,0,1-1.22-1.21V11.85a4.09,4.09,0,0,0-.42-2.37A1.77,1.77,0,0,0,276.55,9a2.91,2.91,0,0,0-1.23.33,1.22,1.22,0,0,0-.68,1.09V15.2a1.21,1.21,0,0,1-1.21,1.21h0a1.21,1.21,0,0,1-1.21-1.21v-10A1.21,1.21,0,0,1,273.43,4h0a1.21,1.21,0,0,1,1.21,1.21V6.25a1.21,1.21,0,0,0,1.73,1.1l.1,0a3.48,3.48,0,0,1,1.42-.3q2.89,0,2.9,3.39v4.8A1.22,1.22,0,0,1,279.57,16.41Z"/><path class="cls-2" d="M288.63,16a.61.61,0,0,1-.49.59,9.14,9.14,0,0,1-1.59.13,3.46,3.46,0,0,1-2.4-.7,3,3,0,0,1-.76-2.26V9.61a.6.6,0,0,0-.6-.6h0a.6.6,0,0,1-.6-.6V8a.6.6,0,0,1,.6-.6h0a.6.6,0,0,0,.6-.61V5.44a.6.6,0,0,1,.6-.6h1.22a.6.6,0,0,1,.6.6V6.8a.6.6,0,0,0,.6.61H288a.6.6,0,0,1,.6.6v.4a.6.6,0,0,1-.6.6h-1.61a.6.6,0,0,0-.6.6v3.17a3.24,3.24,0,0,0,.37,1.9,1.58,1.58,0,0,0,1.25.44,2.41,2.41,0,0,0,1.12-.28h.07Z"/><path class="cls-1" d="M176,14.41h-6.28c-1,0-1.74-1.08-1.74-2.42s.78-2.43,1.74-2.43H176c1,0,1.74,1.09,1.74,2.43S177,14.41,176,14.41Z"/><path class="cls-2" d="M175.68,12.7H169.4c-.5,0-.92-.58-.92-1.28s.42-1.29.92-1.29h6.28c.51,0,.92.58.92,1.29S176.19,12.7,175.68,12.7Z"/><path class="cls-1" d="M300.47,14.41h-6.28c-1,0-1.73-1.08-1.73-2.42s.77-2.43,1.73-2.43h6.28c1,0,1.74,1.09,1.74,2.43S301.43,14.41,300.47,14.41Z"/><path class="cls-2" d="M300.13,12.7h-6.27c-.51,0-.92-.58-.92-1.28s.41-1.29.92-1.29h6.27c.51,0,.92.58.92,1.29S300.64,12.7,300.13,12.7Z"/><path class="cls-3" d="M72.87,37.14V27.08H77a11.3,11.3,0,0,1,2.17.16,3.72,3.72,0,0,1,1.34.52,3,3,0,0,1,1,1.16,3.73,3.73,0,0,1,.34,1.66,3.31,3.31,0,0,1-1,2.58,4.18,4.18,0,0,1-2.88.9H76.1v3.08ZM76.1,31.6h1a2.61,2.61,0,0,0,1.35-.23.86.86,0,0,0,.34-.79.91.91,0,0,0-.33-.81,2.72,2.72,0,0,0-1.36-.22h-1Z"/><rect class="cls-3" x="81.98" y="27.08" width="2.98" height="10.06"/><path class="cls-3" d="M94,29.72v7.42H91.34V36a3.53,3.53,0,0,1-1.16,1,3.24,3.24,0,0,1-1.44.31,3.07,3.07,0,0,1-1.21-.22,2.22,2.22,0,0,1-.9-.67,2.32,2.32,0,0,1-.47-1A9.4,9.4,0,0,1,86,33.56V29.72h3v3.83a2.21,2.21,0,0,0,.22,1.17A.9.9,0,0,0,90,35a1,1,0,0,0,.83-.38,1.92,1.92,0,0,0,.27-1.13V29.72Z"/><path class="cls-3" d="M94.14,34.8H97a.93.93,0,0,0,.24.7,1,1,0,0,0,.73.24,1.36,1.36,0,0,0,.71-.16.51.51,0,0,0,.25-.46c0-.33-.36-.58-1.1-.73l-.15,0a7.13,7.13,0,0,1-2.71-1,1.83,1.83,0,0,1-.64-1.51,2.07,2.07,0,0,1,.93-1.82A5,5,0,0,1,98,29.45a4.72,4.72,0,0,1,2.57.59,2.27,2.27,0,0,1,1,1.74H99a.76.76,0,0,0-.29-.53,1.07,1.07,0,0,0-.65-.2,1,1,0,0,0-.59.14.42.42,0,0,0-.21.38c0,.3.34.52,1,.66l.4.08a6.91,6.91,0,0,1,2.63,1,1.91,1.91,0,0,1,.6,1.53,2.14,2.14,0,0,1-1,1.92,5.34,5.34,0,0,1-2.94.65,4.8,4.8,0,0,1-2.75-.65,2.45,2.45,0,0,1-1-2"/><path class="cls-3" d="M21.25,12.23A2.65,2.65,0,0,1,20.59,14a2.71,2.71,0,0,1-1.65.93v4.12A2.57,2.57,0,0,1,18.11,21a2.76,2.76,0,0,1-2,.81,2.65,2.65,0,0,1-2.6-1.63A2.93,2.93,0,0,1,12.18,19a3.88,3.88,0,0,1-1.4,1.78,3.72,3.72,0,0,1-2.17.68H4.75a3,3,0,0,1-2.86-1.75A3.07,3.07,0,0,1,.52,18.56,3.12,3.12,0,0,1,0,16.81V11.28A3.17,3.17,0,0,1,.83,9.1,3.14,3.14,0,0,1,2.86,8a3.09,3.09,0,0,1-.57-.85A2.76,2.76,0,0,1,.54,4.64a2.69,2.69,0,0,1,.81-2,2.65,2.65,0,0,1,1.94-.8H8.18a2.57,2.57,0,0,1,2.51,1.61,2.66,2.66,0,0,1,1.65,1.87,2.8,2.8,0,0,1,2.27-1.07,2.62,2.62,0,0,1,2.58,1.63,2.75,2.75,0,0,1,1.26,1,2.54,2.54,0,0,1,.49,1.53v.43a2.81,2.81,0,0,1,.56.8,2.79,2.79,0,0,1,1.27,1,2.66,2.66,0,0,1,.48,1.55"/><path class="cls-2" d="M18.58,10.81a1.54,1.54,0,0,0-.46-1.13A1.56,1.56,0,0,0,17,9.22h-.33c-.27,0-.4-.12-.4-.37V7a1.44,1.44,0,0,0-.49-1.09,1.65,1.65,0,0,0-1.17-.45,1.68,1.68,0,0,0-1.19.45A1.41,1.41,0,0,0,12.93,7V8.85c0,.25-.13.37-.4.37H10.17c-.27,0-.41-.12-.41-.37V4.61a1.5,1.5,0,0,0-.46-1.1,1.54,1.54,0,0,0-1.12-.46H3.29a1.51,1.51,0,0,0-1.1.46,1.54,1.54,0,0,0-.46,1.13,1.5,1.5,0,0,0,.46,1.1,1.51,1.51,0,0,0,1.1.46H5.86a.35.35,0,0,1,.4.4v2c0,.38-.19.57-.59.57H3.24a2,2,0,0,0-1.45.6,2,2,0,0,0-.61,1.46v5.55a2,2,0,0,0,.61,1.47,1.94,1.94,0,0,0,1.45.61H7.09A2.55,2.55,0,0,0,9,18.1a2.58,2.58,0,0,0,.78-1.88V12.77c0-.25.14-.38.41-.38h2.36c.27,0,.4.13.4.38v4.85a1.44,1.44,0,0,0,.49,1.11,1.68,1.68,0,0,0,1.19.45,1.65,1.65,0,0,0,1.17-.45,1.47,1.47,0,0,0,.49-1.11V12.77c0-.25.13-.38.4-.38H17a1.61,1.61,0,0,0,1.58-1.58"/><rect class="cls-3" x="4.49" y="12.32" width="1.77" height="3.43" rx="0.38"/><path class="cls-3" d="M40.67,10.88a2.53,2.53,0,0,1-1.16,2.2,2.48,2.48,0,0,1,.74,1.79,2.64,2.64,0,0,1-.79,1.91,2.61,2.61,0,0,1-1.88.79H35.66v.61a3.31,3.31,0,0,1-3.31,3.31H25.57A2.66,2.66,0,0,1,23,19.86a2.82,2.82,0,0,1-1.77-2.62V13.62A2.8,2.8,0,0,1,22,11.7a2.54,2.54,0,0,1-1.25-2.26,2.57,2.57,0,0,1,.9-2,2.57,2.57,0,0,1-.9-2,2.66,2.66,0,0,1,2.67-2.67H28.9a2.73,2.73,0,0,1,2.32-1.2,2.77,2.77,0,0,1,2.34,1.2h2.93A2.45,2.45,0,0,1,38.92,4.4a2.65,2.65,0,0,1,1.75,2.51,2.55,2.55,0,0,1-.9,2,2.57,2.57,0,0,1,.9,2"/><path class="cls-2" d="M38,9.44a1.47,1.47,0,0,0-.44-1.06,1.43,1.43,0,0,0-1-.43h-3.1c-.27,0-.4-.13-.4-.38V7.35c0-.25.13-.37.4-.37h3.1a1.44,1.44,0,0,0,1-.44A1.47,1.47,0,0,0,38,5.46,1.5,1.5,0,0,0,36.49,4H33.11a.31.31,0,0,1-.29-.21,1.76,1.76,0,0,0-3.19,0,.28.28,0,0,1-.28.21h-6A1.5,1.5,0,0,0,21.9,5.46a1.47,1.47,0,0,0,.44,1.08A1.44,1.44,0,0,0,23.39,7h5.7c.27,0,.4.12.4.37v.22c0,.25-.13.38-.4.38h-5.7a1.43,1.43,0,0,0-1.05.43,1.51,1.51,0,0,0,0,2.13,1.44,1.44,0,0,0,1.05.44h5.7a.35.35,0,0,1,.4.4v.21c0,.26-.13.38-.4.38h-5a1.6,1.6,0,0,0-1.17.5,1.63,1.63,0,0,0-.48,1.18v3.62a1.65,1.65,0,0,0,.48,1.18,1.6,1.6,0,0,0,1.17.5h6.79a2,2,0,0,0,1.52-.63A2.08,2.08,0,0,0,33,16.76V15.35c0-.26.13-.38.4-.38h2.67a1.41,1.41,0,0,0,1-.45,1.51,1.51,0,0,0,0-2.13,1.41,1.41,0,0,0-1-.45H33.39c-.27,0-.4-.12-.4-.38v-.23c0-.26.13-.38.4-.38h3.1a1.44,1.44,0,0,0,1-.44A1.46,1.46,0,0,0,38,9.44"/><path class="cls-3" d="M29.49,15.72a.27.27,0,0,1-.31.31H26c-.19,0-.28-.1-.28-.31v-.59c0-.2.09-.3.28-.3h3.19c.21,0,.31.1.31.3Z"/><path class="cls-3" d="M61.7,17.24a4.28,4.28,0,0,1-4.28,4.28h-6.9a3.9,3.9,0,0,1-3.62-2A4.06,4.06,0,0,1,45.32,18a4.19,4.19,0,0,1-.59-2.19v-.94A2.74,2.74,0,0,1,43,13.34a2.79,2.79,0,0,1-1.75-2.58,2.61,2.61,0,0,1,1.19-2.25A2.62,2.62,0,0,1,41.2,6.24,2.61,2.61,0,0,1,42,4.31,2.62,2.62,0,0,1,44,3.5h.9a2.68,2.68,0,0,1,1-1.38,2.76,2.76,0,0,1,1.68-.53,2.64,2.64,0,0,1,2.58,1.63,2.87,2.87,0,0,1,.52.28H55a2.55,2.55,0,0,1,2.5,1.61,2.72,2.72,0,0,1,1.27,1,2.68,2.68,0,0,1,.48,1.55,2.62,2.62,0,0,1-1.18,2.27,2.7,2.7,0,0,1,1.18,2,2.78,2.78,0,0,1,.74,1,2.53,2.53,0,0,1,1.72,2.51Z"/><path class="cls-2" d="M59,15.79V14a1.44,1.44,0,0,0-.49-1.11,1.65,1.65,0,0,0-1.17-.45,1.68,1.68,0,0,0-1.19.45A1.46,1.46,0,0,0,55.7,14v.85a.82.82,0,0,1-.28.62.91.91,0,0,1-.65.26H50.14a.94.94,0,0,1-.67-.26.84.84,0,0,1-.27-.62v-2a.42.42,0,0,1,.47-.48H55a1.57,1.57,0,0,0,1.58-1.58,1.49,1.49,0,0,0-.46-1.1A1.52,1.52,0,0,0,55,9.2H49.5c-.2,0-.3-.1-.3-.31V8.3a.41.41,0,0,1,.47-.47H55a1.56,1.56,0,0,0,1.12-.46,1.52,1.52,0,0,0,.46-1.13A1.57,1.57,0,0,0,55,4.66H49.5c-.2,0-.3-.09-.3-.28V4.31a1.46,1.46,0,0,0-.49-1.1,1.72,1.72,0,0,0-2.34,0,1.46,1.46,0,0,0-.48,1.1v.07c0,.19-.11.28-.31.28H44a1.49,1.49,0,0,0-1.1.46,1.52,1.52,0,0,0-.46,1.12A1.57,1.57,0,0,0,44,7.83h1.46a.42.42,0,0,1,.48.47v.59a.28.28,0,0,1-.31.31H44a1.57,1.57,0,0,0-1.56,1.56,1.52,1.52,0,0,0,.46,1.12,1.49,1.49,0,0,0,1.1.46h1.46a.42.42,0,0,1,.48.48v3A3,3,0,0,0,46.81,18a3,3,0,0,0,2.2.91h6.9A3.11,3.11,0,0,0,59,15.79"/><path class="cls-3" d="M80,17.24a4.3,4.3,0,0,1-4.28,4.28h-7a2.55,2.55,0,0,1-2.5-1.64,2.57,2.57,0,0,1-1.27-1,2.71,2.71,0,0,1-.48-1.56,2.49,2.49,0,0,1,.26-1.13,4.25,4.25,0,0,1-2-1.66,4,4,0,0,1-2.17-3.73V4.31a2.54,2.54,0,0,1,.83-1.93,2.78,2.78,0,0,1,2-.79,2.66,2.66,0,0,1,2.6,1.63,2.67,2.67,0,0,1,1.26,1,2.58,2.58,0,0,1,.48,1.51V10a2.78,2.78,0,0,1,1,1.21,2.72,2.72,0,0,1,1.75,2.55,3,3,0,0,1-.11.83h2.38V4.31a2.58,2.58,0,0,1,.83-1.93,2.78,2.78,0,0,1,2-.79,2.64,2.64,0,0,1,2.6,1.63A2.72,2.72,0,0,1,80,5.72Z"/><path class="cls-2" d="M67.93,12.34a1.57,1.57,0,0,0-1.58-1.58h-.28a1,1,0,0,1-.68-.26.83.83,0,0,1-.27-.62V4.31a1.43,1.43,0,0,0-.49-1.1,1.61,1.61,0,0,0-1.16-.46,1.68,1.68,0,0,0-1.19.46,1.43,1.43,0,0,0-.49,1.1v6.5A3,3,0,0,0,62.71,13a3,3,0,0,0,2.2.91h1.44a1.53,1.53,0,0,0,1.12-.47,1.55,1.55,0,0,0,.46-1.12"/><path class="cls-2" d="M77.37,15.79V4.31a1.46,1.46,0,0,0-.49-1.1,1.61,1.61,0,0,0-1.17-.46,1.65,1.65,0,0,0-1.18.46,1.44,1.44,0,0,0-.5,1.1V14.87a.84.84,0,0,1-.27.62.92.92,0,0,1-.65.26H67.27a1.54,1.54,0,0,0-1.11.46,1.49,1.49,0,0,0-.47,1.12,1.47,1.47,0,0,0,.47,1.12,1.55,1.55,0,0,0,1.11.47h7a3.11,3.11,0,0,0,3.13-3.13"/><path class="cls-3" d="M103.08,19.86a3.26,3.26,0,0,1-3.26,3.25H91.44a4.58,4.58,0,0,1-4.22-2.4,4.58,4.58,0,0,1-2.46-4.24V5.13a4.75,4.75,0,0,1,1.45-3.48A4.77,4.77,0,0,1,89.67.22H96.4a4.57,4.57,0,0,1,4.22,2.43,4.52,4.52,0,0,1,2.46,4.22V10a3.2,3.2,0,0,1-1,2.39,3.26,3.26,0,0,1-2.37,1,3.13,3.13,0,0,1-3.09-2,3.17,3.17,0,0,1-2-2.85H93.26v6.35h4.8a3,3,0,0,1,3,2A3.42,3.42,0,0,1,102.51,18a3.14,3.14,0,0,1,.57,1.82"/><path class="cls-2" d="M100,18.12a1.91,1.91,0,0,0-.57-1.38,1.82,1.82,0,0,0-1.36-.58H91.3a1.09,1.09,0,0,1-.8-.32,1,1,0,0,1-.33-.75V6.48a1,1,0,0,1,.33-.74,1.12,1.12,0,0,1,.8-.31h3.47a1.1,1.1,0,0,1,.8.31.93.93,0,0,1,.33.74V8.25a1.93,1.93,0,0,0,.6,1.44,2,2,0,0,0,1.45.6,2,2,0,0,0,2-2V5.13a3.47,3.47,0,0,0-1-2.54,3.47,3.47,0,0,0-2.54-1H89.67a3.47,3.47,0,0,0-2.54,1,3.5,3.5,0,0,0-1,2.54V16.47a3.5,3.5,0,0,0,1,2.52,3.44,3.44,0,0,0,2.54,1.06h8.39A1.95,1.95,0,0,0,100,18.12"/><path class="cls-3" d="M122,16.91a6.21,6.21,0,0,1-6.24,6.23h-3.88a5.89,5.89,0,0,1-5.19-2.76,5.87,5.87,0,0,1-2.81-5.21V3.23a3,3,0,0,1,1-2.28A3.29,3.29,0,0,1,107.23,0a3.35,3.35,0,0,1,3.12,2,3,3,0,0,1,2,3v9.9h1c.09,0,.14,0,.16-.11V3.25a3,3,0,0,1,1-2.28,3.5,3.5,0,0,1,4.27-.39A3,3,0,0,1,120,2a3,3,0,0,1,2,3Z"/><path class="cls-2" d="M118.9,15.17V3.25a1.79,1.79,0,0,0-.58-1.35,2,2,0,0,0-1.43-.55,2.14,2.14,0,0,0-1.47.55,1.77,1.77,0,0,0-.6,1.35V14.78a1.34,1.34,0,0,1-.44,1,1.49,1.49,0,0,1-1,.42h-2.57a1.49,1.49,0,0,1-1.07-.42,1.31,1.31,0,0,1-.44-1V3.23a1.74,1.74,0,0,0-.6-1.33,2,2,0,0,0-1.42-.55,2.09,2.09,0,0,0-1.45.55,1.77,1.77,0,0,0-.59,1.33V15.17a4.92,4.92,0,0,0,4.91,4.91H114a4.92,4.92,0,0,0,4.91-4.91"/><path class="cls-3" d="M141.17,18.23a4.7,4.7,0,0,1-1.43,3.45,4.75,4.75,0,0,1-3.48,1.43h-8.32a3.47,3.47,0,0,1-3.2-2,3,3,0,0,1-2-3V3.53a3.14,3.14,0,0,1,1-2.33,3.37,3.37,0,0,1,2.44-1h7.42a4.57,4.57,0,0,1,4.22,2.43,4.51,4.51,0,0,1,2.45,4.22v3.36a5.1,5.1,0,0,1-.24,1.46,4.81,4.81,0,0,1,1.15,3.18Z"/><path class="cls-2" d="M138.09,16.47V13.1a3.36,3.36,0,0,0-1.41-2.81,3.53,3.53,0,0,0,.49-1.8V5.13a3.46,3.46,0,0,0-1-2.54,3.47,3.47,0,0,0-2.54-1h-7.42a2.13,2.13,0,0,0-1.5.58,1.85,1.85,0,0,0-.62,1.41V18.09a1.78,1.78,0,0,0,.62,1.38,2.09,2.09,0,0,0,1.5.58h8.36a3.59,3.59,0,0,0,3.56-3.58"/><path class="cls-3" d="M133.09,7.86a1.06,1.06,0,0,1-.33.77A1.09,1.09,0,0,1,132,9h-3.25c-.39,0-.58-.17-.58-.52V6c0-.35.19-.53.58-.53H132a1.12,1.12,0,0,1,.8.31,1,1,0,0,1,.33.74Z"/><path class="cls-3" d="M134,15.11a1,1,0,0,1-.34.75,1.22,1.22,0,0,1-.82.3h-4.16c-.39,0-.58-.17-.58-.52V13.16c0-.35.19-.53.58-.53h4.16a1.16,1.16,0,0,1,.82.33,1,1,0,0,1,.34.77Z"/><path class="cls-3" d="M159.42,19.86a3.1,3.1,0,0,1-.95,2.3,3.14,3.14,0,0,1-2.3.95h-7.75a4.42,4.42,0,0,1-4-2.31A4.43,4.43,0,0,1,142,16.74V4.88a4.48,4.48,0,0,1,1.37-3.29A4.48,4.48,0,0,1,146.68.22h7.72a3,3,0,0,1,3,2,3.3,3.3,0,0,1,1.45,1.2,3.17,3.17,0,0,1,.56,1.83,3.1,3.1,0,0,1-.95,2.3,3.1,3.1,0,0,1-2.3,1h-.3a3,3,0,0,1,.77,1.13,3,3,0,0,1,1.43,1.14,3.07,3.07,0,0,1,.56,1.79,3,3,0,0,1-.63,1.87,2.94,2.94,0,0,1-1.61,1.11,3.19,3.19,0,0,1,1,1.29A3.42,3.42,0,0,1,158.86,18a3.2,3.2,0,0,1,.56,1.82"/><path class="cls-2" d="M156.33,18.12a1.9,1.9,0,0,0-.56-1.38,1.83,1.83,0,0,0-1.37-.58h-6.15a.74.74,0,0,1-.85-.83V13.4c0-.53.28-.8.85-.8h5.49a1.73,1.73,0,0,0,1.27-.53,1.79,1.79,0,0,0,.53-1.29A1.71,1.71,0,0,0,155,9.52,1.73,1.73,0,0,0,153.74,9h-5.49a.74.74,0,0,1-.85-.83V6.23c0-.53.28-.8.85-.8h6.15a1.91,1.91,0,0,0,1.93-1.95,1.85,1.85,0,0,0-.56-1.37,1.86,1.86,0,0,0-1.37-.57h-7.72a3.24,3.24,0,0,0-2.36,1,3.24,3.24,0,0,0-1,2.36V16.74a3.23,3.23,0,0,0,1,2.35,3.18,3.18,0,0,0,2.34,1h7.75a1.86,1.86,0,0,0,1.37-.57,1.83,1.83,0,0,0,.56-1.36"/><path class="cls-3" d="M66.62,37.77h-7.9A1.72,1.72,0,0,1,57,36.06v-7.9a1.72,1.72,0,0,1,1.71-1.72h7.9a1.72,1.72,0,0,1,1.71,1.72v7.9a1.72,1.72,0,0,1-1.71,1.71M58.72,27a1.2,1.2,0,0,0-1.2,1.2v7.9a1.2,1.2,0,0,0,1.2,1.2h7.9a1.2,1.2,0,0,0,1.2-1.2v-7.9a1.2,1.2,0,0,0-1.2-1.2Z"/><path class="cls-3" d="M65.8,36.16H57.92a.92.92,0,0,1-.92-.92V27.36a.92.92,0,0,1,.92-.92H65.8a.92.92,0,0,1,.92.92v7.88a.92.92,0,0,1-.92.92"/><polygon class="cls-2" points="65.73 30.64 65.73 31.96 62.52 31.96 62.52 35.16 61.2 35.16 61.2 31.96 57.99 31.96 57.99 30.64 61.2 30.64 61.2 27.43 62.52 27.43 62.52 30.64 65.73 30.64"/></g></g></svg>