<?xml version="1.0" encoding="utf-8"?>
<!-- Generator: Adobe Illustrator 25.2.3, SVG Export Plug-In . SVG Version: 6.00 Build 0)  -->
<svg version="1.1" id="レイヤー_1" xmlns="http://www.w3.org/2000/svg" xmlns:xlink="http://www.w3.org/1999/xlink" x="0px"
	 y="0px" viewBox="0 0 34 34" style="enable-background:new 0 0 34 34;" xml:space="preserve">
<style type="text/css">
	.st0{fill:#222222;}
</style>
<g id="レイヤー_2_1_">
	<g id="design">
		<path class="st0" d="M17,6.4h12.7c1.4-0.1,2.7,0.9,2.8,2.3c0,0.2,0,0.3,0,0.5v15.7c0.1,1.4-1,2.7-2.4,2.8c-0.1,0-0.2,0-0.3,0H4.3
			c-1.4,0.1-2.7-1-2.8-2.4c0-0.1,0-0.2,0-0.4c0-2.7,0-5.5,0-8.2c0-2.5,0-4.9,0-7.4C1.3,7.8,2.4,6.5,3.8,6.4c0.2,0,0.3,0,0.5,0H17z
			 M4.1,7.9l0.3,0.4l10.9,11c1.2,1.2,2.1,1.2,3.3,0c1.5-1.5,3-3,4.4-4.4l6.6-6.7c0.1-0.1,0.1-0.2,0.2-0.2L4.1,7.9z M12.3,18.2
			L3.5,26c0.3,0,0.5,0.1,0.7,0.1h25.6c0.2,0,0.5-0.1,0.7-0.1l-8.7-7.8l-2.3,2.3c-1.3,1.4-3.4,1.4-4.8,0.1c0,0-0.1-0.1-0.1-0.1
			C13.8,19.8,13.1,19,12.3,18.2z M11.2,17.2L3,9.2v15.4L11.2,17.2z M22.9,17.2l8.2,7.4V9.1L22.9,17.2z"/>
	</g>
</g>
</svg>
