<?xml version="1.0" encoding="utf-8"?>
<!-- Generator: Adobe Illustrator 25.2.3, SVG Export Plug-In . SVG Version: 6.00 Build 0)  -->
<svg version="1.1" id="レイヤー_1" xmlns="http://www.w3.org/2000/svg" xmlns:xlink="http://www.w3.org/1999/xlink" x="0px"
	 y="0px" viewBox="0 0 34 34" style="enable-background:new 0 0 34 34;" xml:space="preserve">
<style type="text/css">
	.st0{fill:#3E3A39;}
</style>
<g id="レイヤー_2_1_">
	<g id="レイヤー_1-2">
		<path class="st0" d="M7.1,11.6c-0.1-1.9,1.8-4,3.3-4.4c0.6-0.2,1.3-0.1,1.8,0.4c0.9,1.1,1.7,2.3,2.2,3.6c0.2,0.6,0.1,1.3-0.4,1.7
			c-0.3,0.3-0.6,0.6-0.9,0.9c-0.5,0.4-0.6,1.1-0.2,1.7c0.5,0.8,1.1,1.5,1.8,2.2c1,1,2.1,2,3.1,3c0.3,0.3,0.6,0.5,1,0.6
			c0.5,0.3,1.1,0.1,1.5-0.3c0.3-0.3,0.6-0.6,0.9-0.9c0.4-0.5,1.2-0.7,1.8-0.4c1.2,0.6,2.3,1.3,3.4,2c0.7,0.5,0.9,1.5,0.4,2.3
			c-1.1,2-3.2,3.5-6.1,2.5c-1.5-0.6-2.8-1.3-4-2.3c-2.3-1.9-4.4-3.9-6.3-6.2c-1.1-1.2-2-2.5-2.6-4c-0.3-0.8-0.5-1.6-0.7-2.4
			L7.1,11.6z"/>
	</g>
</g>
</svg>
