<svg xmlns="http://www.w3.org/2000/svg" width="399" height="57" viewBox="0 0 399 57">
  <g id="h_tel" transform="translate(-179 -222)">
    <rect id="長方形_8" data-name="長方形 8" width="399" height="57" transform="translate(179 222)" fill="#fff"/>
    <g id="グループ_5" data-name="グループ 5" transform="translate(11 28)">
      <g id="レイヤー_2" data-name="レイヤー 2" transform="translate(172 198)">
        <g id="レイヤー_1" data-name="レイヤー 1">
          <path id="パス_27" data-name="パス 27" d="M116.18,16.42h1.93a8.44,8.44,0,0,0,1.46-.08v1.41a8.35,8.35,0,0,0-1.44-.08h-7.46V13.95a4.1,4.1,0,0,1-.78.92,3.78,3.78,0,0,0-.72-1.08h-.59v2.5l1.6-.59v1.57c-.77.3-.94.36-1.58.59v4.9c1.91-.5,2.92-1.43,3.25-3h-1a6.88,6.88,0,0,0-1.14.08V18.2a8.06,8.06,0,0,0,1.27.08h5.26a9.535,9.535,0,0,0,1.33-.05c-.08.29-.08.29-.21.73-.06.2-.19.6-.28.87h1.28a5.53,5.53,0,0,0,1.16-.08c-.08.49-.08.53-.14.93a6.7,6.7,0,0,1-.8,2.65c-.37.52-.85.69-1.86.69a14.489,14.489,0,0,1-1.85-.09,4.52,4.52,0,0,0-.4-1.57,11.13,11.13,0,0,0,1.9.2c.51,0,.66,0,.82-.3a3.48,3.48,0,0,0,.35-1h-1.63a9.15,9.15,0,0,0-1,.05,10,10,0,0,0,.54-1.49h-1.92a5.56,5.56,0,0,1-1.31,2.77,6.37,6.37,0,0,1-2.79,1.71,7.84,7.84,0,0,0-.84-1.36,1,1,0,0,1-.77,1,4.77,4.77,0,0,1-1.52.19h-.82a5.72,5.72,0,0,0-.35-1.68,7.89,7.89,0,0,0,1.28.11c.41,0,.51-.1.51-.47V18.44l-.86.27a6.93,6.93,0,0,0-.79.29l-.3-1.8a10.29,10.29,0,0,0,2-.41v-3h-.61a8.76,8.76,0,0,0-1.17.07V12.13a5.54,5.54,0,0,0,1.19.11h.59V11a9.189,9.189,0,0,0-.1-1.62h1.89a12.368,12.368,0,0,0-.09,1.6v1.25h.22a3.72,3.72,0,0,0,.88-.08v.64a9,9,0,0,0,2-3.58l1.68.35a6.6,6.6,0,0,1-.66,1.34h2a5.9,5.9,0,0,0,.75-1.53l1.68.3a9.54,9.54,0,0,1-.74,1.23H118a10.31,10.31,0,0,0,1.44-.06v1.44a6.38,6.38,0,0,0-1.24-.08h-2v.64h1.33a11.52,11.52,0,0,0,1.47-.06v1.26c-.37,0-.72-.05-1.47-.05H116.2v.63h1.33a9.43,9.43,0,0,0,1.47-.07v1.27a12.7,12.7,0,0,0-1.47-.05H116.2Zm-1.54-4.21h-2.37v.64h2.37Zm0,1.79h-2.37v.63h2.37Zm-2.37,1.78v.64h2.37v-.64Z" fill="#222"/>
          <path id="パス_28" data-name="パス 28" d="M131.76,10.54a6.161,6.161,0,0,0-.06-1.16h1.81a5.12,5.12,0,0,0-.08,1.16h.19a13.21,13.21,0,0,0,2-.09v1.73a15.67,15.67,0,0,0-2-.08h-.2v2.67a11.76,11.76,0,0,0-1.53,0h-8.41a3.32,3.32,0,0,0-.46,0c0-.38.05-.66.05-1.18V12.1H123a15.59,15.59,0,0,0-2,.08V10.45a13.06,13.06,0,0,0,2,.09h.13A5.84,5.84,0,0,0,123,9.38h1.81a5.25,5.25,0,0,0-.07,1.16h2.58a6.45,6.45,0,0,0-.08-1.23h1.82a6.061,6.061,0,0,0-.08,1.23Zm-8.85,6.53v2h-1.73a8,8,0,0,0,.06-1.18V16.77a9.55,9.55,0,0,0-.06-1.28,17.8,17.8,0,0,0,1.78.06h10.59a18.6,18.6,0,0,0,1.86-.06,10.268,10.268,0,0,0-.06,1.33v1.1a7.451,7.451,0,0,0,.06,1.14h-1.76v-2H129v1h2.8a12.23,12.23,0,0,0,1.52-.06,11.7,11.7,0,0,0-.06,1.42v2.21c0,1.12-.51,1.44-2.28,1.44h-.83a7.14,7.14,0,0,0-.41-1.62,8.649,8.649,0,0,0,1.18.08c.53,0,.64-.06.64-.35V19.57H129V22.4a11.612,11.612,0,0,0,.1,1.81h-1.91a12.111,12.111,0,0,0,.1-1.82V19.57H124.9v1.86a14.049,14.049,0,0,0,.07,1.76h-1.84a10.649,10.649,0,0,0,.09-1.76V19.48A13.137,13.137,0,0,0,123.2,18a14.74,14.74,0,0,0,1.61.06h2.52v-1Zm4.45-5h-2.58v1.15h2.58Zm4.4,1.15V12.1H129v1.15Z" fill="#222"/>
          <path id="パス_29" data-name="パス 29" d="M143,9.87a3.311,3.311,0,0,0-.13.5,1.115,1.115,0,0,1-.1.54,14.039,14.039,0,0,0-.27,1.54c-.06.35-.06.38-.11.59h1a3.1,3.1,0,0,1,2.37.85,3.91,3.91,0,0,1,.75,2.83c0,2.76-.46,4.95-1.23,5.83a2,2,0,0,1-1.78.72,7.91,7.91,0,0,1-2.46-.46c0-.32,0-.55,0-.71a6,6,0,0,0-.16-1.36,6.52,6.52,0,0,0,2.34.63c.46,0,.72-.31,1-1.09a14.53,14.53,0,0,0,.41-3.65c0-1.47-.37-1.91-1.63-1.91a6.118,6.118,0,0,0-.93.05,36.08,36.08,0,0,1-1,3.48,35.269,35.269,0,0,1-1.92,4.49l-.25.48a2.291,2.291,0,0,1-.12.28l-1.86-1a17.111,17.111,0,0,0,1.66-3,26.919,26.919,0,0,0,1.56-4.53c-.82.1-2.34.37-2.87.51l-.19-1.88c.59,0,2.53-.2,3.41-.32a24.6,24.6,0,0,0,.42-3.24v-.3Zm5.29,2.05a15.45,15.45,0,0,1,3.3,6.24l-1.82.93a14.47,14.47,0,0,0-1.28-3.63,10.49,10.49,0,0,0-1.84-2.74Z" fill="#222"/>
          <path id="パス_30" data-name="パス 30" d="M156.27,12.86a34.724,34.724,0,0,0-.72,3.94,4.2,4.2,0,0,1-.08.47h0a7.58,7.58,0,0,1,4.85-1.52c2.72,0,4.52,1.34,4.52,3.39a3.92,3.92,0,0,1-1.65,3.09A6.94,6.94,0,0,1,159,23.35a14.6,14.6,0,0,1-4.08-.56,7.4,7.4,0,0,0-.24-2.07,12.75,12.75,0,0,0,4.3.8c2.26,0,3.83-.94,3.83-2.3,0-1.07-1-1.71-2.7-1.71a7.25,7.25,0,0,0-4,1.17,3.36,3.36,0,0,0-.72.68l-2-.06a3.809,3.809,0,0,1,.13-1c.13-1,.38-2.77.67-4.66a6.141,6.141,0,0,0,.1-.93Zm.21-3.13a23.62,23.62,0,0,0,6,1.77l-.66,1.85a29,29,0,0,1-6.24-2Z" fill="#222"/>
          <path id="パス_31" data-name="パス 31" d="M167.92,23.38a2.323,2.323,0,0,0-.08-.62,29.8,29.8,0,0,1-.43-5.09,28.309,28.309,0,0,1,.3-4.24c.08-.48.08-.48.43-2.29a9.234,9.234,0,0,0,.18-1.19V9.89l2.16.22a25.44,25.44,0,0,0-1.28,8v1.42h0a4.41,4.41,0,0,0,.19-.46,4.555,4.555,0,0,1,.2-.55l.3-.72a2.389,2.389,0,0,0,.19-.49l1.33.59a13.42,13.42,0,0,0-1.58,4.9,3.3,3.3,0,0,0,0,.43Zm3.61-10.48a11.76,11.76,0,0,0,2.9.25h1.47v-2.4a4.73,4.73,0,0,0,0-.77h2a15.838,15.838,0,0,0-.11,2.36V13a15.17,15.17,0,0,0,2.16-.38l.35-.13h.13l.06,1.81a1.88,1.88,0,0,0-.46.08c-.54.11-1.38.25-2.22.35V15c0,.9,0,.93.16,3.62a12.521,12.521,0,0,1,2.51,1.46,3.53,3.53,0,0,0,.45.27l-.77,1.93a5.94,5.94,0,0,0-1.2-1l-1-.66v.23a2.75,2.75,0,0,1-.13.89c-.37.95-1.49,1.51-3,1.51-2.1,0-3.38-1-3.38-2.63S172.7,18,174.64,18a3.78,3.78,0,0,1,1.42.23c0-.4-.06-1.19-.12-3.41H174.5a18.105,18.105,0,0,1-2-.08h-.75a.6.6,0,0,0-.16,0h-.1Zm3.25,6.7c-1,0-1.66.4-1.66,1.06s.58,1,1.47,1a1.58,1.58,0,0,0,1.3-.49,1.41,1.41,0,0,0,.21-.87v-.43a3.44,3.44,0,0,0-1.32-.27Z" fill="#222"/>
          <path id="パス_32" data-name="パス 32" d="M213.27,9.26c1.09,1.9,1.63,4.61,1.63,8.11s-.54,6.21-1.63,8.1-3,2.85-5.69,2.85-4.6-.95-5.69-2.85-1.64-4.59-1.64-8.1.55-6.21,1.64-8.11,3-2.86,5.69-2.86S212.18,7.35,213.27,9.26ZM205.12,23a2.42,2.42,0,0,0,2.46,1.94A2.39,2.39,0,0,0,210,23a21.08,21.08,0,0,0,.57-5.61,20.811,20.811,0,0,0-.57-5.68,2.37,2.37,0,0,0-2.44-1.85,2.4,2.4,0,0,0-2.46,1.85,19.809,19.809,0,0,0-.6,5.68,20.07,20.07,0,0,0,.62,5.61Z" fill="#222"/>
          <path id="パス_33" data-name="パス 33" d="M218.86,8.49A6.69,6.69,0,0,1,224,6.37a6.6,6.6,0,0,1,6.65,4.3,16.56,16.56,0,0,1,1,6.4,18.35,18.35,0,0,1-1,6.43q-1.87,4.91-6.89,4.9A7,7,0,0,1,219.5,27a5.55,5.55,0,0,1-2.18-4.12h4.16a2.53,2.53,0,0,0,.79,1.52A2.45,2.45,0,0,0,224,25a3,3,0,0,0,2.9-2.29,13,13,0,0,0,.58-3.68,4.57,4.57,0,0,1-1.22,1.1,5.5,5.5,0,0,1-2.89.71,6.58,6.58,0,0,1-4.49-1.75,6.42,6.42,0,0,1-2-5.05,7.8,7.8,0,0,1,1.98-5.55Zm7,8.43a3.45,3.45,0,0,0,1.42-3.15,4.49,4.49,0,0,0-.84-2.86,2.8,2.8,0,0,0-2.31-1.05,2.88,2.88,0,0,0-1.83.6,3.8,3.8,0,0,0-1.2,3.18,4.36,4.36,0,0,0,.77,2.83,2.86,2.86,0,0,0,2.36,1,3,3,0,0,0,1.66-.55Z" fill="#222"/>
          <path id="パス_34" data-name="パス 34" d="M248.37,23.22H246v4.57h-4.09V23.22h-8.4V19.57l7.8-12.89H246V20h2.4ZM241.88,20V10.8l-5.3,9.2Z" fill="#222"/>
          <path id="パス_35" data-name="パス 35" d="M250.06,17.45h8.17V21.4h-8.17Z" fill="#222"/>
          <path id="パス_36" data-name="パス 36" d="M262.22,8.49a6.69,6.69,0,0,1,5.12-2.12,6.6,6.6,0,0,1,6.65,4.3,16.56,16.56,0,0,1,1,6.4,18.349,18.349,0,0,1-1,6.43q-1.87,4.91-6.89,4.9a7,7,0,0,1-4.24-1.4,5.55,5.55,0,0,1-2.18-4.12h4.16a2.53,2.53,0,0,0,.79,1.52,2.45,2.45,0,0,0,1.71.59,3,3,0,0,0,2.9-2.29,12.749,12.749,0,0,0,.57-3.68,4.4,4.4,0,0,1-1.21,1.1,5.5,5.5,0,0,1-2.89.71,6.56,6.56,0,0,1-4.49-1.75,6.42,6.42,0,0,1-2-5.05A7.8,7.8,0,0,1,262.22,8.49Zm7,8.43a3.47,3.47,0,0,0,1.42-3.15,4.49,4.49,0,0,0-.84-2.86,2.81,2.81,0,0,0-2.31-1.05,2.88,2.88,0,0,0-1.83.6,3.8,3.8,0,0,0-1.2,3.18,4.36,4.36,0,0,0,.77,2.83,2.86,2.86,0,0,0,2.36,1,3,3,0,0,0,1.66-.55Z" fill="#222"/>
          <path id="パス_37" data-name="パス 37" d="M287.05,11.9a2.15,2.15,0,0,0-.4-1.13,2.29,2.29,0,0,0-2-1,3,3,0,0,0-2.9,2.29,14.44,14.44,0,0,0-.64,3.72,4.65,4.65,0,0,1,1.8-1.35,6.57,6.57,0,0,1,7,1.49,6.86,6.86,0,0,1,1.81,4.91,8.32,8.32,0,0,1-1.77,5.25q-1.77,2.27-5.51,2.27A6.34,6.34,0,0,1,278.46,25,13.64,13.64,0,0,1,277,18.22a29.932,29.932,0,0,1,.21-3.95,11.86,11.86,0,0,1,1.42-4.51A7.25,7.25,0,0,1,281,7.28a6.44,6.44,0,0,1,3.52-.94,7,7,0,0,1,4.72,1.52,5.8,5.8,0,0,1,2,4Zm-5,12a2.94,2.94,0,0,0,2.39,1.1,2.6,2.6,0,0,0,2.19-1.05,4.37,4.37,0,0,0,.8-2.72,4.1,4.1,0,0,0-.91-2.85,2.92,2.92,0,0,0-2.23-1,3,3,0,0,0-1.89.65,3.65,3.65,0,0,0-1.23,3.08,4.17,4.17,0,0,0,.92,2.75Z" fill="#222"/>
          <path id="パス_38" data-name="パス 38" d="M303.73,11.9a2.07,2.07,0,0,0-.4-1.13,2.27,2.27,0,0,0-2-1,3,3,0,0,0-2.9,2.29,14.371,14.371,0,0,0-.65,3.72,4.65,4.65,0,0,1,1.8-1.35A6.19,6.19,0,0,1,301.9,14a6.11,6.11,0,0,1,4.64,1.92,6.9,6.9,0,0,1,1.8,4.91,8.32,8.32,0,0,1-1.77,5.25q-1.77,2.27-5.51,2.27A6.33,6.33,0,0,1,295.15,25a13.64,13.64,0,0,1-1.48-6.77,30.186,30.186,0,0,1,.2-3.95,12.22,12.22,0,0,1,1.42-4.51,7.34,7.34,0,0,1,2.38-2.48,6.48,6.48,0,0,1,3.53-.94,7,7,0,0,1,4.71,1.52,5.8,5.8,0,0,1,2,4Zm-5,12a2.91,2.91,0,0,0,2.39,1.1,2.6,2.6,0,0,0,2.19-1.05,4.37,4.37,0,0,0,.8-2.72,4,4,0,0,0-.91-2.85,2.9,2.9,0,0,0-2.22-1,3,3,0,0,0-1.89.65,3.65,3.65,0,0,0-1.23,3.08,4.12,4.12,0,0,0,.92,2.75Z" fill="#222"/>
          <path id="パス_39" data-name="パス 39" d="M310.1,17.45h8.18V21.4H310.1Z" fill="#222"/>
          <path id="パス_40" data-name="パス 40" d="M321,18.66a5.18,5.18,0,0,1,2.37-2.18,4.94,4.94,0,0,1-2-2.22A6.13,6.13,0,0,1,320.9,12a5.21,5.21,0,0,1,1.74-3.95,8.29,8.29,0,0,1,9.87,0A5.22,5.22,0,0,1,334.26,12a6.35,6.35,0,0,1-.46,2.23,4.26,4.26,0,0,1-2,2.07,6,6,0,0,1,2.37,2.33A6.639,6.639,0,0,1,335,21.9a6,6,0,0,1-2,4.56,7.71,7.71,0,0,1-5.55,1.89A7.17,7.17,0,0,1,322,26.46a6.29,6.29,0,0,1-1.84-4.56,6.55,6.55,0,0,1,.84-3.24Zm4.34,5.39a3.34,3.34,0,0,0,4.5,0,3.4,3.4,0,0,0,.81-2.43,3.41,3.41,0,0,0-.82-2.47,3.393,3.393,0,0,0-4.47,0,3.41,3.41,0,0,0-.83,2.47,3.4,3.4,0,0,0,.81,2.43Zm.27-9.66a3,3,0,0,0,3.95,0,2.61,2.61,0,0,0,.7-1.89,2.686,2.686,0,1,0-5.36,0,2.58,2.58,0,0,0,.71,1.89Z" fill="#222"/>
          <path id="パス_41" data-name="パス 41" d="M338.17,13.14V10.3a20,20,0,0,0,2.76-.26A3.93,3.93,0,0,0,343,8.92a3.62,3.62,0,0,0,.81-1.52,3.4,3.4,0,0,0,.16-.85h3.49V27.79h-4.28V13.14Z" fill="#222"/>
          <path id="パス_42" data-name="パス 42" d="M363.77,11.9a2.13,2.13,0,0,0-.39-1.13,2.29,2.29,0,0,0-2-1,3,3,0,0,0-2.9,2.29,14,14,0,0,0-.64,3.72,4.58,4.58,0,0,1,1.8-1.35,6.57,6.57,0,0,1,7,1.49,6.86,6.86,0,0,1,1.81,4.91,8.32,8.32,0,0,1-1.77,5.25c-1.19,1.51-3,2.27-5.51,2.27A6.34,6.34,0,0,1,355.19,25a13.64,13.64,0,0,1-1.48-6.77,29.926,29.926,0,0,1,.21-3.95,11.861,11.861,0,0,1,1.42-4.51,7.25,7.25,0,0,1,2.38-2.48,6.44,6.44,0,0,1,3.52-.94A7,7,0,0,1,366,7.86a5.75,5.75,0,0,1,2,4Zm-4.95,12a2.94,2.94,0,0,0,2.35,1.1,2.62,2.62,0,0,0,2.19-1.05,4.37,4.37,0,0,0,.79-2.72,4.09,4.09,0,0,0-.9-2.85,2.92,2.92,0,0,0-2.23-1,3,3,0,0,0-1.89.65,3.65,3.65,0,0,0-1.23,3.08,4.17,4.17,0,0,0,.92,2.75Z" fill="#222"/>
          <path id="パス_43" data-name="パス 43" d="M383.41,9.26c1.09,1.9,1.63,4.61,1.63,8.11s-.54,6.21-1.63,8.1-3,2.85-5.69,2.85-4.6-.95-5.69-2.85-1.64-4.59-1.64-8.1.55-6.21,1.64-8.11,3-2.86,5.69-2.86S382.32,7.35,383.41,9.26ZM375.26,23a2.42,2.42,0,0,0,2.46,1.94A2.39,2.39,0,0,0,380.16,23a21,21,0,0,0,.58-5.61,20.72,20.72,0,0,0-.58-5.68,2.37,2.37,0,0,0-2.44-1.85,2.4,2.4,0,0,0-2.46,1.85,19.81,19.81,0,0,0-.6,5.68,20.068,20.068,0,0,0,.6,5.61Z" fill="#222"/>
          <path id="パス_44" data-name="パス 44" d="M108.87,37.31c0-.59.08-1.25.08-1.74a5.762,5.762,0,0,0,0-.64h1.15a10.169,10.169,0,0,0-.11,1.52c0,.3,0,.44,0,.83h2.9a2.34,2.34,0,0,0,.84-.08l.5.44a1.85,1.85,0,0,0-.1.74,34.779,34.779,0,0,1-.32,4.13c-.3,1.77-.68,2.22-1.86,2.22a7.55,7.55,0,0,1-1.5-.18,2.64,2.64,0,0,0-.16-1.08,5.34,5.34,0,0,0,1.55.3c.57,0,.76-.27,1-1.42a28.631,28.631,0,0,0,.28-4.14h-3.2a8.77,8.77,0,0,1-1,3.5A8.56,8.56,0,0,1,105.7,45a3.34,3.34,0,0,0-.75-.87A7,7,0,0,0,108.07,41a7.48,7.48,0,0,0,.72-2.75h-2.12a7.93,7.93,0,0,0-1.27.06V37.24a6.19,6.19,0,0,0,1.31.09Z" fill="#222"/>
          <path id="パス_45" data-name="パス 45" d="M124.86,44.85a24.49,24.49,0,0,0-3.78-3.66,13.12,13.12,0,0,1-2.28,2.11,15,15,0,0,1-2.34,1.43,3.2,3.2,0,0,0-.7-.95,11.52,11.52,0,0,0,4-2.68,12.61,12.61,0,0,0,2.67-3.94.52.52,0,0,1,.07-.15s0,0,0-.1l-4.07.07a9.577,9.577,0,0,0-1.379.1V35.94a6.19,6.19,0,0,0,1.14.07h4.41a2.38,2.38,0,0,0,.86-.1l.58.59a2.32,2.32,0,0,0-.34.6,15.86,15.86,0,0,1-1.94,3.34,30.49,30.49,0,0,1,4,3.52Z" fill="#222"/>
          <path id="パス_46" data-name="パス 46" d="M131.79,35a6.8,6.8,0,0,0-.39.77c-.13.26-.25.47-.35.63.18,0,.18,0,3.54-.07a2.15,2.15,0,0,0,.79-.12l.61.61a3.1,3.1,0,0,0-.35.79,18.911,18.911,0,0,1-1.59,3.31,11.76,11.76,0,0,1-5.35,4.41,2.66,2.66,0,0,0-.71-.89,12.49,12.49,0,0,0,2.45-1.27,9,9,0,0,0,2-1.84,13.85,13.85,0,0,0-2.63-1.88l.66-.73a16.169,16.169,0,0,1,2.59,1.78,13.9,13.9,0,0,0,1.56-3.27h-4a12.52,12.52,0,0,1-2.85,3.18,2.49,2.49,0,0,0-.84-.69,10.48,10.48,0,0,0,3-3.42,7.52,7.52,0,0,0,.71-1.64Z" fill="#222"/>
          <path id="パス_47" data-name="パス 47" d="M142.08,41.2a15.71,15.71,0,0,0,3.43-3.89.83.83,0,0,1,.09-.16h-6.62a15,15,0,0,0-1.5.06v-1.1a8.91,8.91,0,0,0,1.52.08h6.83a2.06,2.06,0,0,0,.77-.08l.6.69a3.32,3.32,0,0,0-.49.66,18.41,18.41,0,0,1-4,4.5c.45.49,1,1.2,1.72,2.13l-.89.74a18.92,18.92,0,0,0-2.3-2.95,20,20,0,0,0-2.39-2.27l.8-.61c.72.59,1.15,1,1.65,1.47Z" fill="#222"/>
          <path id="パス_48" data-name="パス 48" d="M148.24,39.44a12.64,12.64,0,0,0,1.65.07h6.74a9.9,9.9,0,0,0,1.62-.07v1.19a13.46,13.46,0,0,0-1.63-.06H149.9a12.66,12.66,0,0,0-1.66.06Z" fill="#222"/>
          <path id="パス_49" data-name="パス 49" d="M162.46,36.38a6.58,6.58,0,0,0-.07-1.14h1.18a7.3,7.3,0,0,0-.06,1.14V38l4.73-.6a1.86,1.86,0,0,0,.74-.2l.68.59c-.09.15-.09.15-.43.81a8.32,8.32,0,0,1-2.76,3,2.26,2.26,0,0,0-.84-.68,6.5,6.5,0,0,0,2.63-2.68c-.22.06-.22.06-4.76.67V41.7c0,1.1.05,1.34.3,1.54a2.8,2.8,0,0,0,1.66.29,13.14,13.14,0,0,0,3.54-.45l.06,1.16a5.37,5.37,0,0,0-.72.06,24.739,24.739,0,0,1-2.89.21c-1.45,0-2.16-.16-2.55-.6s-.44-.74-.44-2v-2.8l-1.3.18a8.449,8.449,0,0,0-1.28.22l-.12-1.09h.2a9,9,0,0,0,1.09-.09l1.41-.18Z" fill="#222"/>
          <path id="パス_50" data-name="パス 50" d="M171.2,43.46a11.14,11.14,0,0,0,3.52-.9,9,9,0,0,0,4.86-5.34,3,3,0,0,0,.88.83,10.48,10.48,0,0,1-3.7,4.62,12.45,12.45,0,0,1-4.5,1.8,4.87,4.87,0,0,0-.74.19ZM172,36a16.09,16.09,0,0,1,3,2.28l-.73.9a13.27,13.27,0,0,0-2.92-2.37Z" fill="#222"/>
          <path id="パス_51" data-name="パス 51" d="M186.56,35a6.8,6.8,0,0,0-.39.77l-.35.63c.18,0,.18,0,3.54-.07a2.19,2.19,0,0,0,.79-.12l.61.61a2.77,2.77,0,0,0-.35.79,18.912,18.912,0,0,1-1.59,3.31,11.81,11.81,0,0,1-5.35,4.41,2.79,2.79,0,0,0-.71-.89,12.49,12.49,0,0,0,2.45-1.27,9,9,0,0,0,2-1.84,14.181,14.181,0,0,0-2.63-1.88l.66-.73a16.17,16.17,0,0,1,2.59,1.78,13.9,13.9,0,0,0,1.56-3.27h-4.06a12.3,12.3,0,0,1-2.84,3.18,2.59,2.59,0,0,0-.84-.69,10.48,10.48,0,0,0,3.05-3.42,7.52,7.52,0,0,0,.71-1.64Z" fill="#222"/>
          <path id="パス_52" data-name="パス 52" d="M192.62,39.44a12.92,12.92,0,0,0,1.66.07H201a9.9,9.9,0,0,0,1.62-.07v1.19a13.56,13.56,0,0,0-1.63-.06h-6.72a12.749,12.749,0,0,0-1.67.06Z" fill="#222"/>
          <path id="パス_53" data-name="パス 53" d="M210.61,41.6a9.089,9.089,0,0,1-.45,1.73,6.63,6.63,0,0,1-1.35,2.16,3,3,0,0,0-.78-.77,4.76,4.76,0,0,0,1.39-2.28,19.12,19.12,0,0,0,.47-5.36,18.441,18.441,0,0,0-.06-2,10.42,10.42,0,0,0,1.3.06h4.65a9.46,9.46,0,0,0,1.28-.06c0,.35,0,.61,0,1.27v7.82a1.162,1.162,0,0,1-.36,1,2.33,2.33,0,0,1-1.19.18h-1.32a4.171,4.171,0,0,0-.24-1,11.429,11.429,0,0,0,1.68.13c.41,0,.49-.06.49-.35V41.6Zm5.47-.88v-2h-5.25a15.752,15.752,0,0,1-.11,2Zm0-2.85V36h-5.24v1.85Z" fill="#222"/>
          <path id="パス_54" data-name="パス 54" d="M219.19,40.05a4.52,4.52,0,0,1,1.2-1,3.23,3.23,0,0,1,1.77-.51,3.31,3.31,0,0,1,1.51.35,6.378,6.378,0,0,1,1.11.71,4,4,0,0,0,2.27,1,2.1,2.1,0,0,0,.93-.21,3.26,3.26,0,0,0,1.34-1.15l.7.66a4.65,4.65,0,0,1-1.4,1.28,3.32,3.32,0,0,1-1.63.42,3.47,3.47,0,0,1-1.12-.19,5.4,5.4,0,0,1-1.65-.95,3.29,3.29,0,0,0-2.14-.87,2.82,2.82,0,0,0-2.19,1.14Z" fill="#222"/>
          <path id="パス_55" data-name="パス 55" d="M236,36a8.711,8.711,0,0,0-.09-1.29h1.13A8.759,8.759,0,0,0,237,36v2.47h2.68a9.65,9.65,0,0,0,1.37-.07v1a10.75,10.75,0,0,0-1.37-.06H237v4.67h3.54A11.2,11.2,0,0,0,242,44v1a10.729,10.729,0,0,0-1.45-.08H232.8a11.38,11.38,0,0,0-1.51.08V44a11.67,11.67,0,0,0,1.51.08H236v-4.7h-2.45a8.9,8.9,0,0,0-1.37.06v-1a9.93,9.93,0,0,0,1.37.07H236Z" fill="#222"/>
          <path id="パス_56" data-name="パス 56" d="M243.59,36.73a13.266,13.266,0,0,0-.05-1.4,8.76,8.76,0,0,0,1,.05h1.99v7.58a9.351,9.351,0,0,0,0,1.11h-.84v-.65h-1.35v.93h-.85a14.723,14.723,0,0,0,.07-1.51Zm.79,2.11h1.36V36.18h-1.36Zm0,3.76h1.36v-3h-1.36Zm6-2.93a3.531,3.531,0,0,0,.6-1.07l.78.29a8.651,8.651,0,0,1-.51.78h1.46a6.79,6.79,0,0,0,1.07-.05v.8a10.29,10.29,0,0,0-1.06,0H251.2v.84h1.15a7.93,7.93,0,0,0,1.09,0V42a7.419,7.419,0,0,0-1.09-.05H251.2v.83h1.15a6.85,6.85,0,0,0,1.09,0v.78a7.419,7.419,0,0,0-1.09-.05H251.2v.89h1.63a6.84,6.84,0,0,0,1.17-.06v.84a11.631,11.631,0,0,0-1.25-.06H248.4v.53h-.89a7.33,7.33,0,0,0,.08-1.29V41.2a5.161,5.161,0,0,1-.59.8,3.27,3.27,0,0,0-.46-.67,6.19,6.19,0,0,0,1.77-2.71l.76.29a5.639,5.639,0,0,1-.42.78Zm-1.09-4h-1.47a7,7,0,0,0-.85.05v-.79a6.6,6.6,0,0,0,.93,0h1.35a6.3,6.3,0,0,0,.86,0v3.76H247.8a7.131,7.131,0,0,0-.88,0v-.76a6.729,6.729,0,0,0,.88,0h1.48v-.8H248a7.86,7.86,0,0,0-.92,0v-.76a5.66,5.66,0,0,0,.92.05h1.28Zm1.13,5.56v-.84H248.4v.84Zm-2.06,1.51h2.06V41.9H248.4Zm0,1.57h2.06v-.89H248.4Zm4.47-8.64h-1.49a7.119,7.119,0,0,0-.86.05v-.79a6.58,6.58,0,0,0,.94,0h1.36a6.54,6.54,0,0,0,.88,0,8,8,0,0,0,0,.94v1.78a7.131,7.131,0,0,0,0,1h-2.45a5.9,5.9,0,0,0-.74,0v-.76a6.35,6.35,0,0,0,.88,0h1.49v-.8h-1.29a8.23,8.23,0,0,0-.94,0v-.76a5.86,5.86,0,0,0,.94.05h1.29Z" fill="#222"/>
          <path id="パス_57" data-name="パス 57" d="M256.56,42.52a1.85,1.85,0,0,0,.41.75,2.224,2.224,0,0,0,3.36-.54,4.55,4.55,0,0,0,.5-1.51c0-.27.07-.7.1-1.25a2.251,2.251,0,0,1-.53.67,3,3,0,0,1-2.11.76,3.12,3.12,0,1,1,3.09-4.62,6.08,6.08,0,0,1,.57,2.93,6.31,6.31,0,0,1-1.07,4,3.07,3.07,0,0,1-2.51,1.06,3,3,0,0,1-3-1.9Zm4.11-4.21A2.18,2.18,0,0,0,257,36.77a2.129,2.129,0,0,0,1.46,3.69,2.14,2.14,0,0,0,2.21-2.15Z" fill="#222"/>
          <path id="パス_58" data-name="パス 58" d="M264.88,39.38h-1.36V38h1.36Zm-1.36,5.24V43.27h1.36v1.35Z" fill="#222"/>
          <path id="パス_59" data-name="パス 59" d="M267.43,42.28a1.77,1.77,0,0,0,.69,1.1,2.53,2.53,0,0,0,1.52.44c1.33,0,2.17-.68,2.17-1.78s-.82-1.75-2.36-1.75a8.739,8.739,0,0,0-1,.07v-1.1a6.8,6.8,0,0,0,.95.06,2.35,2.35,0,0,0,1.69-.53,1.62,1.62,0,0,0,.45-1.15c0-.93-.68-1.5-1.85-1.5a1.79,1.79,0,0,0-1.53.63,1.91,1.91,0,0,0-.37.81l-1.2-.25a2.72,2.72,0,0,1,.71-1.28,3.29,3.29,0,0,1,2.45-.88c1.8,0,3,.95,3,2.41a2.14,2.14,0,0,1-.84,1.77,2.63,2.63,0,0,1-1.13.43,2.44,2.44,0,0,1,1.7.75,2.29,2.29,0,0,1,.58,1.65,2.38,2.38,0,0,1-.7,1.72,3.7,3.7,0,0,1-2.66.9,3.52,3.52,0,0,1-2.79-1,3.27,3.27,0,0,1-.64-1.22Z" fill="#222"/>
          <path id="パス_60" data-name="パス 60" d="M275.51,43.9a2.93,2.93,0,0,1-.73-1.12,7.81,7.81,0,0,1-.47-2.76,6.79,6.79,0,0,1,.71-3.28,3.08,3.08,0,0,1,2.79-1.53,3.12,3.12,0,0,1,2.29.89,3,3,0,0,1,.73,1.12A8,8,0,0,1,281.3,40a6.37,6.37,0,0,1-.85,3.49,3.37,3.37,0,0,1-4.94.41Zm.83-7.1a2.24,2.24,0,0,0-.53.89,7.511,7.511,0,0,0-.35,2.34A6.33,6.33,0,0,0,276,42.8a2.11,2.11,0,0,0,3.22.46,2.47,2.47,0,0,0,.56-.95,7.229,7.229,0,0,0,.35-2.32,6.67,6.67,0,0,0-.52-2.72,1.92,1.92,0,0,0-1.83-1.08,1.79,1.79,0,0,0-1.44.61Z" fill="#222"/>
          <path id="パス_61" data-name="パス 61" d="M282.42,40.05a4.52,4.52,0,0,1,1.2-1,3.22,3.22,0,0,1,1.76-.51,3.28,3.28,0,0,1,1.51.35,6,6,0,0,1,1.12.71,4,4,0,0,0,2.27,1,2.1,2.1,0,0,0,.93-.21,3.24,3.24,0,0,0,1.33-1.15l.71.66a4.77,4.77,0,0,1-1.4,1.28,3.32,3.32,0,0,1-1.63.42,3.42,3.42,0,0,1-1.12-.19,5.4,5.4,0,0,1-1.65-.95,3.31,3.31,0,0,0-2.14-.87,2.8,2.8,0,0,0-2.19,1.14Z" fill="#222"/>
          <path id="パス_62" data-name="パス 62" d="M295.75,35.32a7.79,7.79,0,0,0,1.06.06h.85a9.08,9.08,0,0,0,1.07-.06,17.3,17.3,0,0,0-.11,2v5.9a8.718,8.718,0,0,0,.09,1.41h-1.33a8.489,8.489,0,0,0,.1-1.41V36.36h-.63a7.921,7.921,0,0,0-1.1.07Z" fill="#222"/>
          <path id="パス_63" data-name="パス 63" d="M302.88,37.59c0-1.48,1.19-2.42,3.07-2.42s3.07.93,3.07,2.41a2.14,2.14,0,0,1-1.73,2.2,2.43,2.43,0,0,1,1.26.52,2.25,2.25,0,0,1,.88,1.89c0,1.69-1.24,2.62-3.46,2.62s-3.5-.93-3.5-2.62a2.26,2.26,0,0,1,1-2,2.52,2.52,0,0,1,1.12-.43,2.14,2.14,0,0,1-1.71-2.17Zm.78,4.53c0,1.1.84,1.73,2.28,1.73s2.3-.63,2.3-1.75-.86-1.8-2.28-1.8S303.66,41,303.66,42.12Zm.35-4.43c0,1,.74,1.63,1.95,1.63s1.93-.61,1.93-1.63-.75-1.57-1.94-1.57-1.95.61-1.95,1.57Z" fill="#222"/>
          <path id="パス_64" data-name="パス 64" d="M312.18,39.38h-1.36V38h1.36Zm-1.36,5.24V43.27h1.36v1.35Z" fill="#222"/>
          <path id="パス_65" data-name="パス 65" d="M314.73,43.9a3.19,3.19,0,0,1-.73-1.12,8,8,0,0,1-.46-2.76,6.92,6.92,0,0,1,.7-3.28,3.285,3.285,0,0,1,5.8.47,8,8,0,0,1,.47,2.78,6.45,6.45,0,0,1-.85,3.49,3.38,3.38,0,0,1-4.95.41Zm.83-7.1a2.5,2.5,0,0,0-.53.89,7.821,7.821,0,0,0-.34,2.34,6.19,6.19,0,0,0,.55,2.77,2.1,2.1,0,0,0,3.21.46,2.49,2.49,0,0,0,.57-.95,7.231,7.231,0,0,0,.34-2.32,6.68,6.68,0,0,0-.51-2.72A2,2,0,0,0,317,36.19a1.81,1.81,0,0,0-1.44.61Z" fill="#222"/>
          <path id="パス_66" data-name="パス 66" d="M322.81,43.9a2.93,2.93,0,0,1-.73-1.12,8,8,0,0,1-.47-2.76,6.91,6.91,0,0,1,.71-3.28,3.34,3.34,0,0,1,5.08-.64,3,3,0,0,1,.73,1.12A7.8,7.8,0,0,1,328.6,40a6.37,6.37,0,0,1-.85,3.49,3.07,3.07,0,0,1-2.66,1.3,3.11,3.11,0,0,1-2.28-.89Zm.83-7.1a2.5,2.5,0,0,0-.53.89,7.51,7.51,0,0,0-.35,2.34,6.33,6.33,0,0,0,.55,2.77,2.11,2.11,0,0,0,3.22.46,2.47,2.47,0,0,0,.56-.95,7.231,7.231,0,0,0,.35-2.32,6.67,6.67,0,0,0-.52-2.72,1.92,1.92,0,0,0-1.83-1.08,1.81,1.81,0,0,0-1.45.61Z" fill="#222"/>
          <path id="パス_67" data-name="パス 67" d="M333.49,45.62a8.41,8.41,0,0,1-1.4-2.1,8.23,8.23,0,0,1,0-6.91,8.41,8.41,0,0,1,1.4-2.1h1.22a8.18,8.18,0,0,0-1.67,2.3,7.82,7.82,0,0,0,0,6.51,8.179,8.179,0,0,0,1.67,2.3Z" fill="#222"/>
          <path id="パス_68" data-name="パス 68" d="M336.67,36.43a10.74,10.74,0,0,0-.06-1.21,9.851,9.851,0,0,0,1.31.06h5.49a8.729,8.729,0,0,0,1.26-.06,7.847,7.847,0,0,0-.06,1.14v7.69a9.826,9.826,0,0,0,.07,1.34h-1v-.77h-6v.77h-1a10.01,10.01,0,0,0,.07-1.33Zm1,2.93h6V36.17h-6Zm0,4.37h6V40.24h-6Z" fill="#222"/>
          <path id="パス_69" data-name="パス 69" d="M350.24,40.05a1.11,1.11,0,1,1-1.1-1.1,1.11,1.11,0,0,1,1.1,1.1Z" fill="#222"/>
          <path id="パス_70" data-name="パス 70" d="M355.33,44.21a7.822,7.822,0,0,0,.07,1.26h-1a7.822,7.822,0,0,0,.07-1.26V40.78a12.377,12.377,0,0,1-1.65,1.42,3.442,3.442,0,0,0-.45-.85,9,9,0,0,0,2.09-1.75,8.161,8.161,0,0,0,1.45-2.17h-2.07a9.451,9.451,0,0,0-1,0v-.9a6.23,6.23,0,0,0,.95,0h.67V35.5a6.165,6.165,0,0,0-.07-1h1a6.073,6.073,0,0,0-.07,1v1.12h.5a6.61,6.61,0,0,0,.74,0l.45.5a8.006,8.006,0,0,0-.5,1,8.521,8.521,0,0,1-1,1.54,6.75,6.75,0,0,0,1.8,1.34,3.11,3.11,0,0,0-.45.81,8.709,8.709,0,0,1-1.53-1.26Zm2.92-4.5a9.669,9.669,0,0,0-1,0,7.494,7.494,0,0,0,.05-1V36.17a8.073,8.073,0,0,0-.05-1,9,9,0,0,0,1.14,0h3.42a8.139,8.139,0,0,0,1.08,0,7.3,7.3,0,0,0-.05,1v2.6a6.832,6.832,0,0,0,.05,1,9.622,9.622,0,0,0-1,0h-.59v4.58c0,.05.2.1.49.1.69,0,.85,0,.92-.26a7.188,7.188,0,0,0,.11-1.8,2.7,2.7,0,0,0,.86.39,7,7,0,0,1-.24,2c-.18.45-.54.57-1.65.57-.73,0-1,0-1.2-.21a.627.627,0,0,1-.22-.6V39.71h-.93a8.189,8.189,0,0,1-.54,3.08,4.83,4.83,0,0,1-2.5,2.67,4,4,0,0,0-.66-.77,4.81,4.81,0,0,0,1.68-1.13,5.55,5.55,0,0,0,1.15-3.85Zm0-.82H362V36.06h-3.76Z" fill="#222"/>
          <path id="パス_71" data-name="パス 71" d="M366,40.3V38.88a9.49,9.49,0,0,1-1.2,1.69,3.3,3.3,0,0,0-.5-.91,11.46,11.46,0,0,0,2.1-3.13,8,8,0,0,0,.67-2.07l1,.32c-.24.58-.24.58-.46,1.16a14.543,14.543,0,0,1-.73,1.65v6.52a10.1,10.1,0,0,0,.06,1.4h-1.06a11.668,11.668,0,0,0,.08-1.43Zm2.89-2.25a9.13,9.13,0,0,0-1.24.07v-1a8.751,8.751,0,0,0,1.24.07h2.05V35.9a11.664,11.664,0,0,0-.07-1.17h1.05a7.333,7.333,0,0,0-.08,1.17v1.27h2.48a9.15,9.15,0,0,0,1.26-.07v1a9.09,9.09,0,0,0-1.25-.07h-2.21a11.57,11.57,0,0,0,3.71,4.76,5.35,5.35,0,0,0-.74.79,10.289,10.289,0,0,1-1.47-1.5,11.39,11.39,0,0,1-1.83-3.16c0,.44.05.77.05,1.32v4a9.71,9.71,0,0,0,.07,1.27h-1.06a10.094,10.094,0,0,0,.09-1.26V39.01a11.05,11.05,0,0,1-1.23,2.43,10.541,10.541,0,0,1-1.91,2.16,4,4,0,0,0-.67-.79,11.049,11.049,0,0,0,2.44-2.73,11.2,11.2,0,0,0,1.06-2Z" fill="#222"/>
          <path id="パス_72" data-name="パス 72" d="M378.07,35.54a6.48,6.48,0,0,0,1.16.08,12.907,12.907,0,0,0,2.09-.1.85.85,0,0,0,.44-.14l.74.6c-.17.22-.2.28-.66,1.72-.22.65-.3.93-.56,1.63a10.23,10.23,0,0,1,3.1.89,13.132,13.132,0,0,0,.14-2.36,2.691,2.691,0,0,0,0-.6h1.08a7.246,7.246,0,0,0-.06.76,15.426,15.426,0,0,1-.21,2.59,14.361,14.361,0,0,1,1.62.87,2.151,2.151,0,0,0,.32.17l-.38,1.12a13.83,13.83,0,0,0-1.8-1.17,5.64,5.64,0,0,1-1.26,2.15,6.63,6.63,0,0,1-1.88,1.44,3.25,3.25,0,0,0-.77-.76,5.55,5.55,0,0,0,1.92-1.35,4.72,4.72,0,0,0,1.09-1.94,8.85,8.85,0,0,0-3.13-.95,20.839,20.839,0,0,1-1.14,2.9c-.45.8-.91,1.18-1.51,1.18a1.67,1.67,0,0,1-1.42-.9,2.909,2.909,0,0,1-.26-1.2,2.83,2.83,0,0,1,1.44-2.41,4.22,4.22,0,0,1,2.19-.53c.37-1.12.53-1.6.9-2.87-.72.06-.84.06-2.21.12a7.909,7.909,0,0,0-.89.06Zm.1,5.35a1.86,1.86,0,0,0-.54,1.31c0,.6.32,1.07.72,1.07s.91-.83,1.69-3.13a2.77,2.77,0,0,0-1.87.75Z" fill="#222"/>
          <path id="パス_73" data-name="パス 73" d="M388,45.62a8.18,8.18,0,0,0,1.67-2.3,7.92,7.92,0,0,0,0-6.51,8.18,8.18,0,0,0-1.67-2.3h1.23a8.57,8.57,0,0,1,1.38,2.1,8.14,8.14,0,0,1,0,6.91,8.57,8.57,0,0,1-1.38,2.1Z" fill="#222"/>
          <rect id="長方形_1" data-name="長方形 1" width="95.21" height="48.58" fill="#222"/>
          <path id="パス_74" data-name="パス 74" d="M23.44,9.69a10.871,10.871,0,0,0-1.47.06V8.39a15.3,15.3,0,0,0,1.58.08h7.39a14.64,14.64,0,0,0,1.59-.08V9.75c-.46,0-.82-.06-1.45-.06h-3.2v.53h3.75a17.36,17.36,0,0,0,1.74-.05,6.25,6.25,0,0,0-.06,1.15v.88a7,7,0,0,0,.07,1.1H31.94v-2H27.88v1.39A9.07,9.07,0,0,0,27.93,14H26.32a11.611,11.611,0,0,0,.07-1.31V11.33H22.54v2H21.08a6,6,0,0,0,.09-1.1v-.88a9.18,9.18,0,0,0-.06-1.15,16.76,16.76,0,0,0,1.72.05h3.56V9.69Zm8.79,8.14a5,5,0,0,0,1.47.56c0,1.22-.19,1.81-.56,2.11s-1.2.45-3.6.45c-2.74,0-3.15-.14-3.15-1.08v-.95H23.72v.72H22.16a10.15,10.15,0,0,0,.09-1.39V15.67a13.1,13.1,0,0,0-.07-1.34,11.85,11.85,0,0,0,1.33.05H30.9a12.94,12.94,0,0,0,1.39-.05,11.9,11.9,0,0,0-.06,1.36Zm-9.1-6.14a2.79,2.79,0,0,0,.73.05h1.23a4.25,4.25,0,0,0,.71-.05v.94a4.53,4.53,0,0,0-.71,0H23.86a4.81,4.81,0,0,0-.73,0Zm0,1.32a3.47,3.47,0,0,0,.73,0h1.23a4.37,4.37,0,0,0,.71,0V14a4.21,4.21,0,0,0-.71,0H23.86a4.9,4.9,0,0,0-.73,0Zm.59,2.45v.65h2.67v-.65Zm0,1.64v.7h2.67v-.7Zm4.13-1h2.91v-.65H27.85Zm0,1.69h2.91v-.7H27.85Zm0,1.63c0,.11,0,.18.1.21a7.05,7.05,0,0,0,2,.15,6.73,6.73,0,0,0,2-.18c.17-.09.22-.21.27-.69H27.85Zm.66-7.74a2.75,2.75,0,0,0,.73.05h1.42a4.39,4.39,0,0,0,.72-.05v.94a4.84,4.84,0,0,0-.72,0H29.24a4.73,4.73,0,0,0-.73,0Zm0,1.32a3.42,3.42,0,0,0,.73,0h1.42a4.43,4.43,0,0,0,.72,0v1a4.51,4.51,0,0,0-.72,0H29.24a4.9,4.9,0,0,0-.73,0Z" fill="#fff"/>
          <path id="パス_75" data-name="パス 75" d="M35,10.48a6.92,6.92,0,0,0,1.13.07H39a7.63,7.63,0,0,0,1.13-.06v1.39A8,8,0,0,0,39,11.83H36.09a8.62,8.62,0,0,0-1.13.06Zm.45-1.92a9.11,9.11,0,0,0,1.16,0h2a9.38,9.38,0,0,0,1.17,0V9.93a9.3,9.3,0,0,0-1.17-.06h-2a9.24,9.24,0,0,0-1.16.06Zm1.48,12.52H35.45a10.42,10.42,0,0,0,.07-1.32V17.54a9.53,9.53,0,0,0-.06-1.11,8.74,8.74,0,0,0,1.07.05h2.35a5.23,5.23,0,0,0,.94,0,8.581,8.581,0,0,0,0,1V19.8a8.56,8.56,0,0,0,0,1.1H38.44v-.48H36.89ZM35.5,12.51h4.32v1.33a6.2,6.2,0,0,0-.9,0H36.39a7.82,7.82,0,0,0-.93,0Zm0,2a7.82,7.82,0,0,0,.93,0h2.49a5.53,5.53,0,0,0,.9,0V15.8a6.28,6.28,0,0,0-.93,0H36.37a7.46,7.46,0,0,0-.91,0Zm1.4,4.7h1.58V17.72H36.86ZM43,10.43c-.84.12-1,.13-2.45.28A5.31,5.31,0,0,0,40,9.34a18.2,18.2,0,0,0,6.52-1.26l.86,1.34-.67.19c-.83.24-1.55.42-2.23.56v2H46a10.93,10.93,0,0,0,1.58-.09v1.53a13.589,13.589,0,0,0-1.57-.08H44.52v1.83h1.55a7.57,7.57,0,0,0,1-.05,8,8,0,0,0-.06,1.21v3A14.61,14.61,0,0,0,47.13,21H45.55v-.63H42.11V21H40.55a10.43,10.43,0,0,0,.07-1.43V15.34a8,8,0,0,0,1,.05H43V13.56H41.79a13.28,13.28,0,0,0-1.58.08V12.11a11.44,11.44,0,0,0,1.6.09H43Zm-.9,8.63h3.44V16.74H42.11Z" fill="#fff"/>
          <path id="パス_76" data-name="パス 76" d="M48.8,10.17h.54c.25,0,.25,0,2.31-.14l7.15-.36a7.24,7.24,0,0,0,1.45-.12l.1,1.78h-.3a6.19,6.19,0,0,0-2.77.76c-1.78.92-2.83,2.32-2.83,3.74a2.34,2.34,0,0,0,1.86,2.28,8.48,8.48,0,0,0,2.09.36h.28l-.25,1.9L58,20.28a8.66,8.66,0,0,1-3.28-.92,3.75,3.75,0,0,1-2-3.38A4.89,4.89,0,0,1,54,12.69a6.23,6.23,0,0,1,2-1.42c-1.14.17-2,.26-4.72.45A17.76,17.76,0,0,0,48.9,12Zm9.65,2.69a9.12,9.12,0,0,1,1.48,2.06l-1,.51a9.26,9.26,0,0,0-1.47-2.08Zm2.18,1.69a10.52,10.52,0,0,0-1.43-2l.94-.49a7.89,7.89,0,0,1,1.45,2Z" fill="#fff"/>
          <path id="パス_77" data-name="パス 77" d="M67.83,16.68c-.8,1.81-1.69,2.63-2.84,2.63-1.6,0-2.75-1.62-2.75-3.88a6,6,0,0,1,1.54-4.07,6.29,6.29,0,0,1,4.82-2c3.36,0,5.55,2,5.55,5.19a5.4,5.4,0,0,1-3.4,5.23,9.37,9.37,0,0,1-2.2.59,4.44,4.44,0,0,0-.86-1.64A7.46,7.46,0,0,0,70.48,18a3.93,3.93,0,0,0,2-3.5,3.47,3.47,0,0,0-1.73-3.11A2.86,2.86,0,0,0,69.29,11a20.43,20.43,0,0,1-1.46,5.68Zm-2.06-5a4.7,4.7,0,0,0-1.9,3.78c0,1.15.49,2.06,1.1,2.06s.94-.59,1.45-1.8A18.62,18.62,0,0,0,67.58,11a3.52,3.52,0,0,0-1.81.67Z" fill="#fff"/>
          <path id="パス_78" data-name="パス 78" d="M12.15,36.42A4,4,0,0,1,12,37.61a1.23,1.23,0,0,1-1.29.81,4.36,4.36,0,0,1-2.64-1,2,2,0,0,1-.77-1.59,3,3,0,0,1,1.2-2.07,7.43,7.43,0,0,1,2.05-1.19V30.41H7.83V28.84a8.09,8.09,0,0,0,1.7.13A4.541,4.541,0,0,0,10,29h.56v-.92a9.59,9.59,0,0,0-.09-1.62h1.75A8.77,8.77,0,0,0,12.14,28v.9a16.32,16.32,0,0,0,2.7-.53l.06,1.56-1.49.26c-.46.08-.74.12-1.27.18v1.82A9.69,9.69,0,0,1,15,31.77c2.34,0,4,1.43,4,3.42a3.11,3.11,0,0,1-3.18,3.19,2.26,2.26,0,0,1-2.29-1.56A4.47,4.47,0,0,1,13.29,35a5.78,5.78,0,0,0,1.55-.62V35A2.68,2.68,0,0,0,15,36.26a1,1,0,0,0,.88.48,1.44,1.44,0,0,0,1.42-1.55c0-1.21-1-2-2.48-2a8.88,8.88,0,0,0-2.69.46Zm-1.58-2.26c-1.05.56-1.67,1.18-1.67,1.68,0,.24.14.45.47.65a1.74,1.74,0,0,0,.89.31c.24,0,.31-.13.31-.59Zm7.76-2.83a12,12,0,0,0-2.8-3l1.32-.89a11.72,11.72,0,0,1,2.77,2.88Z" fill="#fff"/>
          <path id="パス_79" data-name="パス 79" d="M22.76,37.31A11.4,11.4,0,0,0,22.85,39H21.21a12.1,12.1,0,0,0,.08-1.74V28.13a13.931,13.931,0,0,0-.05-1.59,13.32,13.32,0,0,0,1.43.06h2.48a11.9,11.9,0,0,0,1.42-.06v4.89H22.76Zm0-8.83h2.4v-.73h-2.4Zm0,1.82h2.4v-.75h-2.4Zm7.09,5.54v1a9,9,0,0,0-1,0H25.78v.94H24.29a12.889,12.889,0,0,0,.07-1.36v-3a9.49,9.49,0,0,0,0-1h5.53v1Zm-4.07-.36h2.66V33.64H25.78ZM33,37.31c0,.77-.12,1.14-.49,1.36A2.8,2.8,0,0,1,31,38.9c-.22,0-.38,0-1.3-.06a5,5,0,0,0-.39-1.48,16.26,16.26,0,0,0,1.72.12c.39,0,.46,0,.46-.36V31.39H27.51V26.54A12.94,12.94,0,0,0,29,26.6h2.66a13.66,13.66,0,0,0,1.44-.06,13.531,13.531,0,0,0-.1,1.57Zm-4-8.83h2.56v-.73H29Zm0,1.82h2.56v-.75H29Z" fill="#fff"/>
          <path id="パス_80" data-name="パス 80" d="M37.17,27.65a16.329,16.329,0,0,0-.11,2.13,26.771,26.771,0,0,0,.26,3.75c.24,1.46.69,2.36,1.14,2.36.21,0,.41-.21.57-.61a10.27,10.27,0,0,0,.75-2.53A6.68,6.68,0,0,0,41.18,34c-.73,2.73-1.54,3.87-2.73,3.87-.94,0-1.7-.69-2.26-2s-.83-3.43-.88-7.31a8.311,8.311,0,0,0-.06-.9Zm6.63.63A14,14,0,0,1,47,35.82l-1.74.65a14,14,0,0,0-.9-4,12.06,12.06,0,0,0-2-3.45Z" fill="#fff"/>
          <path id="パス_81" data-name="パス 81" d="M50.86,30.81A14.1,14.1,0,0,1,48.62,32a5.69,5.69,0,0,0-.81-1.43,13.92,13.92,0,0,0,3.57-2,9.78,9.78,0,0,0,2.2-2.34h1.67a9.18,9.18,0,0,0,2.35,2.36,13,13,0,0,0,3.57,1.92A8.2,8.2,0,0,0,60.4,32a13,13,0,0,1-2.28-1.23v1a10.82,10.82,0,0,0-1.26-.05H52.07a11.281,11.281,0,0,0-1.21.05ZM49.73,39a12.489,12.489,0,0,0,.08-1.49V34.26a13.361,13.361,0,0,0-.07-1.39,7.679,7.679,0,0,0,1.21.06h7a7.9,7.9,0,0,0,1.22-.06,9.139,9.139,0,0,0-.07,1.39v3.28A8.87,8.87,0,0,0,59.18,39H57.52v-.72H51.39V39Zm1.66-2.09h6.13V34.29H51.39Zm5.45-6.65h.48a13,13,0,0,1-2.89-2.73,9.89,9.89,0,0,1-2.74,2.73Z" fill="#fff"/>
          <path id="パス_82" data-name="パス 82" d="M62,34.62a31.472,31.472,0,0,0,2.53-2.24c0-.85,0-.86.06-2a13.34,13.34,0,0,0-2.13.21L62.31,29h.47a14.806,14.806,0,0,0,1.8-.1,10.2,10.2,0,0,0,0-1.05v-.73a3.67,3.67,0,0,0-.06-.61h1.81a6.72,6.72,0,0,0-.14,1.35c0,.26,0,.26,0,.66v.25a.69.69,0,0,0,.19-.07l.54.57a5.55,5.55,0,0,0-.8.91c0,.6,0,.91-.06.95h0a2.27,2.27,0,0,1,.34-.27,6.5,6.5,0,0,1,4-1.54,3.92,3.92,0,0,1,2.73,1.15,4.12,4.12,0,0,1,1.08,2.89,4.31,4.31,0,0,1-2.23,4,5.57,5.57,0,0,1-2.49.53,7.19,7.19,0,0,1-2.09-.3,5.28,5.28,0,0,0-.26-1.82,6.48,6.48,0,0,0,2.49.51,2.76,2.76,0,0,0,2.86-2.9,2.25,2.25,0,0,0-2.4-2.43c-1.16,0-2.53.71-4.08,2.11V34.5a37.661,37.661,0,0,0,.11,4.19H64.37a13.639,13.639,0,0,0,.09-2.24V34.37h0a5,5,0,0,1-.62.66,8.63,8.63,0,0,0-1.08,1.21Z" fill="#fff"/>
          <path id="パス_83" data-name="パス 83" d="M86.92,38l-.63.07c-1,.11-2.87.21-3.8.21-2.62,0-3.75-.51-4.17-1.85a13.6,13.6,0,0,1-.26-3.83V31.24a17.11,17.11,0,0,0-2.59.26l-.12-1.64h.41l2.28-.12V29.3a14.18,14.18,0,0,0-.1-2.38h1.88a15.05,15.05,0,0,0-.13,2.73l4-.19a16,16,0,0,0-.08-2.78h1.75a6,6,0,0,0-.07,1V29.4A24.49,24.49,0,0,0,88,29.27v1.67a5.16,5.16,0,0,0-.8,0H85.38a8.88,8.88,0,0,1-.37,3,1.71,1.71,0,0,1-1.71,1,4.65,4.65,0,0,1-2-.47c0-.28,0-.37,0-.56a7.3,7.3,0,0,0-.09-1.15,4.33,4.33,0,0,0,1.83.68c.37,0,.52-.18.6-.72A11.54,11.54,0,0,0,83.78,31c-2.13.09-2.13.09-4.08.2v1.49c0,.72,0,2.25.07,2.53.11,1.18.71,1.47,3,1.47a11.45,11.45,0,0,0,4-.53Z" fill="#fff"/>
          <path id="パス_84" data-name="パス 84" d="M194.23,17.39l-6.2,3.58V13.81Z" fill="#222"/>
        </g>
      </g>
      <rect id="長方形_4" data-name="長方形 4" width="195" height="32" transform="translate(368 198)" fill="#fff"/>
      <g id="グループ_2" data-name="グループ 2" transform="translate(2 34)">
        <path id="パス_85" data-name="パス 85" d="M3.719-1.531A13.275,13.275,0,0,1,1.313-9.187,16.217,16.217,0,0,1,3.5-18.375a6.227,6.227,0,0,1,5.469-3.391A5.738,5.738,0,0,1,14-18.922a13.24,13.24,0,0,1,2.188,7.656q.328,5.578-1.859,9.078Q12.25,1.2,8.969,1.2A6.342,6.342,0,0,1,3.719-1.531ZM5.688-5.25Q6.672-2.625,8.531-2.3,10.5-1.969,11.7-4.156A13.03,13.03,0,0,0,12.8-8.969a16.573,16.573,0,0,0-.656-6.234q-.984-2.844-2.734-3.062a2.886,2.886,0,0,0-3.172,1.531,12.334,12.334,0,0,0-1.312,5.141A15.485,15.485,0,0,0,5.688-5.25ZM21.62-.219a6.75,6.75,0,0,1-2.3-4.375h3.5a2.945,2.945,0,0,0,1.094,1.969,2.648,2.648,0,0,0,2.188.547,3.191,3.191,0,0,0,2.188-2.078,13.911,13.911,0,0,0,.875-3.719,5.2,5.2,0,0,1-4.594,1.859,5.544,5.544,0,0,1-4.047-1.969,7.78,7.78,0,0,1-1.641-4.375,9.8,9.8,0,0,1,1.859-7.109,6.357,6.357,0,0,1,5.031-2.3,6.135,6.135,0,0,1,5.141,2.406q1.859,2.406,1.859,7v1.641a26.22,26.22,0,0,1-.547,5.906,9,9,0,0,1-2.3,4.375A5.632,5.632,0,0,1,25.777,1.2,6.386,6.386,0,0,1,21.62-.219Zm1.422-10.719a3.023,3.023,0,0,0,2.406,1.422,2.944,2.944,0,0,0,2.625-1.094,4.952,4.952,0,0,0,1.094-3.281,4.886,4.886,0,0,0-.875-2.953A3.018,3.018,0,0,0,26-18.156a3.228,3.228,0,0,0-2.734,1.094,4.25,4.25,0,0,0-.984,2.953A6.193,6.193,0,0,0,23.042-10.937Zm13.308,7v-4.7l8.2-12.906h3.719V-7.437h2.516v3.5H48.272V.984h-3.5V-3.937Zm2.734-3.609h5.688v-8.969Zm14.839-.766a5,5,0,0,1,2.734-2.844,5.072,5.072,0,0,1-2.078-2.516,6.857,6.857,0,0,1-.109-4.047A6.022,6.022,0,0,1,56-20.234a6.077,6.077,0,0,1,4.484-1.531,6.077,6.077,0,0,1,4.484,1.531,6.05,6.05,0,0,1,1.75,3.281,5.982,5.982,0,0,1-.328,3.391,4.61,4.61,0,0,1-1.969,2.3,5.2,5.2,0,0,1,2.516,2.625,7.62,7.62,0,0,1,.328,4.266A5.835,5.835,0,0,1,65.3-.656a6.57,6.57,0,0,1-4.375,1.75A7.5,7.5,0,0,1,55.892-.328a6.585,6.585,0,0,1-2.3-3.5A7.267,7.267,0,0,1,53.924-8.312ZM57.97-3.281a3.252,3.252,0,0,0,2.406.875,3.252,3.252,0,0,0,2.406-.875A3.407,3.407,0,0,0,63.767-5.8a3.407,3.407,0,0,0-.984-2.516,3.252,3.252,0,0,0-2.406-.875,3.252,3.252,0,0,0-2.406.875A3.407,3.407,0,0,0,56.986-5.8,3.407,3.407,0,0,0,57.97-3.281Zm.109-10.5a3.12,3.12,0,0,0,2.3.766,2.96,2.96,0,0,0,2.188-.766,2.839,2.839,0,0,0,.875-2.078,2.839,2.839,0,0,0-.875-2.078,2.96,2.96,0,0,0-2.187-.766,2.96,2.96,0,0,0-2.187.766,2.839,2.839,0,0,0-.875,2.078A2.808,2.808,0,0,0,58.08-13.781ZM82.289-.219a6.75,6.75,0,0,1-2.3-4.375h3.5a2.945,2.945,0,0,0,1.094,1.969,2.648,2.648,0,0,0,2.188.547,3.191,3.191,0,0,0,2.188-2.078,13.91,13.91,0,0,0,.875-3.719,5.2,5.2,0,0,1-4.594,1.859A5.544,5.544,0,0,1,81.2-7.984a7.78,7.78,0,0,1-1.641-4.375,9.8,9.8,0,0,1,1.859-7.109,6.357,6.357,0,0,1,5.031-2.3,6.135,6.135,0,0,1,5.141,2.406q1.859,2.406,1.859,7v1.641A26.22,26.22,0,0,1,92.9-4.812,9,9,0,0,1,90.6-.437,5.632,5.632,0,0,1,86.446,1.2,6.386,6.386,0,0,1,82.289-.219Zm1.422-10.719a3.023,3.023,0,0,0,2.406,1.422,2.944,2.944,0,0,0,2.625-1.094,4.952,4.952,0,0,0,1.094-3.281,4.886,4.886,0,0,0-.875-2.953,3.018,3.018,0,0,0-2.3-1.312,3.228,3.228,0,0,0-2.734,1.094,4.25,4.25,0,0,0-.984,2.953A6.193,6.193,0,0,0,83.711-10.937ZM108.5-20.344a7.532,7.532,0,0,1,2.406,4.7h-3.5q-.547-2.734-2.844-2.734a3.482,3.482,0,0,0-2.953,1.859,8.1,8.1,0,0,0-.984,4.375q3.938-3.391,7.766-.984a6.531,6.531,0,0,1,2.3,3.281,10.738,10.738,0,0,1,.547,3.609,7.958,7.958,0,0,1-1.422,4.594A6.107,6.107,0,0,1,106.644.766a6.941,6.941,0,0,1-4.7-.109A7.47,7.47,0,0,1,98-3.172a16.311,16.311,0,0,1-1.094-7.219,16.676,16.676,0,0,1,1.313-7.328,6.963,6.963,0,0,1,6.453-4.047A5.409,5.409,0,0,1,108.5-20.344ZM101.613-3.937A3.4,3.4,0,0,0,104.347-2.3a3.386,3.386,0,0,0,3.172-2.516,5.118,5.118,0,0,0-.547-4.594,2.924,2.924,0,0,0-3.609-.766,5.545,5.545,0,0,0-2.734,2.734A6,6,0,0,0,101.613-3.937Zm21.913-4.375a5,5,0,0,1,2.734-2.844,5.072,5.072,0,0,1-2.078-2.516,6.857,6.857,0,0,1-.109-4.047,6.022,6.022,0,0,1,1.531-2.516,6.077,6.077,0,0,1,4.484-1.531,6.077,6.077,0,0,1,4.484,1.531,6.05,6.05,0,0,1,1.75,3.281,5.982,5.982,0,0,1-.328,3.391,4.61,4.61,0,0,1-1.969,2.3,5.2,5.2,0,0,1,2.516,2.625,7.62,7.62,0,0,1,.328,4.266A5.835,5.835,0,0,1,134.9-.656a6.57,6.57,0,0,1-4.375,1.75,7.5,7.5,0,0,1-5.031-1.422,6.585,6.585,0,0,1-2.3-3.5A7.267,7.267,0,0,1,123.526-8.312Zm4.047,5.031a3.252,3.252,0,0,0,2.406.875,3.252,3.252,0,0,0,2.406-.875,3.407,3.407,0,0,0,.984-2.516,3.407,3.407,0,0,0-.984-2.516,3.252,3.252,0,0,0-2.406-.875,3.252,3.252,0,0,0-2.406.875,3.407,3.407,0,0,0-.984,2.516A3.407,3.407,0,0,0,127.572-3.281Zm.109-10.5a3.12,3.12,0,0,0,2.3.766,2.96,2.96,0,0,0,2.188-.766,2.839,2.839,0,0,0,.875-2.078,2.839,2.839,0,0,0-.875-2.078,2.96,2.96,0,0,0-2.187-.766,2.96,2.96,0,0,0-2.188.766,2.839,2.839,0,0,0-.875,2.078A2.808,2.808,0,0,0,127.682-13.781Zm14.73-1.2v-2.734a6.629,6.629,0,0,0,3.172-.875,4.125,4.125,0,0,0,1.75-2.953H150.4V.984h-3.719V-14.984Zm26.761-5.359a7.532,7.532,0,0,1,2.406,4.7h-3.5q-.547-2.734-2.844-2.734a3.482,3.482,0,0,0-2.953,1.859,8.1,8.1,0,0,0-.984,4.375q3.938-3.391,7.766-.984a6.531,6.531,0,0,1,2.3,3.281,10.738,10.738,0,0,1,.547,3.609,7.958,7.958,0,0,1-1.422,4.594A6.107,6.107,0,0,1,167.313.766a6.941,6.941,0,0,1-4.7-.109,7.47,7.47,0,0,1-3.937-3.828,16.311,16.311,0,0,1-1.094-7.219,16.676,16.676,0,0,1,1.313-7.328,6.963,6.963,0,0,1,6.453-4.047A5.409,5.409,0,0,1,169.173-20.344ZM162.282-3.937A3.4,3.4,0,0,0,165.016-2.3a3.386,3.386,0,0,0,3.172-2.516,5.118,5.118,0,0,0-.547-4.594,2.924,2.924,0,0,0-3.609-.766A5.545,5.545,0,0,0,161.3-7.437,6,6,0,0,0,162.282-3.937Zm14.511,2.406a13.275,13.275,0,0,1-2.406-7.656,16.217,16.217,0,0,1,2.188-9.187,6.227,6.227,0,0,1,5.469-3.391,5.738,5.738,0,0,1,5.031,2.844,13.24,13.24,0,0,1,2.188,7.656q.328,5.578-1.859,9.078Q185.324,1.2,182.043,1.2A6.342,6.342,0,0,1,176.793-1.531Zm1.969-3.719q.984,2.625,2.844,2.953,1.969.328,3.172-1.859a13.03,13.03,0,0,0,1.094-4.812,16.573,16.573,0,0,0-.656-6.234q-.984-2.844-2.734-3.062a2.886,2.886,0,0,0-3.172,1.531A12.334,12.334,0,0,0,178-11.594,15.485,15.485,0,0,0,178.762-5.25Z" transform="translate(368 191)" fill="#222" stroke="#222" stroke-width="0.5"/>
        <path id="パス_175" data-name="パス 175" d="M0,0H8V4H0Z" transform="translate(437 181)" fill="#222"/>
        <rect id="長方形_3" data-name="長方形 3" width="8" height="4" transform="translate(481 181)" fill="#222"/>
      </g>
    </g>
  </g>
</svg>
