<svg xmlns="http://www.w3.org/2000/svg" viewBox="0 0 443.48 328.04"><defs><style>.cls-1,.cls-2{fill:none;}.cls-1{stroke:#2e70cf;stroke-linecap:round;stroke-linejoin:round;stroke-width:7px;}.cls-2{stroke:#fff;stroke-miterlimit:10;stroke-width:4px;}.cls-3{fill:#0069af;}.cls-4{fill:#201512;}.cls-5{fill:#fff;}.cls-6{fill:#231815;}.cls-7{fill:#f2f1f1;}</style></defs><g id="レイヤー_2" data-name="レイヤー 2"><g id="レイヤー_1-2" data-name="レイヤー 1"><path class="cls-1" d="M72,7.38c-1.5,1.54-6,4.84-7.42,4.84A1.68,1.68,0,0,1,63,10.42a1.38,1.38,0,0,1,.82-1.34A20.8,20.8,0,0,0,70.49,4.5a2.72,2.72,0,0,1,2.1-.86,3.18,3.18,0,0,1,2.52,1.22,19.53,19.53,0,0,0,5.13,3.66c1.54.72,2,.92,2,1.92a1.68,1.68,0,0,1-1.52,1.8c-1.5,0-6-3.36-7.47-4.86-.3-.32-.42-.44-.6-.44S72.31,7.06,72,7.38Zm-1.56,7c0,3.6-.92,5.54-2.44,6.94a4.92,4.92,0,0,1-2.7,1.4A1.69,1.69,0,0,1,63.65,21a1.38,1.38,0,0,1,.56-1.12c1.68-1,2-1.24,2.44-2a8.34,8.34,0,0,0,.68-3.72v-2a1.3,1.3,0,0,1,1.48-1.48c1.5,0,1.62.82,1.62,1.48Zm7.42,7c0,.4,0,1.46-1.5,1.46-1.18,0-1.7-.42-1.7-1.46V12c0-.58.16-1.46,1.5-1.46,1.1,0,1.7.32,1.7,1.46Z"/><path class="cls-1" d="M90.27,9.68c-.42,0-1.24,0-1.24-1.2s.64-1.24,1.24-1.24h4.3c.6,0,1.22.14,1.22,1.2s-.56,1.24-1.22,1.24Zm6.36,8.56c-.3,0-1.18,0-1.18-1s.66-1,1.18-1h8.93c.42,0,1.56,0,1.56,1.28,0,.62-.16,1.34-2.05,2.64.29,0,1.53.12,1.79.16.68.08,1.26.26,1.26,1.14,0,1.34-1,1.34-1.52,1.34a22,22,0,0,1-5.07-1,29.64,29.64,0,0,1-5.28,1,1,1,0,0,1-1.14-.8c-.38.56-.88.64-2,.64H91.75c-1.9,0-2.26-.36-2.26-2.26V18.48c0-1.9.34-2.26,2.28-2.26h1.32c1.9,0,2.26.34,2.26,2.26v2.06a1.49,1.49,0,0,1,.6-.24c.66-.1,1.82-.22,2.22-.26-.76-.54-1-.82-1-1.22a.91.91,0,0,1,.22-.58Zm-2.6-8a1.07,1.07,0,0,1,1,.34l.18-.2a9.82,9.82,0,0,0,1.4-1.84c.58-1,.92-1,1.48-1a1.53,1.53,0,0,1,0-.36h-1.4c-.44,0-1.22-.08-1.22-1.12A1,1,0,0,1,96.63,5H98V4.66c0-.84,1-.88,1.5-.88.16,0,1.26,0,1.26.88V5h2.26V4.66c0-.9.84-.92,1.54-.92.33,0,1.23,0,1.23.92V5H107c.48,0,1.22.1,1.22,1.12A1,1,0,0,1,107,7.24h-1.14c0,.46,0,1.08-1.64,1a1.43,1.43,0,0,1-.15.44h3c.3,0,.86,0,.86.72s-.6.72-.86.72h-3.07v.52h2.91c.42,0,.68.14.68.58s-.42.58-.68.58h-2.91v.52h2.89c.36,0,.7.1.7.6s-.48.6-.78.6h-2.81V14h3.31c.28,0,1,0,1,.84s-.76.82-1,.82H98.57c-2.1,0-2.48-.4-2.48-2.46v-.46a.69.69,0,0,1-.4.1,1.17,1.17,0,0,1-.86-.4,1.47,1.47,0,0,1-.8.18H90.77c-.58,0-1.24-.14-1.24-1.2a1.06,1.06,0,0,1,1.24-1.18ZM90.77,6.64a1.06,1.06,0,0,1-1.24-1.16c0-1.12.76-1.18,1.24-1.18H94a1.07,1.07,0,0,1,1.24,1.16c0,1.12-.8,1.18-1.24,1.18Zm0,9a1.06,1.06,0,0,1-1.24-1.14c0-1.1.74-1.18,1.24-1.18H94a1.07,1.07,0,0,1,1.24,1.16c0,1.16-.9,1.16-1.3,1.16Zm2.54,3.18a.33.33,0,0,0-.36-.36h-.76a.33.33,0,0,0-.38.36v1a.35.35,0,0,0,.38.38H93a.34.34,0,0,0,.36-.38Zm7.94-8.12V10H99.07a.33.33,0,0,0-.36.36v.26Zm0,1.08H98.71v.6h2.54Zm0,1.72H98.71v.28c0,.22.12.34.36.34h2.18Zm0-4.8c.38-.9.58-1.18,1.84-1.1a1.42,1.42,0,0,1,0-.32h-2.26c0,.44,0,1.16-1.8,1a1,1,0,0,1,.06.46Zm-1.8,9.58a10.89,10.89,0,0,0,2.26,1.1c.42-.14,1.82-.62,1.82-1,0-.12-.16-.12-.24-.12Z"/><path class="cls-1" d="M132.7,5.72c1.06,0,1.46.46,1.46,1.44a1.26,1.26,0,0,1-1.46,1.32H129c.92.12,1,.78,1,1.24v.72l1.25-.32a3.16,3.16,0,0,1,.9-.16c1.54,0,1.54,1.44,1.54,1.92a29.68,29.68,0,0,1-.36,4.76c-.26.9-.72,1.22-1.84,1.22-.6,0-1.24,0-1.49-.66,0,.82,0,1.46-1.34,1.46-1.1,0-1.16-.78-1.16-1.22V13.92l-.88.2v4.74c0,.8.22.8,2.46.8.46,0,1.52,0,1.94-.06s.49-.28.59-1a1.12,1.12,0,0,1,1.22-.88,1.16,1.16,0,0,1,1.3,1.34,4.82,4.82,0,0,1-.7,2.78c-.48.46-.84.64-4.31.64-.56,0-3.36,0-3.64-.08C124,22.24,124,21,124,19.94v-5.2a1,1,0,0,1-1-.4c0,1.36-.14,6.12-.58,7.2a2.18,2.18,0,0,1-2.26,1.22c-1,0-2,0-2-1.6-.38,1.12-.78,1.42-1.36,1.42-.76,0-1.68-.48-1.68-1.34a8,8,0,0,1,.68-2.28,17.56,17.56,0,0,0,.8-5.22V9.24h-.34c-.36,0-1.2-.16-1.2-1.44a1.25,1.25,0,0,1,1.46-1.3h1.32V5c0-.9.36-1.26,1.6-1.26s1.38.82,1.38,1.26V6.5h1.06c.58,0,1.22.12,1.42.9a11.11,11.11,0,0,0,1.44-2.72c.24-.56.48-1,1.32-1,.68,0,1.6.38,1.6,1.18a2.16,2.16,0,0,1-.22.88Zm-13.39,8a25.49,25.49,0,0,1-.86,6.42.92.92,0,0,1,.66-.3c.46-.06.66-.06.8-.32a30.39,30.39,0,0,0,.36-5.32c0-.46-.26-.48-.44-.48ZM124,10.8a1.14,1.14,0,0,1-.32.06,1.59,1.59,0,0,1-1.56-1.62h-2.78V11h1.46c.88,0,1.88,0,2.12,1.32a1.53,1.53,0,0,1,.68-.32l.4-.1Zm2.58.48.88-.22V9.72c0-.76.24-1.14,1-1.24H126c-.16.22-.32.48-.64.92.82.06,1.18.36,1.18,1.24Zm3.38,2v2.52a.58.58,0,0,1,.4-.38c.37-.08.41-.08.49-.16a6.28,6.28,0,0,0,.17-1.9c0-.08,0-.26-.19-.26a1.54,1.54,0,0,0-.33.06Z"/><path class="cls-1" d="M148,7.24a1.07,1.07,0,0,1,1.24,1.16c0,.9-.34,1.28-1.24,1.28h-5.66A1.09,1.09,0,0,1,141,8.48a1.1,1.1,0,0,1,1.26-1.24Zm-.6-3a1.06,1.06,0,0,1,1.24,1.16c0,1.1-.76,1.18-1.24,1.18h-4.56a1.07,1.07,0,0,1-1.24-1.16c0-1.12.78-1.18,1.24-1.18Zm-.08,6a1.07,1.07,0,0,1,1.24,1.18c0,1.08-.7,1.18-1.24,1.18h-4.48a1.06,1.06,0,0,1-1.24-1.16c0-1.1.74-1.2,1.24-1.2Zm0,3a1.06,1.06,0,0,1,1.24,1.16c0,1.18-.88,1.18-1.3,1.18h-4.42a1.07,1.07,0,0,1-1.24-1.16,1.07,1.07,0,0,1,1.24-1.18Zm9.89-1.18c.72,0,2.06,0,2.06,1.9a7.62,7.62,0,0,1-2.32,4.76,21.4,21.4,0,0,0,2.18.84,1.18,1.18,0,0,1,1,1.26c0,.54-.28,1.78-1.52,1.78a10.1,10.1,0,0,1-4.15-1.8,12.9,12.9,0,0,1-4.66,1.86,1.45,1.45,0,0,1-1.32-1.18c-.26,1-1.26,1-2.14,1h-2.36c-1.84,0-2.24-.34-2.24-2.26V18.5c0-1.92.36-2.28,2.28-2.28h2.3c1.92,0,2.26.38,2.26,2.28v1.82a1.38,1.38,0,0,1,.86-.56l2.34-.76a1.18,1.18,0,0,0,.28-.12c-.64-.66-1.78-1.94-1.78-2.76s.88-1.2,1.56-1.2a1,1,0,0,1,.94.5,9.67,9.67,0,0,0,1.7,1.8,5.44,5.44,0,0,0,1.42-2s0-.28-.38-.28h-5A1.25,1.25,0,0,1,149,13.58c0-1,.38-1.48,1.46-1.48ZM146,18.8a.33.33,0,0,0-.36-.36h-.82a.33.33,0,0,0-.36.36v1a.33.33,0,0,0,.36.38h.82a.34.34,0,0,0,.36-.38Zm8.72-14.62c2.07,0,2.49.38,2.49,2.48V8.42c0,.22,0,.42.42.42s.38-.24.42-.92c0-.84.06-1.26,1-1.26,1.06,0,1.2.5,1.2,1.08a7.91,7.91,0,0,1-.44,3c-.42.62-1,.74-2.14.74-2.49,0-3.13-.06-3.13-2.48V7.46a.34.34,0,0,0-.38-.38h-.86c-.34,0-.34.08-.42.82-.34,3-1.48,3.84-2.32,3.84a1.56,1.56,0,0,1-1.58-1.42,1.61,1.61,0,0,1,.46-1c.82-1.1.82-1.62.9-3.42s1-1.68,2.54-1.68Z"/><path class="cls-1" d="M182.62,6.12c1.7,0,2.74.56,2.74,2.72V20c0,2.78-1.6,2.78-3.85,2.78a4.87,4.87,0,0,1-2.08-.28,1.78,1.78,0,0,1-.56-1.38,1.28,1.28,0,0,1,1.5-1.44c.22,0,1.25,0,1.44,0a.57.57,0,0,0,.52-.66V9.54a.6.6,0,0,0-.66-.68H171.59a.6.6,0,0,0-.66.68V21.38a1.29,1.29,0,0,1-1.42,1.48c-1.16,0-1.62-.38-1.62-1.48V8.84c0-2.18,1-2.72,2.74-2.72H174c.24-.72.26-.8.5-1.56.1-.36.34-.94,1.48-.94.2,0,1.72,0,1.72,1.12,0,.24,0,.36-.42,1.38ZM180.89,16.6c0,1.9-.88,2.42-2.42,2.42h-3.7c-1.6,0-2.44-.56-2.44-2.42V12.44c0-1.82.78-2.44,2.44-2.44h3.7c1.58,0,2.42.56,2.42,2.44Zm-2.62-3.4a.5.5,0,0,0-.56-.56h-2.2a.51.51,0,0,0-.56.56v2.6a.5.5,0,0,0,.56.56h2.2a.5.5,0,0,0,.56-.56Z"/><path class="cls-1" d="M197.91,5.84c0,.36-.24,2-.28,2.32a57.34,57.34,0,0,0-.36,5.88,41.94,41.94,0,0,0,.34,5.24,9.69,9.69,0,0,1,.1,1.14c0,1.26-1.2,1.32-1.62,1.32-1,0-1.32-.48-1.52-1.34a34.47,34.47,0,0,1-.4-6,51,51,0,0,1,.68-8.88c.28-1,.86-1,1.76-1A1.19,1.19,0,0,1,197.91,5.84Zm10.5,8.54c0,2.62-.06,5.92-4.26,7.34a11.29,11.29,0,0,1-3,.56,1.55,1.55,0,0,1-1.56-1.68c0-.86.4-1.2,1.2-1.32,1.6-.22,2.44-.34,3.36-1.12s1-2,1-4.14c0-.8,0-1.58,0-2.34-1,0-3.34.08-4.2.08-1.22,0-2.24,0-2.24-1.48s.94-1.52,2.14-1.52c2.38,0,2.64,0,4.22-.06C205,8.36,205,6.18,205,6c0-.78.12-1.64,1.6-1.64,1.14,0,1.63.42,1.67,1.5,0,.42,0,2.3.06,2.68.29,0,1.64-.08,1.9-.08A1.34,1.34,0,0,1,211.72,10c0,.2,0,1.18-.84,1.42a14.57,14.57,0,0,1-2.51.18C208.41,13.38,208.41,13.68,208.41,14.38Z"/><path class="cls-1" d="M247.65,15.5c.66,0,1.81,0,1.81,1.16a2.07,2.07,0,0,1-.72,1.5,13.1,13.1,0,0,1-1.81,1.56c.24,0,1.29.2,2.25.26s1.62.14,1.62,1.18c0,.16,0,1.58-1.4,1.58a17.54,17.54,0,0,1-5.67-1.32,19.93,19.93,0,0,1-5.34,1.26,1.32,1.32,0,0,1-1.4-1.4c0-1,.72-1.08,1.14-1.12,2-.24,2.18-.24,2.78-.36a10.74,10.74,0,0,1-1.12-1,2.87,2.87,0,0,1-1.22.42,1.36,1.36,0,0,1-1.26-1.42.87.87,0,0,1,.4-.82,1.3,1.3,0,0,1-.32.06c-.4,0-.58-.28-1.06-1v5.3c0,.4,0,1.44-1.24,1.44-.86,0-1.38-.3-1.38-1.44v-5a1.11,1.11,0,0,1-.64.18,1.7,1.7,0,0,1-1.58-1.7c0-.68.18-.84,1.7-2.2a10.79,10.79,0,0,0,2.08-2.74,2.05,2.05,0,0,0,.14-.34c0-.22-.2-.22-.32-.22h-1.92c-.54,0-1.46-.1-1.46-1.3,0-.9.26-1.52,1.44-1.52h.56V5.16c0-.48.06-1.44,1.2-1.44.82,0,1.42.22,1.42,1.44V6.5c.88,0,1.18.08,1.52.42a11.2,11.2,0,0,0,1.32-1.66c.72-1.1,1-1.52,1.7-1.52.4,0,1.64.24,1.66,1.2h6.95a1.09,1.09,0,0,1,1.24,1.2,1.09,1.09,0,0,1-1.24,1.24h-8.23c-.2.28-.32.42-.48.62a4.9,4.9,0,0,1,.84-.06h5.7c1.55,0,2.39.54,2.39,2.36v2.28c0,1.84-.84,2.38-2.39,2.38h-3.2c-.16.24-.28.38-.4.54Zm-8.42-5.2a4.9,4.9,0,0,1,.06-.84.85.85,0,0,1-.46.12,1.43,1.43,0,0,1-.74-.2,10.44,10.44,0,0,1-1.56,3.48,13.26,13.26,0,0,0,1.18,1.46c.8.86.9,1,.9,1.44a1.27,1.27,0,0,1-.44,1,11.53,11.53,0,0,0,2.8-1.8,1.8,1.8,0,0,1-1.72-1.82c-.5.76-.76.8-1,.8a1,1,0,0,1-1-1c0-.24,0-.26.52-1.08s.58-.94,1-.94a1.2,1.2,0,0,1,.5.12Zm2.56,7.14a8,8,0,0,0,2,1.36c1.18-.56,1.8-1.08,1.8-1.24s-.1-.12-.18-.12Zm.28-6.86h4.78v-.52a.35.35,0,0,0-.38-.38h-4a.33.33,0,0,0-.36.38Zm0,1.68v.54a.33.33,0,0,0,.36.36h4a.35.35,0,0,0,.38-.38v-.52Z"/><path class="cls-1" d="M258.91,16.66a1.05,1.05,0,0,1-1.16-1.18c0-.88.46-1.22,1.26-1.22h1.62c.4-1.1.46-1.28,1.1-1.4a2,2,0,0,1,0-.5V11.22a14.81,14.81,0,0,1-1.6,1.6,1.67,1.67,0,0,1-1.08.5,1.43,1.43,0,0,1-1.34-1.54c0-.54.34-.74,1.26-1.3a9.18,9.18,0,0,0,1.64-1.28H259c-.4,0-1.22,0-1.22-1.14s.6-1.12,1.22-1.12h2.68V5c0-.38,0-1.26,1.32-1.26,1.14,0,1.48.4,1.48,1.26v1.9h2.4c.4,0,1.22,0,1.22,1.1s-.74,1.16-1.22,1.16h-1.54a13.74,13.74,0,0,0,1.26,1.16c.48.38.5.42.58.6a15.77,15.77,0,0,0,2.3-6,1.26,1.26,0,0,1,1.44-1.14c.38,0,1.56.06,1.56,1.14a6.08,6.08,0,0,1-.34,1.58h3.29A1.28,1.28,0,0,1,276.86,8c0,1.5-.94,1.54-1.33,1.56a18.66,18.66,0,0,1-1.78,7.8,12.77,12.77,0,0,0,2.35,2.28,1.65,1.65,0,0,1,.72,1.3,1.77,1.77,0,0,1-1.62,1.76c-.44,0-.87-.14-1.89-1.12A12.48,12.48,0,0,1,272,20.06a12.5,12.5,0,0,1-2.34,2c-.82.56-1.06.6-1.4.6a1.55,1.55,0,0,1-1.42-.94,1,1,0,0,1-.7.26c-.3,0-.48-.06-1-.42-.3-.2-.86-.5-1.12-.64a9.76,9.76,0,0,1-4.68,1.76A1.34,1.34,0,0,1,258,21.3c0-.88.68-1,1.14-1.1a14.57,14.57,0,0,0,2-.54c-.24-.08-1.28-.44-1.48-.54a1,1,0,0,1-.68-.94c0-.42.16-.66.56-1.34a.71.71,0,0,0,.08-.18Zm.84-9.76c-.58,0-.7-.2-1-.78-.38-.86-.42-1-.42-1.2,0-.52.58-.92,1.32-.92a1,1,0,0,1,1,.62,3,3,0,0,1,.5,1.34C261.19,6.42,260.77,6.9,259.75,6.9Zm2.62,9.76a6,6,0,0,0-.38.92.21.21,0,0,0,.14.22c.12.06,1.08.3,1.44.42a4.23,4.23,0,0,0,.82-1.56Zm4.64-2.4c.7,0,1.3.28,1.3,1.22,0,1.18-1,1.18-1.38,1.2a5.24,5.24,0,0,1-1,2.4c1,.42,1.12.46,1.3.84l1-.66a7.93,7.93,0,0,0,2.06-1.8,14.25,14.25,0,0,1-1.28-3.86,1.47,1.47,0,0,1-1.1.56,1.67,1.67,0,0,1-1.6-1.42c-.54.12-1-.22-1.86-1.38v1c0,.52-.1,1.06-.88,1.22a1.59,1.59,0,0,1-.12.68Zm.92-9.36a3.41,3.41,0,0,1-.6,1.4,1.16,1.16,0,0,1-1.06.62c-.66,0-1.3-.38-1.3-.94,0-.28,0-.34.56-1.32a1,1,0,0,1,1-.68C267.25,4,267.93,4.34,267.93,4.9Zm3.22,4.68a.38.38,0,0,1-.06.16,15.7,15.7,0,0,0,.92,4.58,16.51,16.51,0,0,0,.7-4.74Z"/><path class="cls-1" d="M289.07,5.06c.52-1.08.72-1.44,1.64-1.44s1.9.48,1.9,1.3c0,.66-.66,1.68-2.26,4.18,2.26-.06,4.54-.12,6.8-.3-.08-.08-.14-.16-.28-.32-1.06-1.1-1.24-1.3-1.24-1.82a1.73,1.73,0,0,1,1.76-1.52,1.5,1.5,0,0,1,1.1.5c.88.88,1.71,1.86,2.17,2.42,2.08,2.6,2.08,2.9,2.08,3.28a1.85,1.85,0,0,1-1.9,1.68c-.7,0-.83-.16-1.65-1.44-1.88.18-3.86.28-5.78.38-3,.14-7.7.28-8,.28-.6,0-1.66,0-1.66-1.62,0-.76.32-1.3.86-1.42a13.42,13.42,0,0,1,2.28-.06C287.59,7.9,288,7.18,289.07,5.06Zm12.07,14.66c0,2.12-1,2.66-2.67,2.66H288.15c-1.68,0-2.66-.56-2.66-2.66V15.86c0-2.12,1-2.66,2.66-2.66h10.32c1.62,0,2.67.5,2.67,2.66Zm-3.07-3.08a.55.55,0,0,0-.6-.62h-8.18a.56.56,0,0,0-.62.62v2.2a.55.55,0,0,0,.62.6h8.18a.54.54,0,0,0,.6-.6Z"/><path class="cls-1" d="M319.23,11.18h7.3a1.37,1.37,0,0,1,1.55,1.48,1.37,1.37,0,0,1-1.55,1.52h-7.3v3.64c0,.38,0,.66.46.76a25.71,25.71,0,0,0,2.58.08c.86,0,1.92,0,2.74-.06.2,0,.62,0,.8,0a1.26,1.26,0,0,1,1.47,1.4,1.44,1.44,0,0,1-1,1.52,23.43,23.43,0,0,1-3.58.12c-4.64,0-5-.18-5.44-.38a3.05,3.05,0,0,1-1.38-2.92V14.18H312a1.36,1.36,0,0,1-1.54-1.5,1.36,1.36,0,0,1,1.54-1.5h3.88v-3h-3.1a1.36,1.36,0,0,1-1.54-1.48,1.35,1.35,0,0,1,1.54-1.5h12.9a1.35,1.35,0,0,1,1.53,1.48,1.34,1.34,0,0,1-1.53,1.5h-6.44Z"/><path class="cls-1" d="M337.61,13.38a1.35,1.35,0,0,1-1.52-1.48,1.34,1.34,0,0,1,1.52-1.48h14.63a1.35,1.35,0,0,1,1.52,1.46,1.35,1.35,0,0,1-1.52,1.5H347c-.1,1.56-.3,5.18-3.7,7.3A10.55,10.55,0,0,1,339,22.2c-1.08,0-1.5-1.14-1.5-1.72a1.35,1.35,0,0,1,1.18-1.3c2.62-.74,4.86-1.36,5.06-5.8Zm11.48-8.12a1.32,1.32,0,0,1,1.5,1.46,1.32,1.32,0,0,1-1.5,1.48h-9.92a1.32,1.32,0,0,1-1.48-1.46,1.32,1.32,0,0,1,1.48-1.48Zm1.34-.62a1.62,1.62,0,0,1-.06-.38c0-.58.68-.64.79-.64.43,0,.62.34.81.88a5.77,5.77,0,0,1,.49,1.8.7.7,0,0,1-.76.7.63.63,0,0,1-.63-.42c0-.08-.26-.9-.32-1.06S350.47,4.76,350.43,4.64Zm2.31-.16a1.22,1.22,0,0,1-.06-.34c0-.58.66-.64.8-.64.38,0,.56.24.78.82a7.06,7.06,0,0,1,.5,1.84.71.71,0,0,1-.76.7c-.48,0-.54-.14-.94-1.48C353,5.24,352.78,4.62,352.74,4.48Z"/><path class="cls-1" d="M367.67,10.64c0,4.32-.2,7.22-2.3,9.92-1,1.32-1.52,1.32-1.86,1.32a1.87,1.87,0,0,1-1.88-1.72,1.78,1.78,0,0,1,.6-1.24c1.9-2.18,2.22-3.14,2.22-8.42V6.3c0-.7.22-1.46,1.58-1.46,1.06,0,1.64.4,1.64,1.46Zm2.14-4.58c0-.78.3-1.44,1.58-1.44,1,0,1.62.36,1.62,1.44V17.38c0,.26,0,.48.22.48.78,0,2.74-1.58,3.66-4.42.32-1,.52-1.56,1.47-1.56.36,0,1.78.18,1.78,1.42a10.27,10.27,0,0,1-1.68,4.22,9.44,9.44,0,0,1-6.77,4.22,1.69,1.69,0,0,1-1.88-1.92Z"/><path class="cls-2" d="M72,7.38c-1.5,1.54-6,4.84-7.42,4.84A1.68,1.68,0,0,1,63,10.42a1.38,1.38,0,0,1,.82-1.34A20.8,20.8,0,0,0,70.49,4.5a2.72,2.72,0,0,1,2.1-.86,3.18,3.18,0,0,1,2.52,1.22,19.53,19.53,0,0,0,5.13,3.66c1.54.72,2,.92,2,1.92a1.68,1.68,0,0,1-1.52,1.8c-1.5,0-6-3.36-7.47-4.86-.3-.32-.42-.44-.6-.44S72.31,7.06,72,7.38Zm-1.56,7c0,3.6-.92,5.54-2.44,6.94a4.92,4.92,0,0,1-2.7,1.4A1.69,1.69,0,0,1,63.65,21a1.38,1.38,0,0,1,.56-1.12c1.68-1,2-1.24,2.44-2a8.34,8.34,0,0,0,.68-3.72v-2a1.3,1.3,0,0,1,1.48-1.48c1.5,0,1.62.82,1.62,1.48Zm7.42,7c0,.4,0,1.46-1.5,1.46-1.18,0-1.7-.42-1.7-1.46V12c0-.58.16-1.46,1.5-1.46,1.1,0,1.7.32,1.7,1.46Z"/><path class="cls-2" d="M90.27,9.68c-.42,0-1.24,0-1.24-1.2s.64-1.24,1.24-1.24h4.3c.6,0,1.22.14,1.22,1.2s-.56,1.24-1.22,1.24Zm6.36,8.56c-.3,0-1.18,0-1.18-1s.66-1,1.18-1h8.93c.42,0,1.56,0,1.56,1.28,0,.62-.16,1.34-2.05,2.64.29,0,1.53.12,1.79.16.68.08,1.26.26,1.26,1.14,0,1.34-1,1.34-1.52,1.34a22,22,0,0,1-5.07-1,29.64,29.64,0,0,1-5.28,1,1,1,0,0,1-1.14-.8c-.38.56-.88.64-2,.64H91.75c-1.9,0-2.26-.36-2.26-2.26V18.48c0-1.9.34-2.26,2.28-2.26h1.32c1.9,0,2.26.34,2.26,2.26v2.06a1.49,1.49,0,0,1,.6-.24c.66-.1,1.82-.22,2.22-.26-.76-.54-1-.82-1-1.22a.91.91,0,0,1,.22-.58Zm-2.6-8a1.07,1.07,0,0,1,1,.34l.18-.2a9.82,9.82,0,0,0,1.4-1.84c.58-1,.92-1,1.48-1a1.53,1.53,0,0,1,0-.36h-1.4c-.44,0-1.22-.08-1.22-1.12A1,1,0,0,1,96.63,5H98V4.66c0-.84,1-.88,1.5-.88.16,0,1.26,0,1.26.88V5h2.26V4.66c0-.9.84-.92,1.54-.92.33,0,1.23,0,1.23.92V5H107c.48,0,1.22.1,1.22,1.12A1,1,0,0,1,107,7.24h-1.14c0,.46,0,1.08-1.64,1a1.43,1.43,0,0,1-.15.44h3c.3,0,.86,0,.86.72s-.6.72-.86.72h-3.07v.52h2.91c.42,0,.68.14.68.58s-.42.58-.68.58h-2.91v.52h2.89c.36,0,.7.1.7.6s-.48.6-.78.6h-2.81V14h3.31c.28,0,1,0,1,.84s-.76.82-1,.82H98.57c-2.1,0-2.48-.4-2.48-2.46v-.46a.69.69,0,0,1-.4.1,1.17,1.17,0,0,1-.86-.4,1.47,1.47,0,0,1-.8.18H90.77c-.58,0-1.24-.14-1.24-1.2a1.06,1.06,0,0,1,1.24-1.18ZM90.77,6.64a1.06,1.06,0,0,1-1.24-1.16c0-1.12.76-1.18,1.24-1.18H94a1.07,1.07,0,0,1,1.24,1.16c0,1.12-.8,1.18-1.24,1.18Zm0,9a1.06,1.06,0,0,1-1.24-1.14c0-1.1.74-1.18,1.24-1.18H94a1.07,1.07,0,0,1,1.24,1.16c0,1.16-.9,1.16-1.3,1.16Zm2.54,3.18a.33.33,0,0,0-.36-.36h-.76a.33.33,0,0,0-.38.36v1a.35.35,0,0,0,.38.38H93a.34.34,0,0,0,.36-.38Zm7.94-8.12V10H99.07a.33.33,0,0,0-.36.36v.26Zm0,1.08H98.71v.6h2.54Zm0,1.72H98.71v.28c0,.22.12.34.36.34h2.18Zm0-4.8c.38-.9.58-1.18,1.84-1.1a1.42,1.42,0,0,1,0-.32h-2.26c0,.44,0,1.16-1.8,1a1,1,0,0,1,.06.46Zm-1.8,9.58a10.89,10.89,0,0,0,2.26,1.1c.42-.14,1.82-.62,1.82-1,0-.12-.16-.12-.24-.12Z"/><path class="cls-2" d="M132.7,5.72c1.06,0,1.46.46,1.46,1.44a1.26,1.26,0,0,1-1.46,1.32H129c.92.12,1,.78,1,1.24v.72l1.25-.32a3.16,3.16,0,0,1,.9-.16c1.54,0,1.54,1.44,1.54,1.92a29.68,29.68,0,0,1-.36,4.76c-.26.9-.72,1.22-1.84,1.22-.6,0-1.24,0-1.49-.66,0,.82,0,1.46-1.34,1.46-1.1,0-1.16-.78-1.16-1.22V13.92l-.88.2v4.74c0,.8.22.8,2.46.8.46,0,1.52,0,1.94-.06s.49-.28.59-1a1.12,1.12,0,0,1,1.22-.88,1.16,1.16,0,0,1,1.3,1.34,4.82,4.82,0,0,1-.7,2.78c-.48.46-.84.64-4.31.64-.56,0-3.36,0-3.64-.08C124,22.24,124,21,124,19.94v-5.2a1,1,0,0,1-1-.4c0,1.36-.14,6.12-.58,7.2a2.18,2.18,0,0,1-2.26,1.22c-1,0-2,0-2-1.6-.38,1.12-.78,1.42-1.36,1.42-.76,0-1.68-.48-1.68-1.34a8,8,0,0,1,.68-2.28,17.56,17.56,0,0,0,.8-5.22V9.24h-.34c-.36,0-1.2-.16-1.2-1.44a1.25,1.25,0,0,1,1.46-1.3h1.32V5c0-.9.36-1.26,1.6-1.26s1.38.82,1.38,1.26V6.5h1.06c.58,0,1.22.12,1.42.9a11.11,11.11,0,0,0,1.44-2.72c.24-.56.48-1,1.32-1,.68,0,1.6.38,1.6,1.18a2.16,2.16,0,0,1-.22.88Zm-13.39,8a25.49,25.49,0,0,1-.86,6.42.92.92,0,0,1,.66-.3c.46-.06.66-.06.8-.32a30.39,30.39,0,0,0,.36-5.32c0-.46-.26-.48-.44-.48ZM124,10.8a1.14,1.14,0,0,1-.32.06,1.59,1.59,0,0,1-1.56-1.62h-2.78V11h1.46c.88,0,1.88,0,2.12,1.32a1.53,1.53,0,0,1,.68-.32l.4-.1Zm2.58.48.88-.22V9.72c0-.76.24-1.14,1-1.24H126c-.16.22-.32.48-.64.92.82.06,1.18.36,1.18,1.24Zm3.38,2v2.52a.58.58,0,0,1,.4-.38c.37-.08.41-.08.49-.16a6.28,6.28,0,0,0,.17-1.9c0-.08,0-.26-.19-.26a1.54,1.54,0,0,0-.33.06Z"/><path class="cls-2" d="M148,7.24a1.07,1.07,0,0,1,1.24,1.16c0,.9-.34,1.28-1.24,1.28h-5.66A1.09,1.09,0,0,1,141,8.48a1.1,1.1,0,0,1,1.26-1.24Zm-.6-3a1.06,1.06,0,0,1,1.24,1.16c0,1.1-.76,1.18-1.24,1.18h-4.56a1.07,1.07,0,0,1-1.24-1.16c0-1.12.78-1.18,1.24-1.18Zm-.08,6a1.07,1.07,0,0,1,1.24,1.18c0,1.08-.7,1.18-1.24,1.18h-4.48a1.06,1.06,0,0,1-1.24-1.16c0-1.1.74-1.2,1.24-1.2Zm0,3a1.06,1.06,0,0,1,1.24,1.16c0,1.18-.88,1.18-1.3,1.18h-4.42a1.07,1.07,0,0,1-1.24-1.16,1.07,1.07,0,0,1,1.24-1.18Zm9.89-1.18c.72,0,2.06,0,2.06,1.9a7.62,7.62,0,0,1-2.32,4.76,21.4,21.4,0,0,0,2.18.84,1.18,1.18,0,0,1,1,1.26c0,.54-.28,1.78-1.52,1.78a10.1,10.1,0,0,1-4.15-1.8,12.9,12.9,0,0,1-4.66,1.86,1.45,1.45,0,0,1-1.32-1.18c-.26,1-1.26,1-2.14,1h-2.36c-1.84,0-2.24-.34-2.24-2.26V18.5c0-1.92.36-2.28,2.28-2.28h2.3c1.92,0,2.26.38,2.26,2.28v1.82a1.38,1.38,0,0,1,.86-.56l2.34-.76a1.18,1.18,0,0,0,.28-.12c-.64-.66-1.78-1.94-1.78-2.76s.88-1.2,1.56-1.2a1,1,0,0,1,.94.5,9.67,9.67,0,0,0,1.7,1.8,5.44,5.44,0,0,0,1.42-2s0-.28-.38-.28h-5A1.25,1.25,0,0,1,149,13.58c0-1,.38-1.48,1.46-1.48ZM146,18.8a.33.33,0,0,0-.36-.36h-.82a.33.33,0,0,0-.36.36v1a.33.33,0,0,0,.36.38h.82a.34.34,0,0,0,.36-.38Zm8.72-14.62c2.07,0,2.49.38,2.49,2.48V8.42c0,.22,0,.42.42.42s.38-.24.42-.92c0-.84.06-1.26,1-1.26,1.06,0,1.2.5,1.2,1.08a7.91,7.91,0,0,1-.44,3c-.42.62-1,.74-2.14.74-2.49,0-3.13-.06-3.13-2.48V7.46a.34.34,0,0,0-.38-.38h-.86c-.34,0-.34.08-.42.82-.34,3-1.48,3.84-2.32,3.84a1.56,1.56,0,0,1-1.58-1.42,1.61,1.61,0,0,1,.46-1c.82-1.1.82-1.62.9-3.42s1-1.68,2.54-1.68Z"/><path class="cls-2" d="M182.62,6.12c1.7,0,2.74.56,2.74,2.72V20c0,2.78-1.6,2.78-3.85,2.78a4.87,4.87,0,0,1-2.08-.28,1.78,1.78,0,0,1-.56-1.38,1.28,1.28,0,0,1,1.5-1.44c.22,0,1.25,0,1.44,0a.57.57,0,0,0,.52-.66V9.54a.6.6,0,0,0-.66-.68H171.59a.6.6,0,0,0-.66.68V21.38a1.29,1.29,0,0,1-1.42,1.48c-1.16,0-1.62-.38-1.62-1.48V8.84c0-2.18,1-2.72,2.74-2.72H174c.24-.72.26-.8.5-1.56.1-.36.34-.94,1.48-.94.2,0,1.72,0,1.72,1.12,0,.24,0,.36-.42,1.38ZM180.89,16.6c0,1.9-.88,2.42-2.42,2.42h-3.7c-1.6,0-2.44-.56-2.44-2.42V12.44c0-1.82.78-2.44,2.44-2.44h3.7c1.58,0,2.42.56,2.42,2.44Zm-2.62-3.4a.5.5,0,0,0-.56-.56h-2.2a.51.51,0,0,0-.56.56v2.6a.5.5,0,0,0,.56.56h2.2a.5.5,0,0,0,.56-.56Z"/><path class="cls-2" d="M197.91,5.84c0,.36-.24,2-.28,2.32a57.34,57.34,0,0,0-.36,5.88,41.94,41.94,0,0,0,.34,5.24,9.69,9.69,0,0,1,.1,1.14c0,1.26-1.2,1.32-1.62,1.32-1,0-1.32-.48-1.52-1.34a34.47,34.47,0,0,1-.4-6,51,51,0,0,1,.68-8.88c.28-1,.86-1,1.76-1A1.19,1.19,0,0,1,197.91,5.84Zm10.5,8.54c0,2.62-.06,5.92-4.26,7.34a11.29,11.29,0,0,1-3,.56,1.55,1.55,0,0,1-1.56-1.68c0-.86.4-1.2,1.2-1.32,1.6-.22,2.44-.34,3.36-1.12s1-2,1-4.14c0-.8,0-1.58,0-2.34-1,0-3.34.08-4.2.08-1.22,0-2.24,0-2.24-1.48s.94-1.52,2.14-1.52c2.38,0,2.64,0,4.22-.06C205,8.36,205,6.18,205,6c0-.78.12-1.64,1.6-1.64,1.14,0,1.63.42,1.67,1.5,0,.42,0,2.3.06,2.68.29,0,1.64-.08,1.9-.08A1.34,1.34,0,0,1,211.72,10c0,.2,0,1.18-.84,1.42a14.57,14.57,0,0,1-2.51.18C208.41,13.38,208.41,13.68,208.41,14.38Z"/><path class="cls-2" d="M247.65,15.5c.66,0,1.81,0,1.81,1.16a2.07,2.07,0,0,1-.72,1.5,13.1,13.1,0,0,1-1.81,1.56c.24,0,1.29.2,2.25.26s1.62.14,1.62,1.18c0,.16,0,1.58-1.4,1.58a17.54,17.54,0,0,1-5.67-1.32,19.93,19.93,0,0,1-5.34,1.26,1.32,1.32,0,0,1-1.4-1.4c0-1,.72-1.08,1.14-1.12,2-.24,2.18-.24,2.78-.36a10.74,10.74,0,0,1-1.12-1,2.87,2.87,0,0,1-1.22.42,1.36,1.36,0,0,1-1.26-1.42.87.87,0,0,1,.4-.82,1.3,1.3,0,0,1-.32.06c-.4,0-.58-.28-1.06-1v5.3c0,.4,0,1.44-1.24,1.44-.86,0-1.38-.3-1.38-1.44v-5a1.11,1.11,0,0,1-.64.18,1.7,1.7,0,0,1-1.58-1.7c0-.68.18-.84,1.7-2.2a10.79,10.79,0,0,0,2.08-2.74,2.05,2.05,0,0,0,.14-.34c0-.22-.2-.22-.32-.22h-1.92c-.54,0-1.46-.1-1.46-1.3,0-.9.26-1.52,1.44-1.52h.56V5.16c0-.48.06-1.44,1.2-1.44.82,0,1.42.22,1.42,1.44V6.5c.88,0,1.18.08,1.52.42a11.2,11.2,0,0,0,1.32-1.66c.72-1.1,1-1.52,1.7-1.52.4,0,1.64.24,1.66,1.2h6.95a1.09,1.09,0,0,1,1.24,1.2,1.09,1.09,0,0,1-1.24,1.24h-8.23c-.2.28-.32.42-.48.62a4.9,4.9,0,0,1,.84-.06h5.7c1.55,0,2.39.54,2.39,2.36v2.28c0,1.84-.84,2.38-2.39,2.38h-3.2c-.16.24-.28.38-.4.54Zm-8.42-5.2a4.9,4.9,0,0,1,.06-.84.85.85,0,0,1-.46.12,1.43,1.43,0,0,1-.74-.2,10.44,10.44,0,0,1-1.56,3.48,13.26,13.26,0,0,0,1.18,1.46c.8.86.9,1,.9,1.44a1.27,1.27,0,0,1-.44,1,11.53,11.53,0,0,0,2.8-1.8,1.8,1.8,0,0,1-1.72-1.82c-.5.76-.76.8-1,.8a1,1,0,0,1-1-1c0-.24,0-.26.52-1.08s.58-.94,1-.94a1.2,1.2,0,0,1,.5.12Zm2.56,7.14a8,8,0,0,0,2,1.36c1.18-.56,1.8-1.08,1.8-1.24s-.1-.12-.18-.12Zm.28-6.86h4.78v-.52a.35.35,0,0,0-.38-.38h-4a.33.33,0,0,0-.36.38Zm0,1.68v.54a.33.33,0,0,0,.36.36h4a.35.35,0,0,0,.38-.38v-.52Z"/><path class="cls-2" d="M258.91,16.66a1.05,1.05,0,0,1-1.16-1.18c0-.88.46-1.22,1.26-1.22h1.62c.4-1.1.46-1.28,1.1-1.4a2,2,0,0,1,0-.5V11.22a14.81,14.81,0,0,1-1.6,1.6,1.67,1.67,0,0,1-1.08.5,1.43,1.43,0,0,1-1.34-1.54c0-.54.34-.74,1.26-1.3a9.18,9.18,0,0,0,1.64-1.28H259c-.4,0-1.22,0-1.22-1.14s.6-1.12,1.22-1.12h2.68V5c0-.38,0-1.26,1.32-1.26,1.14,0,1.48.4,1.48,1.26v1.9h2.4c.4,0,1.22,0,1.22,1.1s-.74,1.16-1.22,1.16h-1.54a13.74,13.74,0,0,0,1.26,1.16c.48.38.5.42.58.6a15.77,15.77,0,0,0,2.3-6,1.26,1.26,0,0,1,1.44-1.14c.38,0,1.56.06,1.56,1.14a6.08,6.08,0,0,1-.34,1.58h3.29A1.28,1.28,0,0,1,276.86,8c0,1.5-.94,1.54-1.33,1.56a18.66,18.66,0,0,1-1.78,7.8,12.77,12.77,0,0,0,2.35,2.28,1.65,1.65,0,0,1,.72,1.3,1.77,1.77,0,0,1-1.62,1.76c-.44,0-.87-.14-1.89-1.12A12.48,12.48,0,0,1,272,20.06a12.5,12.5,0,0,1-2.34,2c-.82.56-1.06.6-1.4.6a1.55,1.55,0,0,1-1.42-.94,1,1,0,0,1-.7.26c-.3,0-.48-.06-1-.42-.3-.2-.86-.5-1.12-.64a9.76,9.76,0,0,1-4.68,1.76A1.34,1.34,0,0,1,258,21.3c0-.88.68-1,1.14-1.1a14.57,14.57,0,0,0,2-.54c-.24-.08-1.28-.44-1.48-.54a1,1,0,0,1-.68-.94c0-.42.16-.66.56-1.34a.71.71,0,0,0,.08-.18Zm.84-9.76c-.58,0-.7-.2-1-.78-.38-.86-.42-1-.42-1.2,0-.52.58-.92,1.32-.92a1,1,0,0,1,1,.62,3,3,0,0,1,.5,1.34C261.19,6.42,260.77,6.9,259.75,6.9Zm2.62,9.76a6,6,0,0,0-.38.92.21.21,0,0,0,.14.22c.12.06,1.08.3,1.44.42a4.23,4.23,0,0,0,.82-1.56Zm4.64-2.4c.7,0,1.3.28,1.3,1.22,0,1.18-1,1.18-1.38,1.2a5.24,5.24,0,0,1-1,2.4c1,.42,1.12.46,1.3.84l1-.66a7.93,7.93,0,0,0,2.06-1.8,14.25,14.25,0,0,1-1.28-3.86,1.47,1.47,0,0,1-1.1.56,1.67,1.67,0,0,1-1.6-1.42c-.54.12-1-.22-1.86-1.38v1c0,.52-.1,1.06-.88,1.22a1.59,1.59,0,0,1-.12.68Zm.92-9.36a3.41,3.41,0,0,1-.6,1.4,1.16,1.16,0,0,1-1.06.62c-.66,0-1.3-.38-1.3-.94,0-.28,0-.34.56-1.32a1,1,0,0,1,1-.68C267.25,4,267.93,4.34,267.93,4.9Zm3.22,4.68a.38.38,0,0,1-.06.16,15.7,15.7,0,0,0,.92,4.58,16.51,16.51,0,0,0,.7-4.74Z"/><path class="cls-2" d="M289.07,5.06c.52-1.08.72-1.44,1.64-1.44s1.9.48,1.9,1.3c0,.66-.66,1.68-2.26,4.18,2.26-.06,4.54-.12,6.8-.3-.08-.08-.14-.16-.28-.32-1.06-1.1-1.24-1.3-1.24-1.82a1.73,1.73,0,0,1,1.76-1.52,1.5,1.5,0,0,1,1.1.5c.88.88,1.71,1.86,2.17,2.42,2.08,2.6,2.08,2.9,2.08,3.28a1.85,1.85,0,0,1-1.9,1.68c-.7,0-.83-.16-1.65-1.44-1.88.18-3.86.28-5.78.38-3,.14-7.7.28-8,.28-.6,0-1.66,0-1.66-1.62,0-.76.32-1.3.86-1.42a13.42,13.42,0,0,1,2.28-.06C287.59,7.9,288,7.18,289.07,5.06Zm12.07,14.66c0,2.12-1,2.66-2.67,2.66H288.15c-1.68,0-2.66-.56-2.66-2.66V15.86c0-2.12,1-2.66,2.66-2.66h10.32c1.62,0,2.67.5,2.67,2.66Zm-3.07-3.08a.55.55,0,0,0-.6-.62h-8.18a.56.56,0,0,0-.62.62v2.2a.55.55,0,0,0,.62.6h8.18a.54.54,0,0,0,.6-.6Z"/><path class="cls-2" d="M319.23,11.18h7.3a1.37,1.37,0,0,1,1.55,1.48,1.37,1.37,0,0,1-1.55,1.52h-7.3v3.64c0,.38,0,.66.46.76a25.71,25.71,0,0,0,2.58.08c.86,0,1.92,0,2.74-.06.2,0,.62,0,.8,0a1.26,1.26,0,0,1,1.47,1.4,1.44,1.44,0,0,1-1,1.52,23.43,23.43,0,0,1-3.58.12c-4.64,0-5-.18-5.44-.38a3.05,3.05,0,0,1-1.38-2.92V14.18H312a1.36,1.36,0,0,1-1.54-1.5,1.36,1.36,0,0,1,1.54-1.5h3.88v-3h-3.1a1.36,1.36,0,0,1-1.54-1.48,1.35,1.35,0,0,1,1.54-1.5h12.9a1.35,1.35,0,0,1,1.53,1.48,1.34,1.34,0,0,1-1.53,1.5h-6.44Z"/><path class="cls-2" d="M337.61,13.38a1.35,1.35,0,0,1-1.52-1.48,1.34,1.34,0,0,1,1.52-1.48h14.63a1.35,1.35,0,0,1,1.52,1.46,1.35,1.35,0,0,1-1.52,1.5H347c-.1,1.56-.3,5.18-3.7,7.3A10.55,10.55,0,0,1,339,22.2c-1.08,0-1.5-1.14-1.5-1.72a1.35,1.35,0,0,1,1.18-1.3c2.62-.74,4.86-1.36,5.06-5.8Zm11.48-8.12a1.32,1.32,0,0,1,1.5,1.46,1.32,1.32,0,0,1-1.5,1.48h-9.92a1.32,1.32,0,0,1-1.48-1.46,1.32,1.32,0,0,1,1.48-1.48Zm1.34-.62a1.62,1.62,0,0,1-.06-.38c0-.58.68-.64.79-.64.43,0,.62.34.81.88a5.77,5.77,0,0,1,.49,1.8.7.7,0,0,1-.76.7.63.63,0,0,1-.63-.42c0-.08-.26-.9-.32-1.06S350.47,4.76,350.43,4.64Zm2.31-.16a1.22,1.22,0,0,1-.06-.34c0-.58.66-.64.8-.64.38,0,.56.24.78.82a7.06,7.06,0,0,1,.5,1.84.71.71,0,0,1-.76.7c-.48,0-.54-.14-.94-1.48C353,5.24,352.78,4.62,352.74,4.48Z"/><path class="cls-2" d="M367.67,10.64c0,4.32-.2,7.22-2.3,9.92-1,1.32-1.52,1.32-1.86,1.32a1.87,1.87,0,0,1-1.88-1.72,1.78,1.78,0,0,1,.6-1.24c1.9-2.18,2.22-3.14,2.22-8.42V6.3c0-.7.22-1.46,1.58-1.46,1.06,0,1.64.4,1.64,1.46Zm2.14-4.58c0-.78.3-1.44,1.58-1.44,1,0,1.62.36,1.62,1.44V17.38c0,.26,0,.48.22.48.78,0,2.74-1.58,3.66-4.42.32-1,.52-1.56,1.47-1.56.36,0,1.78.18,1.78,1.42a10.27,10.27,0,0,1-1.68,4.22,9.44,9.44,0,0,1-6.77,4.22,1.69,1.69,0,0,1-1.88-1.92Z"/><path class="cls-3" d="M72,7.38c-1.5,1.54-6,4.84-7.42,4.84A1.68,1.68,0,0,1,63,10.42a1.38,1.38,0,0,1,.82-1.34A20.8,20.8,0,0,0,70.49,4.5a2.72,2.72,0,0,1,2.1-.86,3.18,3.18,0,0,1,2.52,1.22,19.53,19.53,0,0,0,5.13,3.66c1.54.72,2,.92,2,1.92a1.68,1.68,0,0,1-1.52,1.8c-1.5,0-6-3.36-7.47-4.86-.3-.32-.42-.44-.6-.44S72.31,7.06,72,7.38Zm-1.56,7c0,3.6-.92,5.54-2.44,6.94a4.92,4.92,0,0,1-2.7,1.4A1.69,1.69,0,0,1,63.65,21a1.38,1.38,0,0,1,.56-1.12c1.68-1,2-1.24,2.44-2a8.34,8.34,0,0,0,.68-3.72v-2a1.3,1.3,0,0,1,1.48-1.48c1.5,0,1.62.82,1.62,1.48Zm7.42,7c0,.4,0,1.46-1.5,1.46-1.18,0-1.7-.42-1.7-1.46V12c0-.58.16-1.46,1.5-1.46,1.1,0,1.7.32,1.7,1.46Z"/><path class="cls-3" d="M90.27,9.68c-.42,0-1.24,0-1.24-1.2s.64-1.24,1.24-1.24h4.3c.6,0,1.22.14,1.22,1.2s-.56,1.24-1.22,1.24Zm6.36,8.56c-.3,0-1.18,0-1.18-1s.66-1,1.18-1h8.93c.42,0,1.56,0,1.56,1.28,0,.62-.16,1.34-2.05,2.64.29,0,1.53.12,1.79.16.68.08,1.26.26,1.26,1.14,0,1.34-1,1.34-1.52,1.34a22,22,0,0,1-5.07-1,29.64,29.64,0,0,1-5.28,1,1,1,0,0,1-1.14-.8c-.38.56-.88.64-2,.64H91.75c-1.9,0-2.26-.36-2.26-2.26V18.48c0-1.9.34-2.26,2.28-2.26h1.32c1.9,0,2.26.34,2.26,2.26v2.06a1.49,1.49,0,0,1,.6-.24c.66-.1,1.82-.22,2.22-.26-.76-.54-1-.82-1-1.22a.91.91,0,0,1,.22-.58Zm-2.6-8a1.07,1.07,0,0,1,1,.34l.18-.2a9.82,9.82,0,0,0,1.4-1.84c.58-1,.92-1,1.48-1a1.53,1.53,0,0,1,0-.36h-1.4c-.44,0-1.22-.08-1.22-1.12A1,1,0,0,1,96.63,5H98V4.66c0-.84,1-.88,1.5-.88.16,0,1.26,0,1.26.88V5h2.26V4.66c0-.9.84-.92,1.54-.92.33,0,1.23,0,1.23.92V5H107c.48,0,1.22.1,1.22,1.12A1,1,0,0,1,107,7.24h-1.14c0,.46,0,1.08-1.64,1a1.43,1.43,0,0,1-.15.44h3c.3,0,.86,0,.86.72s-.6.72-.86.72h-3.07v.52h2.91c.42,0,.68.14.68.58s-.42.58-.68.58h-2.91v.52h2.89c.36,0,.7.1.7.6s-.48.6-.78.6h-2.81V14h3.31c.28,0,1,0,1,.84s-.76.82-1,.82H98.57c-2.1,0-2.48-.4-2.48-2.46v-.46a.69.69,0,0,1-.4.1,1.17,1.17,0,0,1-.86-.4,1.47,1.47,0,0,1-.8.18H90.77c-.58,0-1.24-.14-1.24-1.2a1.06,1.06,0,0,1,1.24-1.18ZM90.77,6.64a1.06,1.06,0,0,1-1.24-1.16c0-1.12.76-1.18,1.24-1.18H94a1.07,1.07,0,0,1,1.24,1.16c0,1.12-.8,1.18-1.24,1.18Zm0,9a1.06,1.06,0,0,1-1.24-1.14c0-1.1.74-1.18,1.24-1.18H94a1.07,1.07,0,0,1,1.24,1.16c0,1.16-.9,1.16-1.3,1.16Zm2.54,3.18a.33.33,0,0,0-.36-.36h-.76a.33.33,0,0,0-.38.36v1a.35.35,0,0,0,.38.38H93a.34.34,0,0,0,.36-.38Zm7.94-8.12V10H99.07a.33.33,0,0,0-.36.36v.26Zm0,1.08H98.71v.6h2.54Zm0,1.72H98.71v.28c0,.22.12.34.36.34h2.18Zm0-4.8c.38-.9.58-1.18,1.84-1.1a1.42,1.42,0,0,1,0-.32h-2.26c0,.44,0,1.16-1.8,1a1,1,0,0,1,.06.46Zm-1.8,9.58a10.89,10.89,0,0,0,2.26,1.1c.42-.14,1.82-.62,1.82-1,0-.12-.16-.12-.24-.12Z"/><path class="cls-3" d="M132.7,5.72c1.06,0,1.46.46,1.46,1.44a1.26,1.26,0,0,1-1.46,1.32H129c.92.12,1,.78,1,1.24v.72l1.25-.32a3.16,3.16,0,0,1,.9-.16c1.54,0,1.54,1.44,1.54,1.92a29.68,29.68,0,0,1-.36,4.76c-.26.9-.72,1.22-1.84,1.22-.6,0-1.24,0-1.49-.66,0,.82,0,1.46-1.34,1.46-1.1,0-1.16-.78-1.16-1.22V13.92l-.88.2v4.74c0,.8.22.8,2.46.8.46,0,1.52,0,1.94-.06s.49-.28.59-1a1.12,1.12,0,0,1,1.22-.88,1.16,1.16,0,0,1,1.3,1.34,4.82,4.82,0,0,1-.7,2.78c-.48.46-.84.64-4.31.64-.56,0-3.36,0-3.64-.08C124,22.24,124,21,124,19.94v-5.2a1,1,0,0,1-1-.4c0,1.36-.14,6.12-.58,7.2a2.18,2.18,0,0,1-2.26,1.22c-1,0-2,0-2-1.6-.38,1.12-.78,1.42-1.36,1.42-.76,0-1.68-.48-1.68-1.34a8,8,0,0,1,.68-2.28,17.56,17.56,0,0,0,.8-5.22V9.24h-.34c-.36,0-1.2-.16-1.2-1.44a1.25,1.25,0,0,1,1.46-1.3h1.32V5c0-.9.36-1.26,1.6-1.26s1.38.82,1.38,1.26V6.5h1.06c.58,0,1.22.12,1.42.9a11.11,11.11,0,0,0,1.44-2.72c.24-.56.48-1,1.32-1,.68,0,1.6.38,1.6,1.18a2.16,2.16,0,0,1-.22.88Zm-13.39,8a25.49,25.49,0,0,1-.86,6.42.92.92,0,0,1,.66-.3c.46-.06.66-.06.8-.32a30.39,30.39,0,0,0,.36-5.32c0-.46-.26-.48-.44-.48ZM124,10.8a1.14,1.14,0,0,1-.32.06,1.59,1.59,0,0,1-1.56-1.62h-2.78V11h1.46c.88,0,1.88,0,2.12,1.32a1.53,1.53,0,0,1,.68-.32l.4-.1Zm2.58.48.88-.22V9.72c0-.76.24-1.14,1-1.24H126c-.16.22-.32.48-.64.92.82.06,1.18.36,1.18,1.24Zm3.38,2v2.52a.58.58,0,0,1,.4-.38c.37-.08.41-.08.49-.16a6.28,6.28,0,0,0,.17-1.9c0-.08,0-.26-.19-.26a1.54,1.54,0,0,0-.33.06Z"/><path class="cls-3" d="M148,7.24a1.07,1.07,0,0,1,1.24,1.16c0,.9-.34,1.28-1.24,1.28h-5.66A1.09,1.09,0,0,1,141,8.48a1.1,1.1,0,0,1,1.26-1.24Zm-.6-3a1.06,1.06,0,0,1,1.24,1.16c0,1.1-.76,1.18-1.24,1.18h-4.56a1.07,1.07,0,0,1-1.24-1.16c0-1.12.78-1.18,1.24-1.18Zm-.08,6a1.07,1.07,0,0,1,1.24,1.18c0,1.08-.7,1.18-1.24,1.18h-4.48a1.06,1.06,0,0,1-1.24-1.16c0-1.1.74-1.2,1.24-1.2Zm0,3a1.06,1.06,0,0,1,1.24,1.16c0,1.18-.88,1.18-1.3,1.18h-4.42a1.07,1.07,0,0,1-1.24-1.16,1.07,1.07,0,0,1,1.24-1.18Zm9.89-1.18c.72,0,2.06,0,2.06,1.9a7.62,7.62,0,0,1-2.32,4.76,21.4,21.4,0,0,0,2.18.84,1.18,1.18,0,0,1,1,1.26c0,.54-.28,1.78-1.52,1.78a10.1,10.1,0,0,1-4.15-1.8,12.9,12.9,0,0,1-4.66,1.86,1.45,1.45,0,0,1-1.32-1.18c-.26,1-1.26,1-2.14,1h-2.36c-1.84,0-2.24-.34-2.24-2.26V18.5c0-1.92.36-2.28,2.28-2.28h2.3c1.92,0,2.26.38,2.26,2.28v1.82a1.38,1.38,0,0,1,.86-.56l2.34-.76a1.18,1.18,0,0,0,.28-.12c-.64-.66-1.78-1.94-1.78-2.76s.88-1.2,1.56-1.2a1,1,0,0,1,.94.5,9.67,9.67,0,0,0,1.7,1.8,5.44,5.44,0,0,0,1.42-2s0-.28-.38-.28h-5A1.25,1.25,0,0,1,149,13.58c0-1,.38-1.48,1.46-1.48ZM146,18.8a.33.33,0,0,0-.36-.36h-.82a.33.33,0,0,0-.36.36v1a.33.33,0,0,0,.36.38h.82a.34.34,0,0,0,.36-.38Zm8.72-14.62c2.07,0,2.49.38,2.49,2.48V8.42c0,.22,0,.42.42.42s.38-.24.42-.92c0-.84.06-1.26,1-1.26,1.06,0,1.2.5,1.2,1.08a7.91,7.91,0,0,1-.44,3c-.42.62-1,.74-2.14.74-2.49,0-3.13-.06-3.13-2.48V7.46a.34.34,0,0,0-.38-.38h-.86c-.34,0-.34.08-.42.82-.34,3-1.48,3.84-2.32,3.84a1.56,1.56,0,0,1-1.58-1.42,1.61,1.61,0,0,1,.46-1c.82-1.1.82-1.62.9-3.42s1-1.68,2.54-1.68Z"/><path class="cls-3" d="M182.62,6.12c1.7,0,2.74.56,2.74,2.72V20c0,2.78-1.6,2.78-3.85,2.78a4.87,4.87,0,0,1-2.08-.28,1.78,1.78,0,0,1-.56-1.38,1.28,1.28,0,0,1,1.5-1.44c.22,0,1.25,0,1.44,0a.57.57,0,0,0,.52-.66V9.54a.6.6,0,0,0-.66-.68H171.59a.6.6,0,0,0-.66.68V21.38a1.29,1.29,0,0,1-1.42,1.48c-1.16,0-1.62-.38-1.62-1.48V8.84c0-2.18,1-2.72,2.74-2.72H174c.24-.72.26-.8.5-1.56.1-.36.34-.94,1.48-.94.2,0,1.72,0,1.72,1.12,0,.24,0,.36-.42,1.38ZM180.89,16.6c0,1.9-.88,2.42-2.42,2.42h-3.7c-1.6,0-2.44-.56-2.44-2.42V12.44c0-1.82.78-2.44,2.44-2.44h3.7c1.58,0,2.42.56,2.42,2.44Zm-2.62-3.4a.5.5,0,0,0-.56-.56h-2.2a.51.51,0,0,0-.56.56v2.6a.5.5,0,0,0,.56.56h2.2a.5.5,0,0,0,.56-.56Z"/><path class="cls-3" d="M197.91,5.84c0,.36-.24,2-.28,2.32a57.34,57.34,0,0,0-.36,5.88,41.94,41.94,0,0,0,.34,5.24,9.69,9.69,0,0,1,.1,1.14c0,1.26-1.2,1.32-1.62,1.32-1,0-1.32-.48-1.52-1.34a34.47,34.47,0,0,1-.4-6,51,51,0,0,1,.68-8.88c.28-1,.86-1,1.76-1A1.19,1.19,0,0,1,197.91,5.84Zm10.5,8.54c0,2.62-.06,5.92-4.26,7.34a11.29,11.29,0,0,1-3,.56,1.55,1.55,0,0,1-1.56-1.68c0-.86.4-1.2,1.2-1.32,1.6-.22,2.44-.34,3.36-1.12s1-2,1-4.14c0-.8,0-1.58,0-2.34-1,0-3.34.08-4.2.08-1.22,0-2.24,0-2.24-1.48s.94-1.52,2.14-1.52c2.38,0,2.64,0,4.22-.06C205,8.36,205,6.18,205,6c0-.78.12-1.64,1.6-1.64,1.14,0,1.63.42,1.67,1.5,0,.42,0,2.3.06,2.68.29,0,1.64-.08,1.9-.08A1.34,1.34,0,0,1,211.72,10c0,.2,0,1.18-.84,1.42a14.57,14.57,0,0,1-2.51.18C208.41,13.38,208.41,13.68,208.41,14.38Z"/><path class="cls-3" d="M247.65,15.5c.66,0,1.81,0,1.81,1.16a2.07,2.07,0,0,1-.72,1.5,13.1,13.1,0,0,1-1.81,1.56c.24,0,1.29.2,2.25.26s1.62.14,1.62,1.18c0,.16,0,1.58-1.4,1.58a17.54,17.54,0,0,1-5.67-1.32,19.93,19.93,0,0,1-5.34,1.26,1.32,1.32,0,0,1-1.4-1.4c0-1,.72-1.08,1.14-1.12,2-.24,2.18-.24,2.78-.36a10.74,10.74,0,0,1-1.12-1,2.87,2.87,0,0,1-1.22.42,1.36,1.36,0,0,1-1.26-1.42.87.87,0,0,1,.4-.82,1.3,1.3,0,0,1-.32.06c-.4,0-.58-.28-1.06-1v5.3c0,.4,0,1.44-1.24,1.44-.86,0-1.38-.3-1.38-1.44v-5a1.11,1.11,0,0,1-.64.18,1.7,1.7,0,0,1-1.58-1.7c0-.68.18-.84,1.7-2.2a10.79,10.79,0,0,0,2.08-2.74,2.05,2.05,0,0,0,.14-.34c0-.22-.2-.22-.32-.22h-1.92c-.54,0-1.46-.1-1.46-1.3,0-.9.26-1.52,1.44-1.52h.56V5.16c0-.48.06-1.44,1.2-1.44.82,0,1.42.22,1.42,1.44V6.5c.88,0,1.18.08,1.52.42a11.2,11.2,0,0,0,1.32-1.66c.72-1.1,1-1.52,1.7-1.52.4,0,1.64.24,1.66,1.2h6.95a1.09,1.09,0,0,1,1.24,1.2,1.09,1.09,0,0,1-1.24,1.24h-8.23c-.2.28-.32.42-.48.62a4.9,4.9,0,0,1,.84-.06h5.7c1.55,0,2.39.54,2.39,2.36v2.28c0,1.84-.84,2.38-2.39,2.38h-3.2c-.16.24-.28.38-.4.54Zm-8.42-5.2a4.9,4.9,0,0,1,.06-.84.85.85,0,0,1-.46.12,1.43,1.43,0,0,1-.74-.2,10.44,10.44,0,0,1-1.56,3.48,13.26,13.26,0,0,0,1.18,1.46c.8.86.9,1,.9,1.44a1.27,1.27,0,0,1-.44,1,11.53,11.53,0,0,0,2.8-1.8,1.8,1.8,0,0,1-1.72-1.82c-.5.76-.76.8-1,.8a1,1,0,0,1-1-1c0-.24,0-.26.52-1.08s.58-.94,1-.94a1.2,1.2,0,0,1,.5.12Zm2.56,7.14a8,8,0,0,0,2,1.36c1.18-.56,1.8-1.08,1.8-1.24s-.1-.12-.18-.12Zm.28-6.86h4.78v-.52a.35.35,0,0,0-.38-.38h-4a.33.33,0,0,0-.36.38Zm0,1.68v.54a.33.33,0,0,0,.36.36h4a.35.35,0,0,0,.38-.38v-.52Z"/><path class="cls-3" d="M258.91,16.66a1.05,1.05,0,0,1-1.16-1.18c0-.88.46-1.22,1.26-1.22h1.62c.4-1.1.46-1.28,1.1-1.4a2,2,0,0,1,0-.5V11.22a14.81,14.81,0,0,1-1.6,1.6,1.67,1.67,0,0,1-1.08.5,1.43,1.43,0,0,1-1.34-1.54c0-.54.34-.74,1.26-1.3a9.18,9.18,0,0,0,1.64-1.28H259c-.4,0-1.22,0-1.22-1.14s.6-1.12,1.22-1.12h2.68V5c0-.38,0-1.26,1.32-1.26,1.14,0,1.48.4,1.48,1.26v1.9h2.4c.4,0,1.22,0,1.22,1.1s-.74,1.16-1.22,1.16h-1.54a13.74,13.74,0,0,0,1.26,1.16c.48.38.5.42.58.6a15.77,15.77,0,0,0,2.3-6,1.26,1.26,0,0,1,1.44-1.14c.38,0,1.56.06,1.56,1.14a6.08,6.08,0,0,1-.34,1.58h3.29A1.28,1.28,0,0,1,276.86,8c0,1.5-.94,1.54-1.33,1.56a18.66,18.66,0,0,1-1.78,7.8,12.77,12.77,0,0,0,2.35,2.28,1.65,1.65,0,0,1,.72,1.3,1.77,1.77,0,0,1-1.62,1.76c-.44,0-.87-.14-1.89-1.12A12.48,12.48,0,0,1,272,20.06a12.5,12.5,0,0,1-2.34,2c-.82.56-1.06.6-1.4.6a1.55,1.55,0,0,1-1.42-.94,1,1,0,0,1-.7.26c-.3,0-.48-.06-1-.42-.3-.2-.86-.5-1.12-.64a9.76,9.76,0,0,1-4.68,1.76A1.34,1.34,0,0,1,258,21.3c0-.88.68-1,1.14-1.1a14.57,14.57,0,0,0,2-.54c-.24-.08-1.28-.44-1.48-.54a1,1,0,0,1-.68-.94c0-.42.16-.66.56-1.34a.71.71,0,0,0,.08-.18Zm.84-9.76c-.58,0-.7-.2-1-.78-.38-.86-.42-1-.42-1.2,0-.52.58-.92,1.32-.92a1,1,0,0,1,1,.62,3,3,0,0,1,.5,1.34C261.19,6.42,260.77,6.9,259.75,6.9Zm2.62,9.76a6,6,0,0,0-.38.92.21.21,0,0,0,.14.22c.12.06,1.08.3,1.44.42a4.23,4.23,0,0,0,.82-1.56Zm4.64-2.4c.7,0,1.3.28,1.3,1.22,0,1.18-1,1.18-1.38,1.2a5.24,5.24,0,0,1-1,2.4c1,.42,1.12.46,1.3.84l1-.66a7.93,7.93,0,0,0,2.06-1.8,14.25,14.25,0,0,1-1.28-3.86,1.47,1.47,0,0,1-1.1.56,1.67,1.67,0,0,1-1.6-1.42c-.54.12-1-.22-1.86-1.38v1c0,.52-.1,1.06-.88,1.22a1.59,1.59,0,0,1-.12.68Zm.92-9.36a3.41,3.41,0,0,1-.6,1.4,1.16,1.16,0,0,1-1.06.62c-.66,0-1.3-.38-1.3-.94,0-.28,0-.34.56-1.32a1,1,0,0,1,1-.68C267.25,4,267.93,4.34,267.93,4.9Zm3.22,4.68a.38.38,0,0,1-.06.16,15.7,15.7,0,0,0,.92,4.58,16.51,16.51,0,0,0,.7-4.74Z"/><path class="cls-3" d="M289.07,5.06c.52-1.08.72-1.44,1.64-1.44s1.9.48,1.9,1.3c0,.66-.66,1.68-2.26,4.18,2.26-.06,4.54-.12,6.8-.3-.08-.08-.14-.16-.28-.32-1.06-1.1-1.24-1.3-1.24-1.82a1.73,1.73,0,0,1,1.76-1.52,1.5,1.5,0,0,1,1.1.5c.88.88,1.71,1.86,2.17,2.42,2.08,2.6,2.08,2.9,2.08,3.28a1.85,1.85,0,0,1-1.9,1.68c-.7,0-.83-.16-1.65-1.44-1.88.18-3.86.28-5.78.38-3,.14-7.7.28-8,.28-.6,0-1.66,0-1.66-1.62,0-.76.32-1.3.86-1.42a13.42,13.42,0,0,1,2.28-.06C287.59,7.9,288,7.18,289.07,5.06Zm12.07,14.66c0,2.12-1,2.66-2.67,2.66H288.15c-1.68,0-2.66-.56-2.66-2.66V15.86c0-2.12,1-2.66,2.66-2.66h10.32c1.62,0,2.67.5,2.67,2.66Zm-3.07-3.08a.55.55,0,0,0-.6-.62h-8.18a.56.56,0,0,0-.62.62v2.2a.55.55,0,0,0,.62.6h8.18a.54.54,0,0,0,.6-.6Z"/><path class="cls-3" d="M319.23,11.18h7.3a1.37,1.37,0,0,1,1.55,1.48,1.37,1.37,0,0,1-1.55,1.52h-7.3v3.64c0,.38,0,.66.46.76a25.71,25.71,0,0,0,2.58.08c.86,0,1.92,0,2.74-.06.2,0,.62,0,.8,0a1.26,1.26,0,0,1,1.47,1.4,1.44,1.44,0,0,1-1,1.52,23.43,23.43,0,0,1-3.58.12c-4.64,0-5-.18-5.44-.38a3.05,3.05,0,0,1-1.38-2.92V14.18H312a1.36,1.36,0,0,1-1.54-1.5,1.36,1.36,0,0,1,1.54-1.5h3.88v-3h-3.1a1.36,1.36,0,0,1-1.54-1.48,1.35,1.35,0,0,1,1.54-1.5h12.9a1.35,1.35,0,0,1,1.53,1.48,1.34,1.34,0,0,1-1.53,1.5h-6.44Z"/><path class="cls-3" d="M337.61,13.38a1.35,1.35,0,0,1-1.52-1.48,1.34,1.34,0,0,1,1.52-1.48h14.63a1.35,1.35,0,0,1,1.52,1.46,1.35,1.35,0,0,1-1.52,1.5H347c-.1,1.56-.3,5.18-3.7,7.3A10.55,10.55,0,0,1,339,22.2c-1.08,0-1.5-1.14-1.5-1.72a1.35,1.35,0,0,1,1.18-1.3c2.62-.74,4.86-1.36,5.06-5.8Zm11.48-8.12a1.32,1.32,0,0,1,1.5,1.46,1.32,1.32,0,0,1-1.5,1.48h-9.92a1.32,1.32,0,0,1-1.48-1.46,1.32,1.32,0,0,1,1.48-1.48Zm1.34-.62a1.62,1.62,0,0,1-.06-.38c0-.58.68-.64.79-.64.43,0,.62.34.81.88a5.77,5.77,0,0,1,.49,1.8.7.7,0,0,1-.76.7.63.63,0,0,1-.63-.42c0-.08-.26-.9-.32-1.06S350.47,4.76,350.43,4.64Zm2.31-.16a1.22,1.22,0,0,1-.06-.34c0-.58.66-.64.8-.64.38,0,.56.24.78.82a7.06,7.06,0,0,1,.5,1.84.71.71,0,0,1-.76.7c-.48,0-.54-.14-.94-1.48C353,5.24,352.78,4.62,352.74,4.48Z"/><path class="cls-3" d="M367.67,10.64c0,4.32-.2,7.22-2.3,9.92-1,1.32-1.52,1.32-1.86,1.32a1.87,1.87,0,0,1-1.88-1.72,1.78,1.78,0,0,1,.6-1.24c1.9-2.18,2.22-3.14,2.22-8.42V6.3c0-.7.22-1.46,1.58-1.46,1.06,0,1.64.4,1.64,1.46Zm2.14-4.58c0-.78.3-1.44,1.58-1.44,1,0,1.62.36,1.62,1.44V17.38c0,.26,0,.48.22.48.78,0,2.74-1.58,3.66-4.42.32-1,.52-1.56,1.47-1.56.36,0,1.78.18,1.78,1.42a10.27,10.27,0,0,1-1.68,4.22,9.44,9.44,0,0,1-6.77,4.22,1.69,1.69,0,0,1-1.88-1.92Z"/><path class="cls-4" d="M206.3,114.14V92.46h8.91a25,25,0,0,1,4.69.35,8.15,8.15,0,0,1,2.89,1.11A6.5,6.5,0,0,1,225,96.44a8,8,0,0,1,.73,3.56,7.1,7.1,0,0,1-2.15,5.57,8.93,8.93,0,0,1-6.19,1.93h-4.17v6.64Zm6.95-11.94h2.24a5.92,5.92,0,0,0,2.91-.48,1.9,1.9,0,0,0,.74-1.72,2,2,0,0,0-.71-1.74,5.9,5.9,0,0,0-2.94-.48h-2.24Z"/><rect class="cls-4" x="225.94" y="92.46" width="6.41" height="21.67"/><path class="cls-4" d="M251.91,98.14v16H246.1v-2.35a7.6,7.6,0,0,1-2.49,2.1,7,7,0,0,1-3.12.68,6.69,6.69,0,0,1-2.6-.48,5.06,5.06,0,0,1-1.94-1.45,4.93,4.93,0,0,1-1-2.08,19.57,19.57,0,0,1-.3-4.12V98.14H241v8.26a4.75,4.75,0,0,0,.48,2.52,1.91,1.91,0,0,0,1.68.7,2.08,2.08,0,0,0,1.79-.81,4.11,4.11,0,0,0,.59-2.44V98.14Z"/><path class="cls-4" d="M252.15,109.1h6.17a2,2,0,0,0,.53,1.52,2.21,2.21,0,0,0,1.57.5,2.84,2.84,0,0,0,1.53-.34,1.08,1.08,0,0,0,.54-1c0-.71-.79-1.24-2.37-1.58l-.32-.08c-3-.64-5-1.32-5.86-2.06a3.91,3.91,0,0,1-1.37-3.24,4.4,4.4,0,0,1,2-3.91,10.51,10.51,0,0,1,5.86-1.35A10.23,10.23,0,0,1,266,98.83a4.92,4.92,0,0,1,2.26,3.77h-5.72a1.61,1.61,0,0,0-.63-1.15,2.23,2.23,0,0,0-1.39-.42,2.38,2.38,0,0,0-1.28.28.94.94,0,0,0-.44.83c0,.64.72,1.11,2.16,1.42l.87.17c2.91.67,4.79,1.38,5.67,2.13a4.12,4.12,0,0,1,1.31,3.3,4.64,4.64,0,0,1-2.14,4.15,11.71,11.71,0,0,1-6.34,1.4,10.46,10.46,0,0,1-5.92-1.4,5.23,5.23,0,0,1-2.24-4.21"/><path class="cls-4" d="M95,60.44a5.7,5.7,0,0,1-1.42,3.85,5.84,5.84,0,0,1-3.57,2v8.87a5.6,5.6,0,0,1-1.78,4.13A6,6,0,0,1,83.94,81a5.71,5.71,0,0,1-5.61-3.52,6.33,6.33,0,0,1-2.85-2.39,8.3,8.3,0,0,1-3,3.82,8,8,0,0,1-4.69,1.48h-8.3a6.55,6.55,0,0,1-6.17-3.77,6.68,6.68,0,0,1-3-2.55,6.78,6.78,0,0,1-1.13-3.77V58.41a7,7,0,0,1,6.17-7,6.44,6.44,0,0,1-1.22-1.83,5.9,5.9,0,0,1-2.73-2.16,5.93,5.93,0,0,1,4.87-9.3H66.87a5.51,5.51,0,0,1,5.4,3.46,5.69,5.69,0,0,1,3.56,4,6,6,0,0,1,4.89-2.3,5.63,5.63,0,0,1,5.56,3.52A5.85,5.85,0,0,1,89,49a5.59,5.59,0,0,1,1,3.31v.92a6.11,6.11,0,0,1,1.22,1.73A5.86,5.86,0,0,1,94,57.11a5.74,5.74,0,0,1,1,3.33"/><path class="cls-5" d="M89.28,57.39A3.4,3.4,0,0,0,85.87,54h-.71q-.87,0-.87-.81v-4a3.11,3.11,0,0,0-1-2.34,3.58,3.58,0,0,0-2.53-1,3.64,3.64,0,0,0-2.57,1,3.07,3.07,0,0,0-1,2.34v4q0,.81-.87.81H71.15q-.87,0-.87-.81V44a3.2,3.2,0,0,0-1-2.37,3.28,3.28,0,0,0-2.41-1H56.32a3.24,3.24,0,0,0-2.37,1,3.31,3.31,0,0,0-1,2.42,3.4,3.4,0,0,0,3.37,3.36h5.55a.77.77,0,0,1,.87.87V52.7a1.1,1.1,0,0,1-1.27,1.22H56.22a4.44,4.44,0,0,0-4.44,4.43v12a4.4,4.4,0,0,0,1.3,3.16,4.25,4.25,0,0,0,3.14,1.32h8.3a5.53,5.53,0,0,0,4.08-1.7,5.59,5.59,0,0,0,1.68-4.06V61.61q0-.81.87-.81h5.09q.87,0,.87.81V72.06a3.1,3.1,0,0,0,1,2.39,3.64,3.64,0,0,0,2.57,1,3.58,3.58,0,0,0,2.53-1,3.14,3.14,0,0,0,1-2.39V61.61q0-.81.87-.81h.71a3.47,3.47,0,0,0,3.41-3.41"/><rect class="cls-4" x="58.92" y="60.65" width="3.82" height="7.39" rx="0.82"/><path class="cls-4" d="M136.9,57.54a5.47,5.47,0,0,1-2.5,4.74A5.38,5.38,0,0,1,136,66.15a5.58,5.58,0,0,1-1.71,4.1,5.51,5.51,0,0,1-4,1.71H126.1v1.32A7.14,7.14,0,0,1,119,80.42H104.34a5.72,5.72,0,0,1-5.55-3.52A6.12,6.12,0,0,1,95,71.25v-7.8a6,6,0,0,1,1.63-4.13,5.74,5.74,0,0,1-.76-9.17,5.73,5.73,0,0,1-.25-8.36,5.59,5.59,0,0,1,4.07-1.68h11.87a6.16,6.16,0,0,1,10,0h6.32a5.29,5.29,0,0,1,5.25,3.47A5.76,5.76,0,0,1,136.9,49,5.51,5.51,0,0,1,135,53.26a5.53,5.53,0,0,1,1.94,4.28"/><path class="cls-5" d="M131.09,54.43a3.21,3.21,0,0,0-3.21-3.21H121.2c-.57,0-.86-.27-.86-.81V50c0-.55.29-.82.86-.82h6.68a3.1,3.1,0,0,0,2.27-.94,3.14,3.14,0,0,0,.94-2.32,3.1,3.1,0,0,0-.94-2.27,3.14,3.14,0,0,0-2.27-.94h-7.29a.66.66,0,0,1-.61-.46,3.8,3.8,0,0,0-6.88,0,.59.59,0,0,1-.61.46H99.65a3.14,3.14,0,0,0-2.27.94,3.1,3.1,0,0,0-.94,2.27,3.14,3.14,0,0,0,.94,2.32,3.1,3.1,0,0,0,2.27.94h12.28c.58,0,.87.27.87.82v.46q0,.81-.87.81H99.65a3.21,3.21,0,0,0-3.21,3.21,3.14,3.14,0,0,0,.94,2.32,3.1,3.1,0,0,0,2.27.94h12.28a.77.77,0,0,1,.87.87V59q0,.81-.87.81H101.08a3.39,3.39,0,0,0-2.52,1.07,3.52,3.52,0,0,0-1,2.55v7.8a3.5,3.5,0,0,0,1,2.54,3.35,3.35,0,0,0,2.52,1.07H115.7a4.61,4.61,0,0,0,4.64-4.63V67.17c0-.54.29-.81.86-.81H127a3.07,3.07,0,0,0,2.27-1,3.27,3.27,0,0,0,0-4.59,3.07,3.07,0,0,0-2.27-1H121.2c-.57,0-.86-.27-.86-.81v-.51c0-.55.29-.82.86-.82h6.68a3.1,3.1,0,0,0,2.27-.94,3.14,3.14,0,0,0,.94-2.32"/><path class="cls-4" d="M112.8,68a.59.59,0,0,1-.67.67h-6.87c-.41,0-.62-.22-.62-.67V66.71c0-.44.21-.66.62-.66h6.87a.59.59,0,0,1,.67.66Z"/><path class="cls-4" d="M182.22,71.25A9.22,9.22,0,0,1,173,80.47H158.12a8.38,8.38,0,0,1-7.79-4.28,8.85,8.85,0,0,1-3.42-3.34,9.1,9.1,0,0,1-1.27-4.71v-2a5.82,5.82,0,0,1-3.82-3.26,5.94,5.94,0,0,1-3.77-5.56,5.58,5.58,0,0,1,2.54-4.83A5.93,5.93,0,0,1,144,41.64h1.93a5.93,5.93,0,0,1,2.19-3,6,6,0,0,1,3.62-1.14A5.66,5.66,0,0,1,157.25,41a5.81,5.81,0,0,1,1.13.61h9.37a5.5,5.5,0,0,1,5.4,3.47,5.9,5.9,0,0,1,2.73,2.16,5.79,5.79,0,0,1,1,3.34,5.66,5.66,0,0,1-2.55,4.89,5.82,5.82,0,0,1,2.55,4.38A6,6,0,0,1,178.5,62a5.44,5.44,0,0,1,3.72,5.4Z"/><path class="cls-5" d="M176.46,68.14V64.32a3.12,3.12,0,0,0-1-2.4,3.61,3.61,0,0,0-2.52-1,3.69,3.69,0,0,0-2.58,1,3.16,3.16,0,0,0-1,2.4v1.83a1.8,1.8,0,0,1-.59,1.33,2,2,0,0,1-1.4.56h-10a2,2,0,0,1-1.46-.56,1.79,1.79,0,0,1-.58-1.33V61.72a.9.9,0,0,1,1-1h11.46a3.38,3.38,0,0,0,3.41-3.42,3.19,3.19,0,0,0-1-2.36,3.27,3.27,0,0,0-2.42-1H155.93a.58.58,0,0,1-.66-.66V52a.9.9,0,0,1,1-1h11.46a3.42,3.42,0,1,0,0-6.83H155.93c-.44,0-.66-.21-.66-.61v-.16A3.14,3.14,0,0,0,154.22,41a3.68,3.68,0,0,0-5,0,3.14,3.14,0,0,0-1.05,2.36v.16c0,.4-.22.61-.66.61H144a3.23,3.23,0,0,0-2.37,1,3.43,3.43,0,0,0,0,4.84A3.2,3.2,0,0,0,144,51h3.16a.9.9,0,0,1,1,1v1.27a.58.58,0,0,1-.66.66H144a3.42,3.42,0,0,0-3.37,3.36,3.29,3.29,0,0,0,1,2.43,3.23,3.23,0,0,0,2.37,1h3.16a.9.9,0,0,1,1,1v6.42a6.74,6.74,0,0,0,6.73,6.72h14.88a6.69,6.69,0,0,0,6.72-6.72"/><path class="cls-4" d="M221.74,71.25a9.22,9.22,0,0,1-9.22,9.22h-15a5.49,5.49,0,0,1-5.4-3.52,5.51,5.51,0,0,1-2.73-2.14,5.8,5.8,0,0,1-1-3.36,5.56,5.56,0,0,1,.56-2.45,9.09,9.09,0,0,1-4.28-3.56,8.66,8.66,0,0,1-4.69-8v-14a5.54,5.54,0,0,1,1.78-4.15,6,6,0,0,1,4.33-1.7A5.71,5.71,0,0,1,191.63,41a6,6,0,0,1,2.73,2.14,5.57,5.57,0,0,1,1,3.26v9.22a6.28,6.28,0,0,1,2.24,2.6,5.92,5.92,0,0,1,2.73,2.17,5.75,5.75,0,0,1,1,3.34,6.64,6.64,0,0,1-.25,1.78h5.14V43.37a5.55,5.55,0,0,1,1.79-4.15,6,6,0,0,1,4.33-1.7A5.71,5.71,0,0,1,218,41a5.81,5.81,0,0,1,2.7,2.14,5.62,5.62,0,0,1,1,3.26Z"/><path class="cls-5" d="M195.65,60.7a3.4,3.4,0,0,0-3.41-3.42h-.61a2,2,0,0,1-1.45-.56,1.76,1.76,0,0,1-.59-1.32v-12a3.2,3.2,0,0,0-1-2.37A3.55,3.55,0,0,0,186,40a3.61,3.61,0,0,0-2.54,1,3.13,3.13,0,0,0-1.07,2.37v14a6.45,6.45,0,0,0,2,4.76,6.52,6.52,0,0,0,4.74,2h3.11a3.25,3.25,0,0,0,2.42-1,3.33,3.33,0,0,0,1-2.39"/><path class="cls-5" d="M216,68.14V43.37a3.16,3.16,0,0,0-1-2.36,3.51,3.51,0,0,0-2.52-1,3.58,3.58,0,0,0-2.55,1,3.12,3.12,0,0,0-1.07,2.36V66.15a1.8,1.8,0,0,1-.59,1.33,2,2,0,0,1-1.4.56H194.23a3.33,3.33,0,0,0-2.4,1,3.38,3.38,0,0,0,0,4.84,3.33,3.33,0,0,0,2.4,1h15A6.69,6.69,0,0,0,216,68.14"/><path class="cls-4" d="M271.4,76.9a7,7,0,0,1-7,7H246.31a9.89,9.89,0,0,1-9.09-5.17,9.88,9.88,0,0,1-5.29-9.16V45.15a10.6,10.6,0,0,1,10.58-10.58H257a9.85,9.85,0,0,1,9.09,5.23,9.76,9.76,0,0,1,5.29,9.1v6.71a6.92,6.92,0,0,1-2.14,5.14,7,7,0,0,1-5.11,2.12,6.74,6.74,0,0,1-6.66-4.34,6.82,6.82,0,0,1-4.4-6.13h-2.85V66.08h10.34a6.53,6.53,0,0,1,6.48,4.28A7.16,7.16,0,0,1,270.18,73a6.84,6.84,0,0,1,1.22,3.93"/><path class="cls-5" d="M264.74,73.15a4.07,4.07,0,0,0-1.22-3,3.92,3.92,0,0,0-2.94-1.25H246a2.43,2.43,0,0,1-1.73-.68,2.21,2.21,0,0,1-.71-1.64V48.06a2.11,2.11,0,0,1,.71-1.6A2.46,2.46,0,0,1,246,45.8h7.49a2.44,2.44,0,0,1,1.72.66,2.08,2.08,0,0,1,.71,1.6v3.81a4.4,4.4,0,1,0,8.8,0V45.15A7.72,7.72,0,0,0,257,37.42H242.51a7.72,7.72,0,0,0-7.73,7.73V69.58a7.77,7.77,0,0,0,7.73,7.73h18.07a4.17,4.17,0,0,0,4.16-4.16"/><path class="cls-4" d="M312.16,70.53A13.4,13.4,0,0,1,298.73,84h-8.39a12.68,12.68,0,0,1-11.17-6,12.66,12.66,0,0,1-6.07-11.23V41.05a6.58,6.58,0,0,1,2.12-4.9,7.08,7.08,0,0,1,5.14-2.06,7.16,7.16,0,0,1,4.07,1.22,7.09,7.09,0,0,1,2.64,3.18,6.45,6.45,0,0,1,4.28,6.36V66.19h2.15a.32.32,0,0,0,.35-.23V41.11A6.57,6.57,0,0,1,296,36.17a7.57,7.57,0,0,1,9.22-.83,6.5,6.5,0,0,1,2.61,3.15,6.46,6.46,0,0,1,4.34,6.36Z"/><path class="cls-5" d="M305.5,66.79V41.11a3.86,3.86,0,0,0-1.24-2.91,4.31,4.31,0,0,0-3.1-1.19A4.48,4.48,0,0,0,298,38.2a3.78,3.78,0,0,0-1.31,2.91V66a2.89,2.89,0,0,1-.95,2.2,3.18,3.18,0,0,1-2.25.89H288a3.27,3.27,0,0,1-2.32-.89,2.89,2.89,0,0,1-.95-2.2V41.05a3.76,3.76,0,0,0-1.28-2.85A4.3,4.3,0,0,0,280.36,37a4.37,4.37,0,0,0-3.12,1.19A3.72,3.72,0,0,0,276,41.05V66.79a10.55,10.55,0,0,0,10.58,10.58h8.38A10.55,10.55,0,0,0,305.5,66.79"/><path class="cls-4" d="M353.52,73.39a10.57,10.57,0,0,1-10.59,10.52H325a7.53,7.53,0,0,1-6.9-4.4,6.56,6.56,0,0,1-4.33-6.42V41.7a6.76,6.76,0,0,1,2.17-5,7.24,7.24,0,0,1,5.26-2.11h16a9.85,9.85,0,0,1,9.09,5.23,9.77,9.77,0,0,1,5.3,9.1v7.25A11,11,0,0,1,351,59.3a10.35,10.35,0,0,1,2.5,6.84Z"/><path class="cls-5" d="M346.86,69.58V62.33a7.26,7.26,0,0,0-3-6.06,7.64,7.64,0,0,0,1.07-3.87V45.15a7.72,7.72,0,0,0-7.73-7.73h-16a4.58,4.58,0,0,0-3.24,1.25,4,4,0,0,0-1.34,3V73.09a3.93,3.93,0,0,0,1.34,3,4.54,4.54,0,0,0,3.24,1.25h18a7.37,7.37,0,0,0,5.41-2.26,7.47,7.47,0,0,0,2.26-5.47"/><path class="cls-4" d="M336.1,51a2.26,2.26,0,0,1-.72,1.66,2.36,2.36,0,0,1-1.72.71h-7c-.84,0-1.25-.37-1.25-1.13V46.93c0-.75.41-1.13,1.25-1.13h7a2.44,2.44,0,0,1,1.72.66,2.09,2.09,0,0,1,.72,1.6Z"/><path class="cls-4" d="M338.12,66.67a2,2,0,0,1-.75,1.6,2.54,2.54,0,0,1-1.75.66h-9c-.84,0-1.25-.38-1.25-1.13V62.45c0-.75.41-1.13,1.25-1.13h9a2.46,2.46,0,0,1,1.75.71,2.24,2.24,0,0,1,.75,1.67Z"/><path class="cls-4" d="M392.85,76.9a7,7,0,0,1-7,7h-16.7a9.51,9.51,0,0,1-8.68-5,9.53,9.53,0,0,1-5.11-8.74V44.62a10,10,0,0,1,10.05-10H382a6.55,6.55,0,0,1,6.48,4.28,7.25,7.25,0,0,1,3.12,2.59,7,7,0,0,1-5.8,11h-.65a6.11,6.11,0,0,1,1.66,2.44,6.45,6.45,0,0,1,3.1,2.44,6.65,6.65,0,0,1,1.19,3.86,6.56,6.56,0,0,1-1.34,4,6.37,6.37,0,0,1-3.48,2.38,6.9,6.9,0,0,1,2.2,2.8A7.16,7.16,0,0,1,391.63,73a6.84,6.84,0,0,1,1.22,3.93"/><path class="cls-5" d="M386.19,73.15a4.11,4.11,0,0,0-1.22-3A3.92,3.92,0,0,0,382,68.93H368.77a1.6,1.6,0,0,1-1.84-1.78V63c0-1.14.61-1.72,1.84-1.72H380.6a3.7,3.7,0,0,0,2.74-1.16,3.82,3.82,0,0,0,1.13-2.76,3.86,3.86,0,0,0-3.87-3.87H368.77c-1.23,0-1.84-.59-1.84-1.78V47.53c0-1.15.61-1.73,1.84-1.73H382A4,4,0,0,0,385,44.58a4.08,4.08,0,0,0,1.22-3A4.17,4.17,0,0,0,382,37.42H365.38a7.2,7.2,0,0,0-7.19,7.2V70.18a7.1,7.1,0,0,0,7.13,7.13H382a4.17,4.17,0,0,0,4.16-4.16"/><path class="cls-4" d="M192.82,115.5h-17a3.7,3.7,0,0,1-3.7-3.69v-17a3.7,3.7,0,0,1,3.7-3.7h17a3.7,3.7,0,0,1,3.7,3.7v17a3.7,3.7,0,0,1-3.7,3.69m-17-23.3a2.59,2.59,0,0,0-2.59,2.59v17a2.6,2.6,0,0,0,2.59,2.59h17a2.6,2.6,0,0,0,2.59-2.59v-17a2.59,2.59,0,0,0-2.59-2.59Z"/><path class="cls-4" d="M191.07,112h-17a2,2,0,0,1-2-2v-17a2,2,0,0,1,2-2h17a2,2,0,0,1,2,2v17a2,2,0,0,1-2,2"/><polygon class="cls-5" points="190.9 100.13 190.9 102.98 184 102.98 184 109.89 181.14 109.89 181.14 102.98 174.23 102.98 174.23 100.13 181.14 100.13 181.14 93.22 184 93.22 184 100.13 190.9 100.13"/><path class="cls-6" d="M227,155.64q-8.32,1.1-22.35,2a2.06,2.06,0,0,1-2.17-1.73l-.08-.55a2.07,2.07,0,0,1,2-2.4h.23a2.06,2.06,0,0,0,1.83-1.23q1.85-4.14,4-10.18t3.76-11.21a2,2,0,0,1,2.3-1.43l1.1.17a2.08,2.08,0,0,1,1.65,2.66,175.28,175.28,0,0,1-6.56,17.79,2.07,2.07,0,0,0,2,2.89q4.89-.34,8.34-.7a2.06,2.06,0,0,0,1.53-3.15c-.84-1.35-2-3.11-3.38-5.3a2.08,2.08,0,0,1,.79-3l.67-.34a2.07,2.07,0,0,1,2.6.6,80.51,80.51,0,0,1,4.75,7.12q2.27,3.78,3.93,7a2.07,2.07,0,0,1-1.16,2.91l-1.11.38a2.06,2.06,0,0,1-2.55-1.1l0,0A2.06,2.06,0,0,0,227,155.64Z"/><path class="cls-6" d="M231,161.09a5.06,5.06,0,0,1-4.29-2.38c-5.53.7-12.89,1.34-21.9,1.9a5.06,5.06,0,0,1-5.33-4.26l-.09-.55a5.09,5.09,0,0,1,4.5-5.87c1.13-2.59,2.38-5.76,3.72-9.45,1.41-3.9,2.66-7.62,3.7-11a5.1,5.1,0,0,1,5.67-3.54l1.1.17a5.12,5.12,0,0,1,3.51,2.34,5.07,5.07,0,0,1,.54,4.19q-.79,2.57-1.65,5.08l.16-.09.67-.34a5.07,5.07,0,0,1,6.37,1.45,83.7,83.7,0,0,1,4.93,7.39c1.54,2.57,2.9,5,4,7.22a5.1,5.1,0,0,1-2.86,7.13l-1.11.38A5.19,5.19,0,0,1,231,161.09Zm-21.31-9.38c-.17.41-.35.82-.53,1.21a5.1,5.1,0,0,1-.95,1.43l3-.22a5.06,5.06,0,0,1-.78-.88A5.23,5.23,0,0,1,209.7,151.71Zm17.56.89a5.11,5.11,0,0,1,2.56.69c-.58-1.06-1.22-2.16-1.89-3.3a5.15,5.15,0,0,1-.5,1.86,4.52,4.52,0,0,1-.46.76Zm-9-8.67c-.69,1.8-1.41,3.58-2.14,5.33,1.9-.14,3.63-.28,5.16-.43-.7-1.11-1.56-2.44-2.54-4A4.82,4.82,0,0,1,218.22,143.93Z"/><path class="cls-6" d="M263.19,156.42H249.63a2.13,2.13,0,0,1-2.13-2.13V132.87a2.14,2.14,0,0,1,2.13-2.13H251a2.13,2.13,0,0,1,2.13,2.13V150a2.13,2.13,0,0,0,2.13,2.13h7.94a2.13,2.13,0,0,1,2.13,2.13h0A2.13,2.13,0,0,1,263.19,156.42Z"/><path class="cls-6" d="M263.19,159.43H249.63a5.14,5.14,0,0,1-5.14-5.14V132.87a5.14,5.14,0,0,1,5.14-5.14H251a5.15,5.15,0,0,1,5.15,5.14v16.27h7.05a5.15,5.15,0,1,1,0,10.29Zm-12.67-6h.85a5,5,0,0,1-.85-1.36Z"/><path class="cls-6" d="M271.31,134.22h-1a2.31,2.31,0,0,1-2.31-2.31h0a2.32,2.32,0,0,1,2.31-2.31h1a2.31,2.31,0,0,1,2.31,2.31h0A2.3,2.3,0,0,1,271.31,134.22Zm-.19,22.2h-.61a2.31,2.31,0,0,1-2.31-2.31V139a2.31,2.31,0,0,1,2.31-2.31h.61a2.3,2.3,0,0,1,2.31,2.31v15.11A2.3,2.3,0,0,1,271.12,156.42Z"/><path class="cls-6" d="M271.12,159.43h-.61a5.32,5.32,0,0,1-5.32-5.32V139a5.29,5.29,0,0,1,1.26-3.44,5.32,5.32,0,0,1,3.87-9h1a5.32,5.32,0,0,1,3.88,9,5.34,5.34,0,0,1,1.26,3.44v15.11A5.33,5.33,0,0,1,271.12,159.43Zm-.3-28a.69.69,0,0,0-.22.5.73.73,0,0,0,.22.51.72.72,0,0,0,.21-.51A.68.68,0,0,0,270.82,131.41Z"/><path class="cls-6" d="M296.65,154.15c0,3.26-.81,5.67-2.45,7.23s-4.25,2.33-7.85,2.33a30.86,30.86,0,0,1-6.5-.68.51.51,0,0,1-.42-.51v-3.84h.26a17.78,17.78,0,0,0,5.87,1.21,7.36,7.36,0,0,0,4.46-1.07c.93-.71,1.4-2.13,1.4-4.24h0a.52.52,0,0,0-.83-.42,8.53,8.53,0,0,1-5.08,2q-8.13,0-8.12-10.07a10.58,10.58,0,0,1,2.35-7.18,7.66,7.66,0,0,1,6-2.72,9.68,9.68,0,0,1,5,1.45.53.53,0,0,0,.77-.31l.06-.21a.52.52,0,0,1,.5-.38h4a.52.52,0,0,1,.52.52Zm-5.23-3.81V141a.54.54,0,0,0-.32-.49,7.93,7.93,0,0,0-2.86-.6c-3.63,0-5.44,2.08-5.44,6.22a7.12,7.12,0,0,0,1.14,4.51,4.24,4.24,0,0,0,3.51,1.39,7,7,0,0,0,3.74-1.28A.53.53,0,0,0,291.42,150.34Z"/><path class="cls-6" d="M286.35,166.73a34.7,34.7,0,0,1-7.12-.74,3.57,3.57,0,0,1-2.82-3.47v-6.85h.85c-1.68-1.95-2.89-5-2.89-9.63a13.47,13.47,0,0,1,3.1-9.15,10.69,10.69,0,0,1,8.31-3.76,12.36,12.36,0,0,1,4.7.94,3.63,3.63,0,0,1,1.63-.4h4a3.55,3.55,0,0,1,3.54,3.54v16.94c0,4.1-1.14,7.27-3.39,9.41S290.73,166.73,286.35,166.73ZM288.24,143c-1.25,0-2.42,0-2.42,3.2,0,2,.43,2.58.45,2.6a1.71,1.71,0,0,0,1.18.28,2.8,2.8,0,0,0,1-.2V143Z"/><path class="cls-6" d="M317.92,156.42h0a2.61,2.61,0,0,1-2.61-2.62v-7.21q0-4.12-.92-5.12a3.8,3.8,0,0,0-2.95-1,6.43,6.43,0,0,0-2.64.7,2.6,2.6,0,0,0-1.47,2.35V153.8a2.61,2.61,0,0,1-2.61,2.62h0a2.62,2.62,0,0,1-2.62-2.62V132.22a2.62,2.62,0,0,1,2.62-2.62h0a2.61,2.61,0,0,1,2.61,2.62v2.3a2.61,2.61,0,0,0,3.72,2.37l.21-.1a7.59,7.59,0,0,1,3.07-.65q6.24,0,6.24,7.31V153.8A2.62,2.62,0,0,1,317.92,156.42Z"/><path class="cls-6" d="M317.92,159.43h0a5.64,5.64,0,0,1-5.63-5.63v-7.21a14,14,0,0,0-.23-3.05,2.92,2.92,0,0,0-.62,0,3,3,0,0,0-1.09.29v10a5.63,5.63,0,0,1-11.26,0V132.22a5.63,5.63,0,1,1,11.26,0v1.68a10.64,10.64,0,0,1,4-.77c5.88,0,9.26,3.76,9.26,10.32V153.8A5.64,5.64,0,0,1,317.92,159.43Zm-12.83-22v3.21a5.68,5.68,0,0,1,1.44-1.61A5.49,5.49,0,0,1,305.09,137.42Z"/><path class="cls-6" d="M337.44,155.25a1.29,1.29,0,0,1-1.06,1.27,19.71,19.71,0,0,1-3.42.29q-3.52,0-5.16-1.51t-1.64-4.88v-9a1.29,1.29,0,0,0-1.29-1.29h0a1.3,1.3,0,0,1-1.3-1.3V138a1.3,1.3,0,0,1,1.3-1.29h0a1.3,1.3,0,0,0,1.3-1.29v-3a1.3,1.3,0,0,1,1.29-1.3h2.63a1.3,1.3,0,0,1,1.29,1.3v3a1.3,1.3,0,0,0,1.3,1.29h3.46a1.29,1.29,0,0,1,1.29,1.29v.87a1.3,1.3,0,0,1-1.29,1.3h-3.46a1.3,1.3,0,0,0-1.3,1.29v6.84c0,2.09.27,3.45.8,4.08a3.34,3.34,0,0,0,2.7,1,5.33,5.33,0,0,0,2.4-.6h.15Z"/><path class="cls-6" d="M333,159.83c-3.12,0-5.55-.78-7.21-2.31s-2.6-4-2.6-7.1v-7.61a4.32,4.32,0,0,1-2.59-4V138a4.3,4.3,0,0,1,2.6-3.95v-1.58a4.32,4.32,0,0,1,4.31-4.31h2.63a4.32,4.32,0,0,1,4.31,4.31v1.22h1.74a4.32,4.32,0,0,1,4.31,4.31v.87a4.32,4.32,0,0,1-4.31,4.31h-1.74v5.12a11.57,11.57,0,0,0,.14,2h.34a2.3,2.3,0,0,0,1.05-.28l.64-.31h3.88v5.54a4.29,4.29,0,0,1-3.55,4.24A23,23,0,0,1,333,159.83Zm-5-21.4a4.36,4.36,0,0,1,.83,1.2,4.24,4.24,0,0,1,.84-1.21,4.47,4.47,0,0,1-.83-1.19A4.55,4.55,0,0,1,328,138.43Z"/><path class="cls-6" d="M119.89,143.92l-.12.23a2.25,2.25,0,0,1-2.84,1c-1.7-.71-3.16-1.28-4.36-1.69s-3.1-1-5.58-1.71a2.25,2.25,0,0,1-1.4-3.13v0a2.25,2.25,0,0,1,2.54-1.21c1.69.39,3.26.81,4.71,1.27s3.44,1.17,5.86,2.08A2.24,2.24,0,0,1,119.89,143.92Zm14.35-4.66a2.25,2.25,0,0,1,.9,3.18,30.27,30.27,0,0,1-10.34,10.23,40.12,40.12,0,0,1-15.39,5A2.25,2.25,0,0,1,107,156l0-.21a2.24,2.24,0,0,1,1.85-2.75,39.11,39.11,0,0,0,12.55-3.93,27.25,27.25,0,0,0,9.73-9.23,2.23,2.23,0,0,1,2.88-.75Zm-11.1-3.68-.13.22a2.23,2.23,0,0,1-2.85,1l-2-.84c-1.32-.54-2.39-.94-3.22-1.21l-4.65-1.49a2.24,2.24,0,0,1-1.32-3.15h0a2.26,2.26,0,0,1,2.59-1.16,106.1,106.1,0,0,1,10.4,3.46A2.25,2.25,0,0,1,123.14,135.58Z"/><path class="cls-6" d="M109.12,160.7a5.25,5.25,0,0,1-5.09-4l0-.2a5.26,5.26,0,0,1,4.33-6.46,40.58,40.58,0,0,0,7.83-1.95l-.38-.14c-1.63-.68-3-1.23-4.17-1.62s-3-1-5.43-1.66a5.28,5.28,0,0,1,.73-10.29,5.26,5.26,0,0,1,5.45-8.37,108.86,108.86,0,0,1,10.72,3.56,5.23,5.23,0,0,1,3.07,3.12,5.29,5.29,0,0,1-.36,4.38l-.13.23a5.28,5.28,0,0,1-3.41,2.54,5.53,5.53,0,0,1,.62,1.18,5.25,5.25,0,0,1,.1,3.39,27.14,27.14,0,0,0,5.58-6.22,5.25,5.25,0,0,1,6.76-1.77l.32.16a5.33,5.33,0,0,1,2.69,3.29,5.25,5.25,0,0,1-.61,4.18,33.5,33.5,0,0,1-11.36,11.23,43.19,43.19,0,0,1-16.54,5.39A5.12,5.12,0,0,1,109.12,160.7Z"/><path class="cls-5" d="M118.85,142.56l-.13.23a2.24,2.24,0,0,1-2.84,1c-1.7-.71-3.15-1.28-4.36-1.69s-3.09-1-5.57-1.71a2.24,2.24,0,0,1-1.4-3.13v0A2.25,2.25,0,0,1,107.1,136c1.69.39,3.26.81,4.71,1.27s3.44,1.17,5.86,2.08A2.24,2.24,0,0,1,118.85,142.56Zm14.35-4.66a2.24,2.24,0,0,1,.89,3.18,30.16,30.16,0,0,1-10.33,10.23,40.12,40.12,0,0,1-15.4,5,2.24,2.24,0,0,1-2.44-1.7l-.06-.21a2.25,2.25,0,0,1,1.86-2.75,39,39,0,0,0,12.54-3.93,27.28,27.28,0,0,0,9.74-9.23,2.23,2.23,0,0,1,2.88-.75Zm-11.1-3.68-.13.22a2.24,2.24,0,0,1-2.85,1l-2-.84c-1.32-.54-2.39-.94-3.22-1.21l-4.65-1.49a2.24,2.24,0,0,1-1.32-3.15h0a2.25,2.25,0,0,1,2.58-1.16q4.26,1.13,10.41,3.46A2.26,2.26,0,0,1,122.1,134.22Z"/><path class="cls-6" d="M166.92,156.09l-1,.93a1.92,1.92,0,0,1-2.68,0q-3-3-9-8.24a1.91,1.91,0,0,0-2.55,0,52.22,52.22,0,0,1-13.15,9,1.92,1.92,0,0,1-2.44-.74l-.46-.75a1.91,1.91,0,0,1,.78-2.73,49.26,49.26,0,0,0,10.76-7.33,37.32,37.32,0,0,0,7.61-9,1.93,1.93,0,0,0-1.65-2.92H140.93a1.92,1.92,0,0,1-1.92-1.92v-.62a1.92,1.92,0,0,1,1.92-1.92h19.69a2,2,0,0,1,1.34.53h0a1.94,1.94,0,0,1,.5,1.95,30.38,30.38,0,0,1-2.45,6,38.29,38.29,0,0,1-2.82,4.28,1.92,1.92,0,0,0,.32,2.63q5.37,4.42,9.38,8.11A1.92,1.92,0,0,1,166.92,156.09Z"/><path class="cls-6" d="M137.71,161a4.91,4.91,0,0,1-4.2-2.34l-.47-.75a4.92,4.92,0,0,1,2-7,46.83,46.83,0,0,0,10.1-6.89,36,36,0,0,0,6-6.65H140.93a4.94,4.94,0,0,1-4.93-4.94v-.62a4.94,4.94,0,0,1,4.93-4.94h19.7a4.93,4.93,0,0,1,4.71,6.39,33.68,33.68,0,0,1-2.7,6.57,42,42,0,0,1-2.41,3.76c3.28,2.71,6.2,5.25,8.7,7.56a4.93,4.93,0,0,1,.07,7.19h0l-1,.93a4.91,4.91,0,0,1-6.9-.07c-1.81-1.81-4.55-4.32-8.15-7.45a54.55,54.55,0,0,1-13.19,8.81A4.91,4.91,0,0,1,137.71,161ZM153,145.28a5,5,0,0,1,1.15.13,5,5,0,0,1-.31-1.67c-.44.53-.9,1-1.38,1.57A4.89,4.89,0,0,1,153,145.28Zm3.76-12.46a4.83,4.83,0,0,1,.68.93,4.89,4.89,0,0,1,.61,1.83,26.37,26.37,0,0,0,1.11-2.76Z"/><path class="cls-5" d="M165.87,154.41l-1,.94a1.91,1.91,0,0,1-2.68,0q-3-3-9-8.24a1.92,1.92,0,0,0-2.56,0,51.78,51.78,0,0,1-13.15,9,1.91,1.91,0,0,1-2.43-.73l-.47-.76a1.91,1.91,0,0,1,.78-2.72,49.43,49.43,0,0,0,10.77-7.33,37.5,37.5,0,0,0,7.6-9,1.92,1.92,0,0,0-1.64-2.91H139.89a1.93,1.93,0,0,1-1.92-1.92v-.63a1.92,1.92,0,0,1,1.92-1.92h19.69a1.88,1.88,0,0,1,1.33.54h0a1.92,1.92,0,0,1,.51,1.94,31,31,0,0,1-2.45,6,42.48,42.48,0,0,1-2.82,4.29,1.9,1.9,0,0,0,.32,2.62q5.37,4.42,9.38,8.11A1.93,1.93,0,0,1,165.87,154.41Z"/><path class="cls-6" d="M201.91,143.1H190.52a.52.52,0,0,0-.53.52h0a13.11,13.11,0,0,1-3.81,9.75,19.73,19.73,0,0,1-10.26,5,.53.53,0,0,1-.6-.34l-1.18-3.24a.53.53,0,0,1,.39-.69,15.8,15.8,0,0,0,7.42-3.61,8.7,8.7,0,0,0,2.81-6.59v-.24a.52.52,0,0,0-.53-.52h-13a.53.53,0,0,1-.53-.53v-3.34a.53.53,0,0,1,.53-.53h30.73a.53.53,0,0,1,.53.53v3.34A.53.53,0,0,1,201.91,143.1Zm-2.09-8.86H173.24a.53.53,0,0,1-.53-.53V130.4a.52.52,0,0,1,.53-.52h26.58a.52.52,0,0,1,.53.52v3.31A.53.53,0,0,1,199.82,134.24Z"/><path class="cls-6" d="M175.83,161.35a3.58,3.58,0,0,1-3.35-2.34l-1.17-3.23a3.54,3.54,0,0,1,2.53-4.66,13.05,13.05,0,0,0,6-2.86,5.78,5.78,0,0,0,1.48-2.15H171.18a3.55,3.55,0,0,1-3.55-3.54v-3.34a3.55,3.55,0,0,1,2.74-3.45,3.46,3.46,0,0,1-.67-2.07V130.4a3.55,3.55,0,0,1,3.54-3.54h26.58a3.55,3.55,0,0,1,3.54,3.54v3.31a3.49,3.49,0,0,1-.66,2.06,3.55,3.55,0,0,1,2.76,3.46v3.34a3.55,3.55,0,0,1-3.55,3.54h-9.06a15.51,15.51,0,0,1-4.55,9.4,22.7,22.7,0,0,1-11.79,5.77A3.21,3.21,0,0,1,175.83,161.35Zm11.38-19.63a1.75,1.75,0,0,1,.16.27,1.75,1.75,0,0,1,.16-.27Z"/><path class="cls-5" d="M200.87,141.1h-11.4a.53.53,0,0,0-.53.53h0a13.12,13.12,0,0,1-3.8,9.75,19.72,19.72,0,0,1-10.26,5,.54.54,0,0,1-.61-.34l-1.17-3.23a.53.53,0,0,1,.38-.7,15.74,15.74,0,0,0,7.43-3.61,8.67,8.67,0,0,0,2.8-6.58v-.24a.52.52,0,0,0-.52-.53H170.14a.52.52,0,0,1-.53-.53v-3.34a.52.52,0,0,1,.53-.52h30.73a.52.52,0,0,1,.53.52v3.34A.53.53,0,0,1,200.87,141.1Zm-2.09-8.86H172.2a.53.53,0,0,1-.53-.53v-3.3a.53.53,0,0,1,.53-.53h26.58a.52.52,0,0,1,.52.53v3.3A.52.52,0,0,1,198.78,132.24Z"/><path class="cls-5" d="M225.94,154q-8.34,1.09-22.35,2a2.06,2.06,0,0,1-2.17-1.73l-.09-.55a2.06,2.06,0,0,1,2-2.39h.23a2.08,2.08,0,0,0,1.84-1.23q1.85-4.14,4-10.18t3.76-11.2a2.06,2.06,0,0,1,2.3-1.44l1.1.17a2.08,2.08,0,0,1,1.65,2.66,177.71,177.71,0,0,1-6.56,17.79,2.07,2.07,0,0,0,2,2.89c3.26-.22,6-.46,8.34-.7a2.07,2.07,0,0,0,1.53-3.15q-1.26-2-3.38-5.3a2.06,2.06,0,0,1,.79-3l.67-.35a2.07,2.07,0,0,1,2.59.6A78.31,78.31,0,0,1,229,146c1.51,2.52,2.82,4.86,3.93,7a2.06,2.06,0,0,1-1.16,2.9l-1.11.38a2.07,2.07,0,0,1-2.56-1.1v0A2.06,2.06,0,0,0,225.94,154Z"/><path class="cls-5" d="M262.15,154.74H248.59a2.13,2.13,0,0,1-2.13-2.13V131.2a2.13,2.13,0,0,1,2.13-2.13H250a2.13,2.13,0,0,1,2.13,2.13v17.15a2.13,2.13,0,0,0,2.13,2.13h7.94a2.13,2.13,0,0,1,2.13,2.13h0A2.13,2.13,0,0,1,262.15,154.74Z"/><path class="cls-5" d="M270.27,132.54h-1a2.31,2.31,0,0,1-2.31-2.31h0a2.31,2.31,0,0,1,2.31-2.3h1a2.31,2.31,0,0,1,2.31,2.3h0A2.31,2.31,0,0,1,270.27,132.54Zm-.19,22.2h-.61a2.3,2.3,0,0,1-2.31-2.31V137.32a2.31,2.31,0,0,1,2.31-2.31h.61a2.31,2.31,0,0,1,2.31,2.31v15.11A2.3,2.3,0,0,1,270.08,154.74Z"/><path class="cls-5" d="M295.61,152.48c0,3.26-.82,5.66-2.45,7.22S288.9,162,285.3,162a31.66,31.66,0,0,1-6.5-.67.53.53,0,0,1-.41-.52V157h.25a18.1,18.1,0,0,0,5.88,1.21,7.37,7.37,0,0,0,4.46-1.08c.93-.71,1.4-2.13,1.4-4.24h0a.52.52,0,0,0-.83-.42,8.55,8.55,0,0,1-5.08,2q-8.13,0-8.13-10.07a10.57,10.57,0,0,1,2.36-7.18,7.63,7.63,0,0,1,6-2.72,9.67,9.67,0,0,1,5,1.44.52.52,0,0,0,.76-.31l.06-.21a.54.54,0,0,1,.51-.38h4a.52.52,0,0,1,.52.53Zm-5.23-2.86V140.3a.51.51,0,0,0-.33-.48,7.85,7.85,0,0,0-2.86-.6q-5.43,0-5.43,6.22a7.14,7.14,0,0,0,1.13,4.5,4.27,4.27,0,0,0,3.52,1.39,6.94,6.94,0,0,0,3.73-1.27A.54.54,0,0,0,290.38,149.62Z"/><path class="cls-5" d="M316.88,154.42h0a2.61,2.61,0,0,1-2.62-2.61v-7.22q0-4.11-.91-5.12a3.85,3.85,0,0,0-2.95-1,6.2,6.2,0,0,0-2.64.7,2.59,2.59,0,0,0-1.47,2.35v10.28a2.61,2.61,0,0,1-2.62,2.61h0a2.61,2.61,0,0,1-2.61-2.61V130.22a2.61,2.61,0,0,1,2.61-2.61h0a2.61,2.61,0,0,1,2.62,2.61v2.3a2.61,2.61,0,0,0,3.72,2.37l.21-.09a7.55,7.55,0,0,1,3.07-.65q6.24,0,6.24,7.31v10.35A2.61,2.61,0,0,1,316.88,154.42Z"/><path class="cls-5" d="M336.4,153.57a1.28,1.28,0,0,1-1.06,1.27,18.94,18.94,0,0,1-3.42.29q-3.53,0-5.16-1.5c-1.1-1-1.64-2.64-1.64-4.89v-9a1.3,1.3,0,0,0-1.3-1.3h0a1.29,1.29,0,0,1-1.29-1.29v-.87a1.3,1.3,0,0,1,1.29-1.3h0a1.3,1.3,0,0,0,1.3-1.29v-2.95a1.29,1.29,0,0,1,1.29-1.29h2.63a1.29,1.29,0,0,1,1.29,1.29v2.95a1.29,1.29,0,0,0,1.29,1.29h3.46a1.3,1.3,0,0,1,1.3,1.3v.87a1.3,1.3,0,0,1-1.3,1.29h-3.46a1.3,1.3,0,0,0-1.29,1.3v6.83c0,2.09.27,3.45.8,4.09a3.35,3.35,0,0,0,2.69.95,5.26,5.26,0,0,0,2.4-.6h.16Z"/><path class="cls-6" d="M93.69,150.11H80.16c-2.07,0-3.75-2.34-3.75-5.22s1.68-5.23,3.75-5.23H93.69c2.06,0,3.74,2.34,3.74,5.23S95.75,150.11,93.69,150.11Z"/><path class="cls-5" d="M93,146.42H79.43c-1.09,0-2-1.24-2-2.76s.89-2.77,2-2.77H93c1.1,0,2,1.24,2,2.77S94.06,146.42,93,146.42Z"/><path class="cls-6" d="M361.92,150.11H348.4c-2.07,0-3.75-2.34-3.75-5.22s1.68-5.23,3.75-5.23h13.52c2.07,0,3.75,2.34,3.75,5.23S364,150.11,361.92,150.11Z"/><path class="cls-5" d="M361.2,146.42H347.67c-1.09,0-2-1.24-2-2.76s.89-2.77,2-2.77H361.2c1.09,0,2,1.24,2,2.77S362.29,146.42,361.2,146.42Z"/><rect class="cls-7" y="191.98" width="443.48" height="38.21"/><path class="cls-3" d="M113.58,207.69v.78h1.79c2.08,0,2.48.38,2.48,2.46v1.28c0,2.06-.36,2.48-2.48,2.48h-.83a5.63,5.63,0,0,0,3.07,2.38c.5.22,1,.48,1,1.3a1.53,1.53,0,0,1-1.42,1.62c-1.07,0-3.59-1.38-5-3.86a7.68,7.68,0,0,1-5,3.86,1.55,1.55,0,0,1-1.5-1.64,1.24,1.24,0,0,1,.82-1.24c2-.92,2.72-1.24,3.42-2.42h-.82c-1.2,0-2.14,0-2.4-1.3a1.17,1.17,0,0,1-.78.28c-.6,0-.86-.38-1.16-1v6c0,.48-.06,1.44-1.26,1.44-.94,0-1.5-.28-1.5-1.44v-5c-.44,1.14-.8,1.88-1.46,1.88a1.47,1.47,0,0,1-1.34-1.62c0-.58,0-.62,1.22-2.62a18.28,18.28,0,0,0,1.56-3.92h-1A1.26,1.26,0,0,1,99.58,206c0-1,.32-1.5,1.46-1.5h1v-2.1c0-.6.12-1.42,1.36-1.42.82,0,1.4.22,1.4,1.42v2.1h.4a1,1,0,0,1,.92.52c.26-.24,1.62-1,1.88-1.22a13,13,0,0,0,2.46-2.18,2.3,2.3,0,0,1,1.84-.68,2.52,2.52,0,0,1,2.22,1,13.12,13.12,0,0,0,3.49,2.84,1.37,1.37,0,0,1,.7,1.2,1.57,1.57,0,0,1-1.43,1.68c-.31,0-.62-.1-1.46-.68a1.11,1.11,0,0,1-1.18.68Zm-3.84,0a1.07,1.07,0,0,1-1.14-.58c-.76.56-1.1.62-1.36.62a1.34,1.34,0,0,1-1.2-.8.91.91,0,0,1-.84.4h-.4v.52a17.18,17.18,0,0,0,1.88,3.3c0-2.18.2-2.68,2.46-2.68h1.7v-.78Zm-.18,3.18a.33.33,0,0,0-.36.38v.64a.33.33,0,0,0,.36.38h1.18a13.88,13.88,0,0,0,.1-1.4Zm4.22-5.6c-.6-.64-.78-.84-1.2-1.36a.26.26,0,0,0-.24-.16c-.1,0-.14,0-.3.24a16.42,16.42,0,0,1-1.18,1.28Zm-.2,5.6a11,11,0,0,1-.08,1.4h1.42a.33.33,0,0,0,.36-.38v-.64a.33.33,0,0,0-.36-.38Z"/><path class="cls-3" d="M120.92,211.91c-.52,0-1.46-.1-1.46-1.36,0-1,.34-1.54,1.46-1.54h2.94v-2.84h-.64c-.9,1.66-1.3,2.14-2,2.14a1.65,1.65,0,0,1-1.66-1.4c0-.4,0-.44.82-1.7a17.87,17.87,0,0,0,1.58-3.28c.24-.66.46-1,1.22-1s1.66.42,1.66,1.2a5,5,0,0,1-.3,1.2h3.54c.56,0,1.46.1,1.46,1.32,0,1-.32,1.54-1.46,1.54H126.8V209h1.68c.62,0,1.18.14,1.38.8v-5.44c0-1.88.86-2.42,2.44-2.42h3.28c1.53,0,2.45.48,2.45,2.42v12.78c0,1.88-.86,2.44-2.45,2.44H132.3c-1.66,0-2.44-.62-2.44-2.44v-6c-.2.7-.84.8-1.38.8h-1.92a13.07,13.07,0,0,0,2.7,4.12,1.52,1.52,0,0,1,.52,1.16,1.56,1.56,0,0,1-1.58,1.46c-.54,0-.88-.3-1.38-1a18.4,18.4,0,0,1-1.32-2.42,12.19,12.19,0,0,1-2.94,4.18c-.52.48-.8.56-1.1.56a1.82,1.82,0,0,1-1.7-1.64c0-.54.38-.9.8-1.3a8.93,8.93,0,0,0,3-5.14Zm14.18-6.48a.5.5,0,0,0-.56-.56h-1.26a.5.5,0,0,0-.56.56v10.62a.5.5,0,0,0,.56.56h1.26a.51.51,0,0,0,.56-.56Z"/><path class="cls-3" d="M144.32,208.21a3.16,3.16,0,0,0,.38.52c0-.7.28-.76.52-.82.22-.28,1.24-1.64,1.48-2a13.07,13.07,0,0,0-1.36-1.3,1,1,0,0,1-.36-.78c0-.28.24-1.28,1.16-1.24.28-.44.44-.66.74-1.16a.74.74,0,0,1,.7-.42c.56,0,1.08.4,1.08.84a5.32,5.32,0,0,1-1.08,1.82l.42.46c.18-.26.46-.68.66-.94s.34-.42.66-.42a1.16,1.16,0,0,1,.72.24c0-1.38-.06-2.16,1.26-2.16a1.34,1.34,0,0,1,1.22.6,3.55,3.55,0,0,1,.14,1.42.89.89,0,0,1,.9-.38c.1-.16.56-1,.72-1.14A.75.75,0,0,1,155,201c.52,0,1.08.36,1.08.82a6.53,6.53,0,0,1-1.12,1.94l.4.5c.26-.4.67-1,.88-1.24a.71.71,0,0,1,.58-.3c.52,0,1.21.5,1.21,1s-.54,1-.76,1.3c-.39.44-1.45,1.68-2.07,2.32.3,0,.4,0,1.21-.1a3,3,0,0,1-.13-.58c0-.58.63-.76,1-.76.52,0,.66.34.78.74a10.87,10.87,0,0,1,.46,2.3.91.91,0,0,1-1,.86.77.77,0,0,1-.81-.76c-.44.08-.6.1-.81.12a3.43,3.43,0,0,1,.64,1.16h.58c1,0,1.46.46,1.46,1.28s-.62,1.24-1.46,1.24h-1.47a1.33,1.33,0,0,1,1.1,1.14c0,.64-1.2,1.9-1.84,2.54.2.22.5.52.78.52s.48-.26.69-.64.39-.74.93-.74a1.24,1.24,0,0,1,1.37,1.22c0,.92-1,3.16-3,3.16a3.35,3.35,0,0,1-2.84-1.78,8.8,8.8,0,0,1-3.12,1.52c-.8,0-1.2-.86-1.2-1.42s.46-.84.84-1a11.94,11.94,0,0,0,2.4-1.24,20.34,20.34,0,0,1-.9-3.28h-2.26c0,.1,0,.6,0,.7,2.22.7,2.38,1,2.38,1.7,0,.44-.2,1.36-1,1.36a1.71,1.71,0,0,1-.72-.2,8.25,8.25,0,0,0-.82-.34,10.17,10.17,0,0,1-.92,3.14,1.49,1.49,0,0,1-1.28.72c-.4,0-1.46-.26-1.46-1.16,0-.3.06-.4.42-1.3a13.4,13.4,0,0,0,.84-4.66,1.06,1.06,0,0,1-.9-.7.76.76,0,0,1-.72-.3v6.76c0,.8-.16,1.48-1.36,1.48s-1.2-1.06-1.2-1.48v-4.66c-.32.78-.46,1.2-1.1,1.2s-1.34-.92-1.34-1.54a1.73,1.73,0,0,1,.18-.7,21.58,21.58,0,0,0,2.24-5.6h-.68c-1.06,0-1.4-.56-1.4-1.42s.5-1.28,1.4-1.28h.7v-2.18c0-.64,0-1.44,1.34-1.44s1.22,1,1.22,1.44v2.18c.56,0,1.54,0,1.54,1.36s-1,1.34-1.54,1.34Zm6.12,2.12a4.77,4.77,0,0,1-.08-.7.9.9,0,0,1-.68.3.68.68,0,0,1-.7-.56c-.42.06-2.52.36-3.2.38a1,1,0,0,1,.18.62,2.76,2.76,0,0,1,.44,0Zm-1.84-2.52a3.28,3.28,0,0,1-.16-.76.71.71,0,0,1,.78-.68c.56,0,.64.24,1,1.48,0-.48-.12-2.78-.14-3.2a30.08,30.08,0,0,1-2.62,3.22C148.22,207.83,148.32,207.81,148.6,207.81ZM154,206c-.18-.22-1.12-1.22-1.34-1.44,0,.86.1,2.36.16,3Zm.32,4.38-.1-.16c-.36-.58-.4-.64-.44-.82l-.8.08c0,.28.06.48.1.9Zm-.84,2.52a14.59,14.59,0,0,0,.34,1.44c.14-.16.74-.92.9-1.1a.94.94,0,0,1,.54-.34Z"/><path class="cls-3" d="M161.4,202.47c.5-1.22.62-1.54,1.48-1.54.7,0,1.56.34,1.56,1.1a2.21,2.21,0,0,1-.38,1c-.2.34-.44.74-.68,1.16.72,0,1.62-.08,2.32-.14a3.06,3.06,0,0,1-.48-1.3c0-.7.78-1.08,1.38-1.08s.94.28,1.9,2.1c.74,1.38.92,1.72.92,2.16a1.47,1.47,0,0,1-1.48,1.32c-.76,0-1-.5-1.22-1-2,.3-5.44.62-6.22.62a.92.92,0,0,1-.8-.32,1.76,1.76,0,0,1-.3-1c0-1.12.72-1.18,1.22-1.2C160.66,204.23,161.1,203.21,161.4,202.47Zm1.74,13.28v2.82A1.25,1.25,0,0,1,161.8,220c-1,0-1.5-.34-1.5-1.46v-8.64c0-2.08.38-2.48,2.46-2.48H166c2.06,0,2.48.38,2.48,2.48v7.54c0,2-.38,2.48-2.52,2.48a6.51,6.51,0,0,1-1.36-.1c-.56-.18-.68-.9-.68-1.3,0-1.22.72-1.24,1.14-1.24s.66,0,.66-.48v-1.08Zm0-5h2.6v-.66c0-.24-.1-.38-.38-.38h-1.84a.35.35,0,0,0-.38.38Zm2.6,1.88h-2.6v1.1h2.6Zm6.9-5.88c0,.62.3.62,1,.62a10.47,10.47,0,0,0,1.64-.08c.28-.1.32-.26.48-1.12s.25-1.32,1.33-1.32a2.37,2.37,0,0,1,1.06.26,1,1,0,0,1,.52,1c0,.32-.16,2.5-.82,3.26s-1.11.62-3.53.62c-.64,0-2.42,0-2.88,0a1.92,1.92,0,0,1-1.76-2.18v-5.34c0-.62.14-1.48,1.38-1.48s1.62.32,1.62,1.48v.68a15.23,15.23,0,0,0,2.58-1c1-.48,1.19-.58,1.52-.58A1.47,1.47,0,0,1,178,203c0,.8-.56,1.06-1.58,1.42a34.78,34.78,0,0,1-3.81,1.12Zm0,9.7c0,.64.24.64,1.48.64s1.34,0,1.46-1,.22-1.68,1.41-1.68c.16,0,1.6,0,1.6,1.2,0,.26-.18,2.78-.86,3.58-.48.54-1.18.66-3.71.66a16,16,0,0,1-3.16-.22,1.9,1.9,0,0,1-1.2-2.14v-5.84c0-.62.14-1.46,1.38-1.46,1,0,1.6.26,1.6,1.42v.82a16.15,16.15,0,0,0,2.56-1.14c1-.56,1.1-.62,1.48-.62.85,0,1.33,1,1.33,1.52s-.24.9-1.73,1.52c-1.1.48-2.34.86-3.64,1.28Z"/><path class="cls-3" d="M188.84,211.75c-.46,0-1.32,0-1.22-1.38a3.26,3.26,0,0,1-1.18.34.89.89,0,0,1-.78-.34,2.32,2.32,0,0,1,.2,1c0,.9-.38,1.1-1.7,1.54v4.6c0,2-.34,2.46-2.52,2.46a2.87,2.87,0,0,1-1.32-.14,1.7,1.7,0,0,1-.78-1.54c0-1.3.92-1.3,1.26-1.3s.6,0,.6-.5v-2.78a6.06,6.06,0,0,1-.74.1c-.84,0-1.28-.74-1.28-1.6,0-1.16.76-1.32,2-1.54v-3.42h-.54c-.42,0-1.4,0-1.4-1.42s.72-1.46,1.4-1.46h.54v-2.08c0-.36,0-1.26,1.36-1.26s1.4.78,1.4,1.26v2.08h.44c.62,0,1.18.28,1.18,1.34,0,1.3-.5,1.54-1.2,1.54h-.42V210a2.28,2.28,0,0,1,.64-.12.89.89,0,0,1,.66.26,1.73,1.73,0,0,1-.26-.9c0-.76.4-.92,1.8-1.52a15.64,15.64,0,0,0,3.12-2,2.21,2.21,0,0,1,1.48-.42c1,0,1.08.08,2.68,1.14a12.54,12.54,0,0,0,2.46,1.3c1.57.62,1.77.82,1.77,1.46,0,.26-.14,1.62-1.36,1.62a4.91,4.91,0,0,1-1.47-.5c.14,1.3-.62,1.46-1.22,1.46Zm4.38-9.5V202c0-.84.78-1,1.28-1s1.49.12,1.49,1v.3h1.29c.37,0,1.25,0,1.25,1.24s-.74,1.24-1.25,1.24H196v.36c0,.8-.73,1-1.27,1-.92,0-1.5-.2-1.5-1v-.36h-3.16v.34c0,.76-.6,1-1.26,1-.9,0-1.46-.2-1.46-1v-.34h-.9a1.08,1.08,0,0,1-1.24-1.22c0-1.22.82-1.26,1.24-1.26h.9V202c0-.82.7-1,1.24-1,.72,0,1.48.12,1.48,1v.3Zm4,15.08c0,1.86-.88,2.38-2.39,2.38h-6.38c-1.5,0-2.36-.5-2.36-2.38v-2.22c0-1.88.86-2.38,2.36-2.38h6.38c1.51,0,2.39.5,2.39,2.38Zm-3-1.82a.44.44,0,0,0-.5-.5h-4.16a.45.45,0,0,0-.5.5v1.18a.45.45,0,0,0,.5.5h4.16a.45.45,0,0,0,.5-.5Zm-.24-6.18a11.53,11.53,0,0,1-2-1.52c-.18-.2-.26-.28-.36-.28s-.16.08-.34.26a13.09,13.09,0,0,1-1.88,1.54Z"/><path class="cls-3" d="M206.8,218.23v.62c0,.54-.12,1.22-1.36,1.22-1,0-1.38-.44-1.38-1.22v-.62h-3.34a1,1,0,0,1-1.2-1.06,1,1,0,0,1,1.2-1.08h3.34v-.56H202.2c-1.68,0-2-.32-2-2v-1.22c0-1.7.32-2,2-2h1.86v-.54h-3.18c-.34,0-1.12,0-1.12-1s.54-1,1.12-1h3.2a.87.87,0,0,1,.26-.58h-3.6A1.07,1.07,0,0,1,199.5,206c0-1.08.82-1.14,1.24-1.14H204v-.6h-2.56c-.34,0-1.2,0-1.2-1s.74-1.08,1.2-1.08H204v-.3c0-.82.68-1,1.26-1,.76,0,1.52.12,1.52,1v.3h2.64a1,1,0,0,1,1.22,1c0,1-.88,1-1.22,1h-2.64v.6h4.42c0-.42,0-1.6,0-2.18,0-.9,0-1.7,1.4-1.7s1.36.66,1.4,1c0,.12,0,2.52,0,2.92h3.28a1.06,1.06,0,0,1,1.23,1.14,1,1,0,0,1-1.23,1.14h-3.26a38.45,38.45,0,0,0,.28,4.32,22.22,22.22,0,0,0,1-2.52c.26-.74.5-1,1.19-1s1.54.44,1.54,1.14a19.94,19.94,0,0,1-2.87,6.4c.08.2.42,1.06,1,1.06.31,0,.45-.46.52-.7s.25-.82.89-.82a1.16,1.16,0,0,1,1.28,1.18,5.88,5.88,0,0,1-1,2.74,2.28,2.28,0,0,1-2,1c-1.09,0-2-.58-2.69-2-.72.76-1.78,1.86-2.52,1.86a1.71,1.71,0,0,1-1.56-1.58Zm-2.74-5.94v-.7h-1.14a.31.31,0,0,0-.34.34v.36Zm0,1.14h-1.48v.34a.31.31,0,0,0,.34.34h1.14Zm5.72,2.66a1.2,1.2,0,0,1,.9.26,12.4,12.4,0,0,0,1.48-1.48,37,37,0,0,1-.86-7.72h-4.76a.79.79,0,0,1,.26.58h3c.48,0,1.14.1,1.14,1a1,1,0,0,1-1.14,1h-3v.54h1.68c1.72,0,2,.36,2,2v1.22c0,1.68-.32,2-2,2H206.8v.56Zm-3.06-3.8h1.5v-.36a.3.3,0,0,0-.34-.34h-1.16Zm0,1.14v.68h1.16a.3.3,0,0,0,.34-.34v-.34ZM217.32,202c.83.82.85,1.06.85,1.26a1.47,1.47,0,0,1-1.41,1.36c-.39,0-.44-.06-1.32-1s-.88-.94-.88-1.3a1.39,1.39,0,0,1,1.37-1.22C216.1,201.09,216.45,201.09,217.32,202Z"/><rect class="cls-7" y="240.9" width="443.48" height="38.21"/><rect class="cls-7" y="289.82" width="443.48" height="38.21"/><path class="cls-3" d="M33.68,265.71a1.94,1.94,0,0,1-2,1.76c-1.3,0-2.16-.22-2.5-2l-2.52-13a2.77,2.77,0,0,1-.06-.6c0-1,.88-1.54,1.9-1.54A1.46,1.46,0,0,1,30,251.51L31.64,262c0,.06.08.32.2.32s.2-.24.22-.34l2.06-10A1.64,1.64,0,0,1,36,250.29c1.76,0,1.94.88,2.1,1.62l2.06,10c0,.08.08.34.2.34s.2-.24.22-.32l1.67-10.46a1.5,1.5,0,0,1,1.62-1.22,1.65,1.65,0,0,1,1.8,1.5,3.47,3.47,0,0,1-.06.64l-2.52,13c-.34,1.76-1.2,2-2.39,2a2,2,0,0,1-2.16-1.76l-2.3-11.56s0-.14-.12-.14-.12.12-.12.14Z"/><path class="cls-3" d="M51.26,252.11a1.82,1.82,0,1,1-1.82-1.82A1.81,1.81,0,0,1,51.26,252.11Zm-.16,13.8c0,.94-.4,1.56-1.6,1.56s-1.74-.32-1.74-1.56v-9.76c0-.64.16-1.56,1.6-1.56,1,0,1.74.24,1.74,1.56Z"/><path class="cls-3" d="M58.14,259.45c1,0,1.54.48,1.54,1.56,0,.8-.22,1.6-1.54,1.6H54.8a1.36,1.36,0,0,1-1.56-1.56c0-.82.22-1.6,1.56-1.6Z"/><path class="cls-3" d="M71.26,257.61c1.16,0,1.52.6,1.52,1.42,0,.52-.08,1.46-1.52,1.46H65.44v5.34c0,.5-.06,1.64-1.72,1.64-1.06,0-1.78-.38-1.78-1.62V253.57c0-2.14.92-2.84,2.84-2.84h7.48a1.35,1.35,0,0,1,1.54,1.5c0,.8-.28,1.52-1.54,1.52H66.1a.59.59,0,0,0-.66.66v3.2Z"/><path class="cls-3" d="M79.76,252.11a1.82,1.82,0,1,1-1.82-1.82A1.81,1.81,0,0,1,79.76,252.11Zm-.16,13.8c0,.94-.4,1.56-1.6,1.56s-1.74-.32-1.74-1.56v-9.76c0-.64.16-1.56,1.6-1.56,1,0,1.74.24,1.74,1.56Z"/><path class="cls-3" d="M89.06,262.49a1.09,1.09,0,0,1-1.16-.62,1.39,1.39,0,0,1-.14-.84c-.46.22-.54.26-.88.4v5c0,2.28-.58,2.48-2.86,2.48-1,0-2.16,0-2.16-1.56a1.28,1.28,0,0,1,1.38-1.42c.64,0,.8,0,.8-.56v-2.82a4.45,4.45,0,0,1-1.16.26c-1,0-1.24-1.18-1.24-1.68a1.1,1.1,0,0,1,.54-1.06,7.58,7.58,0,0,1,1.86-.62v-3.26h-.9c-.7,0-1.42-.2-1.42-1.46,0-1.42,1-1.44,1.42-1.44H84v-1.9a1.28,1.28,0,0,1,1.42-1.46,1.31,1.31,0,0,1,1.42,1.46v1.9h.46a1.27,1.27,0,0,1,1.08.38,1.61,1.61,0,0,1-.2-.86c0-1.3.9-1.3,1.26-1.3h3.2v-.4c0-.84.52-1.2,1.48-1.2s1.44.48,1.44,1.2v.4H99c.4,0,1.26,0,1.26,1.32,0,.94-.5,1.3-1.16,1.3h-.46c-.2.76-.24.84-.6,2h1.36a1.3,1.3,0,0,1,0,2.6H95.08c-.2.42-.4.84-.64,1.24h5a1.29,1.29,0,0,1,.16,2.58h-.72a9.06,9.06,0,0,1-1.52,2.72c2.56,1.06,2.8,1.26,2.8,2a1.52,1.52,0,0,1-1.46,1.56,1.8,1.8,0,0,1-1-.32c-1.18-.66-1.7-.9-2.54-1.32A18,18,0,0,1,88.66,269a1.33,1.33,0,0,1-1.28-1.42c0-1.06.84-1.16,1.24-1.2a14.4,14.4,0,0,0,3.12-.56c-.52-.2-1.44-.52-1.84-.68A1.17,1.17,0,0,1,89,264c0-.38.1-.54.74-1.5Zm1.24-6.42c-.14-.76-.38-1.64-.48-2h-.44a1,1,0,0,1-.86-.34,1.66,1.66,0,0,1,.22.94c0,1.22-.68,1.46-1.4,1.46h-.46v2.3a2.43,2.43,0,0,1,1.14-.2,1.54,1.54,0,0,1-.26-.9,1.15,1.15,0,0,1,1.3-1.28Zm-1.24,2.6a2.82,2.82,0,0,1-.4,0,1.7,1.7,0,0,1,.3,1.26H91.3l.62-1.24Zm3.76,3.82c-.44.66-.5.74-.5.9s.26.3.34.32c.62.16,1.22.32,1.84.52a5.78,5.78,0,0,0,1.3-1.74Zm2.3-6.42a20.14,20.14,0,0,0,.58-2h-3c.08.26.36,1.24.5,2Z"/><path class="cls-3" d="M109.1,260.89a1.67,1.67,0,0,1-.52.08.79.79,0,0,1-.84-.58c-.2,0-.28,0-.74.1v7.24c0,.5-.06,1.24-1.2,1.24a1.06,1.06,0,0,1-1.18-1.24v-7c-.34,0-1.38.14-1.68.14a1.31,1.31,0,0,1,.12-2.62c.46-.62.5-.7,1-1.32a12.89,12.89,0,0,0-1.28-1.46c-.46-.48-1-1.08-1-1.46a1.47,1.47,0,0,1,1.36-1.42.88.88,0,0,1,.3,0c.36-.7.44-.82.64-1.28.52-1.14.68-1.46,1.3-1.46a1.36,1.36,0,0,1,1.44,1.14,13.18,13.18,0,0,1-1.62,3.16,3.92,3.92,0,0,1,.42.48c.2-.3,1.08-1.74,1.28-2.06s.44-.66.94-.66a1.42,1.42,0,0,1,1,.48c.1-1,.84-1.1,1.44-1.1h2.94V251c0-.8.46-1.1,1.52-1.1s1.3.44,1.3,1.1v.32h3.32c.78,0,1.44.26,1.44,1.26,0,1.2-1,1.24-1.44,1.24H116v.94h2.88c.52,0,1.22.12,1.22,1.16a1,1,0,0,1-1.22,1.12h-8.32c-.56,0-1.22-.12-1.22-1.14s.8-1.14,1.22-1.14h2.62v-.94h-2.94a1.43,1.43,0,0,1-1.16-.38,52.9,52.9,0,0,1-3.14,4.68l1.22-.08a4.46,4.46,0,0,1-.18-.9c0-.64.68-.82,1-.82s.6.24.76.56.4,1.12.6,1.68c.42-.7,1.12-.74,2.22-.74h6.38c2.1,0,2.48.42,2.48,2.48v.92a1.23,1.23,0,0,1-1.38,1.42c-.94,0-1.36-.52-1.36-1.42v-.76c0-.28-.14-.38-.38-.38H112c-.24,0-.4.1-.4.38v.66a1.33,1.33,0,0,1,1-.32,1.18,1.18,0,0,1,1.32,1.32,10.53,10.53,0,0,1-1,4.42c-.56,1-1.74,2.32-2.76,2.32a1.63,1.63,0,0,1-1.62-1.58c0-.58.38-.86.84-1.18,1.58-1.08,1.72-1.92,1.86-3.8a1.27,1.27,0,0,1-.9.34,1.23,1.23,0,0,1-1.26-1.4Zm-4.94,1.58a34,34,0,0,1-.26,3.7c-.14,1-.2,1.42-1,1.42-.42,0-1.16-.18-1.16-.9,0-.26.26-1.42.28-1.66a20.06,20.06,0,0,0,.22-2.54c0-.6.1-1,1-1S104.16,262.17,104.16,262.47Zm5.12.62c.06.46.18,1.58.18,2a.83.83,0,0,1-.94.94c-.84,0-.86-.42-.9-1.5,0-.36-.22-1.94-.22-2.26,0-.78.66-.82,1-.82C109,261.49,109.1,261.91,109.28,263.09Zm8.06,2.36c0,.46,0,.56.52.56s.5-.08.5-.8,0-1.42,1.12-1.42,1.2.82,1.2,1.22c0,3.62-.52,3.72-3,3.72s-3-.1-3-2.48v-4c0-.76.22-1.44,1.26-1.44.88,0,1.44.22,1.44,1.44Z"/><path class="cls-3" d="M123.78,255.17a1.68,1.68,0,0,1-.08-3.34c.84-.08,10.34-.44,14.22-.44,1.1,0,2.24,0,2.24,1.52s-1.08,1.66-2.22,1.66a8.2,8.2,0,0,0-4.22,1.26c-2.06,1.18-4.1,3.4-4.1,5.74,0,2.5,2.06,3.06,5.42,3.06h1.72a1.37,1.37,0,0,1,1.54,1.5c0,1.88-1.46,1.88-2.9,1.88a18.33,18.33,0,0,1-4.44-.54c-1.08-.28-4.66-1.2-4.66-5.52a7.5,7.5,0,0,1,2.16-5.16,10.86,10.86,0,0,1,2.62-2.14C130,254.73,124.3,255.17,123.78,255.17Zm10.92,2.12a1.21,1.21,0,0,1-.12-.44c0-.4.5-.64.8-.64s.54.22,1,1a6,6,0,0,1,.64,1.68c0,.54-.56.68-.8.68s-.36,0-.56-.42c-.08-.14-.38-.8-.44-.94S134.76,257.43,134.7,257.29Zm2.06-1a1,1,0,0,1-.08-.36c0-.4.5-.62.78-.62s.6.32,1,1a4.72,4.72,0,0,1,.66,1.66c0,.44-.46.66-.8.66-.1,0-.36,0-.58-.42-.08-.14-.38-.8-.44-.92S136.82,256.39,136.76,256.25Z"/><path class="cls-3" d="M152.92,265h6.36c.68,0,1.48.18,1.48,1.38s-.32,1.64-1.48,1.64H143.22c-.68,0-1.46-.18-1.46-1.38s.3-1.64,1.46-1.64h6.44V254H144c-.54,0-1.48-.08-1.48-1.38,0-1.14.36-1.64,1.48-1.64h14.52c.74,0,1.46.2,1.46,1.4s-.3,1.62-1.46,1.62h-5.6Z"/><path class="cls-3" d="M179.46,264a1.48,1.48,0,0,1-.52,1.18,1.9,1.9,0,0,1-1.5.46H172.7v.78c0,2.46-1.38,2.46-3.6,2.46s-2.78,0-2.78-1.36c0-1.18.78-1.18,1.48-1.18h1.7c.28,0,.28-.2.3-.7h-5.9c-.32,0-1.12,0-1.12-1s.34-1.1,1.12-1.1h5.9V263h-6.94c-.26,0-1.24,0-1.24-1s1-1,1.24-1h6.94v-.58h-6a1,1,0,1,1,0-1.9h6v-.54h-4.5c-1.36,0-1.78-.34-1.78-1.78v-.54c0-1.44.42-1.78,1.78-1.78h4.5v-.54h-6.72a1.06,1.06,0,0,1-1.24-1.06,1.07,1.07,0,0,1,1.24-1.08h6.72v-.34c0-.86.8-1,1.3-1,.92,0,1.6.16,1.6,1v.34h6.74a1.08,1.08,0,1,1,0,2.14H172.7v.54h4.5c1.32,0,1.8.4,1.8,1.78v.54c0,1.44-.42,1.78-1.8,1.78h-4.5v.54h4.74A1.89,1.89,0,0,1,179,259a1.86,1.86,0,0,1,.5,1.52v.32h.34a1.13,1.13,0,0,1,0,2.26h-.34Zm-9.66-7.76v-.76h-3.08c-.2,0-.34.1-.34.3s0,.46.34.46Zm2.9,0h3.08c.22,0,.36-.08.36-.3s0-.46-.36-.46H172.7Zm0,4.12v.68h3.86v-.32a.33.33,0,0,0-.36-.36Zm3.86,2.54H172.7v.68h3.5a.33.33,0,0,0,.36-.36Z"/><path class="cls-3" d="M183.14,252.31c0-.72.22-1.6,1.68-1.6,1.12,0,1.68.5,1.68,1.6V264c0,.26,0,.56.46.56a10.16,10.16,0,0,0,5.74-2.6,13.06,13.06,0,0,0,2.84-4.32,1.23,1.23,0,0,1,1.2-.86c.68,0,1.92.5,1.92,1.52a12.3,12.3,0,0,1-4.94,7,17.55,17.55,0,0,1-8.24,2.76c-1.8,0-2.34-.78-2.34-2Z"/><path class="cls-3" d="M203,254.37a1.53,1.53,0,1,1,0-3.06h9.72c.86,0,2.36.1,2.36,1.86,0,1.3-1.24,4.26-3.12,6.92a50.27,50.27,0,0,1,4.8,3.92c.88.8,1.22,1.2,1.22,1.9a1.89,1.89,0,0,1-1.86,1.82c-.74,0-1.1-.44-1.64-1a49.38,49.38,0,0,0-4.4-4.3c-3.4,3.62-6.7,5.5-7.76,5.5a1.73,1.73,0,0,1-1.54-1.76c0-.74.3-.9,1.62-1.62,6.4-3.48,8.8-9.38,8.8-9.88,0-.26-.3-.26-.48-.26Z"/><path class="cls-3" d="M97.25,312.93a1.48,1.48,0,0,1-.53,1.18,1.9,1.9,0,0,1-1.5.46H90.48v.78c0,2.46-1.38,2.46-3.6,2.46s-2.78,0-2.78-1.36c0-1.18.78-1.18,1.48-1.18h1.7c.28,0,.28-.2.3-.7h-5.9c-.32,0-1.12,0-1.12-1s.34-1.1,1.12-1.1h5.9v-.58H80.64c-.26,0-1.24,0-1.24-1s1-1,1.24-1h6.94v-.58h-6a1,1,0,1,1,0-1.9h6v-.54h-4.5c-1.36,0-1.78-.34-1.78-1.78v-.54c0-1.44.42-1.78,1.78-1.78h4.5v-.54H80.86a1.06,1.06,0,0,1-1.24-1.06,1.07,1.07,0,0,1,1.24-1.08h6.72v-.34c0-.86.8-1,1.3-1,.92,0,1.6.16,1.6,1v.34h6.74a1.08,1.08,0,1,1,0,2.14H90.48v.54H95c1.32,0,1.81.4,1.81,1.78v.54c0,1.44-.43,1.78-1.81,1.78h-4.5v.54h4.74a1.92,1.92,0,0,1,1.53.48,1.86,1.86,0,0,1,.5,1.52v.32h.34a1.13,1.13,0,0,1,0,2.26h-.34Zm-9.67-7.76v-.76H84.5c-.2,0-.34.1-.34.3s0,.46.34.46Zm2.9,0h3.08c.22,0,.36-.08.36-.3s0-.46-.36-.46H90.48Zm0,4.12V310h3.86v-.32a.33.33,0,0,0-.36-.36Zm3.86,2.54H90.48v.68H94a.33.33,0,0,0,.36-.36Z"/><path class="cls-3" d="M117.14,301.57c.81,0,1.45.38,1.45,1.56,0,.6-.18,1.52-1.12,1.52h-.34c-.24,3.76-.74,5.88-1.95,7.94a13.85,13.85,0,0,0,2.25,1.88c.7.46,1.08.72,1.08,1.4a2,2,0,0,1-1.71,1.92c-1,0-2.58-1.74-3.5-2.76-1.7,1.64-3.46,2.72-4.24,2.72a1.52,1.52,0,0,1-1.34-.94,2.3,2.3,0,0,1-1.92.62h-3.26c-1.48,0-2.42-.46-2.42-2.42v-4.82c0-2.34,1.38-2.44,2.62-2.44v-3H101a1.31,1.31,0,0,1-1.5-1.38c0-1.08.46-1.56,1.5-1.56h1.78v-1.58c0-.76.22-1.46,1.32-1.46s1.58.28,1.58,1.46v1.58h1.62a1.29,1.29,0,0,1,1.48,1.4c0,1.24-.62,1.54-1.48,1.54h-1.62v3a3.28,3.28,0,0,1,1.78.36,2.29,2.29,0,0,1,.8,2.08v4.62a11.68,11.68,0,0,0,3.26-2.32,16.69,16.69,0,0,1-1.62-4.44,1.37,1.37,0,0,1-1.1.62,1.79,1.79,0,0,1-1.72-1.56c0-.44.08-.58,1.18-2.24a15.81,15.81,0,0,0,2.1-5c.16-.56.32-1.14,1.34-1.14.52,0,1.56.22,1.56,1.16a7.33,7.33,0,0,1-.34,1.68ZM105.44,311a.5.5,0,0,0-.56-.56h-1.42a.49.49,0,0,0-.56.56v3.14a.5.5,0,0,0,.56.56h1.42a.5.5,0,0,0,.56-.56Zm6.46-6.34a17.89,17.89,0,0,0,1.4,5.16,14.72,14.72,0,0,0,1-5.16Z"/><path class="cls-3" d="M127.78,312.91c-1.06,1.66-2.24,2.46-3.76,2.46-2.9,0-4.14-2.94-4.14-5.92,0-6.46,4.84-9.48,9.68-9.48,5.88,0,8.63,3.7,8.63,8.38,0,7.48-6.95,8.58-8.51,8.58a1.53,1.53,0,0,1-1.6-1.64c0-1.28.9-1.42,1.56-1.52,1.68-.26,5.2-.78,5.2-5.6,0-3.44-2-5-4.12-5.18C130.3,306.37,129.2,310.71,127.78,312.91ZM123,309.47c0,1.64.62,2.46,1.24,2.46.82,0,1.4-1.26,1.84-2.46a30,30,0,0,0,1.56-6.4A6.27,6.27,0,0,0,123,309.47Z"/><path class="cls-3" d="M154.94,303.21c1.5,0,2.39.5,2.39,2.36v3.64c0,1.84-.85,2.38-2.39,2.38h-2.26v3.64c0,1.22,0,2.26-1.42,2.48-.32.06-2,.06-2.5.06-.64,0-1,0-1.32-.44a1.76,1.76,0,0,1-.3-1c0-1.36.94-1.36,1.4-1.36,1,0,1,0,1-.64v-2.7h-2.38c-1.48,0-2.36-.5-2.36-2.38v-3.64c0-1.9.9-2.36,2.36-2.36H149a10.14,10.14,0,0,0,.26-1.12h-4.92a.53.53,0,0,0-.6.6v6a27.2,27.2,0,0,1-.74,6.68c-.52,2.1-1,2.32-1.68,2.32a1.75,1.75,0,0,1-1.9-1.6A7.06,7.06,0,0,1,140,314a20.88,20.88,0,0,0,.8-5.52v-6.34c0-2.2,1-2.74,2.74-2.74H157a1.26,1.26,0,0,1,1.46,1.3c0,1-.48,1.4-1.46,1.4h-4.37c-.14.46-.22.7-.38,1.12Zm-6.68,10a7,7,0,0,1-1.16,2.36c-1.12,1.68-1.62,1.92-2.18,1.92a1.59,1.59,0,0,1-1.6-1.46c0-.38.1-.64.68-1.32a16.05,16.05,0,0,0,1.46-2.14,1.16,1.16,0,0,1,1-.7C147.78,311.87,148.26,312.69,148.26,313.21Zm-.56-6.8h6.76v-.62a.34.34,0,0,0-.38-.38h-6a.34.34,0,0,0-.38.38Zm0,2v.6a.33.33,0,0,0,.38.38h6a.33.33,0,0,0,.38-.38v-.6Zm9.31,5.14a12.61,12.61,0,0,0,1,1.44,1.65,1.65,0,0,1,.48,1.08,1.58,1.58,0,0,1-1.58,1.44c-.75,0-1.23-.44-2.21-2-1.08-1.74-1.08-2-1.08-2.22,0-.9,1.08-1.36,1.58-1.36C156,311.87,156,311.93,157,313.51Z"/><path class="cls-3" d="M177.8,314.55c0,2.16-1,2.74-2.74,2.74H163c-1.7,0-2.74-.56-2.74-2.74V302.17c0-2.16,1-2.74,2.74-2.74h12c1.78,0,2.74.6,2.74,2.74Zm-3-11.64a.6.6,0,0,0-.66-.66h-10.3a.6.6,0,0,0-.66.66v10.88a.6.6,0,0,0,.66.66h10.3a.6.6,0,0,0,.66-.66Zm-10,4.5c-.36,0-1.28,0-1.28-1.28s.56-1.4,1.28-1.4h2.76v-1.2c0-.42.08-1.24,1.4-1.24,1.16,0,1.54.46,1.54,1.24v1.2h2.76c.4,0,1.28,0,1.28,1.32s-.72,1.36-1.28,1.36H170.7a6,6,0,0,0,2.5,3.38c.78.56,1.22.88,1.22,1.62a1.62,1.62,0,0,1-1.54,1.62c-.52,0-1.08-.34-1.94-1.28a9.4,9.4,0,0,1-1.76-2.68,9.34,9.34,0,0,1-1.74,2.42c-.2.2-1.48,1.5-2.38,1.5a1.62,1.62,0,0,1-1.5-1.62c0-.6.16-.72,1.72-1.86a5.58,5.58,0,0,0,2-3.1Z"/><path class="cls-3" d="M191.88,308.53c1.5,0,2.42.5,2.42,2.46v3.22c0,.52.2.56.64.56.61,0,.74-.12.78-1s.06-1.8,1.37-1.8,1.44.94,1.44,1.46c0,4.2-1.1,4.2-3,4.2h-1.8c-2.1,0-2.52-.38-2.52-2.56V312a.51.51,0,0,0-.56-.56h-2a8.85,8.85,0,0,1-7.44,6.36,1.56,1.56,0,0,1-1.44-1.7,1.21,1.21,0,0,1,1.1-1.32,6.76,6.76,0,0,0,3.62-1.88,5,5,0,0,0,1-1.46H181.8a1.25,1.25,0,0,1-1.46-1.36c0-1.2.54-1.5,1.44-1.5a1.22,1.22,0,0,1-.58-.26,1.67,1.67,0,0,1-.46-1.16,1.27,1.27,0,0,1,1-1.22,5.08,5.08,0,0,0,2.76-1.46,2.78,2.78,0,0,0,.68-1.42h-2a.37.37,0,0,0-.42.42v.74a1.26,1.26,0,0,1-1.36,1.44c-1.14,0-1.54-.5-1.54-1.48v-1c0-2.14,1-2.66,2.66-2.66h5V300c0-.74.4-1.2,1.42-1.2s1.62.28,1.62,1.2v.44h5.05c1.66,0,2.66.54,2.66,2.66v.7c0,1-.42,1.34-1.12,1.46a4.26,4.26,0,0,1-.34,1.72c-.53.92-1.2.92-2.43.92a28.16,28.16,0,0,1-3.46-.06c-1.34-.26-1.34-1.32-1.34-2.46V303h-1.5a6.72,6.72,0,0,1-5.66,5.52h3.74c.1-1.1.16-1.86,1.46-1.86,1.66,0,1.58,1.18,1.54,1.86Zm.42-3.5c0,.36,0,.52.7.52,1.24,0,1.4,0,1.5-.54s.18-.9.78-1l0-.06v-.5a.37.37,0,0,0-.42-.42H192.3Z"/><path class="cls-3" d="M208.8,301.79c0-1.9.88-2.42,2.42-2.42h4.38c1.53,0,2.43.5,2.43,2.42v13.36a2.23,2.23,0,0,1-1.06,2.22,8.86,8.86,0,0,1-2.61.24,12,12,0,0,1-1.74-.08c-.38-.08-1-.46-1-1.5s.26-1.58,1.5-1.58c.24,0,1.32,0,1.54,0,.44,0,.46-.38.46-.78v-2.06h-3.84a8,8,0,0,1-2.22,4.84c-.14.14-1.44,1.48-2.4,1.48a1.7,1.7,0,0,1-1.6-1.66,1.08,1.08,0,0,1,.26-.78h-2.88c-1.6,0-2.44-.58-2.44-2.42V302c0-1.94.94-2.42,2.44-2.42h2.68c1.58,0,2.42.56,2.42,2.42v11a5.09,5.09,0,0,1,0,.62,7.77,7.77,0,0,0,1.24-4.6Zm-3.86,4.4v-3.4a.38.38,0,0,0-.42-.42h-1.3c-.28,0-.4.16-.4.42v3.4Zm0,2.52h-2.12v3.64a.37.37,0,0,0,.4.42h1.3a.38.38,0,0,0,.42-.42Zm6.66-4.56h3.56v-1.5a.5.5,0,0,0-.56-.54h-2.46a.48.48,0,0,0-.54.54Zm3.56,2.62H211.6v2.16h3.56Z"/><path class="cls-4" d="M233.71,206.24a10,10,0,0,1-.75,1,9.84,9.84,0,0,1,.86.83l-.89,1a12.56,12.56,0,0,0-.88-.91,7.86,7.86,0,0,1-1.41,1l-.84-.93a7.46,7.46,0,0,0,1.3-.86c-.46-.35-.59-.45-.93-.67l.79-.85,1,.7a8.62,8.62,0,0,0,.73-.88h-5.1V204h3.28v-.88h1.78V204h3.13v1.57h-3.07Zm-.5,7.22a13.3,13.3,0,0,1,.64,2.54l-1.1.29c0-.19,0-.24-.06-.45-.32.1-1.67.47-2.76.69l-.22-1.43.48,0a20.76,20.76,0,0,0,.35-2.1h-.86v5.33H228v-6.82h2.72c0-.21,0-.27.07-.83h-2.61v-4.56h1.58v3.21H234v-3.21h1.47V208a12.16,12.16,0,0,0,1.64-4.82l1.77.24a13.51,13.51,0,0,1-.53,2.34h1.12a17.89,17.89,0,0,0,.8-2.47l1.77.23c-.12.37-.53,1.58-.84,2.24h1.36v1.73h-1.36v1.87h1.12v1.6h-1.12v1.87h1.12v1.62h-1.12v1.89h1.49v1.79h-6.29v-8.24c-.11.16-.16.21-.35.45l-.58-.82v1.17H232.3c0,.14-.14.77-.16.83h3.46v5.72a1,1,0,0,1-1.07,1.1h-1.8l-.25-1.81h1.09c.38,0,.38-.25.38-.38V213h-2.1c-.3,1.3-.33,1.44-.46,1.92l1.09-.19c-.1-.45-.15-.61-.24-1Zm6.21-6h-1.29v1.87h1.29Zm0,3.47h-1.29v1.87h1.29Zm0,3.49h-1.29v1.89h1.29Z"/><path class="cls-4" d="M244.76,204.54h5.59v-1.36h2.05v1.36h6.23v1.87h-11.9v5.25c0,2-.56,5-1.79,6.65l-1.54-1.6a9.43,9.43,0,0,0,1.36-5.06Zm1.41,11.27a16.18,16.18,0,0,0,4.66-5.17h-3.78V208.8h4.64v-2.13h1.94v2.13h5.09v1.84h-4.24a16.94,16.94,0,0,0,4.47,4.83l-1.19,1.92a14.51,14.51,0,0,1-4.13-5.1v6h-1.94v-5.93a15.08,15.08,0,0,1-4.17,5.08Z"/><path class="cls-4" d="M272.7,208.05h-2v1.08h3.49v4.81h-2.91c.26.57.75,1.6,3.67,2.54l-.84,1.83a7.13,7.13,0,0,1-4.3-3.38,7.15,7.15,0,0,1-4.34,3.42l-1-1.76c1.78-.59,3.17-1.31,3.83-2.65h-2.95v-2.6l-.86,1.75a7.85,7.85,0,0,1-1.07-1.73v6.91h-1.86V212a10.7,10.7,0,0,1-1.57,3.3l-.72-2.56a12.84,12.84,0,0,0,2.18-4.87h-1.89V206h2V203.2h1.86V206h1.21v.5a9.61,9.61,0,0,0,4.05-3.31h2.24a10.1,10.1,0,0,0,4.12,3.36l-.95,1.73a15.5,15.5,0,0,1-1.41-.88Zm-5.69-.66a7.87,7.87,0,0,1-1.57,1l-.79-1.65v1.17h-1.21v.72a11,11,0,0,0,1.93,2.56v-2h3.48v-1.08H267Zm1.74,5a10.23,10.23,0,0,0,.1-1.61h-1.72v1.61Zm2.74-5.91a10.85,10.85,0,0,1-1.65-1.78,14,14,0,0,1-1.68,1.78Zm.93,5.91v-1.61H270.7a11,11,0,0,1-.08,1.61Z"/><path class="cls-4" d="M282.19,217.27a15.67,15.67,0,0,1-2.13-3.13,9.52,9.52,0,0,1-3.26,4.13l-1.33-1.71a7.22,7.22,0,0,0,3.37-5h-3.28v-1.91h3.49v-2.75h-.65a18.46,18.46,0,0,1-1.3,2.16l-1.65-1.17a11.27,11.27,0,0,0,2.26-4.8l2,.29c-.27.91-.34,1.12-.52,1.61h4.09v1.91H281v2.75h2.48v1.91h-2.64a2.19,2.19,0,0,0,0,.27,13.08,13.08,0,0,0,2.83,3.87Zm8.05.64h-6.39V204h6.39Zm-2-12h-2.53V216h2.53Z"/><path class="cls-4" d="M305.71,206.69c-.62,0-1.07-.05-1.44-.05a5.86,5.86,0,0,0-1.79.21c-2.21.65-5.06,3.07-5.06,5.55,0,1.58,1,2.75,5.89,2.75.48,0,.75,0,1,0l-.33,2.31c-3-.07-8.81-.15-8.81-4.92,0-2.85,2.48-4.78,3.91-5.7-1.62.12-5.4.4-6.84.58l-.14-2.31c1.06,0,1.6,0,3.31-.14,3.89-.26,6.95-.34,10.2-.4Zm-3.28,1.71a14.26,14.26,0,0,1,1.79,3l-1.31.77a13.05,13.05,0,0,0-1.71-3.06Zm2.26-1a14.23,14.23,0,0,1,1.82,3l-1.31.73a13.24,13.24,0,0,0-1.74-3Z"/><path class="cls-4" d="M307.5,204.2h2.77v-1H312v1h2.7v1.72H312v.78h2.51v6.5H312v.88h2.89v1.81H312v2.37h-1.7v-2.37h-2.93v-1.81h2.93v-.88h-2.5v-6.5h2.5v-.78H307.5Zm1.7,3.94v1.17h1.13v-1.17Zm0,2.4v1.17h1.13v-1.17Zm2.7-2.4v1.17H313v-1.17Zm0,2.4v1.17H313v-1.17Zm6.64-.24a41.24,41.24,0,0,1-1.05,5.41c.41-.05,1.47-.16,2.62-.35a24.57,24.57,0,0,0-.89-3.1l1.66-.44a24.4,24.4,0,0,1,1.62,5.93l-1.86.54a12,12,0,0,0-.16-1.26c-.18,0-3.66.64-5.65.81l-.4-1.89c.62,0,.91,0,1.2-.08a42,42,0,0,0,1-5.57h-1.86v-1.92h7.68v1.92Zm3.54-6.22v1.85h-6.67v-1.85Z"/><path class="cls-4" d="M326.72,208.19c.24,0,.32,0,.85,0a16,16,0,0,0,.68-2.66h-1.08V204a22.46,22.46,0,0,1-.87,3.46v10.82h-1.9V211c-.26.32-.36.44-.61.72l-.67-2.61a10.68,10.68,0,0,0,2.17-5.95l2,.18s-.05.35-.06.41H333v1.78h-2.93c-.34,1.15-.87,2.53-.91,2.64s1.5-.05,2-.1a8.24,8.24,0,0,0-.56-1.32l1.38-.48a15.61,15.61,0,0,1,1.39,3.44v-5.54h1.71v10.75h-1.71v-5.13l-1.57.59c-.06-.27-.09-.45-.16-.72-.24,0-.38,0-.85.08v1.82h2v1.76h-2v2.23c.92-.07,1.59-.16,2.31-.26l.06,1.72a62.33,62.33,0,0,1-6.24.56l-.22-1.8,2.33-.09v-2.36h-2v-1.76h2v-1.69l-2.14.09Zm9.34-4.93h1.88v13.27c0,.86-.05,1.78-1.52,1.78h-2.15l-.38-1.89h1.63c.42,0,.54,0,.54-.55Z"/><path class="cls-4" d="M344.61,205.58h-4.07v-1.84h12.71v1.9a19.14,19.14,0,0,1-4.55,2.44,4.36,4.36,0,0,1,.61.53l-.43.33h5.57v1.89a19,19,0,0,1-3.83,4l-1.5-1.55a12.91,12.91,0,0,0,2.69-2.5H348v5.43c0,1.68-.32,2.05-2.08,2.05h-2.85l-.45-2.07h2.69c.62,0,.64-.14.64-.67v-4.74h-6.56v-1.89h7.22a25.31,25.31,0,0,0-3.35-2.16Zm.44,0c.28.16,1,.56,2.07,1.3a11.51,11.51,0,0,0,2.72-1.3Z"/><path class="cls-4" d="M355.76,203.66h5.52v1.81c-.61,1.58-.93,2.4-1.46,3.49a5.35,5.35,0,0,1,1.54,3.74c0,1.68-.88,2.48-2.11,2.48h-1.14l-.32-1.9h1c.5,0,.62-.48.62-1a4.21,4.21,0,0,0-1.47-3.11,32,32,0,0,0,1.43-3.74h-1.69v12.82h-1.88ZM365,209.1h4.87c0,1.91-.08,6.16-.59,7.81a2,2,0,0,1-2.31,1.38h-2l-.49-1.95h2.11a.8.8,0,0,0,.77-.37c.4-.71.52-4.07.52-5.07H365a9.69,9.69,0,0,1-3.89,7.53l-1.49-1.6a7.74,7.74,0,0,0,3.47-6.94v-2.77h-1.64v-1.89h3.07v-2h2v2h4v1.89H365Z"/><path class="cls-4" d="M227.69,264.81a9.25,9.25,0,0,0,4.82-7.22h-4.16v-2h4.4c.06-1,.1-1.6.08-2.77l2.23,0c-.05,1.12-.08,1.65-.18,2.73h5.78v2.6c0,1.71-.1,5.23-.66,6.62a2.8,2.8,0,0,1-2.93,1.56,14.64,14.64,0,0,1-2.41-.2l-.12-2.14a14.15,14.15,0,0,0,2.24.22c1.06,0,1.25-.32,1.4-.91a29.87,29.87,0,0,0,.35-4.64v-1.09h-3.86c-.82,5.35-3.65,7.67-5.52,8.85Z"/><path class="cls-4" d="M248.35,257.88a19.33,19.33,0,0,0-5-2.39l1-1.84a21.91,21.91,0,0,1,5.14,2.26Zm-4.66,6c4.76-.38,9.2-2,11.25-9.47l1.88,1.31c-1.91,5.9-5.21,9.67-12.65,10.48Z"/><path class="cls-4" d="M258.28,258.25a9.94,9.94,0,0,0,4.17-4.74h8.8c-.24,2.48-1,10.6-10.85,13.09l-1.09-1.93a13.05,13.05,0,0,0,6.58-3.46,23,23,0,0,0-4.34-2.8,10.71,10.71,0,0,1-1.87,1.45Zm5.59-2.79a15.45,15.45,0,0,1-1.09,1.57,19.28,19.28,0,0,1,4.37,2.61,11,11,0,0,0,1.54-4.18Z"/><path class="cls-4" d="M278.8,257.88a19.33,19.33,0,0,0-5-2.39l1-1.84a22.09,22.09,0,0,1,5.14,2.26Zm-4.66,6c4.75-.38,9.2-2,11.25-9.47l1.88,1.31c-1.91,5.9-5.21,9.67-12.65,10.48Z"/><path class="cls-4" d="M292.06,253.19a33.61,33.61,0,0,0-.67,7.35,28.31,28.31,0,0,0,.45,5.68l-2.24.16a30.29,30.29,0,0,1-.39-5.49,43.7,43.7,0,0,1,.6-7.86Zm4.1,7a3.4,3.4,0,0,0-.77,1.94c0,1.18,1.36,1.34,2.88,1.34a36.27,36.27,0,0,0,3.76-.19v2.19a26,26,0,0,1-3,.15c-2.94,0-5.62-.37-5.62-3.19a5.36,5.36,0,0,1,.84-2.77Zm5.57-5.95v2.08H293.9V254.2Z"/><path class="cls-4" d="M308.4,265.51a19.75,19.75,0,0,0,4.61-1.42c-.21-.22-.91-1-1.46-1.47a10.5,10.5,0,0,1-1.68.81l-1-1.36-.18.35a12.56,12.56,0,0,1-.9-1.42v6.18h-1.84v-6a14.88,14.88,0,0,1-1.95,3.35l-.67-2.53a12.18,12.18,0,0,0,2.45-4.05h-2.2v-1.84h2.37v-1.63c-1.07.06-1.55.08-2.09.09l-.28-1.82a21.71,21.71,0,0,0,5.49-.56l.68,1.68a10.86,10.86,0,0,1-2,.43v1.81h1.76V258h-1.76v.3a10,10,0,0,0,1.86,2.26l-.74,1.44a13.7,13.7,0,0,0,5.17-3.54A13.34,13.34,0,0,1,310,260l-.91-1.75a13.33,13.33,0,0,0,3.44-1,13.51,13.51,0,0,0-1.45-1.38c-.29.19-.52.32-.93.55l-1.2-1.48a8.4,8.4,0,0,0,3.61-2.86l2,.21a7.39,7.39,0,0,1-.53.8h4v1.61a10.73,10.73,0,0,1-3.76,3.62l1.58.53a10.08,10.08,0,0,1-.7.9h3.5v1.64c-1.87,3.53-5.95,5.09-9.39,5.83Zm4.14-10.82-.22.2a14.44,14.44,0,0,1,1.81,1.47,7.61,7.61,0,0,0,1.79-1.67Zm.79,6.71-.45.34a14.76,14.76,0,0,1,1.73,1.48,6.58,6.58,0,0,0,1.94-1.82Z"/><path class="cls-4" d="M325.87,254.87v1.62h-6.26v-1.62Zm-.54-2.27v1.55h-5.25V252.6Zm0,4.62v1.59h-5.25v-1.59Zm0,2.34v1.58h-5.25v-1.58Zm0,2.4v5h-5.25v-5Zm-1.64,1.49h-1.85v1.92h1.85Zm8.6-10.85v3.25c0,.14,0,.33.3.33h.28c.27,0,.3-.24.32-.38a16,16,0,0,0,.11-1.7l1.63.4c-.1,2.32-.24,3.57-1.65,3.57h-1.61c-1.06,0-1.19-.72-1.19-1.06v-2.57h-1.73a5.25,5.25,0,0,1-1.85,4.08l-1.48-1.41c1.12-.72,1.56-2.05,1.56-3.76a7.37,7.37,0,0,0,0-.75Zm1.84,14.59a14.45,14.45,0,0,1-4.05-1.74,10.32,10.32,0,0,1-3.76,1.73l-.88-1.91a8.74,8.74,0,0,0,3-1,8.25,8.25,0,0,1-2-2.48L328,261a6.4,6.4,0,0,0,1.94,2.21,6.65,6.65,0,0,0,1.82-2.37H326V259h7.85v1.87a11.28,11.28,0,0,1-2.27,3.35,15.86,15.86,0,0,0,3.37,1.09Z"/><path class="cls-4" d="M234.53,303.85v1.64h-6.92v-1.64Zm-.53-2.3v1.57h-5.88v-1.57Zm0,4.66v1.57h-5.88v-1.57Zm0,2.33v1.59h-5.88v-1.59Zm0,2.39v4.93h-5.88v-4.93Zm-1.79,1.54H230v1.85h2.24Zm9.87-3.75h-4.93v4.64c0,.5,0,.67.61.67h2.16c.43,0,.56-.22.67-.59a13,13,0,0,0,.2-2.08l1.9.5a12,12,0,0,1-.4,3.09,1.64,1.64,0,0,1-1.58,1h-3.77c-1.15,0-1.76-.45-1.76-1.6v-7.46h4.92v-3.4H235v-1.9h7Z"/><path class="cls-4" d="M249.5,314.66a56,56,0,0,1-5.78,1.34l-.28-2c.64-.08,1.31-.16,2.61-.43v-4h-2.44v-1.73h2.44V306.7h-1.37v-.88c-.27.24-.48.4-.83.68l-.59-2.1a7.71,7.71,0,0,0,2.79-3.35h2a6.57,6.57,0,0,0,2.38,2.39l-1.1,1.77-.07,0v1.52h-1.49v1.17h2.07v-1.42h5.92v-.95h-5V304h5v-.93h-5.22v-1.58h7.14v4.93h1v1.61h-3.56v1.06a10.06,10.06,0,0,0,3.86,4.74l-1.14,1.82a11.09,11.09,0,0,1-2.72-3.36v2.47a1.21,1.21,0,0,1-1.21,1.36h-2.08l-.39-1.89c-.66.46-1.1.77-1.68,1.12Zm-4.4-4.37a18.59,18.59,0,0,1,.46,2.7l-1.5.32a15.18,15.18,0,0,0-.4-2.75Zm4-5.28a10.78,10.78,0,0,1-1.94-2.26,18.5,18.5,0,0,1-1.65,2.26Zm3.89,8a14.39,14.39,0,0,1-1.42,1.18h1.39c.33,0,.45-.06.45-.4v-5.75H249.9v1.54h-2.13v3.6c.9-.21,1.48-.37,2-.54l0,.51a20.3,20.3,0,0,0,2.48-1.81Zm-3-2.61a14.29,14.29,0,0,1-.49,2.06l-1.27-.21a12.73,12.73,0,0,0,.37-2.19Zm1.7-2a7.17,7.17,0,0,1,1.12,2.15l-1.58.86a9.37,9.37,0,0,0-1.13-2.29Zm6.88.74a8.28,8.28,0,0,1-1.47,2.13l-1.31-1.07a7.37,7.37,0,0,0,1.29-2Z"/><path class="cls-4" d="M265.07,316.16a11.64,11.64,0,0,1,0-15.17h1.78a11.94,11.94,0,0,0,0,15.17Z"/><path class="cls-4" d="M273.5,314.66a56,56,0,0,1-5.78,1.34l-.28-2c.64-.08,1.31-.16,2.61-.43v-4h-2.44v-1.73h2.44V306.7h-1.37v-.88c-.27.24-.48.4-.83.68l-.59-2.1a7.71,7.71,0,0,0,2.79-3.35h2a6.57,6.57,0,0,0,2.38,2.39l-1.1,1.77-.07,0v1.52h-1.49v1.17h2.07v-1.42h5.92v-.95h-5V304h5v-.93h-5.22v-1.58h7.14v4.93h1v1.61h-3.56v1.06a10.06,10.06,0,0,0,3.86,4.74l-1.14,1.82a11.09,11.09,0,0,1-2.72-3.36v2.47a1.21,1.21,0,0,1-1.21,1.36h-2.08l-.39-1.89c-.66.46-1.1.77-1.68,1.12Zm-4.4-4.37a18.59,18.59,0,0,1,.46,2.7l-1.5.32a15.18,15.18,0,0,0-.4-2.75Zm4-5.28a10.78,10.78,0,0,1-1.94-2.26,18.5,18.5,0,0,1-1.65,2.26Zm3.89,8a14.39,14.39,0,0,1-1.42,1.18h1.39c.33,0,.45-.06.45-.4v-5.75H273.9v1.54h-2.13v3.6c.9-.21,1.48-.37,2-.54l0,.51a20.3,20.3,0,0,0,2.48-1.81Zm-3-2.61a14.29,14.29,0,0,1-.49,2.06l-1.27-.21a12.73,12.73,0,0,0,.37-2.19Zm1.7-2a7.17,7.17,0,0,1,1.12,2.15l-1.58.86a9.37,9.37,0,0,0-1.13-2.29Zm6.88.74a8.28,8.28,0,0,1-1.47,2.13l-1.31-1.07a7.37,7.37,0,0,0,1.29-2Z"/><path class="cls-4" d="M298.69,303.34H292v1.19h3.32v8.37H287v-8.37h3.3v-1.19h-6.73v-1.81h15.13Zm-12.61.93v9.67h10.11v-9.67h1.91V315.7H284.2V304.27Zm4.21,1.84h-1.6v1.78h1.6Zm0,3.28h-1.6v1.92h1.6Zm3.34-3.28H292v1.78h1.62Zm0,3.28H292v1.92h1.62Z"/><path class="cls-4" d="M299.45,316.16a11.94,11.94,0,0,0,0-15.17h1.76a11.58,11.58,0,0,1,0,15.17Z"/><path class="cls-4" d="M307.9,314.23a25.61,25.61,0,0,0,2.66-7.77l-2.36,0v-2h2.68c.11-.81.17-1.39.27-2.85l2.21.18c-.1.75-.21,1.66-.35,2.67h1.28c2.3,0,3.29,1,3.29,4.4,0,5.83-1.82,6.42-3.44,6.42a7.94,7.94,0,0,1-1.74-.19l-.1-2.06a7.49,7.49,0,0,0,1.41.2c.8,0,1.26-.4,1.51-1.31a15.11,15.11,0,0,0,.38-3.42c0-1.12,0-2.08-1.52-2.07l-1.43,0a33.32,33.32,0,0,1-2.78,8.86ZM319.31,311c-.25-4.19-1.76-5.86-2.3-6.47l1.42-1a12.24,12.24,0,0,1,3,7.19Zm.24-9.41a13.66,13.66,0,0,1,1.91,2.85l-1.07.76a12.53,12.53,0,0,0-1.85-2.89Zm1.78-1.12a13.7,13.7,0,0,1,1.92,2.85l-1.07.76a13,13,0,0,0-1.86-2.89Z"/><path class="cls-4" d="M323.31,308.53a10.88,10.88,0,0,0,1.57-5.14h-1.3V301.5h6.27v1.89h-3.18c-.07.53-.11,1-.26,1.78h2.85c-.22,5.62-1.61,9-4.51,11l-1.35-1.53a8.72,8.72,0,0,0,3.16-3.84,10.94,10.94,0,0,0-1.65-1.11c-.21.38-.29.51-.48.8Zm2.7-1.6c-.08.25-.16.54-.37,1.12a12.38,12.38,0,0,1,1.48.85,18.77,18.77,0,0,0,.29-2Zm2.8,7.28a17.55,17.55,0,0,0,4.45-1.65,16.49,16.49,0,0,1-.59-2l-3.18.26-.08-1.75,2.94-.24c0-.18-.06-.38-.14-1L330,308l-.08-1.66,2.13-.16c0-.15-.06-.84-.08-1l-2.45.21-.09-1.74,2.41-.2c0-.78-.06-1.52-.06-2.43h2c0,.56,0,1.51,0,2.26l2.34-.19a9.58,9.58,0,0,0-1.5-1.36l1.28-.93a7.51,7.51,0,0,1,1.77,1.52l-1,.72,1.67-.13.06,1.73-4.55.38c0,.27,0,.56.08,1l4.1-.33.11,1.65-4.05.32.13,1,4.29-.34.08,1.71-1.79.15,1.18.57a9.73,9.73,0,0,1-2.33,2.42c.11.19.49.77.8.77s1-.93,1.34-1.79l1.11,1.42c-1.12,2.4-2,2.43-2.5,2.43s-1.41-.25-2.37-1.74a18.47,18.47,0,0,1-4.37,1.78Zm5.8-3.84c0,.14.13.56.3,1.09a6.21,6.21,0,0,0,1.22-1.22Z"/><path class="cls-4" d="M350.66,303.66c-.87.59-2.57,1.92-3.83,2.92a8,8,0,0,1,2-.32c1.91,0,4.37,1.05,4.37,4.2s-2.48,4.93-5.9,4.93c-3,0-4.29-1.37-4.29-2.8a2.7,2.7,0,0,1,3-2.49,4.07,4.07,0,0,1,3.86,2.77,2.73,2.73,0,0,0,1.28-2.34c0-1.47-1-2.55-3.14-2.55-2.48,0-4.31,1.35-6.74,3.65l-1.2-1.79c.66-.48,3.46-2.62,7.12-5.84-1.71.11-3.34.19-5.38.22v-2.06c3.51,0,5.06,0,8.86-.16ZM346,311.75c-.66,0-1.06.41-1.06.75,0,.75.9,1.23,2.25,1.23a4.53,4.53,0,0,0,1-.11A2.32,2.32,0,0,0,346,311.75Z"/><path class="cls-4" d="M362.49,313.23c2-.19,5-1,5-4.85,0-2.49-1.35-4.09-3.86-4.27-.27,4.37-1.62,9.89-4.91,9.89-2,0-3.17-2.29-3.17-4.69,0-4.61,3.46-7.22,7.5-7.22,4.77,0,6.7,3.11,6.7,6.39a6.67,6.67,0,0,1-2.21,5.22,8.09,8.09,0,0,1-4.36,1.58Zm-4.88-3.87c0,.75.24,2.34,1.2,2.34s2.26-1.68,2.76-7.48A5,5,0,0,0,357.61,309.36Z"/><path class="cls-4" d="M385.31,304.53c-.62,0-1.07,0-1.44,0a5.86,5.86,0,0,0-1.79.21c-2.21.65-5.06,3.07-5.06,5.55,0,1.59,1,2.75,5.89,2.75.48,0,.76,0,1,0l-.33,2.31c-3-.07-8.81-.15-8.81-4.92,0-2.85,2.49-4.78,3.91-5.7-1.62.12-5.39.4-6.83.58l-.15-2.3c1.06,0,1.6,0,3.31-.15,3.89-.25,6.95-.33,10.2-.4ZM382,306.24a15,15,0,0,1,1.8,3l-1.32.77A13.05,13.05,0,0,0,380.8,307Zm2.26-1a14.49,14.49,0,0,1,1.82,3l-1.31.73a13.24,13.24,0,0,0-1.74-3Z"/><path class="cls-4" d="M394.45,305a17.32,17.32,0,0,1-.77,1.79H402v1.95h-2.67a9.38,9.38,0,0,1-2,3.62,32.81,32.81,0,0,1,4.17,1.89l-1.32,1.89a32,32,0,0,0-4.61-2.27,17.55,17.55,0,0,1-7.62,2.29l-.69-2.12a15.81,15.81,0,0,0,5.89-1.09c-.87-.3-2.19-.76-4.88-1.47a23.47,23.47,0,0,0,2-2.74H387v-1.95h4.35a17,17,0,0,0,.87-2.08Zm-7.08-2.58h6.09V301h2.09v1.36h6.1v3.76h-2v-1.89H389.41v1.89h-2Zm5.3,6.32a14.7,14.7,0,0,1-1.12,1.73c1.28.39,2.71.8,3.79,1.17a7.37,7.37,0,0,0,1.86-2.9Z"/><path class="cls-4" d="M406.14,306.37c-.35,4.83-1.17,6.62-1.57,7.52l-1.81-1.44a17.34,17.34,0,0,0,1.38-6.29Zm1.07-5.33a27,27,0,0,1,6.69,1.9l-.89,2a22.3,22.3,0,0,0-6.48-2.11Zm.08,4.43h2.09v7.94c0,.18,0,.46.41.46H412a.61.61,0,0,0,.58-.32,15.72,15.72,0,0,0,.37-2.7l2,.69c-.41,3.9-1.1,4.32-2.35,4.32h-3.71c-1,0-1.56-.39-1.56-1.62Zm8.52,0a30.09,30.09,0,0,1,2.45,7.86l-2.18.58a29.42,29.42,0,0,0-2.18-7.72Z"/></g></g></svg>