<svg xmlns="http://www.w3.org/2000/svg" viewBox="0 0 420 200"><defs><style>.cls-1{fill:#00d7ff;}.cls-2{fill:#fff;}</style></defs><g id="レイヤー_2" data-name="レイヤー 2"><g id="レイヤー_1-2" data-name="レイヤー 1"><rect class="cls-1" width="200" height="90" rx="18.97"/><path class="cls-2" d="M80.16,26.75A10.84,10.84,0,0,0,80.05,25H82.3a11.73,11.73,0,0,0-.11,1.78v3.94h3.86V27.76A11.76,11.76,0,0,0,86,26.33h2.16a9.42,9.42,0,0,0-.09,1.57v3.58a9.3,9.3,0,0,0,0,1.16c-.4,0-.83-.06-1.26-.06H82.19v5.91h4.45v-3A9.83,9.83,0,0,0,86.55,34h2.18a15.33,15.33,0,0,0-.09,1.71v3.89a11.66,11.66,0,0,0,.11,1.8H86.64v-.94H75.93v.94H73.82a13.35,13.35,0,0,0,.11-1.8V35.75A16,16,0,0,0,73.84,34H76a9.11,9.11,0,0,0-.09,1.55v2.92h4.23V32.58H75.84c-.49,0-.87,0-1.3.06a11,11,0,0,0,.06-1.16V27.92a10.34,10.34,0,0,0-.09-1.59h2.16a9.59,9.59,0,0,0-.08,1.44v2.92h3.57Z"/><path class="cls-2" d="M95.71,27.67c-.49,0-1,0-1.73.09V25.6a11.19,11.19,0,0,0,1.69.09h2.87a10.09,10.09,0,0,0,1.64-.09,7.59,7.59,0,0,0-.06,1.13,13.93,13.93,0,0,0,1.93,7.13,14.56,14.56,0,0,0,2.88,3.46,13.23,13.23,0,0,0,2.66,1.94,8,8,0,0,0-1.53,2,18.16,18.16,0,0,1-4.37-4.23,14.17,14.17,0,0,1-1.59-2.67,11.58,11.58,0,0,1-.91-2.56,15,15,0,0,1-2.58,5.44,17.77,17.77,0,0,1-4.46,4.07,5.15,5.15,0,0,0-1.48-1.89,14.27,14.27,0,0,0,3.62-2.83,13.4,13.4,0,0,0,3.08-5.33A14.14,14.14,0,0,0,98,27.67Z"/><path class="cls-2" d="M109.64,40.85a15.71,15.71,0,0,0,.13-2.29V28.22c0-.79,0-1.35-.09-2a14.63,14.63,0,0,0,2,.09h10.17a15.11,15.11,0,0,0,2-.09,14.48,14.48,0,0,0-.09,2V38.56a21,21,0,0,0,.1,2.29h-2.25V39.53h-9.72v1.32Zm2.27-3.37h9.72V28.37h-9.72Z"/><path class="cls-2" d="M133,25.47a3.77,3.77,0,0,0-.15.56c0,.23-.05.32-.1.61s-.06.38-.31,1.73c-.07.39-.07.43-.13.66.53,0,.78-.05,1.12-.05a3.43,3.43,0,0,1,2.66,1c.62.68.85,1.54.85,3.18,0,3.1-.52,5.57-1.39,6.56a2.27,2.27,0,0,1-2,.81,8.77,8.77,0,0,1-2.78-.53c0-.36,0-.61,0-.79a7,7,0,0,0-.18-1.53,7.48,7.48,0,0,0,2.63.7c.52,0,.81-.34,1.08-1.22a16,16,0,0,0,.47-4.11c0-1.65-.42-2.14-1.84-2.14a9.76,9.76,0,0,0-1,.06,39.85,39.85,0,0,1-1.1,3.9,38.82,38.82,0,0,1-2.16,5.06l-.27.54c-.06.11-.06.13-.15.31l-2.09-1.15a20.19,20.19,0,0,0,1.88-3.39,30.9,30.9,0,0,0,1.74-5.09,30.43,30.43,0,0,0-3.22.57l-.22-2.12c.67,0,2.85-.22,3.84-.36a28.86,28.86,0,0,0,.47-3.64v-.34Zm6,2.3a17.56,17.56,0,0,1,3.71,7l-2.06,1a15.88,15.88,0,0,0-1.44-4.09,11.44,11.44,0,0,0-2.07-3.08Z"/><path class="cls-2" d="M147.93,28.84a37.06,37.06,0,0,0-.81,4.43c0,.25,0,.25-.09.52l0,0a8.55,8.55,0,0,1,5.45-1.71c3.06,0,5.08,1.52,5.08,3.82a4.37,4.37,0,0,1-1.86,3.48A7.81,7.81,0,0,1,151,40.63,16.68,16.68,0,0,1,146.4,40a8.21,8.21,0,0,0-.27-2.32,14.55,14.55,0,0,0,4.84.9c2.54,0,4.31-1.06,4.31-2.59,0-1.21-1.14-1.93-3.05-1.93a8.18,8.18,0,0,0-4.48,1.31,3.82,3.82,0,0,0-.81.78l-2.27-.07c.05-.33.05-.4.14-1.09.15-1.11.44-3.11.76-5.23a8.16,8.16,0,0,0,.11-1.05Zm.23-3.53a27.33,27.33,0,0,0,6.72,2l-.74,2.07a33.18,33.18,0,0,1-7-2.25Z"/><path class="cls-2" d="M80.72,58.8c-1,2.33-2.18,3.39-3.66,3.39-2,0-3.53-2.09-3.53-5a7.79,7.79,0,0,1,2-5.24,8.13,8.13,0,0,1,6.2-2.52c4.32,0,7.13,2.63,7.13,6.68a6.94,6.94,0,0,1-4.38,6.72,11.41,11.41,0,0,1-2.82.75,5.86,5.86,0,0,0-1.1-2.1,9.81,9.81,0,0,0,3.58-1,5,5,0,0,0,2.5-4.5,4.46,4.46,0,0,0-2.21-4,3.86,3.86,0,0,0-1.82-.54A25.87,25.87,0,0,1,80.72,58.8Zm-2.65-6.44a6,6,0,0,0-2.45,4.86c0,1.48.63,2.65,1.42,2.65.6,0,1.21-.76,1.86-2.31a23.65,23.65,0,0,0,1.49-6.08A4.55,4.55,0,0,0,78.07,52.36Z"/><path class="cls-2" d="M94.11,62.46c0,.81,0,1.4.09,2.09H92.13a15.38,15.38,0,0,0,.11-2.11V57.13c0-.61,0-1,.05-1.94A10.76,10.76,0,0,1,91,57.06a9.58,9.58,0,0,0-.81-2.14A14.84,14.84,0,0,0,93,50.07a10.92,10.92,0,0,0,.61-2.41l2,.59c-.07.22-.16.53-.31,1a22.23,22.23,0,0,1-1.15,3Zm11.52-3.78c-.12.12-.47.5-.93,1a12.64,12.64,0,0,1-2.11,1.86,18.66,18.66,0,0,0,4.84,1,8.74,8.74,0,0,0-.83,1.91,19,19,0,0,1-5.77-1.8,20.09,20.09,0,0,1-5.32,1.83,6,6,0,0,0-.88-1.83A19.92,19.92,0,0,0,99.1,61.6,16.21,16.21,0,0,1,97,59.72l1.42-.52h-1a9.17,9.17,0,0,0-1.31.07v-.74H94.9A7.47,7.47,0,0,0,95,57.38v-1.2a9.76,9.76,0,0,0,0-1.08,14.41,14.41,0,0,0,1.67.07h8.66A15.58,15.58,0,0,0,107,55.1a9.18,9.18,0,0,0-.06,1.15v1.06a7.08,7.08,0,0,0,.08,1.15h-1.62Zm-1.74-8.75H97.53c-.61,0-1.06,0-1.44,0V48.31a9.33,9.33,0,0,0,1.51.09h6.72a12.06,12.06,0,0,0,1.49-.07c0,.43,0,.84,0,1.4V53.1c0,.7,0,1,0,1.35-.45,0-.81,0-1.6,0h-7a9.45,9.45,0,0,0-1.26.07V52.92a7.58,7.58,0,0,0,1.26.07h6.65v-.87h-6a13.77,13.77,0,0,0-1.42.06V50.67c.43,0,.74,0,1.42,0h6Zm-7.06,7.74c.29,0,.47,0,.79,0h5.58a11.29,11.29,0,0,0,1.44-.07l.47.52V56.75H96.83Zm2,1.53a8.35,8.35,0,0,0,2.07,1.55,8.73,8.73,0,0,0,2-1.55Z"/><path class="cls-2" d="M113.53,50.67c-.49,0-1,0-1.73.09V48.6a11.34,11.34,0,0,0,1.7.09h2.86A10.09,10.09,0,0,0,118,48.6a7.59,7.59,0,0,0-.06,1.13,13.93,13.93,0,0,0,1.93,7.13,14.56,14.56,0,0,0,2.88,3.46,13,13,0,0,0,2.67,1.94,7.77,7.77,0,0,0-1.54,2,18.16,18.16,0,0,1-4.37-4.23,14.17,14.17,0,0,1-1.59-2.67,11.58,11.58,0,0,1-.91-2.56,15,15,0,0,1-2.58,5.44A17.77,17.77,0,0,1,110,64.35a5.15,5.15,0,0,0-1.48-1.89,14.27,14.27,0,0,0,3.62-2.83,13.4,13.4,0,0,0,3.08-5.33,14.14,14.14,0,0,0,.59-3.63Z"/><rect class="cls-1" x="220" width="200" height="90" rx="18.97"/><path class="cls-2" d="M293.3,49.67a9.27,9.27,0,0,0,2.07-3.89l1.73.74A13,13,0,0,1,294.92,51Zm13.63-4.09c-.36-.43-.49-.61-.85-1-3.11.36-6.77.62-10.48.74-.21,0-.52,0-1,.07l-.27-2c.45,0,.74,0,1.39,0l1.8,0a16.77,16.77,0,0,0,2.16-3.24l2.07.5a25.74,25.74,0,0,1-2,2.69c2-.06,4-.15,4.93-.24-.41-.38-.68-.59-1.4-1.17l1.22-.72c-2,0-2.41-.23-2.41-1.17V38h-1.3a3.41,3.41,0,0,1-1.11,2,9.45,9.45,0,0,1-4.43,2.23,6.07,6.07,0,0,0-1-1.57,9.37,9.37,0,0,0,3.64-1.29,2.47,2.47,0,0,0,1-1.32h-3.26v2.11h-2a10.16,10.16,0,0,0,.07-1.39V37.53a9.74,9.74,0,0,0-.07-1.31c.56.05,1.11.07,2,.07h4.82V36a5.36,5.36,0,0,0-.1-1.14h2.16a6.19,6.19,0,0,0-.09,1.14v.32h5.16c.87,0,1.43,0,2-.07a8.9,8.9,0,0,0-.07,1.31v1.16c0,.64,0,1.13.07,1.44h-1.4c-.31.91-.77,1.09-3.06,1.11a25.78,25.78,0,0,1,3.87,3.59l-1.51,1.08A22.73,22.73,0,0,1,310,49.65l-1.69,1.17a20.23,20.23,0,0,0-2.85-4.43Zm-7.1.22a7.92,7.92,0,0,0-.07,1.22v1.87c0,.4.06.49.33.56a4.38,4.38,0,0,0,1.19.09c2.17,0,2.7,0,3-.27s.27-.75.29-1.74a8.23,8.23,0,0,0,1.87.54c-.2,1.92-.4,2.48-1,2.82s-1.33.4-4.1.4-3.39-.32-3.39-1.66V47.22a7.69,7.69,0,0,0-.09-1.42Zm2.69,2.73a9.84,9.84,0,0,0-2-2.55l1.59-.87a11,11,0,0,1,2.05,2.34Zm1.37-9.14c0,.21.05.27.28.3a9.52,9.52,0,0,0,1.36.06c.86,0,.91-.07,1-1.1a6.17,6.17,0,0,0,1,.27V38h-3.65Z"/><path class="cls-2" d="M318.05,35.57a3.81,3.81,0,0,0-.14.56c0,.23-.06.32-.11.61s-.05.38-.31,1.73c-.07.4-.07.43-.12.67.52,0,.77-.06,1.11-.06a3.51,3.51,0,0,1,2.67,1c.61.68.85,1.54.85,3.18,0,3.1-.53,5.57-1.39,6.56a2.31,2.31,0,0,1-2,.81,8.9,8.9,0,0,1-2.77-.52c0-.37,0-.62,0-.8a6.41,6.41,0,0,0-.18-1.53,7.53,7.53,0,0,0,2.63.7c.52,0,.81-.34,1.08-1.22a15.88,15.88,0,0,0,.47-4.1c0-1.66-.41-2.15-1.84-2.15a9.76,9.76,0,0,0-1,.06,37.16,37.16,0,0,1-1.1,3.9A38.82,38.82,0,0,1,313.73,50l-.27.54c0,.11,0,.13-.14.31l-2.09-1.15a19.55,19.55,0,0,0,1.87-3.39,30.81,30.81,0,0,0,1.75-5.09,31.13,31.13,0,0,0-3.23.57l-.21-2.12c.66,0,2.84-.22,3.83-.36a27,27,0,0,0,.47-3.64v-.34Zm6,2.31a17.34,17.34,0,0,1,3.71,7l-2.05,1a16.4,16.4,0,0,0-1.44-4.09,11.69,11.69,0,0,0-2.07-3.07Z"/><path class="cls-2" d="M333,38.94a39.2,39.2,0,0,0-.81,4.43,3.55,3.55,0,0,1-.09.52l0,0a8.52,8.52,0,0,1,5.45-1.72c3.06,0,5.08,1.52,5.08,3.82a4.39,4.39,0,0,1-1.85,3.48A7.84,7.84,0,0,1,336,50.73a16.4,16.4,0,0,1-4.59-.63,7.86,7.86,0,0,0-.27-2.32,14.65,14.65,0,0,0,4.85.9c2.53,0,4.3-1.06,4.3-2.59,0-1.21-1.14-1.93-3-1.93a8.27,8.27,0,0,0-4.49,1.31,4.38,4.38,0,0,0-.81.78l-2.27-.07c.06-.33.06-.4.15-1.08.14-1.12.43-3.12.75-5.24a6.7,6.7,0,0,0,.11-1Zm.24-3.53a27.25,27.25,0,0,0,6.71,2l-.74,2.07a33,33,0,0,1-7-2.25Z"/><path class="cls-2" d="M352.11,45.91c-1,2.32-2.18,3.38-3.66,3.38-2.05,0-3.53-2.09-3.53-5a7.79,7.79,0,0,1,2-5.24,8.13,8.13,0,0,1,6.2-2.52c4.32,0,7.13,2.63,7.13,6.68a6.94,6.94,0,0,1-4.38,6.72,11.83,11.83,0,0,1-2.82.76,5.9,5.9,0,0,0-1.1-2.11,9.75,9.75,0,0,0,3.58-1,5,5,0,0,0,2.5-4.5,4.46,4.46,0,0,0-2.21-4,4,4,0,0,0-1.82-.54A26,26,0,0,1,352.11,45.91Zm-2.65-6.45A6,6,0,0,0,347,44.32c0,1.48.63,2.65,1.42,2.65.6,0,1.21-.76,1.86-2.31a23.65,23.65,0,0,0,1.49-6.08A4.64,4.64,0,0,0,349.46,39.46Z"/><path class="cls-2" d="M365.5,49.56c0,.81,0,1.41.09,2.09h-2.07a15.38,15.38,0,0,0,.11-2.11V44.23c0-.61,0-1,.05-1.94a10.4,10.4,0,0,1-1.26,1.87,9.77,9.77,0,0,0-.81-2.14,14.84,14.84,0,0,0,2.74-4.85,10.92,10.92,0,0,0,.61-2.41l2,.59c-.07.22-.16.53-.31,1a22.65,22.65,0,0,1-1.15,3ZM377,45.78c-.12.13-.47.5-.93,1A12.64,12.64,0,0,1,374,48.68a18.66,18.66,0,0,0,4.84,1,9.16,9.16,0,0,0-.82,1.91,19.13,19.13,0,0,1-5.79-1.8,19.54,19.54,0,0,1-5.31,1.83,5.76,5.76,0,0,0-.88-1.83,19.92,19.92,0,0,0,4.47-1.08,16.21,16.21,0,0,1-2.09-1.88l1.42-.52h-1a9.17,9.17,0,0,0-1.31.07v-.73h-1.23a7.68,7.68,0,0,0,.07-1.16v-1.2a9.76,9.76,0,0,0-.05-1.08,14.41,14.41,0,0,0,1.67.07h8.66a15.58,15.58,0,0,0,1.77-.07,9.18,9.18,0,0,0-.06,1.15v1.06a7.08,7.08,0,0,0,.08,1.15h-1.62ZM375.28,37h-6.36c-.61,0-1.06,0-1.44,0V35.41a9.33,9.33,0,0,0,1.51.09h6.72a12.06,12.06,0,0,0,1.49-.07c0,.43-.05.84-.05,1.4V40.2c0,.7,0,1,.05,1.35-.45,0-.81,0-1.6,0h-7a9.45,9.45,0,0,0-1.26.07V40a7.58,7.58,0,0,0,1.26.07h6.65v-.86h-6a14.17,14.17,0,0,0-1.42.05V37.77c.43,0,.74,0,1.42,0h6Zm-7.06,7.74c.29,0,.47,0,.79,0h5.58a11.29,11.29,0,0,0,1.44-.07l.47.52V43.85h-8.28Zm2,1.53a8.35,8.35,0,0,0,2.07,1.55,8.73,8.73,0,0,0,2-1.55Z"/><path class="cls-2" d="M384.92,37.77c-.48,0-1,0-1.73.09V35.7a11.25,11.25,0,0,0,1.7.09h2.86a10.09,10.09,0,0,0,1.64-.09,7.59,7.59,0,0,0-.06,1.13A13.93,13.93,0,0,0,391.26,44a14.8,14.8,0,0,0,2.88,3.46,13.23,13.23,0,0,0,2.66,1.94,8,8,0,0,0-1.53,2,18.16,18.16,0,0,1-4.37-4.23,14.17,14.17,0,0,1-1.59-2.67,11.58,11.58,0,0,1-.91-2.56,15,15,0,0,1-2.58,5.44,17.77,17.77,0,0,1-4.46,4.07,5.15,5.15,0,0,0-1.48-1.89,14.27,14.27,0,0,0,3.62-2.83,13.34,13.34,0,0,0,3.08-5.33,14.06,14.06,0,0,0,.59-3.63Z"/><rect class="cls-1" y="110" width="200" height="90" rx="18.97"/><path class="cls-2" d="M82.09,148.63a38.45,38.45,0,0,0,2.7-8.62l2.32.66a9.19,9.19,0,0,0-.61,1.73,55.16,55.16,0,0,1-2.31,6.23h3.24a18.32,18.32,0,0,0,2.29-.11v2.16a16.2,16.2,0,0,0-2.29-.12H75.69a16.79,16.79,0,0,0-2.34.12v-2.16a18.88,18.88,0,0,0,2.34.11Zm-1.71-12.28a7.22,7.22,0,0,0-.13-1.4h2.27a6.67,6.67,0,0,0-.13,1.38v1.23h4.34a15.62,15.62,0,0,0,2.32-.13v2.16a20.9,20.9,0,0,0-2.32-.1H76.27a20.28,20.28,0,0,0-2.27.1v-2.16a14.79,14.79,0,0,0,2.27.13h4.11Zm-2.33,3.82a56.13,56.13,0,0,1,2.06,7l-2,.72a36.91,36.91,0,0,0-2-7Z"/><path class="cls-2" d="M96.2,137.67c-.49,0-1,0-1.73.09V135.6a11.19,11.19,0,0,0,1.69.09H99a10,10,0,0,0,1.64-.09,9.09,9.09,0,0,0,0,1.13,13.93,13.93,0,0,0,1.93,7.13,14.33,14.33,0,0,0,2.88,3.46,13,13,0,0,0,2.66,1.94,7.74,7.74,0,0,0-1.53,2,18.39,18.39,0,0,1-4.38-4.23,14.14,14.14,0,0,1-1.58-2.67,11.6,11.6,0,0,1-.92-2.56,15.18,15.18,0,0,1-2.57,5.44,18,18,0,0,1-4.47,4.07,5.13,5.13,0,0,0-1.47-1.89,14,14,0,0,0,3.61-2.83,13.17,13.17,0,0,0,3.08-5.33,14.13,14.13,0,0,0,.6-3.63Z"/><path class="cls-2" d="M115.13,138a8.64,8.64,0,0,0,2.13,1.83,6.66,6.66,0,0,0-1,1.35,7.22,7.22,0,0,1-1.74-2,5,5,0,0,1,.09.94V141a6.5,6.5,0,0,0,.07,1.08H112.9a8.47,8.47,0,0,0,.07-1.1v-.68a9.2,9.2,0,0,1,.07-1,6.88,6.88,0,0,1-1.22,1.56,10.15,10.15,0,0,1-1.69,1.39,4.63,4.63,0,0,0-.94-1.53,9.05,9.05,0,0,0,2-1.44,8.75,8.75,0,0,0,1.15-1.24h-1.11a8.87,8.87,0,0,0-1.64.09V136.3a7.82,7.82,0,0,0,1.67.11H113v-.26a7.32,7.32,0,0,0-.09-1.24h1.86a5.53,5.53,0,0,0-.09,1.24v.26h.77a10.19,10.19,0,0,0,1.6-.08v1.77a10.8,10.8,0,0,0-1.54-.07Zm-3.33,8.86a17.67,17.67,0,0,0-2,.1v-1.87c.54,0,1.21.09,2,.09h11.56c.81,0,1.43,0,2-.09V147a14.72,14.72,0,0,0-1.9-.1h-1.59a8.93,8.93,0,0,0,1.42,1.26,10,10,0,0,0,2.4,1.4,7.55,7.55,0,0,0-1.32,1.67,15.34,15.34,0,0,1-2.26-1.65,12.63,12.63,0,0,1-1.81-1.77l1.43-.91h-3v3a1.5,1.5,0,0,1-.31,1c-.36.35-.9.44-2.46.44-.31,0-.67,0-1.32,0a6.35,6.35,0,0,0-.52-1.8,14,14,0,0,0,1.8.14c.7,0,.81-.05.81-.47v-2.26H113.5l1.45.75a11,11,0,0,1-4,3.58,6.56,6.56,0,0,0-1.37-1.53,7.46,7.46,0,0,0,3.75-2.8Zm11.74-2.53a16.85,16.85,0,0,0-1.71-.09h-8.5a16.47,16.47,0,0,0-1.73.09v-1.83a14.12,14.12,0,0,0,1.75.09h8.44a11.57,11.57,0,0,0,1.75-.09ZM119.18,138a12.06,12.06,0,0,0-1.56.07v-1.78a10.78,10.78,0,0,0,1.65.09h1v-.26a6.59,6.59,0,0,0-.09-1.24H122a5.47,5.47,0,0,0-.09,1.24v.26h1.94a10.42,10.42,0,0,0,1.75-.11v1.82a9.87,9.87,0,0,0-1.71-.09h-1.39a7.1,7.1,0,0,0,1,1,11.41,11.41,0,0,0,2.47,1.64,7.1,7.1,0,0,0-1.07,1.58,13.92,13.92,0,0,1-1.94-1.6,6.71,6.71,0,0,1-1.15-1.37,5.4,5.4,0,0,1,.07,1v.7A5.05,5.05,0,0,0,122,142h-1.84a5.52,5.52,0,0,0,.09-1.08v-.72a2.51,2.51,0,0,1,.06-.86,10,10,0,0,1-2.58,2.59,4.74,4.74,0,0,0-1-1.39,10.12,10.12,0,0,0,3-2.55Z"/><path class="cls-2" d="M141.4,148.81a19,19,0,0,0,2.27-.11v2.2a18.6,18.6,0,0,0-2.27-.13H129.73a20.21,20.21,0,0,0-2.3.13v-2.2a19.47,19.47,0,0,0,2.3.11h.52v-8.33a17.42,17.42,0,0,0-.11-2.17h2.31a19.32,19.32,0,0,0-.11,2.17v8.33h3V137.2a13.22,13.22,0,0,0-.11-2.09h2.31a17.46,17.46,0,0,0-.11,2.09v3.49h3.24a16.71,16.71,0,0,0,2.09-.11v2.15c-.67-.06-1.37-.09-2.09-.09H137.4v6.17Z"/><path class="cls-2" d="M152.54,145.93a10.27,10.27,0,0,1-2.22,1.53,4,4,0,0,0-.68-1,34.27,34.27,0,0,1-3.58,1.89l-.24.14a1.46,1.46,0,0,0-.18.09l-.45-2.1a13.14,13.14,0,0,0,2-.73V141h-.53a9,9,0,0,0-1.4.09V139.2a8.25,8.25,0,0,0,1.42.09h.51v-2.24a14.4,14.4,0,0,0-.11-2h2.09a12,12,0,0,0-.11,2v2.22h.32a8.19,8.19,0,0,0,1.28-.07v1.89a8.35,8.35,0,0,0-1.26-.08h-.34v3.87c.48-.25.63-.34,1.2-.66v1.24a7,7,0,0,0,2.15-1.82h-.4a13.49,13.49,0,0,0-1.67.09V142a10.17,10.17,0,0,0,1.69.09h7.87a11,11,0,0,0,1.87-.11v1.8c-.5,0-1.08-.07-1.85-.07h-5.51a7.83,7.83,0,0,1-.49.74h5.73c.88,0,1.22,0,1.74-.05,0,.28-.05.52-.07,1.06a15.59,15.59,0,0,1-.74,4.9c-.36.82-.93,1.06-2.52,1.06-.48,0-.81,0-1.51-.06a4.3,4.3,0,0,0-.49-1.65,13.14,13.14,0,0,1-3,2,4.68,4.68,0,0,0-1.3-1.37,10.79,10.79,0,0,0,3.28-1.94,8,8,0,0,0,1.88-2.4H155.9a10.71,10.71,0,0,1-5,3.94,4.51,4.51,0,0,0-1.16-1.36,9.32,9.32,0,0,0,4.18-2.58Zm.54-4.64a12.12,12.12,0,0,0-1.66.07,14.86,14.86,0,0,0,.07-1.75V137a12.93,12.93,0,0,0-.07-1.64,11.6,11.6,0,0,0,1.82.09h5.24a12.57,12.57,0,0,0,1.93-.09,13.3,13.3,0,0,0-.08,1.79v2.48a12.57,12.57,0,0,0,.08,1.73c-.38,0-.92-.05-1.64-.05Zm.27-3.52h5.09V137h-5.09Zm0,2.06h5.09v-.74h-5.09Zm5.49,6.1a10.15,10.15,0,0,1-2.52,3.53,12.24,12.24,0,0,0,1.85.14c.67,0,.87-.18,1-.95a20.92,20.92,0,0,0,.31-2.72Z"/><path class="cls-2" d="M171,143.57a13.57,13.57,0,0,0,0,1.44l-1.77,0h-3a12.55,12.55,0,0,1-1.6,6.41A5.67,5.67,0,0,0,163,150c1.12-1.9,1.42-3.74,1.42-8.6a23,23,0,0,0-.09-2.51c.6,0,1,.06,1.91.06h2.92c.83,0,1.26,0,1.82-.06,0,.38-.06.92-.06,1.63Zm-7.27-8a13.81,13.81,0,0,0,1.94.09h3.89a12.5,12.5,0,0,0,2-.09v2a12.13,12.13,0,0,0-1.87-.09h-4.09a12.86,12.86,0,0,0-1.83.09Zm5.42,7.69V140.6h-2.81v1.3c0,.68,0,.84,0,1.37Zm4.93-1a17.12,17.12,0,0,1-.79,4.92,9.73,9.73,0,0,1-1.57,2.91,13.13,13.13,0,0,1-1.15,1.35,6,6,0,0,0-1.49-1.49,8.27,8.27,0,0,0,2.55-4,25.41,25.41,0,0,0,.58-6.66c0-1.7,0-2.25-.07-2.85a16.89,16.89,0,0,0,6.71-1.51l1,1.84a6.29,6.29,0,0,0-.83.23,27.09,27.09,0,0,1-4.92,1.1v2.25h4.09a9.12,9.12,0,0,0,1.75-.11v2.09a10.34,10.34,0,0,0-1.59-.09h-.27v7.13a11,11,0,0,0,.11,1.94h-2.12a14.54,14.54,0,0,0,.11-2v-7.11Z"/><path class="cls-2" d="M73.12,167c.77-.54,1.55-1.42,3.92-4.41a5.73,5.73,0,0,1,1.12-1.14,2.49,2.49,0,0,1,1.44-.54,2.56,2.56,0,0,1,1.62.69,11.52,11.52,0,0,1,1.21,1.3,57.87,57.87,0,0,0,5.38,5.5,11.82,11.82,0,0,0,2,1.52l-1.09,2.55a4.39,4.39,0,0,0-.53-.52c-.93-.83-2.36-2.18-3.67-3.49s-1.4-1.46-3.33-3.66c-1.12-1.27-1.22-1.36-1.57-1.36s-.46.16-1.08,1A49.57,49.57,0,0,1,75,168.71a3.1,3.1,0,0,0-.38.49Z"/><path class="cls-2" d="M98.3,168.8c-1,2.33-2.18,3.39-3.65,3.39-2.05,0-3.53-2.09-3.53-5a7.74,7.74,0,0,1,2-5.24,8.1,8.1,0,0,1,6.19-2.52c4.33,0,7.13,2.63,7.13,6.68a6.94,6.94,0,0,1-4.37,6.72,11.63,11.63,0,0,1-2.83.75,5.56,5.56,0,0,0-1.1-2.1,9.81,9.81,0,0,0,3.59-1,5.06,5.06,0,0,0,2.5-4.5,4.46,4.46,0,0,0-2.21-4,3.86,3.86,0,0,0-1.82-.54A26.2,26.2,0,0,1,98.3,168.8Zm-2.64-6.44a6,6,0,0,0-2.45,4.86c0,1.48.63,2.65,1.42,2.65.59,0,1.21-.76,1.86-2.31A24.07,24.07,0,0,0,98,161.48,4.51,4.51,0,0,0,95.66,162.36Z"/><path class="cls-2" d="M111.7,172.46c0,.81,0,1.4.09,2.09h-2.08a15.38,15.38,0,0,0,.11-2.11v-5.31c0-.61,0-1,.06-1.94a12,12,0,0,1-1.26,1.87,10.66,10.66,0,0,0-.81-2.14,14.82,14.82,0,0,0,2.73-4.85,10.39,10.39,0,0,0,.61-2.41l2,.59c-.07.22-.16.53-.3,1a23.64,23.64,0,0,1-1.15,3Zm11.52-3.78c-.13.12-.47.5-.94,1a12.94,12.94,0,0,1-2.1,1.86,18.66,18.66,0,0,0,4.84,1,8.29,8.29,0,0,0-.83,1.91,19.15,19.15,0,0,1-5.78-1.8,20,20,0,0,1-5.31,1.83,6,6,0,0,0-.88-1.83,19.69,19.69,0,0,0,4.46-1.08,17.65,17.65,0,0,1-2.09-1.88l1.43-.52h-1a9.33,9.33,0,0,0-1.32.07v-.74h-1.22a9,9,0,0,0,.07-1.15v-1.2a9.77,9.77,0,0,0-.06-1.08,14.72,14.72,0,0,0,1.68.07h8.66a15.27,15.27,0,0,0,1.76-.07c0,.34,0,.66,0,1.15v1.06a8.46,8.46,0,0,0,.07,1.15H123Zm-1.75-8.75h-6.35c-.62,0-1.07,0-1.44,0v-1.67a9.18,9.18,0,0,0,1.51.09h6.71a12.13,12.13,0,0,0,1.5-.07c0,.43-.06.84-.06,1.4v3.37a10.68,10.68,0,0,0,.06,1.35c-.45,0-.81,0-1.6,0h-7a9.45,9.45,0,0,0-1.26.07v-1.56a7.5,7.5,0,0,0,1.26.07h6.64v-.87h-6a13.77,13.77,0,0,0-1.42.06v-1.51c.43,0,.73.05,1.42.05h6Zm-7.06,7.74c.29,0,.47,0,.8,0h5.58a11.29,11.29,0,0,0,1.44-.07l.47.52v-1.39h-8.29Zm2,1.53a8,8,0,0,0,2.07,1.55,8.68,8.68,0,0,0,2-1.55Z"/><path class="cls-2" d="M131.12,160.67c-.49,0-1,0-1.73.09V158.6a11.19,11.19,0,0,0,1.69.09h2.86a10,10,0,0,0,1.64-.09,9.09,9.09,0,0,0-.05,1.13,13.93,13.93,0,0,0,1.93,7.13,14.33,14.33,0,0,0,2.88,3.46,13,13,0,0,0,2.66,1.94,7.74,7.74,0,0,0-1.53,2,18.39,18.39,0,0,1-4.38-4.23,14.14,14.14,0,0,1-1.58-2.67,11.6,11.6,0,0,1-.92-2.56,15.18,15.18,0,0,1-2.57,5.44,17.83,17.83,0,0,1-4.47,4.07,5.13,5.13,0,0,0-1.47-1.89,14.27,14.27,0,0,0,3.62-2.83,13.27,13.27,0,0,0,3.07-5.33,14.13,14.13,0,0,0,.6-3.63Z"/><rect class="cls-1" x="220" y="110" width="200" height="90" rx="18.97"/><path class="cls-2" d="M308,137.49a8.55,8.55,0,0,0,1.49-.08,17.25,17.25,0,0,0-.11,2.27c-.12,6.12-.36,8.84-.84,10.09-.42,1.08-1.19,1.49-2.78,1.49-.39,0-.84,0-1.72-.11a4.48,4.48,0,0,0-.47-2,10.7,10.7,0,0,0,2.23.29c.72,0,1-.38,1.19-1.66a65.63,65.63,0,0,0,.52-8.52h-.21a22.52,22.52,0,0,1-1.93,6.52,15.14,15.14,0,0,1-4.68,5.53,4.29,4.29,0,0,0-1.51-1.48,12.63,12.63,0,0,0,4.68-5.11,19.89,19.89,0,0,0,1.73-5.46h-.74a13.67,13.67,0,0,1-4.83,7.89,4.27,4.27,0,0,0-1.33-1.57,7.31,7.31,0,0,0,2.12-1.82,11.25,11.25,0,0,0,2.31-4.5h-.85a11.54,11.54,0,0,1-2.14,3.17,5.68,5.68,0,0,0-1.49-1.37,8.6,8.6,0,0,0,.86-.86,8,8,0,0,0-1,0h-.43v3.37a15.39,15.39,0,0,0,1.69-.67l0,1.8-1.71.72v4.09a17,17,0,0,0,.11,2.07h-2.13a14.33,14.33,0,0,0,.13-2.07V146c-.74.27-1.28.45-1.62.56a6.18,6.18,0,0,0-1,.38l-.41-2.15a10.94,10.94,0,0,0,3-.7v-4h-.9a20.45,20.45,0,0,1-.69,2.92,5.54,5.54,0,0,0-1.63-1,10.46,10.46,0,0,0,.68-2.5,17.57,17.57,0,0,0,.23-2.54,6.87,6.87,0,0,0,0-.76l1.8.2c-.07,1.08-.09,1.17-.15,1.83h.69v-2a7.84,7.84,0,0,0-.13-1.48h2.13a8.27,8.27,0,0,0-.11,1.48v2h.43a4.46,4.46,0,0,0,1.17-.09V140a10.5,10.5,0,0,0,1.28-2.36,10.38,10.38,0,0,0,.79-2.77l2.09.36c-.14.38-.14.38-.58,1.64,0,.16-.12.36-.23.67Z"/><path class="cls-2" d="M318.72,145.8c-1,2.33-2.18,3.39-3.66,3.39-2.05,0-3.53-2.09-3.53-5a7.79,7.79,0,0,1,2-5.24,8.13,8.13,0,0,1,6.2-2.52c4.32,0,7.13,2.63,7.13,6.68a6.94,6.94,0,0,1-4.38,6.72,11.41,11.41,0,0,1-2.82.75,5.86,5.86,0,0,0-1.1-2.1,9.81,9.81,0,0,0,3.58-1,5,5,0,0,0,2.5-4.5,4.46,4.46,0,0,0-2.21-4,3.86,3.86,0,0,0-1.82-.54A25.87,25.87,0,0,1,318.72,145.8Zm-2.65-6.44a6,6,0,0,0-2.45,4.86c0,1.48.63,2.65,1.42,2.65.6,0,1.21-.76,1.86-2.31a23.65,23.65,0,0,0,1.49-6.08A4.55,4.55,0,0,0,316.07,139.36Z"/><path class="cls-2" d="M330.88,136.71a10.6,10.6,0,0,0-.1-1.83h2.14a10.22,10.22,0,0,0-.11,1.81v1.48h1a5.06,5.06,0,0,0,.9-.07V140c-.31,0-.61-.05-.94-.05h-1v2.73c.51-.16.79-.27,1.59-.59v1.78l-1.6.6v5.22c0,.79-.27,1.31-.81,1.49a7,7,0,0,1-1.73.2c-.3,0-.56,0-1.1,0a5.49,5.49,0,0,0-.43-1.89,12.73,12.73,0,0,0,1.62.13c.42,0,.52-.11.52-.54v-3.93a15.06,15.06,0,0,0-2,.69l-.38-2a12.77,12.77,0,0,0,2.37-.5v-3.33H330a11.35,11.35,0,0,0-1.28.07v-1.91a7,7,0,0,0,1.29.09h.9ZM344,143.54a7.47,7.47,0,0,0-.47.73,15.54,15.54,0,0,1-2.62,3.44,11.51,11.51,0,0,0,4.44,1.71,7.35,7.35,0,0,0-1.13,2,14.55,14.55,0,0,1-4.92-2.32,14.8,14.8,0,0,1-5.06,2.35,8.52,8.52,0,0,0-1.11-1.8,13,13,0,0,0,4.7-1.9,11,11,0,0,1-2.25-3.52,8,8,0,0,0-.85.08v-1.89a8.25,8.25,0,0,0,1.46.09h5.65a4.45,4.45,0,0,0,1.1-.09Zm-2-4.34c0,.39.07.45.63.45a1.21,1.21,0,0,0,.61-.11c.16-.11.21-.49.21-1.46v-.81a7.87,7.87,0,0,0,1.77.83c0,.18,0,.3,0,.39-.2,2.71-.41,2.94-2.77,2.94a5.55,5.55,0,0,1-1.57-.13c-.55-.19-.72-.52-.72-1.36V137.2h-2.18c-.07,2.65-.75,4.05-2.55,5.22a6.09,6.09,0,0,0-1.46-1.33c1.67-.94,2.16-2.07,2.16-5,0-.21,0-.48-.05-.79a10.3,10.3,0,0,0,1.17.05h3.72a9.61,9.61,0,0,0,1.12-.05,7.8,7.8,0,0,0,0,1.13Zm-4.42,5a8.47,8.47,0,0,0,1.82,2.4,9.18,9.18,0,0,0,2-2.4Z"/><path class="cls-2" d="M352.29,144.53a16,16,0,0,0-2.05,5.78l-2.09.1a3.53,3.53,0,0,0-.13-.68,25.84,25.84,0,0,1-.65-5.85,38.65,38.65,0,0,1,.67-6.83,6.35,6.35,0,0,0,.13-1.31l2.37.22a31.15,31.15,0,0,0-1.1,8.28c0,.27,0,1.67,0,1.78s0,.42,0,.69c.27-.82.32-1,.41-1.19a17,17,0,0,1,.8-1.79Zm-.45-5.19a14.73,14.73,0,0,0,3.22.25,16.16,16.16,0,0,0,1.89-.09c-.05-1.64-.07-1.82-.09-2.37a6.2,6.2,0,0,0-.14-1.35l2.28,0c0,.38,0,.57,0,.68v.24c0,.59,0,1.47.11,2.62a10.28,10.28,0,0,0,2.68-.7l.12,2.15a8.07,8.07,0,0,0-1,.18,13.12,13.12,0,0,1-1.75.3c0,.38,0,.54,0,.87a18,18,0,0,1-.38,4.3,6.77,6.77,0,0,1-2,3.49,11.58,11.58,0,0,1-2,1.37,7.55,7.55,0,0,0-1.74-1.69,7.42,7.42,0,0,0,2.75-2c.94-1.12,1.26-2.4,1.26-5.05,0-.32,0-.61,0-1.15-.62.06-1.55.09-2.45.09-.51,0-1.17,0-1.64-.05s-.6,0-.81,0h-.27Zm8.32-4.63a11,11,0,0,1,1.24,2.81l-1.24.36a10.23,10.23,0,0,0-1.23-2.82Zm2.19,2.61a11.44,11.44,0,0,0-1.2-2.75l1.15-.36a10.59,10.59,0,0,1,1.22,2.7Z"/><path class="cls-2" d="M364.38,141.63a8.28,8.28,0,0,0,1.44.09h1.48a8.07,8.07,0,0,0,1.37-.09,16.61,16.61,0,0,0-.08,2v3.76a2.29,2.29,0,0,0,1,1.15c.87.54,1.8.67,4.9.67a49.93,49.93,0,0,0,6.68-.38,9.46,9.46,0,0,0-.54,2.14c-1.6.06-4.21.11-5.46.11a19.53,19.53,0,0,1-5.34-.41,4.32,4.32,0,0,1-2.29-1.69,17.3,17.3,0,0,1-1.86,1.6l-.54.43-.27.22-.88-2.06a11.22,11.22,0,0,0,2.68-1.76v-3.87h-1.09a6.84,6.84,0,0,0-1.23.09Zm1.71-6.5a21.82,21.82,0,0,1,3.15,3.29l-1.49,1.46a18.51,18.51,0,0,0-3.1-3.4Zm5.8,2.21a9.3,9.3,0,0,0-1.49.09v-1.94a8.07,8.07,0,0,0,1.49.09h2.57a9.14,9.14,0,0,0,1.32-.07,8.72,8.72,0,0,0,0,1,12.44,12.44,0,0,0,1.19,5.22,10.87,10.87,0,0,0,4,4.63,8.68,8.68,0,0,0-1.19,1.89,13.08,13.08,0,0,1-2.88-2.81,12.77,12.77,0,0,1-2-4.27,10.55,10.55,0,0,1-2,4.39,11.18,11.18,0,0,1-2.43,2.47,9.65,9.65,0,0,0-1.42-1.56,9.9,9.9,0,0,0,2.38-2.31,11.74,11.74,0,0,0,2-4.28,13.43,13.43,0,0,0,.34-2.51Z"/><path class="cls-2" d="M384.27,136a11,11,0,0,0,1.82.09c1.08,0,2.68-.07,3.35-.16a1.34,1.34,0,0,0,.72-.22l1.42,1.23a2.75,2.75,0,0,0-.38.75c-.09.22-1.18,3.53-1.35,4.09a14.85,14.85,0,0,1,4,1.13,18.85,18.85,0,0,0,.18-3.33,4.88,4.88,0,0,0-.07-1l2.27.09a6.11,6.11,0,0,0-.11,1.21,29.27,29.27,0,0,1-.32,3.81c.57.29,1.37.7,1.92,1a6.8,6.8,0,0,0,.83.43l-.81,2.38a18.78,18.78,0,0,0-2.48-1.68,8.59,8.59,0,0,1-2,3.17,10.65,10.65,0,0,1-2.72,2,6.51,6.51,0,0,0-1.64-1.62,8.58,8.58,0,0,0,2.79-1.89,7.41,7.41,0,0,0,1.6-2.67,13.88,13.88,0,0,0-4.05-1.24,23.93,23.93,0,0,1-1.78,4.43,2.86,2.86,0,0,1-2.47,1.71c-1.66,0-2.88-1.46-2.88-3.42a4.55,4.55,0,0,1,2.23-3.95,6.45,6.45,0,0,1,3.41-.86c.46-1.42.68-2.11,1.13-3.76-.92.07-1.35.09-3.11.16a11.17,11.17,0,0,0-1.43.11Zm.54,8.57a2.54,2.54,0,0,0-.68,1.73c0,.74.39,1.33.88,1.33s.61-.32,1-1.13a23.87,23.87,0,0,0,1.17-3A3.58,3.58,0,0,0,384.81,144.58Z"/><path class="cls-2" d="M298.49,174.6a14.25,14.25,0,0,1-2-3.54,13.27,13.27,0,0,1-1-5,12.73,12.73,0,0,1,.92-4.81,14.25,14.25,0,0,1,2-3.55H301a14.48,14.48,0,0,0-2.29,3.58,11.85,11.85,0,0,0-.93,4.78,12.15,12.15,0,0,0,1,4.93A13.9,13.9,0,0,0,301,174.6Z"/><path class="cls-2" d="M304.86,160.74a24.68,24.68,0,0,0-2.47.11v-2.13c.72.07,1.49.11,2.39.11h11.46a20.3,20.3,0,0,0,2.39-.11v2.13a22.25,22.25,0,0,0-2.34-.11h-3.64a12,12,0,0,1-1.28,2v9.45a17.38,17.38,0,0,0,.13,2.27h-2.32c.07-.69.12-1.51.12-2.27v-5.4c0-.65,0-.88,0-1.68a15.84,15.84,0,0,1-2.63,2.63,32.82,32.82,0,0,1-3.42,2.38,6.44,6.44,0,0,0-1.26-1.84,20.94,20.94,0,0,0,5.67-4.19,14.22,14.22,0,0,0,2.56-3.35Zm8,2.54a18.6,18.6,0,0,0,2.63,2.55,15.73,15.73,0,0,0,3.69,2.31,11.22,11.22,0,0,0-1.24,2,21.67,21.67,0,0,1-6.39-5.36Z"/><path class="cls-2" d="M321.31,162.36a21.75,21.75,0,0,1,3.22,2.2l-1.13,1.63a19,19,0,0,0-3.21-2.39Zm3.2,6.16c-.63,1.65-1,2.61-1.74,4.1a13.33,13.33,0,0,0-.56,1.23c-.13.28-.13.28-.22.45l-1.73-1.52a21.5,21.5,0,0,0,2.65-5.4ZM322.19,158a18.84,18.84,0,0,1,3.1,2.3l-1.23,1.57a18,18,0,0,0-3.09-2.49Zm2.29,13.86c.28,0,.43,0,.61,0s.72,0,1.33-.06a26.62,26.62,0,0,0,2.23-5h-1.94a16.07,16.07,0,0,0-1.95.11v-2a14.86,14.86,0,0,0,2,.1h2.81v-2.7h-2.16c-.71,0-1.32,0-1.89.09v-2a13.07,13.07,0,0,0,1.9.11h2.15v-.79a9.69,9.69,0,0,0-.11-1.89h2.18a10.33,10.33,0,0,0-.11,1.89v.79h2.88a13.45,13.45,0,0,0,1.84-.11v2a12.71,12.71,0,0,0-1.82-.09h-2.9V165H335a14.87,14.87,0,0,0,1.89-.1v2a14.65,14.65,0,0,0-1.88-.11h-4.23c-.11.33-.11.33-.36,1a35,35,0,0,1-1.58,3.5l-.16.34a46,46,0,0,0,4.79-.59,21.86,21.86,0,0,0-1.77-2.56l1.6-.83a37.89,37.89,0,0,1,3.64,5.55l-1.76,1.06c-.42-.83-.54-1.1-.83-1.66a57.78,57.78,0,0,1-6.52.94c-2,.2-2.34.25-2.92.36Z"/><path class="cls-2" d="M340.55,159.71a10.46,10.46,0,0,0-.11-1.83h2.14a11.44,11.44,0,0,0-.1,1.81v1.48h1a4.94,4.94,0,0,0,.89-.07V163c-.3,0-.61-.05-.93-.05h-1v2.73c.5-.16.79-.27,1.58-.59l0,1.78-1.6.6v5.22c0,.79-.27,1.31-.81,1.49a7.08,7.08,0,0,1-1.73.2c-.31,0-.56,0-1.1,0a5.49,5.49,0,0,0-.43-1.89,12.73,12.73,0,0,0,1.62.13c.41,0,.52-.11.52-.54v-3.93a16.52,16.52,0,0,0-2,.69l-.38-2a12.66,12.66,0,0,0,2.38-.5v-3.33h-.92a11.48,11.48,0,0,0-1.28.07v-1.91a7.23,7.23,0,0,0,1.3.09h.9Zm13.11,6.83a4.81,4.81,0,0,0-.47.73,15.26,15.26,0,0,1-2.63,3.44,11.62,11.62,0,0,0,4.45,1.71,7.12,7.12,0,0,0-1.14,2,14.59,14.59,0,0,1-4.91-2.32,14.89,14.89,0,0,1-5.06,2.35,8.54,8.54,0,0,0-1.12-1.8,12.9,12.9,0,0,0,4.7-1.9,11.34,11.34,0,0,1-2.25-3.52,8.24,8.24,0,0,0-.85.08v-1.89a8.32,8.32,0,0,0,1.46.09h5.66a4.5,4.5,0,0,0,1.1-.09Zm-2-4.34c0,.39.07.45.63.45a1.19,1.19,0,0,0,.61-.11c.17-.11.22-.49.22-1.46v-.81a7.85,7.85,0,0,0,1.76.83c0,.18,0,.3,0,.39-.2,2.71-.42,2.94-2.77,2.94a5.5,5.5,0,0,1-1.57-.13c-.56-.19-.72-.52-.72-1.36V160.2h-2.18c-.07,2.65-.76,4.05-2.56,5.22a6.23,6.23,0,0,0-1.45-1.33c1.67-.94,2.16-2.07,2.16-5a6.42,6.42,0,0,0-.06-.79,10.41,10.41,0,0,0,1.17.05h3.73a9.71,9.71,0,0,0,1.12-.05,7.45,7.45,0,0,0-.06,1.13Zm-4.41,5a8.29,8.29,0,0,0,1.82,2.4,9.38,9.38,0,0,0,2-2.4Z"/><path class="cls-2" d="M368.24,164.23c0-.25,0-.57,0-.77h1.89c-.32-.29-.52-.45-.93-.79-4.11.27-4.11.27-10.11.45-.46,0-.52,0-1.56,0l-.18-1.6c.61,0,.84,0,1.31,0,.85,0,1.5,0,1.93,0a7.66,7.66,0,0,0,1-1h-3.22a15.62,15.62,0,0,0-1.86.09v-1.8a13.34,13.34,0,0,0,1.93.11h5v-.11a6.26,6.26,0,0,0-.09-1.19h2.16a6.31,6.31,0,0,0-.09,1.17V159h5.36a13.35,13.35,0,0,0,1.86-.11v1.8a11.88,11.88,0,0,0-1.87-.09h-1.88c1.17.74,1.68,1.06,3.06,2.07l-1.33,1.19-.41-.38c0,.11,0,.15,0,.27v.2a1.59,1.59,0,0,0,0,.27h.79a10.61,10.61,0,0,0,1.88-.11v1.77a14.42,14.42,0,0,0-1.88-.11h-.79v1.12a10,10,0,0,0,.06,1.2c-.67,0-1,0-1.41,0h-3.37v.77h5.32a12.89,12.89,0,0,0,2-.09v1.71c-.76-.05-1.07-.07-2-.07h-4a15.3,15.3,0,0,0,3,1.42,19.9,19.9,0,0,0,3.3.78,7.48,7.48,0,0,0-1,1.78,17.63,17.63,0,0,1-6.73-3c0,.09,0,.54.05,1.35v.65a6.34,6.34,0,0,0,.11,1.35h-2.12a6.05,6.05,0,0,0,.11-1.34v-.68c0-.27,0-.85,0-1.31a15,15,0,0,1-3.06,1.85,22.44,22.44,0,0,1-3.31,1.17,6.07,6.07,0,0,0-1-1.71,16.89,16.89,0,0,0,6.1-2.27h-3.82c-.93,0-1.22,0-2,.07v-1.71a13.35,13.35,0,0,0,2,.09h5v-.77h-3.32c-.39,0-.77,0-1.42,0a1.16,1.16,0,0,0,0-.23,8.92,8.92,0,0,0,0-1v-1.12h-.61a10.26,10.26,0,0,0-1.89.11v-1.77a11.15,11.15,0,0,0,1.89.11h.61a3.74,3.74,0,0,0,0-.77h1.94c0,.16,0,.45,0,.77h2.83a5,5,0,0,0-.06-.92h2a3.85,3.85,0,0,0-.06.92Zm-4.77,1.55h-2.83v.86h2.83Zm.37-5.17a11.09,11.09,0,0,1-1,1c1.54,0,3-.09,4.58-.18-.47-.33-.6-.42-1.15-.78Zm4.4,6v-.86h-2.87v.86Z"/><path class="cls-2" d="M374.05,174.6a13.56,13.56,0,0,0,2.28-3.58,12.08,12.08,0,0,0,1-4.93,11.75,11.75,0,0,0-.92-4.78,14.87,14.87,0,0,0-2.3-3.58h2.53a14.63,14.63,0,0,1,2,3.55,12.77,12.77,0,0,1,.92,4.81,13.57,13.57,0,0,1-.94,5,15.29,15.29,0,0,1-2,3.54Z"/><path class="cls-2" d="M23.94,44.82c0-7,0-14,0-21,0-.76.21-1.15,1-1.29,7.88-1.33,15.77-2.7,23.65-4.05.9-.15,1.12.08,1.12,1.13V69.78c0,1.52-.09,1.59-1.55,1.34l-22.84-3.9C24,67,23.94,67,23.94,65.59q0-8.48,0-17V44.82Zm22.52,1.29a1.37,1.37,0,0,0,1.27-1.35,1.35,1.35,0,0,0-1.34-1.19,1.27,1.27,0,0,0,.07,2.54Z"/><path class="cls-2" d="M51.34,67V64.11h2.89v-1q0-9.06,0-18.11t0-18.35c0-1.06,0-1.06-1.1-1.06H51.35V22.72c1.74,0,3.42,0,5.1,0,.23,0,.5.41.66.68s0,.44,0,.66V65.53c0,1.39,0,1.43-1.46,1.43Z"/><path class="cls-2" d="M245.11,26.66c.25-1.08,1-1.2,1.91-1.2h30.11c.84,0,1.51.17,1.75,1.16,1.53-.74,3.07-1.38,4.49-2.2,1.68-1,2.64-.38,2.63,1.63-.05,16.4,0,22.06,0,38.46v.35a1.24,1.24,0,0,1-.74,1.29,1.26,1.26,0,0,1-1.45-.29c-1.71-1.52-3.42-3-5.12-4.55a1,1,0,0,0-1-.34,2.76,2.76,0,0,1-.76,0c-12.94,0-17,0-30,0a2.9,2.9,0,0,0-2.22.85c-1.44,1.36-2.95,2.63-4.43,4a1.3,1.3,0,0,1-2.32-1c0-16.68,0-22.62,0-39.29,0-1.34.85-1.85,2.07-1.26Zm4.59,3.63V56.16h24.62V30.29ZM239.65,64a.91.91,0,0,0,.23-.09c2.62-2.32,5.24-4.63,7.85-7a1.07,1.07,0,0,0,.27-.72c0-5.94,0-5.54,0-11.48,0-.51-.15-.69-.67-.68-2.39,0-4.79,0-7.18,0a4.66,4.66,0,0,0-.49.06Zm44.62.11v-20h-8.22a3.29,3.29,0,0,0,0,.38c0,6.08,0,5.81,0,11.88a1.2,1.2,0,0,0,.37.75c1.36,1.24,2.74,2.45,4.12,3.67Zm-44.61-38.2V42.31H248v-3.2c0-4.33,0-4.26,0-8.59a1,1,0,0,0-.36-.76C245,28.46,242.39,27.19,239.66,25.86Zm44.62,0c-2.63,1.28-5.14,2.52-7.67,3.73a.91.91,0,0,0-.61,1c0,5.15,0,5.91,0,11.06,0,.23,0,.45,0,.68h8.23Zm-37.41,1.33-.09.26c.95.41,1.75,1.15,2.9,1.15,11.12,0,13.38,0,24.5,0a6.14,6.14,0,0,0,2.94-1.19s0-.12,0-.22Zm.8,32.1h28.61a3.58,3.58,0,0,0-2.86-1.45c-10.54.06-12.22.06-22.77,0A3.5,3.5,0,0,0,247.67,59.28Z"/><path class="cls-2" d="M66,154.49a24,24,0,1,1-23.78-24A23.94,23.94,0,0,1,66,154.49ZM30.24,169.68a19.21,19.21,0,0,0,26.87-27.07Zm23.51-30.39a19.2,19.2,0,0,0-26.86,27.05Q40.33,152.83,53.75,139.29Z"/><path class="cls-2" d="M264.83,146.93a26,26,0,0,1-17.72-4.06l2.25.14a44,44,0,0,0,14.81-1.29,22.82,22.82,0,0,0,8.71-4.58c.21-.17.62-.35.82-.26,4.6,2,8.59,4.67,11,9.23.48.92.9,1.87,1.34,2.81a2.69,2.69,0,0,1,.05.4,52.76,52.76,0,0,0-11.86-5.17c.18.43.3.71.43,1a48.79,48.79,0,0,1,4.12,27.18,17.46,17.46,0,0,1-2,6,6.42,6.42,0,0,1-.74,1.1A46.92,46.92,0,0,0,271.91,159c-.37,1.77-.65,3.31-1,4.82-1,4.12-2.51,7.95-5.51,11.06a17.87,17.87,0,0,1-5.79,4C265.56,168.91,266.25,158.14,264.83,146.93Z"/><path class="cls-2" d="M265.46,137.76a4.45,4.45,0,0,1,.06-8.9,4.45,4.45,0,1,1-.06,8.9Z"/><path class="cls-2" d="M236.86,147.06a5,5,0,0,1,5.35-.93c.54.29.95.48,1.4-.24a1.49,1.49,0,0,1,1.37-.29,2.09,2.09,0,0,1,1,1.07,3.16,3.16,0,0,0,.85,1.3,10.84,10.84,0,0,1,1.88,2.65c.05.08-.26.56-.43.58-1.69.14-3.4.56-5-.66a2.45,2.45,0,0,0-1.73-.27c-1.65.26-1.75.13-2.41-1.42-.26-.62-1.14-1-1.74-1.45A5.83,5.83,0,0,0,236.86,147.06Z"/></g></g></svg>