<svg xmlns="http://www.w3.org/2000/svg" viewBox="0 0 31.74 27.15"><g id="レイヤー_2" data-name="レイヤー 2"><g id="レイヤー_1-2" data-name="レイヤー 1"><path d="M18.58,6.79v7q0,6.12,0,12.25a2.58,2.58,0,0,1,0,.48.69.69,0,0,1-1.08.56,3,3,0,0,1-.66-.46c-2.13-1.85-4.25-3.7-6.38-5.53a1.21,1.21,0,0,0-.72-.27c-2.69,0-5.38,0-8.06,0C.48,20.77,0,20.3,0,19.19V8.59C0,7.34.46,6.88,1.73,6.88c2.44,0,4.87,0,7.31,0a1.52,1.52,0,0,0,.84-.31c2.32-2,4.61-4,6.92-6,.37-.32.77-.72,1.31-.47s.43.79.43,1.26c0,1.82,0,3.63,0,5.45Z"/><path d="M31.74,14a12.33,12.33,0,0,1-3.66,8.48,1.42,1.42,0,1,1-2-2,9.63,9.63,0,0,0,2.74-5.6A9.81,9.81,0,0,0,26.2,6.77c-.1-.12-.22-.23-.32-.35A1.44,1.44,0,0,1,26,4.47a1.46,1.46,0,0,1,1.95,0,12.19,12.19,0,0,1,2.45,3.38A13.23,13.23,0,0,1,31.74,14Z"/><path d="M27,13.33a9,9,0,0,1-2.4,6.31,2.36,2.36,0,0,1-1,.68A1.3,1.3,0,0,1,22,19.63,1.56,1.56,0,0,1,22.22,18a9.7,9.7,0,0,0,1.38-2.09,5.91,5.91,0,0,0-1-6.25c-.16-.19-.34-.37-.49-.58A1.41,1.41,0,0,1,24.27,7.2a8.78,8.78,0,0,1,2.55,5.06C26.87,12.62,26.91,13,27,13.33Z"/></g></g></svg>