<svg xmlns="http://www.w3.org/2000/svg" viewBox="0 0 111.91 32.91"><defs><style>.cls-1{fill:#f9bc00;}.cls-2{fill:#fff;}</style></defs><g id="レイヤー_2" data-name="レイヤー 2"><g id="レイヤー_1-2" data-name="レイヤー 1"><rect class="cls-1" width="111.91" height="32.91"/><path class="cls-2" d="M24.68,10.34l-2,1.2a3.52,3.52,0,0,0-1.08-1.29,2.53,2.53,0,0,0-1.39-.34,2.59,2.59,0,0,0-1.73.59A1.83,1.83,0,0,0,17.76,12c0,.81.61,1.46,1.81,2l1.65.67a7.2,7.2,0,0,1,3,2,4.53,4.53,0,0,1,.93,2.89,5.09,5.09,0,0,1-1.52,3.78,5.27,5.27,0,0,1-3.82,1.5,5.09,5.09,0,0,1-3.56-1.27,5.9,5.9,0,0,1-1.73-3.6L17,19.32a4.47,4.47,0,0,0,.6,2,2.63,2.63,0,0,0,2.26,1.07,2.61,2.61,0,0,0,1.94-.78,2.71,2.71,0,0,0,.78-2,2.81,2.81,0,0,0-.14-.89A2.39,2.39,0,0,0,22,18a3.57,3.57,0,0,0-.73-.63,6,6,0,0,0-1.08-.56l-1.6-.67q-3.4-1.44-3.4-4.21a4,4,0,0,1,1.43-3.13A5.18,5.18,0,0,1,20.2,7.55,5,5,0,0,1,24.68,10.34Z"/><path class="cls-2" d="M40.39,8.76v3A7,7,0,0,0,35.9,9.91a5.7,5.7,0,0,0-4.31,1.84,6.18,6.18,0,0,0-1.76,4.46,6.08,6.08,0,0,0,1.76,4.41,5.83,5.83,0,0,0,4.32,1.79A5.2,5.2,0,0,0,38.15,22a5.67,5.67,0,0,0,1.07-.58,11.17,11.17,0,0,0,1.17-.88v3a9,9,0,0,1-4.51,1.21,8.52,8.52,0,0,1-8.58-8.51,8.48,8.48,0,0,1,2.1-5.65,8.33,8.33,0,0,1,6.67-3A8.46,8.46,0,0,1,40.39,8.76Z"/><path class="cls-2" d="M52.7,10.22H46.05v4h6.46v2.35H46.05V22.1H52.7v2.35H43.55V7.87H52.7Z"/><path class="cls-2" d="M56,24.45V6.74L68.08,19.39V7.87h2.5V25.46L58.49,12.84V24.45Z"/><path class="cls-2" d="M83.71,10.22H77.06v4h6.46v2.35H77.06V22.1h6.65v2.35H74.56V7.87h9.15Z"/><path class="cls-2" d="M90.52,22.1H96.7v2.35H85.56l5.76-7c.56-.69,1-1.29,1.42-1.8s.67-.94.88-1.28a3.66,3.66,0,0,0,.61-1.82,2.56,2.56,0,0,0-.82-1.94,2.82,2.82,0,0,0-2-.79c-1.67,0-2.63,1-2.88,3H86q.6-5.23,5.3-5.24A5.35,5.35,0,0,1,95.12,9a4.68,4.68,0,0,1,1.55,3.56A5.43,5.43,0,0,1,96,15.25a13.84,13.84,0,0,1-1.07,1.6c-.47.62-1.06,1.36-1.78,2.2Z"/></g></g></svg>