<svg xmlns="http://www.w3.org/2000/svg" viewBox="0 0 111.91 32.91"><defs><style>.cls-1{fill:#f9bc00;}.cls-2{fill:#fff;}</style></defs><g id="レイヤー_2" data-name="レイヤー 2"><g id="レイヤー_1-2" data-name="レイヤー 1"><rect class="cls-1" width="111.91" height="32.91"/><path class="cls-2" d="M24.68,10.34l-2,1.2a3.52,3.52,0,0,0-1.08-1.29,2.53,2.53,0,0,0-1.39-.34,2.59,2.59,0,0,0-1.73.59A1.83,1.83,0,0,0,17.76,12c0,.81.61,1.46,1.81,2l1.65.67a7.2,7.2,0,0,1,3,2,4.53,4.53,0,0,1,.93,2.89,5.09,5.09,0,0,1-1.52,3.78,5.27,5.27,0,0,1-3.82,1.5,5.09,5.09,0,0,1-3.56-1.27,5.9,5.9,0,0,1-1.73-3.6L17,19.32a4.47,4.47,0,0,0,.6,2,2.63,2.63,0,0,0,2.26,1.07,2.61,2.61,0,0,0,1.94-.78,2.71,2.71,0,0,0,.78-2,2.81,2.81,0,0,0-.14-.89A2.39,2.39,0,0,0,22,18a3.57,3.57,0,0,0-.73-.63,6,6,0,0,0-1.08-.56l-1.6-.67q-3.4-1.44-3.4-4.21a4,4,0,0,1,1.43-3.13A5.16,5.16,0,0,1,20.2,7.55,5,5,0,0,1,24.68,10.34Z"/><path class="cls-2" d="M40.39,8.76v3A7,7,0,0,0,35.9,9.91a5.7,5.7,0,0,0-4.31,1.84,6.14,6.14,0,0,0-1.76,4.46,6,6,0,0,0,1.76,4.41,5.83,5.83,0,0,0,4.32,1.79A5.2,5.2,0,0,0,38.15,22a5.67,5.67,0,0,0,1.07-.58,11.17,11.17,0,0,0,1.17-.88v3a9.06,9.06,0,0,1-4.51,1.21,8.52,8.52,0,0,1-8.58-8.51,8.48,8.48,0,0,1,2.1-5.65,8.33,8.33,0,0,1,6.67-3A8.46,8.46,0,0,1,40.39,8.76Z"/><path class="cls-2" d="M52.7,10.22H46.05v4H52.5v2.35H46.05V22.1H52.7v2.35H43.55V7.87H52.7Z"/><path class="cls-2" d="M56,24.45V6.74L68.08,19.39V7.87h2.5V25.46L58.49,12.84V24.45Z"/><path class="cls-2" d="M83.71,10.22H77.06v4h6.46v2.35H77.06V22.1h6.65v2.35H74.56V7.87h9.15Z"/><path class="cls-2" d="M90.7,16.75V14.61a4.32,4.32,0,0,0,2.14-.35,2.2,2.2,0,0,0,1-2,2.28,2.28,0,0,0-.71-1.73,2.52,2.52,0,0,0-1.82-.68,2.34,2.34,0,0,0-1.61.51,3.36,3.36,0,0,0-.81,1.74h-2.5A5.75,5.75,0,0,1,88,8.67a4.85,4.85,0,0,1,3.37-1.09,5,5,0,0,1,3.55,1.29,4.28,4.28,0,0,1,1.38,3.29,4.09,4.09,0,0,1-1.81,3.55,4.21,4.21,0,0,1,2.07,3.94A4.8,4.8,0,0,1,95,23.3a5.38,5.38,0,0,1-3.86,1.42,4.94,4.94,0,0,1-4.44-2.2A5.78,5.78,0,0,1,85.94,20h2.42a2.69,2.69,0,0,0,2.89,2.48,2.69,2.69,0,0,0,2-.8,2.91,2.91,0,0,0,.8-2.1,2.54,2.54,0,0,0-1.2-2.38A4.41,4.41,0,0,0,90.7,16.75Z"/></g></g></svg>