<svg xmlns="http://www.w3.org/2000/svg" viewBox="0 0 255.34 171.57"><defs><style>.cls-1{fill:#717071;}.cls-2{fill:#fff;}.cls-10,.cls-2,.cls-3{stroke:#221714;stroke-miterlimit:10;}.cls-2,.cls-3{stroke-width:0.3px;}.cls-10,.cls-3{fill:none;}.cls-4{fill:#585757;}.cls-5{fill:#a8a8a9;}.cls-6{fill:#3d3a39;}.cls-7{fill:#231815;}.cls-8{fill:#221714;}.cls-9{fill:#211613;}.cls-10{stroke-width:0.84px;}</style></defs><g id="レイヤー_2" data-name="レイヤー 2"><g id="レイヤー_1-2" data-name="レイヤー 1"><path class="cls-1" d="M162.24,58.06,122.13,56.6a.21.21,0,0,1-.21-.21l-5.42-7.26a.21.21,0,0,1,.21-.22l42.59.26a.22.22,0,0,1,.21.21l2.94,8.47A.21.21,0,0,1,162.24,58.06Z"/><path class="cls-2" d="M160.33,49.14l-44.84-.68a.52.52,0,0,1-.52-.53V5.14a.52.52,0,0,1,.52-.52L160.33.15a.53.53,0,0,1,.53.53V48.61A.53.53,0,0,1,160.33,49.14Z"/><path class="cls-3" d="M164.3,58.07s-3.43-8.8-3.43-9.09c0,0,0-46.36,0-48.3l3.44,2.65c.26,0,.48.73.48,1V57.54A.51.51,0,0,1,164.3,58.07Z"/><path class="cls-4" d="M157,57.24l-5.6-.14c-.4,0-.83-.73-.83-1.15L148,49.69c0-.42.33-.34.73-.34l5.87.38c.4,0,.8.13.8.55l2.22,6.22C157.65,56.92,157.43,57.24,157,57.24Z"/><path class="cls-3" d="M164.3,58.07s-.3.64-2.5.4S121.63,57,121.63,57L115,48.29l2.08.29,43.28.56s.08.09.54-.38C161,49.39,164.3,58.07,164.3,58.07Z"/><path class="cls-5" d="M116.73,48.88l-.6,1.17,42.57.65s.46,0,.44,1c.21.19.32.33.6.12.47-.58.37-.44.47-.58a12.94,12.94,0,0,0-.82-2.13Z"/><ellipse class="cls-6" cx="125.45" cy="52.97" rx="1" ry="2.04" transform="translate(29.8 149.9) rotate(-68.27)"/><ellipse class="cls-4" cx="146.31" cy="52.82" rx="0.23" ry="0.47" transform="translate(43.08 169.18) rotate(-68.27)"/><ellipse class="cls-4" cx="146.8" cy="54.16" rx="0.23" ry="0.47" transform="matrix(0.37, -0.93, 0.93, 0.37, 42.14, 170.47)"/><ellipse class="cls-4" cx="152.32" cy="28.68" rx="0.23" ry="0.26"/><ellipse class="cls-4" cx="151.37" cy="29.35" rx="0.23" ry="0.26"/><ellipse class="cls-4" cx="150.71" cy="30.39" rx="0.23" ry="0.26"/><ellipse class="cls-4" cx="150.48" cy="31.57" rx="0.23" ry="0.26"/><ellipse class="cls-4" cx="150.71" cy="32.75" rx="0.23" ry="0.26"/><ellipse class="cls-4" cx="151.37" cy="33.75" rx="0.23" ry="0.26"/><ellipse class="cls-4" cx="152.26" cy="34.44" rx="0.23" ry="0.26"/><ellipse class="cls-4" cx="153.45" cy="34.69" rx="0.23" ry="0.26"/><ellipse class="cls-4" cx="154.57" cy="34.39" rx="0.23" ry="0.26"/><ellipse class="cls-4" cx="155.5" cy="33.75" rx="0.23" ry="0.26"/><ellipse class="cls-4" cx="156.17" cy="32.68" rx="0.23" ry="0.26"/><ellipse class="cls-4" cx="156.4" cy="31.51" rx="0.23" ry="0.26"/><ellipse class="cls-4" cx="156.22" cy="30.27" rx="0.23" ry="0.26"/><ellipse class="cls-4" cx="155.55" cy="29.27" rx="0.23" ry="0.26"/><ellipse class="cls-4" cx="154.61" cy="28.62" rx="0.23" ry="0.26"/><ellipse class="cls-4" cx="153.45" cy="28.42" rx="0.23" ry="0.26"/><ellipse class="cls-4" cx="153.45" cy="29.45" rx="0.23" ry="0.26"/><ellipse class="cls-4" cx="152.45" cy="29.76" rx="0.23" ry="0.26"/><ellipse class="cls-4" cx="151.71" cy="30.53" rx="0.23" ry="0.26"/><ellipse class="cls-4" cx="151.47" cy="31.57" rx="0.23" ry="0.26"/><ellipse class="cls-4" cx="151.71" cy="32.58" rx="0.23" ry="0.26"/><ellipse class="cls-4" cx="152.4" cy="33.33" rx="0.23" ry="0.26"/><ellipse class="cls-4" cx="153.45" cy="33.65" rx="0.23" ry="0.26"/><ellipse class="cls-4" cx="154.37" cy="33.33" rx="0.23" ry="0.26"/><ellipse class="cls-4" cx="155.14" cy="32.54" rx="0.23" ry="0.26"/><ellipse class="cls-4" cx="155.42" cy="31.51" rx="0.23" ry="0.26"/><ellipse class="cls-4" cx="155.14" cy="30.46" rx="0.23" ry="0.26"/><ellipse class="cls-4" cx="154.45" cy="29.71" rx="0.23" ry="0.26"/><ellipse class="cls-4" cx="153.45" cy="30.5" rx="0.23" ry="0.26"/><ellipse class="cls-4" cx="154.26" cy="31.01" rx="0.23" ry="0.26"/><ellipse class="cls-4" cx="154.26" cy="32.02" rx="0.23" ry="0.26"/><ellipse class="cls-4" cx="153.45" cy="31.51" rx="0.23" ry="0.26"/><ellipse class="cls-4" cx="153.45" cy="32.58" rx="0.23" ry="0.26"/><ellipse class="cls-4" cx="152.54" cy="31.04" rx="0.23" ry="0.26"/><ellipse class="cls-4" cx="152.54" cy="32.08" rx="0.23" ry="0.26"/><path class="cls-7" d="M59.33,93.52h-1V87.3a6.51,6.51,0,0,1-.86,1.2L57,87.4a11,11,0,0,0,2.09-5.06l1,.13a16.54,16.54,0,0,1-.77,2.77Zm.52-.92a14,14,0,0,0,3.32-.79,10.35,10.35,0,0,1-1.62-1.35l.82-.54a8,8,0,0,0,1.81,1.44A5.73,5.73,0,0,0,66,89.87H61.13v-.82H67v.82a5.73,5.73,0,0,1-1.9,1.92,16.41,16.41,0,0,0,3.43.79l-.36,1a12.92,12.92,0,0,1-4.06-1.2,15.43,15.43,0,0,1-3.83,1.21Zm8.23-3h-.93V88.2H61v1.44H60V87.42h8Zm-.63-2.94h-6.8v-.76h5.86v-.88H60.94v-.67h5.57v-.85h-5.7v-.81h6.64Z"/><path class="cls-7" d="M75.33,82.84c-.1,4.7,1.58,7.71,5.17,9.64l-.71,1c-4.16-2.54-4.79-5.78-5-6.77a9.64,9.64,0,0,1-5.11,6.77l-.67-1a8.51,8.51,0,0,0,3.88-3.42,9.39,9.39,0,0,0,1.32-5.25H71v-1Z"/><path class="cls-7" d="M91.69,82.87a17.65,17.65,0,0,1-3,3h3.63v.88H87.58c-.76.51-1.32.83-1.93,1.17h5.44V93.3H83.21V89.08c-.84.31-1.17.43-1.77.62L81,88.79a18.22,18.22,0,0,0,5-2H81.16V85.9H85.4V84.39H82.05v-.84H85.4V82.37h1v1.18h2.74v.81a13.33,13.33,0,0,0,1.69-2Zm-1.56,5.92H84.2v1.37h5.93Zm0,2.18H84.2v1.48h5.93ZM87.3,85.9a14.07,14.07,0,0,0,1.8-1.51H86.39V85.9Z"/><path class="cls-7" d="M102.94,84v1H97.65a10.26,10.26,0,0,1-.79,1.73A3.54,3.54,0,0,1,98.78,86a1.63,1.63,0,0,1,1.82,1.4c.28-.1,1.92-.76,3-1.14l.29,1a32.57,32.57,0,0,0-3.15,1c0,.42.05.94.05,1.37,0,.17,0,.53,0,.91H99.71c0-.28.06-.72.06-1.15,0-.21,0-.41,0-.72-.93.43-2.38,1.2-2.38,2.18S98.7,92,100,92a29.62,29.62,0,0,0,3.17-.17l0,1c-.69.05-1.73.12-2.87.12-1.36,0-4.07,0-4.07-1.93,0-1.63,2.15-2.71,3.34-3.24-.13-.71-.47-1-1-1a3.61,3.61,0,0,0-2.38,1.23c-.55.75-1.34,1.81-1.72,2.2l-.75-.8a10.43,10.43,0,0,0,2.79-4.51H94.07V84h2.76a8.48,8.48,0,0,0,.26-1.34l1.15,0c-.08.42-.14.69-.3,1.29Z"/><path class="cls-7" d="M108.87,89.34a7.86,7.86,0,0,1-1-1.82v6h-1V87.76a9.44,9.44,0,0,1-1.46,3.13L105,89.7a9.64,9.64,0,0,0,1.81-4.08h-1.61v-.91h1.68V82.39h1v2.32h1v.91h-1v.46a7.65,7.65,0,0,0,1.52,2.36Zm0,3.35c.55-.15,2.56-.69,3.09-2.54h-2.44V86.82h2.7v-1.1h-1.6v-.43a8.34,8.34,0,0,1-1.19.73l-.48-.86a7.85,7.85,0,0,0,3.15-2.8h1.18a7,7,0,0,0,3.23,2.78L116,86a12.55,12.55,0,0,1-1.13-.73v.44h-1.68v1.1h2.7v3.33h-2.35a4.42,4.42,0,0,0,3,2.48l-.48.9a5.29,5.29,0,0,1-3.2-2.94,5,5,0,0,1-3.43,3Zm3.35-5h-1.75v1.67h1.68a8.76,8.76,0,0,0,.07-1.37Zm2.14-2.76a10.87,10.87,0,0,1-1.67-1.8,15.17,15.17,0,0,1-1.61,1.8Zm-1.19,3a8.64,8.64,0,0,1-.07,1.39H115V87.65h-1.78Z"/><path class="cls-7" d="M122.87,83.9v.94H121v2.52h2.13v.94h-2.17c0,.29,0,.37-.08.55A9.25,9.25,0,0,0,123.11,92l-.75.72a11.32,11.32,0,0,1-1.87-2.52,6.41,6.41,0,0,1-2.72,3.34l-.67-.85a5.46,5.46,0,0,0,2.83-4.35h-2.74v-.94H120V84.84h-.9A13.42,13.42,0,0,1,118,86.66l-.82-.59A9.52,9.52,0,0,0,119,82.3l1,.21c-.2.64-.31.94-.49,1.39ZM128,93.26h-4.6V83H128Zm-1-9.33h-2.66v8.41H127Z"/><path class="cls-7" d="M175.49,70.08h.91v.78h2.54v.83h-6v-.83h2.59ZM177,77.53a8,8,0,0,1,.52,1.93l-.67.18c0-.15-.05-.26-.08-.43-.42.11-.66.17-2.34.47l-.14-.79.3,0c.31-1.27.34-1.42.43-1.81h-1v4.18h-.87v-5h2c.07-.42.09-.53.12-.82h-2V72.16h.86v2.55h3.58V72.16h.83V74a10.09,10.09,0,0,0,1.49-4l.9.16a9.68,9.68,0,0,1-.46,1.8h1.12a15,15,0,0,0,.64-1.9l.9.18a16.83,16.83,0,0,1-.64,1.72h1.31v.85h-1.33v1.82h1.19v.82h-1.19v1.81h1.19v.82h-1.19v2H184V81h-4.52V74.38A4.17,4.17,0,0,1,179,75l-.44-.48v.94h-2.47c0,.13-.13.7-.16.82h2.71v4.15c0,.59-.27.8-.8.8h-1.19l-.13-.91h.92c.29,0,.33-.1.33-.32V77h-2c-.13.57-.28,1.15-.45,1.71a12.73,12.73,0,0,0,1.26-.2c-.08-.27-.09-.32-.27-.88ZM175.15,72c.57.38.7.48,1,.67a5,5,0,0,0,.8-.81l.59.42a5.25,5.25,0,0,1-.81.86,6.79,6.79,0,0,1,.77.7l-.55.6a9.72,9.72,0,0,0-.79-.78,8.7,8.7,0,0,1-1.3.81l-.49-.6a10,10,0,0,0,1.2-.71c-.25-.19-.38-.3-.89-.64Zm6.5.92h-1.29v1.82h1.29Zm0,2.64h-1.29v1.81h1.29Zm0,2.63h-1.29v2h1.29Z"/><path class="cls-7" d="M185.19,77.79a9.83,9.83,0,0,0,2.4-3.4c0-.21,0-.77,0-.91l-2.1,0v-1h2.1c0-.7,0-1,0-1.89h1.12c-.08.91-.08,2.13-.08,2.86,1.49-1.64,2.79-2.12,3.8-2.12a1.7,1.7,0,0,1,1.72,1.93c0,.23,0,.52,0,.74l-.08,1.72c-.05,1-.09,1.63-.09,2,0,1,0,1.52,1.82,1.48l-.32,1c-2.42,0-2.6-1-2.6-2.37,0-.38,0-.86.1-2.19l.08-1.7c.05-.85,0-1.6-.88-1.6-.68,0-1.9.44-3.57,2.42,0,3,0,5.16,0,5.86h-1.08c0-.62,0-3.67.05-4.37a11.84,11.84,0,0,1-1.74,2.52Z"/><path class="cls-7" d="M197.24,80.44a27.52,27.52,0,0,0,2.06-7.31h-1.75v-1h1.88c.09-.84.09-.89.15-1.58l1.16,0c-.07.61-.09.79-.19,1.55h3.3v1H200.4a36.74,36.74,0,0,1-2.05,7.69Zm5.6-3.09a1.83,1.83,0,0,0-.41,1.09c0,1.06,1.39,1.1,2.78,1.1.41,0,1.31,0,2.31-.09v1.09l-2.26,0c-1.41,0-3.86,0-3.86-2A2.9,2.9,0,0,1,202,77Zm4.41-2.54c-.32,0-.68,0-1.22,0a9.12,9.12,0,0,0-3.29.51l-.34-.93a11,11,0,0,1,4.85-.62Z"/><path class="cls-7" d="M212.45,77.39A18.74,18.74,0,0,1,208.94,79l-.13-1c.38-.11.8-.23,1.45-.47V73.58h-1.35v-.92h1.35V70.12h1v2.54h1.09v.92h-1.09v3.51a11.41,11.41,0,0,0,1.18-.59Zm7.18-.74a15.51,15.51,0,0,1-.36,3.87,1.09,1.09,0,0,1-1.11.68h-1.55l-.13-.94,1.5,0c.34,0,.43-.26.48-.46a13.9,13.9,0,0,0,.22-2.39h-.81a6.83,6.83,0,0,1-3.53,3.87l-.6-.75A6.4,6.4,0,0,0,217,77.43h-1a7.46,7.46,0,0,1-3.93,3.1l-.43-.76A6.8,6.8,0,0,0,215,77.43h-1.14a7.18,7.18,0,0,1-2,1.42l-.44-.71a5.21,5.21,0,0,0,2.67-2.3h-1.88v-.78H220v.78h-5a7.55,7.55,0,0,1-.51.81Zm-.42-6.16v3.86H213V70.49Zm-.92.74h-4.43v.88h4.43Zm0,1.54h-4.43v.87h4.43Z"/><path class="cls-7" d="M225.88,72.67v4.39h-3.3a9.28,9.28,0,0,1-1,4.14l-.83-.72a4.58,4.58,0,0,0,.65-1.71,13.47,13.47,0,0,0,.2-2.08v-4Zm.42-1.26h-5.36v-.92h5.36Zm-1.37,2.16h-2.35v2.58h2.35Zm2.87.23H232v.94h-1.44v6.5h-1v-6.5H227.8V75c0,4-1.36,5.63-1.8,6.18l-.9-.67a4.85,4.85,0,0,0,1.28-2.16,10.46,10.46,0,0,0,.44-3v-4.4a13.7,13.7,0,0,0,4.39-.86l.57.88a13.74,13.74,0,0,1-4,.83Z"/><path class="cls-7" d="M243.39,72.3c-.52,0-.89,0-1.23,0a3.33,3.33,0,0,0-1.21.15c-1.73.57-4.08,2.43-4.08,4.49,0,1.56,1.15,2.06,2.43,2.32a13.79,13.79,0,0,0,3,.21l-.22,1.17c-2.36-.1-6.34-.27-6.34-3.62,0-2.28,2.1-3.85,3.51-4.68-.35,0-4.5.26-5.8.42l-.1-1.18c.59,0,2.66-.1,3.28-.14,2.84-.16,4-.18,6.71-.19Zm-2.49,1.44A10.82,10.82,0,0,1,242.22,76l-.84.52a9.88,9.88,0,0,0-1.26-2.31Zm1.78-.77A11.09,11.09,0,0,1,244,75.24l-.84.53a11.24,11.24,0,0,0-1.26-2.32Z"/><path class="cls-7" d="M252.77,72.22v1H248.9l-.05,2.2h1.56a7.7,7.7,0,0,0,2.22-.22l.06,1a9.17,9.17,0,0,1-2.23.22h-1.62c-.07,2.66-.06,3.21,2.42,3.21,1.25,0,3,0,3-2.31a6.11,6.11,0,0,0-.69-2.66l1-.27a6.34,6.34,0,0,1,.82,3c0,3.23-2.7,3.23-4,3.23-1.54,0-2.69-.14-3.29-1.34a7.13,7.13,0,0,1-.26-2.9h-2.26v-1h2.27l0-2.2h-2.13v-1h2.15V70.56h1.1l0,1.66Z"/><path class="cls-7" d="M188.55,88.5v6.61h-3V90.9a5.77,5.77,0,0,1-.45.74l-.41-1.22A9.62,9.62,0,0,0,186,86h-1.13V85h3.69v1h-1.65a15.73,15.73,0,0,1-.48,2.53Zm-.88.88h-1.23v4.83h1.23Zm4.77-1.11a11,11,0,0,0,.65-1.53l.92.18a9.65,9.65,0,0,1-.62,1.35h2.42v.81h-2.37v1.25h2v.76h-2v1.27h2v.78h-2v1.44H196v.84h-6.28V90.24c-.26.25-.36.34-.59.53l-.59-.77a7.82,7.82,0,0,0,2.56-3.68h-1.28v1.41h-.92V85.48h2.47c.13-.48.17-.66.24-1l1,.15c-.08.33-.12.48-.24.86h3.45v2.25h-.94V86.32h-2.78a16.07,16.07,0,0,1-.88,2Zm-1.72.81s0,.06-.07.09v1.16h1.92V89.08Zm1.85,2h-1.92v1.27h1.92Zm0,2h-1.92v1.44h1.92Z"/><path class="cls-7" d="M201.27,86.57v.86h-4.4v-.86Zm-.4-1.67v.87h-3.64V84.9Zm0,3.36v.86h-3.64v-.86Zm0,1.78v.84h-3.64V90Zm0,1.72v3.69h-3.62V91.76Zm-.85.83h-1.89v2H200Zm.9,1.92a7.47,7.47,0,0,0,.79-2.85l.89.08a10.24,10.24,0,0,1-.83,3.26Zm.24-5a4.67,4.67,0,0,0,2.06-1.87,13,13,0,0,0-1.39-.48l.36-.75c.36.1.64.17,1.38.43a5.2,5.2,0,0,0,.23-1.09h-2.06V84.9h5.92a18.35,18.35,0,0,1-.35,4.43,1,1,0,0,1-1.1.74h-1.08l-.17-1H206c.37,0,.48-.23.55-.54a14.58,14.58,0,0,0,.2-2.82h-2a8,8,0,0,1-.35,1.44,8.3,8.3,0,0,1,1.31.71l-.42.8a10.79,10.79,0,0,0-1.25-.69,6.17,6.17,0,0,1-2.25,2.29ZM204,91.63v2.62c0,.2,0,.37.3.37h.78c.37,0,.4-.28.46-1.29l.9.27c-.09,1-.18,1.88-1.08,1.88h-1.3c-.65,0-1-.26-1-1V91.63Zm1.21.29a8.73,8.73,0,0,0-2-1.51l.57-.71a9.19,9.19,0,0,1,2,1.51Zm2,3a12.63,12.63,0,0,0-1.06-3.28l.85-.26a12.35,12.35,0,0,1,1.14,3.26Z"/><path class="cls-7" d="M219.39,86.73c-.52,0-.89,0-1.23,0a3.36,3.36,0,0,0-1.21.14c-1.73.58-4.08,2.44-4.08,4.5,0,1.56,1.15,2.05,2.43,2.31a13.74,13.74,0,0,0,3,.22L218.1,95c-2.36-.09-6.34-.26-6.34-3.62,0-2.28,2.1-3.85,3.51-4.68-.35,0-4.5.27-5.8.42l-.1-1.17c.59,0,2.66-.11,3.28-.14,2.84-.16,4-.18,6.71-.2Zm-2.49,1.44a10.5,10.5,0,0,1,1.32,2.26l-.84.53a9.68,9.68,0,0,0-1.26-2.31Zm1.78-.77A11,11,0,0,1,220,89.66l-.84.53a11.16,11.16,0,0,0-1.26-2.31Z"/><path class="cls-7" d="M231.39,89.46a28.77,28.77,0,0,1-3.24.34,8.85,8.85,0,0,0,1.28,2l-.94.65A10.77,10.77,0,0,1,227,89.84c-.32,0-1.24,0-1.66,0l-3.79,0v-1l3.64,0c.36,0,.76,0,1.47,0a12.54,12.54,0,0,1-.4-1.43c-.43,0-.85,0-1.28,0l-3,0v-1h4.09a12.59,12.59,0,0,1-.19-1.47L227,85a13.5,13.5,0,0,0,.15,1.44,28.42,28.42,0,0,0,3.24-.33l.1,1a31.19,31.19,0,0,1-3.16.3,11.82,11.82,0,0,0,.42,1.42,20.87,20.87,0,0,0,3.51-.4Zm-7.15,2.15a1.68,1.68,0,0,0-.6,1.08c0,1.23,2.08,1.35,3.81,1.35,1.38,0,2.16-.07,2.74-.12l0,1.06c-.59,0-1.06.08-2.44.08a9.38,9.38,0,0,1-3.9-.48,2,2,0,0,1-1.34-1.74,2.43,2.43,0,0,1,.89-1.77Z"/><path class="cls-7" d="M241.12,86.17c-.27.2-.64.5-.94.74l-2.49,2a6.31,6.31,0,0,1,2.15-.41,2.87,2.87,0,0,1,3.17,3c0,2.35-2,3.56-4.25,3.56-1.91,0-3.1-.85-3.1-2a1.85,1.85,0,0,1,2-1.69,2.93,2.93,0,0,1,2.87,2.35A2.33,2.33,0,0,0,242,91.52c0-.63-.2-2.13-2.5-2.13-2.12,0-3.68,1.19-5.32,2.75l-.63-.9c.93-.72,3.67-2.93,5.93-5-2,.15-2.75.17-4.7.21v-1c2.54,0,3.52,0,6.39-.17Zm-3.47,6.09c-.73,0-1,.46-1,.79,0,.58.77,1.16,2.11,1.16a3.33,3.33,0,0,0,.93-.11A2,2,0,0,0,237.65,92.26Z"/><path class="cls-8" d="M69.1,134a3.08,3.08,0,0,1-2.61-.32c-1.18-.95-.91-3.05-.87-3.37.11-1,.47-1.26,1.74-3.59.73-1.35.53-1.11,2.06-4a31,31,0,0,1,1.63-2.83,7.63,7.63,0,0,1,1.74-2.06,4.65,4.65,0,0,1,2-1,82.93,82.93,0,0,1,12.71-.65c3.23.25,4,.42,4.79.76a14.2,14.2,0,0,1,4.67,3.48,22.44,22.44,0,0,1,3.15,3.8,13,13,0,0,0,2.5,3.37,10,10,0,0,0,2,1.31,33,33,0,0,0,7.28,2.71c2.87.78,3.85.84,4.56,1.85a3.24,3.24,0,0,1,.55,3c-.71,1.49-3.58,1.23-5.44,1.09a43.44,43.44,0,0,1-5.82-.76c-3.34-.58-3.52-.62-4.83-1.41a14,14,0,0,1-3.15-2.72c-.41-.49-.64-.72-1.09-1.2-1.37-1.43-1.63-1.42-1.74-1.41-.5.07-.62.94-1.19,2.72-1,3.17-1.74,3.82-1.31,4.89a5.66,5.66,0,0,0,1.57,2.06,25.44,25.44,0,0,1,2.56,2.72c.34.4,1.25,1.33,3,3.15,2,2,2.14,2.15,2.39,2.61.6,1.13.55,2,.54,4.46,0,2.21.09,4.42.11,6.63,0,3.62.09,4.15,0,5.76-.11,2,.16,2.94-.43,4.13a4,4,0,0,1-2.61,2.28,3.49,3.49,0,0,1-2.07-.43,4.26,4.26,0,0,1-1.52-1.31,5.33,5.33,0,0,1-.65-3.15c0-1.53-.23-3-.33-4.57-.25-3.8-.43-3-.54-5.54a7.41,7.41,0,0,0-.54-3.37A6.8,6.8,0,0,0,92,151.11a43,43,0,0,1-4-3.48c-.89-1-.6-.79-1-.76-.64,0-.94,1.59-1.52,3.59s-1.38,3.76-2.07,5.65c-1.94,5.32-3.8,11.27-5.32,13.15a5.79,5.79,0,0,1-1.85,1.52,3.9,3.9,0,0,1-3.26.43,3.91,3.91,0,0,1-2-2.93,6.69,6.69,0,0,1,.44-3.15c.69-2.61,1-3.91,1.19-4.35.82-2.41,1.52-4.86,2.28-7.28s1.66-5.21,2.61-8.7.69-3,2-7.71A61,61,0,0,0,81.27,130c.37-2.56,1.15-5.56.87-5.87s-2.26-.06-3.15-.11a7.28,7.28,0,0,0-1.53,0c-1,.21-1.54,1.22-1.84,1.74-.75,1.28-1,1.75-1.79,3.11A22.62,22.62,0,0,1,72.4,131C71.05,132.77,70.34,133.7,69.1,134Z"/><path class="cls-8" d="M96.46,116.86a7.53,7.53,0,1,1,7.52-7.52A7.53,7.53,0,0,1,96.46,116.86Z"/><path class="cls-8" d="M117.28,112.86a1.16,1.16,0,0,1,1.15-1.25,1.23,1.23,0,1,1-1.15,1.25Zm1.78-3.17h-1.29L117.49,99h1.84Z"/><path class="cls-8" d="M221.62,121.18a7.3,7.3,0,1,0-7.29-7.3A7.3,7.3,0,0,0,221.62,121.18Z"/><path class="cls-8" d="M227.37,122.36a3,3,0,0,0-1.49-.39h-9.47a2.94,2.94,0,0,0-1.53.42,36.37,36.37,0,0,0-6.74,5.42,25.75,25.75,0,0,1,0-7.32,3,3,0,0,0-5.84-1c-.06.37-1.46,9,2.11,15.47a3,3,0,0,0,2.36,1.52,2.91,2.91,0,0,0,2.57-1.14,42.6,42.6,0,0,1,4.17-4.46V168a3.55,3.55,0,1,0,7.09,0V147.31h2.22V168a3.55,3.55,0,1,0,7.1,0V132.91a33.13,33.13,0,0,1,4.46,11.85,3,3,0,0,0,2.93,2.55,2.68,2.68,0,0,0,.4,0A3,3,0,0,0,240.2,144C240.12,143.33,238,128.5,227.37,122.36Z"/><path class="cls-9" d="M202.15,98.78l-7.21,2.3a1.07,1.07,0,0,0-.69,1.34l5.06,15.86a1.06,1.06,0,0,0,1.34.69l7.21-2.3a1.07,1.07,0,0,0,.69-1.34l-5.06-15.86A1.07,1.07,0,0,0,202.15,98.78Zm-4.21,2.29a.14.14,0,0,1,.1-.08l1.52-.49a.18.18,0,0,1,.22.11.19.19,0,0,1,0,.13.16.16,0,0,1-.1.08l-1.53.49a.16.16,0,0,1-.21-.11A.2.2,0,0,1,197.94,101.07Zm-.5.1a.19.19,0,0,1,.22.12.16.16,0,0,1-.11.21.17.17,0,0,1-.11-.33ZM204,117.09a.76.76,0,1,1,.49-1A.75.75,0,0,1,204,117.09Zm3-3.32-7.46,2.38-4.1-12.85,7.46-2.38Z"/><path class="cls-8" d="M198.72,109.23a.32.32,0,0,1-.29.06c-.17-.06-.21-.3-.22-.33s0-.15.06-.45,0-.14.08-.51a3,3,0,0,1,.08-.36.71.71,0,0,1,.11-.28.52.52,0,0,1,.18-.18,10.42,10.42,0,0,1,1.34-.52,1.93,1.93,0,0,1,.55-.09,1.62,1.62,0,0,1,.62.21,2.46,2.46,0,0,1,.48.3,1.51,1.51,0,0,0,.39.27.73.73,0,0,0,.25.08,4.66,4.66,0,0,0,.89,0c.33,0,.44,0,.55,0a.35.35,0,0,1,.17.31c0,.18-.34.26-.55.31a6,6,0,0,1-.65.12,1.1,1.1,0,0,1-.57,0,1.83,1.83,0,0,1-.44-.18l-.16-.09c-.2-.11-.22-.1-.24-.09s0,.12,0,.33c0,.38,0,.48,0,.58s.07.08.24.16a3.49,3.49,0,0,1,.37.2c.05,0,.18.1.44.24s.31.15.35.19.13.2.22.46l.24.71c.14.39.16.45.21.63a1.13,1.13,0,0,1,.1.46.46.46,0,0,1-.2.33.37.37,0,0,1-.24,0,.43.43,0,0,1-.21-.09.57.57,0,0,1-.18-.31c-.06-.17-.13-.32-.2-.48-.16-.4-.15-.31-.25-.58a.89.89,0,0,0-.18-.34.76.76,0,0,0-.28-.16,4.27,4.27,0,0,1-.55-.24c-.13-.07-.09-.06-.13,0s-.05.2,0,.44,0,.45,0,.68a8,8,0,0,1-.11,1.61.66.66,0,0,1-.15.23.45.45,0,0,1-.33.16.46.46,0,0,1-.32-.25.88.88,0,0,1-.06-.35c0-.31,0-.46,0-.51,0-.29,0-.58,0-.87s0-.62,0-1,0-.34-.06-.9a7.81,7.81,0,0,0-.06-.82,4,4,0,0,0-.12-.67s-.24.08-.34.1l-.17.06a.36.36,0,0,0-.13.25c0,.17,0,.22-.08.4s0,.16-.08.28S198.84,109.15,198.72,109.23Z"/><path class="cls-8" d="M201.06,106.41a.85.85,0,1,1,.54-1.08A.86.86,0,0,1,201.06,106.41Z"/><path class="cls-8" d="M203.16,105.24a.14.14,0,0,1,.08-.18.13.13,0,0,1,.16.1.12.12,0,0,1-.08.17A.12.12,0,0,1,203.16,105.24Zm.08-.4-.14,0-.41-1.14.2-.07Z"/><path class="cls-10" d="M168.94,28.17c16.68,5.42,28.28,15.44,34.38,32.29"/><polygon class="cls-8" points="198.9 60.6 205.12 66.23 206.89 58.02 198.9 60.6"/><path class="cls-8" d="M50.75,77l-.31-.42c-5.21-7-10.07-7.65-18.59-2.5l-.57.34-.05-.81c-.19-2.88-.85-4.78-2.08-6-2.13-2.11-6.13-2.31-13-.62l-1.05.26L15.72,66c1.46-2.75,1.91-4.74,1.39-6.1-.87-2.24-4.54-3.38-11.55-3.6L4,56.3l1.33-1c3.4-2.6,5-4.64,4.81-6.23-.2-1.92-3-3.78-8.55-5.7L0,42.8l1.61-.55c5.55-1.91,8.35-3.78,8.55-5.69.17-1.6-1.41-3.63-4.81-6.24L4,29.3l1.54,0c7-.22,10.68-1.36,11.55-3.6.52-1.36.07-3.35-1.39-6.1l-.61-1.14,1.05.25c6.86,1.69,10.86,1.5,13-.62,1.23-1.22,1.89-3.13,2.08-6l.05-.82.57.34c8.52,5.15,13.38,4.5,18.59-2.49l.31-.42.31.42c5.21,7,10.08,7.64,18.59,2.49l.57-.34,0,.82c.19,2.87.85,4.78,2.08,6,2.13,2.12,6.14,2.31,13,.62l1-.25-.61,1.14c-1.46,2.75-1.91,4.74-1.38,6.1.87,2.24,4.53,3.38,11.54,3.6l1.54,0-1.33,1c-3.4,2.61-5,4.64-4.81,6.24.2,1.91,12.72,3.15,18.27,5.07l1.61.55-1.61.55c-5.55,1.91-18.07,4.4-18.27,6.32-.17,1.59,1.41,3.63,4.81,6.23l1.33,1-1.54,0c-7,.22-10.67,1.36-11.54,3.6-.53,1.36-.08,3.35,1.38,6.1l.61,1.15-1-.26c-6.86-1.69-10.86-1.49-13,.62-1.23,1.23-1.89,3.13-2.08,6l0,.81L69.65,74c-8.51-5.15-13.38-4.49-18.59,2.5Zm-9.53-7.43c3.56,0,6.53,1.9,9.53,5.79,5.23-6.78,10.39-7.52,18.72-2.65.28-2.75,1-4.73,2.35-6,2.26-2.25,6.08-2.58,12.68-1.07C83.28,63,83,61,83.62,59.42c1-2.55,4.25-3.81,10.83-4.16-2.94-2.46-4.17-4.46-4-6.37.25-2.31,12.28-4.79,17.38-6.71-5.1-1.93-17.13-3.16-17.38-5.47-.19-1.91,1-3.9,4-6.37-6.58-.34-9.85-1.61-10.83-4.16-.61-1.57-.34-3.55.88-6.14-6.6,1.5-10.42,1.17-12.68-1.08-1.3-1.29-2.07-3.27-2.35-6C61.14,17.81,56,17.08,50.75,10.29,45.52,17.08,40.36,17.81,32,12.94c-.28,2.75-1.05,4.73-2.35,6C27.42,21.21,23.6,21.54,17,20c1.22,2.59,1.5,4.57.88,6.14-1,2.55-4.25,3.82-10.83,4.16,2.94,2.47,4.18,4.46,4,6.37C10.79,39,8.47,40.88,3.37,42.8c5.1,1.93,7.42,3.78,7.66,6.09.2,1.91-1,3.91-4,6.37,6.58.35,9.85,1.61,10.83,4.16C18.5,61,18.22,63,17,65.57c6.6-1.51,10.42-1.18,12.68,1.07,1.3,1.29,2.07,3.27,2.35,6C35.59,70.58,38.57,69.52,41.22,69.52Z"/><path class="cls-7" d="M36.25,29.94v6.2h-.79V30.76a9.92,9.92,0,0,1-3.39,2.82l-.45-.71a8.46,8.46,0,0,0,4.23-4H31.72V28.1H40v.74H36.65a11,11,0,0,1-.6,1.1Zm3.37,3.64a13.09,13.09,0,0,1-3.06-3l.55-.44a11.47,11.47,0,0,0,3,2.74Z"/><path class="cls-7" d="M46.45,31h1A6.62,6.62,0,0,0,48,29.89l.7.3c-.11.21-.18.34-.44.76h2v.61h-2.9a7.75,7.75,0,0,0,3,1.33l-.37.65c-.3-.1-.43-.14-.71-.25V36H43V33.31l-.72.27-.35-.66a6.82,6.82,0,0,0,3-1.36H42V31h2a6,6,0,0,0-.44-.73l.62-.25h-.8l-.18-.59a27.77,27.77,0,0,0,5.58-.33l.26.55a17.67,17.67,0,0,1-2.57.3Zm0-3.17v.49H50.1v1.86h-.71V28.88H42.9v1.25h-.71V28.27h3.54v-.49Zm-.69,5.53H43.67v.75h2.12Zm0,1.27H43.67v.79h2.12Zm-.12-3a5.15,5.15,0,0,1-1.51,1.19h1.63V31.56Zm.12-1.63-1.62,0a6.75,6.75,0,0,1,.56,1h1.06Zm2.36,2.82a6.53,6.53,0,0,1-1.6-1.19h-.1v1.19Zm.44.56H46.45v.75h2.14Zm0,1.27H46.45v.79h2.14Z"/><path class="cls-7" d="M60.1,28.15a13.66,13.66,0,0,1-2.21,2.28h2.72v.65H57c-.57.39-1,.63-1.45.89h4.08v4H53.74V32.81c-.63.24-.88.33-1.33.47l-.34-.68a13.56,13.56,0,0,0,3.74-1.52H52.2v-.65h3.18V29.29H52.87v-.63h2.51v-.88h.75v.88h2v.61a10.34,10.34,0,0,0,1.27-1.48ZM58.94,32.6H54.48v1h4.46Zm0,1.63H54.48v1.11h4.46Zm-2.13-3.8a10.36,10.36,0,0,0,1.35-1.14h-2v1.14Z"/><path class="cls-7" d="M69.8,29v.72h-4a7,7,0,0,1-.6,1.29,2.69,2.69,0,0,1,1.45-.53A1.22,1.22,0,0,1,68,31.52c.21-.08,1.44-.57,2.25-.85l.22.78c-.73.21-1.37.41-2.36.79,0,.31,0,.7,0,1a6.7,6.7,0,0,1,0,.69h-.78c0-.21,0-.54,0-.87,0-.15,0-.3,0-.54-.69.33-1.78.9-1.78,1.64s1,.79,2,.79A22.17,22.17,0,0,0,70,34.85l0,.77c-.52,0-1.3.09-2.16.09-1,0-3,0-3-1.45,0-1.22,1.61-2,2.5-2.43-.09-.53-.35-.71-.76-.71a2.67,2.67,0,0,0-1.78.92c-.42.56-1,1.36-1.3,1.65l-.56-.6A7.88,7.88,0,0,0,65,29.71H63.15V29h2.07a8.46,8.46,0,0,0,.19-1l.86,0A6.94,6.94,0,0,1,66,29Z"/><path class="cls-7" d="M29.69,39.88a11.35,11.35,0,0,1-1.28,1.32,12,12,0,0,0,1.48.73l-.31.69a14,14,0,0,1-1.38-.71v.57H27.08v1.3h2.5v.67h-2.5v1.6c0,.19,0,.24.26.24h1.22c.41,0,.46-.09.52-1.15l.74.15c-.13,1.27-.19,1.7-1,1.7H27.06c-.24,0-.71,0-.71-.61V44.45h-1.6a3.46,3.46,0,0,1-2.92,2.67l-.35-.72c1.55-.23,2.41-1.09,2.54-1.95H21.68v-.67h2.39v-1.3h-1V42a12,12,0,0,1-1.31.67L21.38,42a8.15,8.15,0,0,0,1.7-.82,13.84,13.84,0,0,0-1.16-.92l.49-.44a9.21,9.21,0,0,1,1.25.95,8.31,8.31,0,0,0,1.16-1.07H22.34V39H26a4.59,4.59,0,0,0,.7.88,8.24,8.24,0,0,0,1.11-1.09l.6.34a11.87,11.87,0,0,1-1.22,1.2,5,5,0,0,0,.62.48,9.75,9.75,0,0,0,1.27-1.29ZM28,41.81a9.41,9.41,0,0,1-2.42-2.11,8.66,8.66,0,0,1-2.36,2.11Zm-1.69.67H24.79v1.3h1.56Z"/><path class="cls-7" d="M37.17,46a.23.23,0,0,0,.26.26h1.41c.45,0,.48-.07.53-1.42l.73.19c-.07,1.78-.3,1.93-1,1.93h-2a.64.64,0,0,1-.73-.69V44.49H35.06A3.63,3.63,0,0,1,32,47.16l-.35-.78a2.91,2.91,0,0,0,2.67-1.89H32.61V39.11h6.56v5.38h-2Zm1.25-6.28H33.34v.94h5.08Zm0,1.55H33.34v.93h5.08Zm0,1.54H33.34v1h5.08Z"/><path class="cls-7" d="M44.49,39.2c-.08,2.43-.12,3.5-.12,4.36,0,1.15.06,2.36,1.75,2.36,2.33,0,2.63-1.62,2.88-3l.75.28c-.28,1.63-.87,3.48-3.61,3.48-2.46,0-2.62-1.64-2.62-3.21,0-.68,0-3.67.06-4.28Z"/><path class="cls-7" d="M59.91,40.11v.7H57v1.11h2.7v.69H57v1.26a8.81,8.81,0,0,1,2.69,1.63l-.53.78A6.42,6.42,0,0,0,57,44.68v.51c0,1.29-1.08,1.53-1.83,1.53-1.76,0-2.14-.94-2.14-1.51,0-1,.93-1.63,2.27-1.63a4.29,4.29,0,0,1,.9.09V42.61H53v-.69h3.28V40.81H52.82v-.7h3.42v-.94H57v.94Zm-3.67,4.26a3,3,0,0,0-.9-.13c-.83,0-1.51.35-1.51.94,0,.17.09.84,1.28.84.78,0,1.13-.28,1.13-1Z"/><path class="cls-7" d="M65,39.2c-.08,2.43-.12,3.5-.12,4.36,0,1.15.06,2.36,1.75,2.36,2.33,0,2.63-1.62,2.88-3l.75.28c-.28,1.63-.87,3.48-3.61,3.48-2.46,0-2.62-1.64-2.62-3.21,0-.68,0-3.67.06-4.28Z"/><path class="cls-7" d="M73,46.56a21.18,21.18,0,0,0,1.55-5.49H73.24V40.3h1.42c.06-.63.06-.67.1-1.19l.88,0c-.06.46-.08.59-.15,1.16H78v.77H75.39a28,28,0,0,1-1.54,5.77Zm4.2-2.33a1.4,1.4,0,0,0-.3.82c0,.8,1,.83,2.09.83.3,0,1,0,1.72-.07v.82l-1.69,0c-1.06,0-2.9,0-2.9-1.53a2.23,2.23,0,0,1,.42-1.19Zm3.32-1.9c-.25,0-.52,0-.92,0a6.88,6.88,0,0,0-2.47.38l-.26-.7a8.32,8.32,0,0,1,3.65-.46Z"/><path class="cls-7" d="M28.38,53.3v2.52a1.4,1.4,0,0,0,.67,1.07,3.08,3.08,0,0,0,1.4.36H35l-.14.7H30.58a2.7,2.7,0,0,1-2.41-1.11,8.15,8.15,0,0,1-1.29,1.33l-.4-.77a5.31,5.31,0,0,0,1.17-1V54H26.59V53.3Zm-.23-1.43a8.81,8.81,0,0,0-1.44-1.51l.53-.48a7.17,7.17,0,0,1,1.48,1.49Zm6.49,0v4.3c0,.29-.07.7-.71.7H33l-.12-.7h.87c.15,0,.25,0,.25-.27v-.72H32.29v1.57h-.68V55.16H30v1.68h-.68v-5h2a6.83,6.83,0,0,0-1-.6l.4-.49a8.78,8.78,0,0,1,1.2.75,6,6,0,0,0,1.43-.8H29.17v-.61h5.26v.61a7.89,7.89,0,0,1-2,1.14Zm-3,.59H30v.79h1.66Zm0,1.36H30v.8h1.66ZM34,52.43H32.29v.79H34Zm0,1.36H32.29v.8H34Z"/><path class="cls-7" d="M39.34,49.79v.77h1.55v.67H39.34v1h1.77v.66h-.56c-.08.41-.24,1-.32,1.26H41v.67H39.34v1h1.55v.67H39.34v1.65h-.71V56.49H37.08v-.67h1.55v-1H36.94V54.1h.84a8.4,8.4,0,0,0-.33-1.26h-.59v-.66h1.77v-1H37.08v-.67h1.55v-.77Zm.22,4.31a6.36,6.36,0,0,0,.26-1.26H38.14a8.89,8.89,0,0,1,.31,1.26Zm5.28,4A6,6,0,0,1,43.7,57a6.1,6.1,0,0,1-1,1.08l-.45-.61a4.6,4.6,0,0,0,1-1.07,6.83,6.83,0,0,1-1-2l.63-.19a9.14,9.14,0,0,0,.72,1.54A6.77,6.77,0,0,0,44.22,54H42.08v4.19h-.7V50.08h3.47a8.34,8.34,0,0,1-.24,2.32c-.07.14-.19.4-.75.4h-1l-.13-.69h.88c.39,0,.5-.13.55-1.36H42.08v2.53H45a8.24,8.24,0,0,1-.89,3.12,9.13,9.13,0,0,0,1.17,1.07Z"/><path class="cls-7" d="M49.62,50.2c-.08,2.43-.12,3.5-.12,4.36,0,1.15.06,2.36,1.75,2.36,2.33,0,2.63-1.62,2.88-3l.76.28c-.29,1.63-.88,3.48-3.62,3.48-2.46,0-2.62-1.64-2.62-3.21,0-.68.05-3.67.06-4.28Z"/><path class="cls-7" d="M65,51.11v.7H62.17v1.11h2.7v.69h-2.7v1.26a8.81,8.81,0,0,1,2.69,1.63l-.53.78a6.42,6.42,0,0,0-2.16-1.6v.51c0,1.29-1.07,1.53-1.83,1.53-1.76,0-2.14-.94-2.14-1.51,0-1,.93-1.63,2.27-1.63a4.21,4.21,0,0,1,.9.09V53.61H58.09v-.69h3.28V51.81H58v-.7h3.42v-.94h.8v.94Zm-3.67,4.26a3,3,0,0,0-.9-.13c-.83,0-1.51.35-1.51.94,0,.17.09.84,1.28.84.78,0,1.13-.28,1.13-1Z"/><path class="cls-7" d="M75.57,51.08v.75H73.21v1.81c0,.17.09.38.12.6a5.09,5.09,0,0,1,0,.69c0,2.38-2.11,2.81-3.67,2.87L69.46,57c2.4,0,3.06-.8,3.18-1.87a1.41,1.41,0,0,1-1.42.87,1.66,1.66,0,0,1-1.67-1.77,1.77,1.77,0,0,1,1.86-1.83,1.32,1.32,0,0,1,1,.36v-1H68v-.75H72.4l0-1h.83v1Zm-3.13,2.86a.94.94,0,0,0-1-.82,1.07,1.07,0,0,0-1.13,1.12,1.07,1.07,0,1,0,2.14.09Z"/><path class="cls-8" d="M191.1,29.23h-9.27a.72.72,0,0,1-.54-.22l-4.68-4.68a.75.75,0,0,1-.23-.55V8.65a2.72,2.72,0,0,1,2.72-2.73h12a2.73,2.73,0,0,1,2.73,2.73V26.51A2.72,2.72,0,0,1,191.1,29.23Zm-9.24-.83h9.24A1.89,1.89,0,0,0,193,26.51V8.65a1.88,1.88,0,0,0-1.89-1.89h-12a1.89,1.89,0,0,0-1.89,1.89V23.76Z"/><path class="cls-8" d="M180.44,9.69h1.92a0,0,0,0,1,0,0V12.5a0,0,0,0,1,0,0h-2.93a0,0,0,0,1,0,0V10.7A1,1,0,0,1,180.44,9.69Z"/><rect class="cls-8" x="183.57" y="9.69" width="2.93" height="2.81"/><path class="cls-8" d="M179.43,16.6h2.93a0,0,0,0,1,0,0v2.81a0,0,0,0,1,0,0h-1.92a1,1,0,0,1-1-1V16.6A0,0,0,0,1,179.43,16.6Z"/><rect class="cls-8" x="183.57" y="16.6" width="2.93" height="2.81"/><path class="cls-8" d="M187.44,9.69h1.92a1,1,0,0,1,1,1v1.8a0,0,0,0,1,0,0h-2.93a0,0,0,0,1,0,0V9.69A0,0,0,0,1,187.44,9.69Z"/><polygon class="cls-8" points="190.37 13.55 190.37 18.57 189.82 19.12 187.44 19.12 187.44 15.26 179.43 15.26 179.43 13.55 190.37 13.55"/><path class="cls-8" d="M181,23.4c.08.42.27.59.67.59s.61-.18.61-.47a.44.44,0,0,0-.13-.31c-.1-.07-.13-.08-.54-.19a2.44,2.44,0,0,1-.73-.27.91.91,0,0,1-.45-.82,1.08,1.08,0,0,1,.16-.57,1.13,1.13,0,0,1,1-.48,1.22,1.22,0,0,1,1,.36,1.34,1.34,0,0,1,.28.6l-.68.11a.5.5,0,0,0-.56-.48c-.32,0-.53.17-.53.43a.3.3,0,0,0,.16.28,1.5,1.5,0,0,0,.51.19,2.25,2.25,0,0,1,.9.37,1,1,0,0,1,.29.77,1.09,1.09,0,0,1-.25.7,1.36,1.36,0,0,1-1.06.4,1.23,1.23,0,0,1-1.13-.55,1.38,1.38,0,0,1-.2-.55Z"/><path class="cls-8" d="M184.79,20.72a3.67,3.67,0,0,0,0,.64V24a3.55,3.55,0,0,0,0,.63H184a3.55,3.55,0,0,0,0-.63V21.36a3.67,3.67,0,0,0,0-.64Z"/><path class="cls-8" d="M187.45,24.64a3.53,3.53,0,0,0-.19-.66l-.62-1.69a5.45,5.45,0,0,1-.21-.75c0,.26,0,.66,0,.77v1.61a6.45,6.45,0,0,0,0,.72h-.59a6.57,6.57,0,0,0,0-.72V21.45a7,7,0,0,0,0-.73h.78a3.08,3.08,0,0,0,.16.59l.86,2.44.87-2.44a3.41,3.41,0,0,0,.15-.59h.79a5.07,5.07,0,0,0,0,.73v2.47a4.2,4.2,0,0,0,0,.72h-.6a6.57,6.57,0,0,0,0-.72V22.29c0-.43,0-.68,0-.75-.06.26-.14.54-.2.71L188.14,24a4.67,4.67,0,0,0-.19.65Z"/></g></g></svg>