<svg xmlns="http://www.w3.org/2000/svg" width="431" height="57" viewBox="0 0 431 57">
  <g id="_1101" data-name="1101" transform="translate(-168 -303)">
    <rect id="長方形_9" data-name="長方形 9" width="431" height="57" transform="translate(168 303)" fill="#fff"/>
    <g id="グループ_6" data-name="グループ 6" transform="translate(1 -1)">
      <g id="レイヤー_2" data-name="レイヤー 2" transform="translate(172 310.004)">
        <g id="レイヤー_1" data-name="レイヤー 1">
          <path id="パス_1" data-name="パス 1" d="M72.22,5.93q3.33,5.81,3.32,16.5T72.22,38.9q-3.31,5.77-11.57,5.78T49.08,38.9q-3.33-5.77-3.32-16.47t3.32-16.5Q52.4.13,60.65.12T72.22,5.93ZM55.65,33.82q1.22,3.95,5,4t5-4a42.3,42.3,0,0,0,1.18-11.39q0-7.8-1.18-11.56a4.81,4.81,0,0,0-5-3.75,4.87,4.87,0,0,0-5,3.75q-1.23,3.75-1.23,11.56a40.4,40.4,0,0,0,1.23,11.39Z" fill="#098bff"/>
          <path id="パス_2" data-name="パス 2" d="M83.6,4.36A13.6,13.6,0,0,1,94,.06q9.85,0,13.52,8.73,2.09,4.94,2.09,13a37.06,37.06,0,0,1-2,13.08q-3.81,10-14,10A14.3,14.3,0,0,1,84.89,42a11.29,11.29,0,0,1-4.43-8.38h8.46a5.1,5.1,0,0,0,1.6,3.1A5,5,0,0,0,94,37.89c2.8,0,4.76-1.55,5.9-4.65a27.4,27.4,0,0,0,1.16-7.48A9.29,9.29,0,0,1,98.6,28a11.27,11.27,0,0,1-5.87,1.43,13.36,13.36,0,0,1-9.15-3.56q-4-3.56-4-10.26Q79.59,8.67,83.6,4.36ZM97.88,21.51c1.93-1.24,2.89-3.37,2.89-6.41a9.07,9.07,0,0,0-1.71-5.81,5.68,5.68,0,0,0-4.69-2.14,5.89,5.89,0,0,0-3.73,1.22q-2.44,1.91-2.44,6.46c0,2.56.52,4.49,1.56,5.77a5.86,5.86,0,0,0,4.82,1.92,6,6,0,0,0,3.3-1.01Z" fill="#098bff"/>
          <path id="パス_3" data-name="パス 3" d="M143.6,34.31h-4.88v9.3h-8.31v-9.3h-17.1V26.9L129.19.69h9.53v27h4.88Zm-13.19-6.64V9.07l-10.78,18.6Z" fill="#098bff"/>
          <path id="パス_4" data-name="パス 4" d="M147,22.58h16.62v8H147Z" fill="#098bff"/>
          <path id="パス_5" data-name="パス 5" d="M171.76,4.36A13.6,13.6,0,0,1,182.17.06q9.87,0,13.53,8.73,2.09,4.94,2.08,13a37.07,37.07,0,0,1-2,13.08q-3.82,10-14,10A14.26,14.26,0,0,1,173.06,42a11.33,11.33,0,0,1-4.44-8.38h8.46a5.11,5.11,0,0,0,1.61,3.1,5,5,0,0,0,3.48,1.19q4.2,0,5.9-4.65a27,27,0,0,0,1.16-7.48A9.14,9.14,0,0,1,186.76,28a11.25,11.25,0,0,1-5.87,1.43,13.36,13.36,0,0,1-9.14-3.56q-4-3.56-4-10.26Q167.76,8.67,171.76,4.36Zm14.29,17.15c1.92-1.24,2.88-3.37,2.88-6.41a9.07,9.07,0,0,0-1.71-5.81,5.66,5.66,0,0,0-4.69-2.14,5.84,5.84,0,0,0-3.72,1.22q-2.44,1.91-2.44,6.46c0,2.56.52,4.49,1.56,5.77a5.84,5.84,0,0,0,4.81,1.92,6,6,0,0,0,3.31-1.01Z" fill="#098bff"/>
          <path id="パス_6" data-name="パス 6" d="M222.24,11.29A4.27,4.27,0,0,0,221.43,9a4.66,4.66,0,0,0-4.14-2q-4.14,0-5.9,4.65a29.079,29.079,0,0,0-1.31,7.56,9.66,9.66,0,0,1,3.67-2.74,13.43,13.43,0,0,1,14.19,3,14,14,0,0,1,3.68,10A16.8,16.8,0,0,1,228,40.12q-3.6,4.62-11.2,4.62-8.16,0-12-6.82-3-5.34-3-13.76a62.28,62.28,0,0,1,.42-8,24.64,24.64,0,0,1,2.89-9.17,14.76,14.76,0,0,1,4.84-5A13,13,0,0,1,217.08,0q6,0,9.59,3.08a11.67,11.67,0,0,1,4,8.21ZM212.17,35.62a6,6,0,0,0,4.76,2.21,5.31,5.31,0,0,0,4.46-2.13A8.88,8.88,0,0,0,223,30.17a8.27,8.27,0,0,0-1.85-5.79,5.9,5.9,0,0,0-4.52-2,6.1,6.1,0,0,0-3.85,1.31c-1.66,1.29-2.5,3.38-2.5,6.25a8.47,8.47,0,0,0,1.89,5.68Z" fill="#098bff"/>
          <path id="パス_7" data-name="パス 7" d="M256.16,11.29a4.34,4.34,0,0,0-.8-2.29,4.68,4.68,0,0,0-4.14-2q-4.14,0-5.9,4.65A28.662,28.662,0,0,0,244,19.18a9.55,9.55,0,0,1,3.66-2.74,13.43,13.43,0,0,1,14.19,3,13.93,13.93,0,0,1,3.68,10,16.85,16.85,0,0,1-3.6,10.66q-3.6,4.62-11.2,4.62-8.16,0-12-6.82-3-5.34-3-13.76a62.274,62.274,0,0,1,.42-8A24.461,24.461,0,0,1,239,6.94a14.76,14.76,0,0,1,4.84-5A13,13,0,0,1,251,0q6,0,9.59,3.08a11.75,11.75,0,0,1,4,8.21ZM246.09,35.62a6,6,0,0,0,4.77,2.21,5.28,5.28,0,0,0,4.45-2.13,8.88,8.88,0,0,0,1.62-5.53,8.27,8.27,0,0,0-1.84-5.79,5.91,5.91,0,0,0-4.53-2,6.05,6.05,0,0,0-3.84,1.31c-1.67,1.29-2.5,3.38-2.5,6.25a8.46,8.46,0,0,0,1.87,5.68Z" fill="#098bff"/>
          <path id="パス_8" data-name="パス 8" d="M269.12,22.58h16.62v8H269.12Z" fill="#098bff"/>
          <path id="パス_9" data-name="パス 9" d="M291.28,25.05a10.48,10.48,0,0,1,4.81-4.44A10.1,10.1,0,0,1,292,16.1a12.55,12.55,0,0,1-.94-4.54,10.58,10.58,0,0,1,3.55-8q3.56-3.31,10-3.32t10,3.32a10.58,10.58,0,0,1,3.55,8,12.739,12.739,0,0,1-.93,4.54,8.71,8.71,0,0,1-4.07,4.21,12.09,12.09,0,0,1,4.82,4.74,13.55,13.55,0,0,1,1.61,6.58,12.28,12.28,0,0,1-4,9.28q-4,3.83-11.28,3.83t-11-3.83a12.78,12.78,0,0,1-3.73-9.28A13.36,13.36,0,0,1,291.28,25.05Zm8.83,11a6.81,6.81,0,0,0,9.14,0,6.9,6.9,0,0,0,1.66-4.94,6.83,6.83,0,0,0-1.69-5,6.85,6.85,0,0,0-9.08,0,6.87,6.87,0,0,0-1.68,5A6.94,6.94,0,0,0,300.11,36Zm.54-19.66a5.3,5.3,0,0,0,4,1.49,5.24,5.24,0,0,0,4-1.49,5.31,5.31,0,0,0,1.42-3.84,5.47,5.47,0,0,0-1.42-4,5.36,5.36,0,0,0-4-1.44,5.43,5.43,0,0,0-4,1.44,5.41,5.41,0,0,0-1.45,4,5.25,5.25,0,0,0,1.45,3.8Z" fill="#098bff"/>
          <path id="パス_10" data-name="パス 10" d="M326.19,13.82V8a39,39,0,0,0,5.61-.53A7.9,7.9,0,0,0,336,5.24a7.34,7.34,0,0,0,1.66-3.1A7,7,0,0,0,338,.42h7V43.61h-8.7V13.82Z" fill="#098bff"/>
          <path id="パス_11" data-name="パス 11" d="M378.25,11.29a4.34,4.34,0,0,0-.8-2.29,4.68,4.68,0,0,0-4.14-2q-4.14,0-5.9,4.65a28.659,28.659,0,0,0-1.31,7.56,9.55,9.55,0,0,1,3.66-2.74,13.43,13.43,0,0,1,14.19,3,13.93,13.93,0,0,1,3.68,10A16.85,16.85,0,0,1,384,40.12q-3.6,4.62-11.2,4.62-8.16,0-12-6.82-3-5.34-3-13.76a62.282,62.282,0,0,1,.42-8,24.46,24.46,0,0,1,2.89-9.17,14.82,14.82,0,0,1,4.83-5A13.1,13.1,0,0,1,373.1,0q6,0,9.59,3.08a11.75,11.75,0,0,1,4,8.21ZM368.18,35.62A6,6,0,0,0,373,37.83a5.28,5.28,0,0,0,4.45-2.13A8.88,8.88,0,0,0,379,30.17a8.27,8.27,0,0,0-1.84-5.79,5.91,5.91,0,0,0-4.53-2,6.05,6.05,0,0,0-3.84,1.31c-1.67,1.29-2.5,3.38-2.5,6.25a8.46,8.46,0,0,0,1.89,5.68Z" fill="#098bff"/>
          <path id="パス_12" data-name="パス 12" d="M418.18,5.93q3.31,5.81,3.32,16.5T418.18,38.9q-3.33,5.77-11.57,5.78T395,38.9q-3.33-5.77-3.33-16.47T395,5.93Q398.36.13,406.61.12T418.18,5.93ZM401.6,33.82q1.23,3.95,5,4t5-4a42.37,42.37,0,0,0,1.17-11.39q0-7.8-1.17-11.56a4.81,4.81,0,0,0-5-3.75,4.89,4.89,0,0,0-5,3.75q-1.22,3.75-1.22,11.56a40.841,40.841,0,0,0,1.22,11.39Z" fill="#098bff"/>
          <path id="パス_13" data-name="パス 13" d="M39.83,34.79c-.06,3.66-3.42,7.26-7.35,7.76A19.17,19.17,0,0,1,20.32,40,46.11,46.11,0,0,1,2.45,21.84,19.24,19.24,0,0,1,.22,9.54,7.49,7.49,0,0,1,3.06,4.66c1.66-1.34,3.36-2.4,5.67-2.17,1.85.19,2.88.85,3.38,2.64q1.035,3.69,2,7.39a3.42,3.42,0,0,1-1,3.74c-.51.45-1,.93-1.49,1.4a2.15,2.15,0,0,0-.31,3.16A48.4,48.4,0,0,0,21.38,31.07c1.55,1.16,2.1,1.12,3.47-.2.54-.52,1.1-1,1.62-1.57a2.9,2.9,0,0,1,3.08-.83c2.79.77,5.57,1.61,8.34,2.45a2.81,2.81,0,0,1,1.87,2.57A11.33,11.33,0,0,1,39.83,34.79Z" fill="#f9bc00"/>
        </g>
      </g>
      <rect id="長方形_5" data-name="長方形 5" width="378" height="47" transform="translate(217 310)" fill="#fff"/>
      <g id="グループ_3" data-name="グループ 3" transform="translate(-154 138)">
        <path id="パス_170" data-name="パス 170" d="M7.438-3.062Q3.063-8.75,2.625-18.375,2.406-29.531,7-36.75q4.156-6.781,10.938-6.781A11.476,11.476,0,0,1,28-37.844q4.156,5.688,4.375,15.313.656,11.156-3.719,18.156Q24.5,2.406,17.938,2.406A12.683,12.683,0,0,1,7.438-3.062ZM11.375-10.5q1.969,5.25,5.688,5.906Q21-3.937,23.406-8.312a26.06,26.06,0,0,0,2.188-9.625,33.145,33.145,0,0,0-1.312-12.469q-1.969-5.688-5.469-6.125a5.773,5.773,0,0,0-6.344,3.063A24.669,24.669,0,0,0,9.844-23.187,30.97,30.97,0,0,0,11.375-10.5ZM43.241-.437a13.5,13.5,0,0,1-4.594-8.75h7A5.89,5.89,0,0,0,47.834-5.25a5.3,5.3,0,0,0,4.375,1.094q2.625-.437,4.375-4.156a27.821,27.821,0,0,0,1.75-7.437q-3.063,3.938-9.187,3.719a11.088,11.088,0,0,1-8.094-3.937,15.56,15.56,0,0,1-3.281-8.75q-.656-8.75,3.719-14.219,3.5-4.375,10.063-4.594a12.27,12.27,0,0,1,10.281,4.813q3.719,4.812,3.719,14v3.281A52.44,52.44,0,0,1,64.46-9.625a17.993,17.993,0,0,1-4.594,8.75,11.264,11.264,0,0,1-8.312,3.281A12.773,12.773,0,0,1,43.241-.437Zm2.844-21.437A6.046,6.046,0,0,0,50.9-19.031a5.889,5.889,0,0,0,5.25-2.187,9.9,9.9,0,0,0,2.188-6.562,9.771,9.771,0,0,0-1.75-5.906,6.036,6.036,0,0,0-4.594-2.625,6.456,6.456,0,0,0-5.469,2.188,8.5,8.5,0,0,0-1.969,5.906A12.386,12.386,0,0,0,46.084-21.875Zm26.616,14v-9.406L89.106-43.094h7.438v28.219h5.031v7H96.544V1.969h-7V-7.875Zm5.469-7.219H89.544V-33.031Zm29.678-1.531a10.006,10.006,0,0,1,5.469-5.687,10.145,10.145,0,0,1-4.156-5.031,13.714,13.714,0,0,1-.219-8.094A12.043,12.043,0,0,1,112-40.469q3.062-3.063,8.969-3.062t8.969,3.063a12.1,12.1,0,0,1,3.5,6.563,11.965,11.965,0,0,1-.656,6.781,9.22,9.22,0,0,1-3.937,4.594,10.41,10.41,0,0,1,5.031,5.25,15.24,15.24,0,0,1,.656,8.531A11.67,11.67,0,0,1,130.6-1.312a13.14,13.14,0,0,1-8.75,3.5A14.992,14.992,0,0,1,111.785-.656a13.17,13.17,0,0,1-4.594-7A14.534,14.534,0,0,1,107.847-16.625Zm8.094,10.063a6.5,6.5,0,0,0,4.813,1.75,6.5,6.5,0,0,0,4.813-1.75,6.813,6.813,0,0,0,1.969-5.031,6.813,6.813,0,0,0-1.969-5.031,6.5,6.5,0,0,0-4.812-1.75,6.5,6.5,0,0,0-4.812,1.75,6.813,6.813,0,0,0-1.969,5.031A6.813,6.813,0,0,0,115.941-6.562Zm.219-21a6.239,6.239,0,0,0,4.594,1.531,5.92,5.92,0,0,0,4.375-1.531,5.678,5.678,0,0,0,1.75-4.156,5.678,5.678,0,0,0-1.75-4.156,5.92,5.92,0,0,0-4.375-1.531,5.92,5.92,0,0,0-4.375,1.531,5.678,5.678,0,0,0-1.75,4.156A5.616,5.616,0,0,0,116.16-27.562ZM164.579-.437a13.5,13.5,0,0,1-4.594-8.75h7a5.89,5.89,0,0,0,2.188,3.938,5.3,5.3,0,0,0,4.375,1.094q2.625-.437,4.375-4.156a27.821,27.821,0,0,0,1.75-7.437q-3.063,3.938-9.187,3.719a11.088,11.088,0,0,1-8.094-3.937,15.56,15.56,0,0,1-3.281-8.75q-.656-8.75,3.719-14.219,3.5-4.375,10.063-4.594a12.27,12.27,0,0,1,10.281,4.813q3.719,4.812,3.719,14v3.281A52.439,52.439,0,0,1,185.8-9.625,17.993,17.993,0,0,1,181.2-.875a11.264,11.264,0,0,1-8.312,3.281A12.773,12.773,0,0,1,164.579-.437Zm2.844-21.437a6.046,6.046,0,0,0,4.813,2.844,5.889,5.889,0,0,0,5.25-2.187,9.9,9.9,0,0,0,2.188-6.562,9.771,9.771,0,0,0-1.75-5.906,6.036,6.036,0,0,0-4.594-2.625,6.456,6.456,0,0,0-5.469,2.188,8.5,8.5,0,0,0-1.969,5.906A12.386,12.386,0,0,0,167.423-21.875Zm49.585-18.812a15.064,15.064,0,0,1,4.813,9.406h-7q-1.094-5.469-5.687-5.469-3.5,0-5.906,3.719-1.969,3.063-1.969,8.75,7.875-6.781,15.531-1.969a13.062,13.062,0,0,1,4.594,6.563,21.476,21.476,0,0,1,1.094,7.219,15.916,15.916,0,0,1-2.844,9.188,12.214,12.214,0,0,1-6.344,4.813,13.882,13.882,0,0,1-9.406-.219,14.94,14.94,0,0,1-7.875-7.656q-2.406-5.031-2.187-14.437,0-9.406,2.625-14.656,4.375-8.094,12.906-8.094A10.819,10.819,0,0,1,217.007-40.687ZM203.226-7.875q2.406,3.281,5.469,3.281,4.594-.219,6.344-5.031,1.531-5.688-1.094-9.187-2.844-3.281-7.219-1.531a11.09,11.09,0,0,0-5.469,5.469A12,12,0,0,0,203.226-7.875Zm43.825-8.75a10.006,10.006,0,0,1,5.469-5.687,10.145,10.145,0,0,1-4.156-5.031,13.714,13.714,0,0,1-.219-8.094,12.043,12.043,0,0,1,3.063-5.031q3.063-3.063,8.969-3.062t8.969,3.063a12.1,12.1,0,0,1,3.5,6.563,11.965,11.965,0,0,1-.656,6.781,9.22,9.22,0,0,1-3.937,4.594,10.41,10.41,0,0,1,5.031,5.25,15.24,15.24,0,0,1,.656,8.531A11.67,11.67,0,0,1,269.8-1.312a13.14,13.14,0,0,1-8.75,3.5A14.992,14.992,0,0,1,250.989-.656a13.17,13.17,0,0,1-4.594-7A14.533,14.533,0,0,1,247.051-16.625Zm8.094,10.063a6.5,6.5,0,0,0,4.813,1.75,6.5,6.5,0,0,0,4.813-1.75,6.813,6.813,0,0,0,1.969-5.031,6.813,6.813,0,0,0-1.969-5.031,6.5,6.5,0,0,0-4.812-1.75,6.5,6.5,0,0,0-4.813,1.75,6.813,6.813,0,0,0-1.969,5.031A6.813,6.813,0,0,0,255.145-6.562Zm.219-21a6.239,6.239,0,0,0,4.594,1.531,5.92,5.92,0,0,0,4.375-1.531,5.678,5.678,0,0,0,1.75-4.156,5.678,5.678,0,0,0-1.75-4.156,5.92,5.92,0,0,0-4.375-1.531,5.92,5.92,0,0,0-4.375,1.531,5.678,5.678,0,0,0-1.75,4.156A5.616,5.616,0,0,0,255.364-27.562Zm29.459-2.406v-5.469q4.594-.438,6.344-1.75,2.625-1.531,3.5-5.906h6.125V1.969h-7.437V-29.969Zm53.522-10.719a15.064,15.064,0,0,1,4.813,9.406h-7q-1.094-5.469-5.687-5.469-3.5,0-5.906,3.719-1.969,3.063-1.969,8.75,7.875-6.781,15.531-1.969a13.062,13.062,0,0,1,4.594,6.563,21.476,21.476,0,0,1,1.094,7.219,15.916,15.916,0,0,1-2.844,9.188,12.214,12.214,0,0,1-6.344,4.813,13.882,13.882,0,0,1-9.406-.219,14.94,14.94,0,0,1-7.875-7.656q-2.406-5.031-2.187-14.437,0-9.406,2.625-14.656,4.375-8.094,12.906-8.094A10.819,10.819,0,0,1,338.345-40.687ZM324.564-7.875q2.406,3.281,5.469,3.281,4.594-.219,6.344-5.031,1.531-5.688-1.094-9.187-2.844-3.281-7.219-1.531a11.09,11.09,0,0,0-5.469,5.469A12,12,0,0,0,324.564-7.875Zm29.022,4.813q-4.375-5.688-4.812-15.312-.219-11.156,4.375-18.375,4.156-6.781,10.938-6.781a11.476,11.476,0,0,1,10.063,5.688q4.156,5.688,4.375,15.313.656,11.156-3.719,18.156-4.156,6.781-10.719,6.781A12.683,12.683,0,0,1,353.586-3.062Zm3.938-7.437q1.969,5.25,5.688,5.906,3.938.656,6.344-3.719a26.06,26.06,0,0,0,2.188-9.625,33.146,33.146,0,0,0-1.312-12.469q-1.969-5.688-5.469-6.125a5.773,5.773,0,0,0-6.344,3.063,24.669,24.669,0,0,0-2.625,10.281A30.971,30.971,0,0,0,357.523-10.5Z" transform="translate(368 215)" fill="#f9bc00" stroke="#f9bc00" stroke-width="0.5"/>
        <path id="パス_174" data-name="パス 174" d="M0,0H16V8H0Z" transform="translate(507 195)" fill="#f9bc00"/>
        <rect id="長方形_3" data-name="長方形 3" width="16" height="8" transform="translate(594 195)" fill="#f9bc00"/>
      </g>
    </g>
  </g>
</svg>
