<svg xmlns="http://www.w3.org/2000/svg" xmlns:xlink="http://www.w3.org/1999/xlink" viewBox="0 0 246.84 75.61"><defs><style>.cls-1{isolation:isolate;}.cls-2{mix-blend-mode:multiply;opacity:0.1;}.cls-3{fill:#00b5da;}.cls-4{fill:url(#名称未設定グラデーション_273);}.cls-5{fill:#fff;}.cls-6{fill:none;stroke:#fff;stroke-miterlimit:10;stroke-width:2px;}</style><linearGradient id="名称未設定グラデーション_273" y1="35" x2="246.84" y2="35" gradientUnits="userSpaceOnUse"><stop offset="0" stop-color="#0086dc"/><stop offset="0.18" stop-color="#008ddf"/><stop offset="0.46" stop-color="#00a2e7"/><stop offset="0.79" stop-color="#00c3f5"/><stop offset="1" stop-color="#00dcff"/></linearGradient></defs><g class="cls-1"><g id="レイヤー_2" data-name="レイヤー 2"><g id="レイヤー_1-2" data-name="レイヤー 1"><g class="cls-2"><rect y="5.61" width="246.84" height="70" rx="18.71"/><path d="M228.13,8.42A15.91,15.91,0,0,1,244,24.32V56.9a15.92,15.92,0,0,1-15.9,15.91H18.71A15.92,15.92,0,0,1,2.81,56.9V24.32a15.91,15.91,0,0,1,15.9-15.9H228.13m0-2.81H18.71A18.77,18.77,0,0,0,0,24.32V56.9A18.77,18.77,0,0,0,18.71,75.61H228.13A18.77,18.77,0,0,0,246.84,56.9V24.32A18.77,18.77,0,0,0,228.13,5.61Z"/></g><rect class="cls-3" width="246.84" height="70" rx="18.71"/><path class="cls-4" d="M228.13,2.81A15.91,15.91,0,0,1,244,18.71V51.29a15.91,15.91,0,0,1-15.9,15.9H18.71a15.91,15.91,0,0,1-15.9-15.9V18.71a15.91,15.91,0,0,1,15.9-15.9H228.13m0-2.81H18.71A18.77,18.77,0,0,0,0,18.71V51.29A18.77,18.77,0,0,0,18.71,70H228.13a18.77,18.77,0,0,0,18.71-18.71V18.71A18.77,18.77,0,0,0,228.13,0Z"/><path class="cls-5" d="M74.08,32.62a14.71,14.71,0,0,0-1.82.08V30.56a10.85,10.85,0,0,0,1.86.1h.48a8.35,8.35,0,0,0-.88-2.36l1.76-.44h-.94a15.59,15.59,0,0,0-1.88.08V25.8a11.51,11.51,0,0,0,1.92.1H76.1v-.3a7.71,7.71,0,0,0-.1-1.46h2.42a7.33,7.33,0,0,0-.1,1.46v.3h1.36a11,11,0,0,0,1.86-.1v2.14a15.8,15.8,0,0,0-1.88-.08h-.82l1.7.48c-.12.26-.12.26-.3.7a3.89,3.89,0,0,0-.34.74,7.19,7.19,0,0,1-.44.88h.4a11,11,0,0,0,1.84-.1V32.7a15.28,15.28,0,0,0-1.84-.08H78.24V34h1.54a11,11,0,0,0,1.82-.1V36A14.71,14.71,0,0,0,79.78,36H79a8.77,8.77,0,0,0,2.06,1.76,12.11,12.11,0,0,0-1,1.9,10.14,10.14,0,0,1-2-2.16c0,.26,0,.26,0,.79,0,0,0,.67,0,.77v2a9.58,9.58,0,0,0,.12,1.66h-2.3a11.66,11.66,0,0,0,.1-1.58v-2c0-.38,0-.89.06-1.35a10,10,0,0,1-3.3,3.7,7.36,7.36,0,0,0-1-2A10.41,10.41,0,0,0,75.4,36H74.1a11.19,11.19,0,0,0-1.82.1V33.94a11,11,0,0,0,1.86.1h2V32.62Zm1.54-4.76a8.86,8.86,0,0,1,.86,2.32l-1.78.48h2.74a11.23,11.23,0,0,0,1.12-2.8ZM89,30.28a9.89,9.89,0,0,0,1.82-.12v2.22a11.39,11.39,0,0,0-1.6-.08h-.5v8.07a13.8,13.8,0,0,0,.12,2.36H86.48a14.23,14.23,0,0,0,.12-2.36V32.3H84.46a26.1,26.1,0,0,1-.74,6.46,12.15,12.15,0,0,1-1.78,4,9.23,9.23,0,0,0-2-1.32c1.9-2.32,2.4-4.95,2.4-12.53a23.25,23.25,0,0,0-.12-3.12c2.26-.06,5.72-.94,6.74-1.7l1.64,1.94c-.22.06-.3.1-.66.22a27.47,27.47,0,0,1-5.48,1.36v2.64Z"/><path class="cls-5" d="M95.18,27.66a14.63,14.63,0,0,0-2,.1V25.9a10.85,10.85,0,0,0,2,.12h2.54a9.48,9.48,0,0,0-1.28-1.66l2.06-.46A18.19,18.19,0,0,1,99.94,26h2.9a14.48,14.48,0,0,0,1.42-2.12l2.16.48a13,13,0,0,1-1.3,1.64h2.52a11,11,0,0,0,2-.12v1.86a14.41,14.41,0,0,0-2-.1h-5.3v.88h4.5a14.33,14.33,0,0,0,1.9-.08v1.66a14.92,14.92,0,0,0-1.9-.08h-4.5v.88h6a13.08,13.08,0,0,0,2-.1v1.86a14.07,14.07,0,0,0-2-.1h-9.8c-.08.34-.16.58-.22.82h8.5c.66,0,1.24,0,1.88-.08a17.07,17.07,0,0,0-.08,1.9v5.4a12.07,12.07,0,0,0,.12,2.05h-2.3v-.74H98.78v.74H96.52a13.9,13.9,0,0,0,.12-2V38.6c0-.38,0-1.12,0-1.42a12.32,12.32,0,0,1-3,3.94A7.26,7.26,0,0,0,92,39.26a10.68,10.68,0,0,0,2.74-2.92,11.48,11.48,0,0,0,1.6-3.76H94.5a13.24,13.24,0,0,0-2,.1V30.82a12.77,12.77,0,0,0,2,.1h5.7V30H96a14.92,14.92,0,0,0-1.9.08V28.46a14.33,14.33,0,0,0,1.9.08h4.16v-.88ZM98.78,35v.84h7.68V35Zm0,2.25v.81h7.68v-.81Zm0,2.21v.83h7.68v-.83Z"/><path class="cls-5" d="M116.46,36.18l0,4.24a18.64,18.64,0,0,0,.12,2.31h-2.3a15.48,15.48,0,0,0,.14-2.28v-5a19.12,19.12,0,0,1-1.58,1.58,8.08,8.08,0,0,0-.84-2.16,12.85,12.85,0,0,0,4.2-5.64h-2.1a14.16,14.16,0,0,0-1.64.1v-2.1a8.64,8.64,0,0,0,1.48.08h.46V25.74a11.34,11.34,0,0,0-.1-1.56h2.26a10.85,10.85,0,0,0-.1,1.5v1.68h.4a5,5,0,0,0,1-.06l.78.94V26.16a12.41,12.41,0,0,0,2,.12h2.72v-.4a10.18,10.18,0,0,0-.12-1.72h2.26a8.33,8.33,0,0,0-.12,1.72v.4h2.44a10.39,10.39,0,0,0-1.88-1.44l1.32-1a8.48,8.48,0,0,1,2.16,1.56l-1.08.86h.12a17,17,0,0,0,1.9-.1v2.16a12.62,12.62,0,0,0-1.9-.1h-3.08v1.4h2.74a13,13,0,0,0,1.8-.08,18.62,18.62,0,0,0-.08,2.06v9c0,.89-.2,1.39-.68,1.65a3.93,3.93,0,0,1-1.74.22c-.2,0-.42,0-.9,0a4.09,4.09,0,0,0-.52-2.1,8.13,8.13,0,0,0,1.4.11c.32,0,.4-.08.4-.47V38.3h-2.42v2.32a14.33,14.33,0,0,0,.08,1.85h-2.18a11.22,11.22,0,0,0,.08-1.82V38.3h-2.14v2.23a18.51,18.51,0,0,0,.08,2.2H119a13.31,13.31,0,0,0,.12-2.19v-7.6a19,19,0,0,1-1.2,1.72,8.32,8.32,0,0,0,1.1.9,6.58,6.58,0,0,0-1,1.69,14.67,14.67,0,0,1-1.54-1.69Zm2.26-7.84a6.09,6.09,0,0,0-.4.86,24.78,24.78,0,0,1-1.9,3.68,5.6,5.6,0,0,0,.48.66,13.73,13.73,0,0,0,1.18-2l1.06.84V31.6a16.12,16.12,0,0,0-.06-2,17,17,0,0,0,2,.08h2.24v-1.4h-2.9a13.63,13.63,0,0,0-1.7.08Zm4.6,4.76V31.44h-2.14V33.1Zm0,3.46V34.84h-2.14v1.72Zm4.44-3.46V31.44h-2.42V33.1Zm0,3.46V34.84h-2.42v1.72Z"/><path class="cls-5" d="M141.4,38.56c1.34-2,1.92-4.22,2.2-8.12H143a15.36,15.36,0,0,0-2,.1v-2.3a15.59,15.59,0,0,0,2.14.1h.52c0-.54,0-1.36,0-2.3a10.27,10.27,0,0,0-.12-1.74H146a11.6,11.6,0,0,0-.12,1.76c0,.74,0,1.32,0,2.28h2.34a15.81,15.81,0,0,0,2.12-.1c-.06.6-.06.6-.12,3.3a46.15,46.15,0,0,1-.7,8.41c-.4,1.82-1,2.26-3,2.26-.5,0-.5,0-2-.08a9.77,9.77,0,0,0-.4-2.18,14.39,14.39,0,0,0,2.28.21c.84,0,1-.25,1.26-2.06a57.76,57.76,0,0,0,.44-7.66h-2.32a25.28,25.28,0,0,1-1,6.06,14.21,14.21,0,0,1-2,4,10.56,10.56,0,0,1-2.14,2.26,7.29,7.29,0,0,0-1.76-1.59,9.62,9.62,0,0,0,2.44-2.41,74.23,74.23,0,0,1-7.54,2.33c-.68.19-.8.21-1.32.37l-.4-2.37a11.68,11.68,0,0,0,1.38-.17V27.26c0-.86,0-1.74-.06-2.18a10.57,10.57,0,0,0,1.5.08H139a10.75,10.75,0,0,0,1.5-.08c0,.36-.06,1.3-.06,2.18v9.88l1-.32Zm-3-9.1V27.2H135.5v2.26Zm0,4.18V31.38H135.5v2.26Zm-2.86,4.85c1.1-.24,2.06-.49,2.86-.73v-2.2H135.5Z"/><path class="cls-5" d="M158.34,31.58a14,14,0,0,0-2,.1v-1a21.58,21.58,0,0,1-3.26,1.64A8.89,8.89,0,0,0,152,30.3c3.72-1.3,6.72-3.46,8.16-5.86h2.48a11.83,11.83,0,0,0,3.08,3.08,16.57,16.57,0,0,0,5.3,2.7,10.21,10.21,0,0,0-1.08,2.2,20.39,20.39,0,0,1-3.5-1.76v1a13.67,13.67,0,0,0-2-.1h-2v1.94h5.06a14.21,14.21,0,0,0,2.18-.12v2.22a15.85,15.85,0,0,0-2.2-.12h-5V40h5.44a18.74,18.74,0,0,0,2.36-.12v2.3a18.45,18.45,0,0,0-2.4-.14H155.16a19.72,19.72,0,0,0-2.48.14v-2.3a21.61,21.61,0,0,0,2.48.12h5V35.5h-4.74a16.43,16.43,0,0,0-2.16.12V33.4a14.76,14.76,0,0,0,2.18.12h4.72V31.58Zm-1.42,4.1a23.18,23.18,0,0,1,1.6,3.32l-2,.81a14.44,14.44,0,0,0-1.58-3.33Zm1.36-6,6.2,0,.48,0a15.78,15.78,0,0,1-3.6-3.36,14.11,14.11,0,0,1-3.5,3.36Zm9.56,6.8c-.26.46-.26.46-1,1.92-.06.12-.14.26-.82,1.42l-1.88-.69a17.06,17.06,0,0,0,1.58-3.45Z"/><path class="cls-5" d="M171.92,33.34a17.48,17.48,0,0,0,.66-5.28l1.58.36a24.6,24.6,0,0,1-.64,5.58Zm4.74,6.87a21.61,21.61,0,0,0,.12,2.48h-2.34a18.61,18.61,0,0,0,.14-2.54V26.3a13.72,13.72,0,0,0-.14-2.14h2.34a13.45,13.45,0,0,0-.12,2.14V28l1.18-.46a13.26,13.26,0,0,1,1,2.6l-.54.24c.5,0,.9.06,1.68.06h3v-.8h-2.28a13.28,13.28,0,0,0-1.68.08V27.9a12.83,12.83,0,0,0,1.7.08H183v-.74h-2.58a11.9,11.9,0,0,0-2,.1V25.42a10.92,10.92,0,0,0,2.08.12H183a5.54,5.54,0,0,0-.12-1.36h2.3a5.54,5.54,0,0,0-.12,1.36h3.06a10.79,10.79,0,0,0,2.08-.12v1.92a13.87,13.87,0,0,0-2-.1H185V28h2.82a11.45,11.45,0,0,0,1.66-.08v1.78a12.45,12.45,0,0,0-1.7-.08H185v.8h3.5a12.66,12.66,0,0,0,2-.1v2a14,14,0,0,0-2-.12H180a10.71,10.71,0,0,0-2,.12V30.5l-.62.28a15.14,15.14,0,0,0-.7-2.22Zm4.34.16a17.15,17.15,0,0,0,.12,2.28h-2.3a16.62,16.62,0,0,0,.1-2.28V34.6c0-.76,0-1.14-.06-1.7.48,0,.9.06,1.6.06h7a13,13,0,0,0,1.8-.08,17.28,17.28,0,0,0-.08,2.06v5.64c0,1.53-.54,1.93-2.56,1.93-.44,0-.82,0-1.8-.08a7.91,7.91,0,0,0-.46-1.93,14.38,14.38,0,0,0,2,.19c.64,0,.76-.08.76-.48v-.68H181Zm6.12-4.93v-.82H181v.82Zm0,2.44v-.82H181v.82Z"/><path class="cls-5" d="M199.44,29.52a10.28,10.28,0,0,0,1.74-.1v2.12a8.91,8.91,0,0,0-1.12-.08,13,13,0,0,1-.66,2.22h.24a8,8,0,0,0,1.54-.1V35.7a14.12,14.12,0,0,0-1.74-.08h-1.56v1.6h1.36a12.55,12.55,0,0,0,1.66-.08v2.11a11.17,11.17,0,0,0-1.66-.09h-1.36v1.46c0,.67,0,1.41.1,2.05h-2.2a16.05,16.05,0,0,0,.12-2.05V39.16h-1.44a11.34,11.34,0,0,0-1.66.09V37.14a12.55,12.55,0,0,0,1.66.08h1.44v-1.6h-1.78a14.54,14.54,0,0,0-1.74.08V33.58a9.45,9.45,0,0,0,1.74.1h.22a12.61,12.61,0,0,0-.52-2.22,9.68,9.68,0,0,0-1.44.08V29.42a10.43,10.43,0,0,0,1.74.1h1.8V28h-1.36a13.35,13.35,0,0,0-1.66.08V26a12,12,0,0,0,1.66.08h1.36V25.7a7.5,7.5,0,0,0-.12-1.52H198a11.06,11.06,0,0,0-.08,1.52v.36h1.18a12,12,0,0,0,1.66-.08v2.08a13.35,13.35,0,0,0-1.66-.08h-1.18v1.54Zm-1.92,4.16a12.75,12.75,0,0,0,.6-2.22h-2.4a14.51,14.51,0,0,1,.5,2.22Zm12.68-1.42a4.25,4.25,0,0,0-.24.88,22.46,22.46,0,0,1-1.7,5A9.27,9.27,0,0,0,211,40.42a12.57,12.57,0,0,0-1.16,2.13,16.89,16.89,0,0,1-2.72-2.6,13.6,13.6,0,0,1-2.38,2.58,12.93,12.93,0,0,0-1.12-1.74,17.4,17.4,0,0,0,.14,1.88H201.5a14.38,14.38,0,0,0,.14-2.38V26.9a20.16,20.16,0,0,0-.1-2,13.33,13.33,0,0,0,1.88.1h4.92a12.23,12.23,0,0,0,1.86-.1c-.06.58-.08.82-.1,1.3-.24,3.68-.52,4.1-2.72,4.1a17.68,17.68,0,0,1-1.8-.1,7.23,7.23,0,0,0-.44-1.88,14.47,14.47,0,0,0,2.06.24c.62,0,.72-.2.8-1.68h-4.36v4.38h3.76a14,14,0,0,0,1.9-.08Zm-6.56,8.24a10,10,0,0,0,2.22-2.32,15.68,15.68,0,0,1-1.9-5.06h-.32Zm2.14-7.38A11.35,11.35,0,0,0,207,36.3a14,14,0,0,0,1-3.18Z"/><circle class="cls-6" cx="41.15" cy="33.48" r="16.3"/><circle class="cls-5" cx="41.15" cy="25.18" r="2.64"/><rect class="cls-5" x="38.51" y="30.54" width="5.28" height="12.97"/></g></g></g></svg>