<?xml version="1.0" encoding="utf-8"?>
<!-- Generator: Adobe Illustrator 25.2.3, SVG Export Plug-In . SVG Version: 6.00 Build 0)  -->
<svg version="1.1" id="レイヤー_1" xmlns="http://www.w3.org/2000/svg" xmlns:xlink="http://www.w3.org/1999/xlink" x="0px"
	 y="0px" viewBox="0 0 45.7 45.1" style="enable-background:new 0 0 45.7 45.1;" xml:space="preserve">
<style type="text/css">
	.st0{fill:#222222;}
</style>
<g id="レイヤー_2_1_">
	<g id="レイヤー_1-2">
		<path class="st0" d="M31.3,19.6V37c0,1.8-0.5,2.3-2.3,2.3H3.6c-1.9,0-2.3-0.5-2.3-2.4c0-9.5,0-19,0-28.5c0-0.7,0.2-1.3,0.8-1.8
			c2-2,4-4,6-5.9C8.4,0.3,8.9,0,9.5,0c6.6,0,13.2,0,19.8,0c1.5,0,2.1,0.5,2.1,2.1L31.3,19.6z M3.5,8.9V37h25.6V2.3h-19
			c0,1.6,0,3.1,0,4.6s-0.6,2-2,2L3.5,8.9z M5.1,6.7h2.7V4.1L5.1,6.7z"/>
		<path class="st0" d="M42.2,9.1l-5.5-1.5c-1-0.3-2.1-0.6-3.1-0.8c-0.7,0-1.3-0.5-1.3-1.3c0-0.2,0-0.3,0.1-0.5c0-0.2,0-0.4,0-0.8
			c1.1,0.3,2.2,0.5,3.2,0.8L42.8,7c1.5,0.4,1.9,1.1,1.5,2.6l-9,33.7c-0.5,1.8-1.1,2.1-2.9,1.6l-16.4-4.4l-0.4-0.1
			c6-1,11.7,0.8,17.5,2.5C36.2,31.6,39.2,20.4,42.2,9.1z"/>
		<path class="st0" d="M16.3,11.8h9c0.7,0,1.4,0,1.4,0.9s-0.7,0.9-1.4,0.9H7.3c-0.7,0-1.4-0.1-1.4-0.9s0.8-0.9,1.5-0.9H16.3z"/>
		<path class="st0" d="M24.8,24H7.2c-0.7,0-1.4-0.2-1.4-1s0.6-0.9,1.3-0.9l15,0.1c1,0,2.1,0,3.1,0c0.7,0,1.4,0,1.4,0.9
			S26,24,25.3,24L24.8,24L24.8,24z"/>
		<path class="st0" d="M16.4,17h8.8c0.7,0,1.4,0,1.5,0.9s-0.8,0.9-1.5,0.9H7.3c-0.7,0-1.5,0-1.4-1C6,17,6.6,17,7.2,17
			C10.3,17,13.3,17,16.4,17z"/>
		<path class="st0" d="M16.2,29.1h-9c-0.7,0-1.4,0-1.4-0.9s0.7-0.9,1.4-0.9c6,0,12.1,0,18.1,0c0.5,0,0.9,0.2,1.3,0.5
			c0.5,0.6-0.1,1.2-1.2,1.2C22.4,29.2,19.3,29.1,16.2,29.1z"/>
	</g>
</g>
</svg>
