<?xml version="1.0" encoding="utf-8"?>
<!-- Generator: Adobe Illustrator 25.2.3, SVG Export Plug-In . SVG Version: 6.00 Build 0)  -->
<svg version="1.1" id="レイヤー_1" xmlns="http://www.w3.org/2000/svg" xmlns:xlink="http://www.w3.org/1999/xlink" x="0px"
	 y="0px" viewBox="0 0 45.7 45.1" style="enable-background:new 0 0 45.7 45.1;" xml:space="preserve">
<style type="text/css">
	.st0{fill:#222222;}
</style>
<g id="レイヤー_2_1_">
	<g id="レイヤー_1-2">
		<path class="st0" d="M22.8,38.2H4.1c-2.1,0.2-4-1.4-4.1-3.5c0-0.2,0-0.4,0-0.6V11.1c-0.2-2.1,1.4-4,3.6-4.2c0.2,0,0.4,0,0.6,0
			h37.4c2.1-0.1,4,1.5,4.1,3.6c0,0.2,0,0.3,0,0.5c0,4.4,0,8.8,0,13.1v9.7c0.2,2.1-1.4,4-3.5,4.2c-0.2,0-0.5,0-0.7,0L22.8,38.2z
			 M4,9.2c0.2,0.3,0.4,0.5,0.6,0.6c2.3,2.3,4.6,4.6,6.8,6.9c3,3,6.1,6,9,9.1c1.5,1.5,3.1,1.6,4.6,0.1c2.2-2.2,4.5-4.5,6.7-6.8
			c3.1-3.1,6.2-6.3,9.4-9.4c0.2-0.2,0.3-0.3,0.5-0.6L4,9.2z M15.9,24.3C11.6,28.2,7.4,31.9,3,35.8h39.5l0.1-0.2
			c-4.2-3.8-8.4-7.6-12.6-11.4c-1.2,1.2-2.3,2.3-3.4,3.4c-1.9,2-5.1,2.1-7.1,0.2c-0.1-0.1-0.1-0.1-0.2-0.2
			C18.1,26.6,17,25.5,15.9,24.3z M31.5,22.7l12,10.8V10.9L31.5,22.7z M2.3,10.9v22.6l12.1-10.9L2.3,10.9z"/>
	</g>
</g>
</svg>
