<svg xmlns="http://www.w3.org/2000/svg" viewBox="0 0 42.4 42.72"><defs><style>.cls-1{fill:#222;}</style></defs><g id="レイヤー_2" data-name="レイヤー 2"><g id="レイヤー_1-2" data-name="レイヤー 1"><path class="cls-1" d="M28,42.69c-7.57,0-15.15-.08-22.72,0C1.45,42.78-.17,40.51,0,37.07c0-.6.06-1.2.06-1.8V5c0-3.29,1.69-5,5-5,15.35,0,17,0,32.34,0a6.18,6.18,0,0,1,2.43.4,4.14,4.14,0,0,1,2.56,4.12V35.09c0,1.12,0,2.24,0,3.35a4.26,4.26,0,0,1-4.2,4.24c-1.26,0-2.53,0-3.79,0ZM2.52,11.34V34.67c0,1.15,0,2.29,0,3.43a2.05,2.05,0,0,0,2,2.17h7.81c3.86,0,7.72,0,11.59,0,5.38,0-2.94,0,2.44,0,3.47,0,6.93-.06,10.4,0,2.54,0,3.09-.39,3.24-2.91a1.13,1.13,0,0,0,0-.26q0-12.44,0-24.87v-.88ZM40,8.81V4.87c0-1.76-.69-2.44-2.45-2.44H5.18a5.86,5.86,0,0,0-1.11.06,1.67,1.67,0,0,0-1.5,1.56c-.08,1.56,0,3.14,0,4.76Z"/><path class="cls-1" d="M20.87,6.88c-4.7,0,4.3,0-.4,0a6.62,6.62,0,0,1-.77,0,1.11,1.11,0,0,1-1.1-1.19,1.13,1.13,0,0,1,1.11-1.2,5.1,5.1,0,0,1,.68,0H35.24a3.41,3.41,0,0,1,.85,0,1.12,1.12,0,0,1,.9,1.2,1.09,1.09,0,0,1-1,1.13,4.91,4.91,0,0,1-.86,0Z"/><path class="cls-1" d="M14.5,6.87c-.91,0-1.44-.44-1.43-1.21s.52-1.19,1.36-1.21,1.44.46,1.44,1.23S15.35,6.87,14.5,6.87Z"/><path class="cls-1" d="M10.62,6.87c-.85,0-1.37-.46-1.36-1.2s.54-1.23,1.43-1.22a1.22,1.22,0,0,1,1.37,1.21C12.06,6.43,11.53,6.88,10.62,6.87Z"/><path class="cls-1" d="M6.89,6.87c-.9,0-1.43-.47-1.41-1.24S6,4.46,6.88,4.45s1.42.49,1.4,1.26S7.75,6.87,6.89,6.87Z"/></g></g></svg>